<svg width="809" height="270" viewBox="0 0 809 270" fill="none" xmlns="http://www.w3.org/2000/svg">
<path fill-rule="evenodd" clip-rule="evenodd" d="M75.707 199.445C88.3894 212.688 104.697 221.894 122.588 225.911L118.245 245.254C96.5476 240.382 76.7701 229.217 61.3894 213.157C46.0086 197.097 35.7083 176.856 31.7785 154.969C27.8488 133.081 30.4642 110.521 39.2974 90.1137C48.1305 69.7061 62.7886 52.3584 81.4358 40.2432L92.2365 56.8671C76.8608 66.8568 64.7743 81.1611 57.4908 97.9884C50.2074 114.816 48.0507 133.418 51.2911 151.465C54.5314 169.513 63.0246 186.203 75.707 199.445Z" fill="#CB6F8F"/>
<path fill-rule="evenodd" clip-rule="evenodd" d="M122.558 225.905C135.342 228.78 148.589 228.926 161.434 226.334C174.279 223.741 186.432 218.469 197.101 210.86C207.769 203.252 216.713 193.479 223.348 182.179C229.983 170.88 234.16 158.308 235.606 145.284C237.052 132.261 235.735 119.079 231.741 106.599C227.747 94.1186 221.165 82.6215 212.426 72.8579C203.686 63.0944 192.986 55.2839 181.023 49.9366C169.06 44.5894 156.104 41.8255 143 41.8255V22.001C158.892 22.001 174.605 25.353 189.113 31.838C203.621 38.323 216.598 47.7952 227.197 59.6361C237.796 71.477 245.778 85.4204 250.622 100.556C255.466 115.691 257.064 131.678 255.31 147.472C253.556 163.267 248.49 178.514 240.443 192.217C232.397 205.921 221.55 217.774 208.611 227.001C195.673 236.228 180.934 242.622 165.356 245.766C149.779 248.91 133.713 248.733 118.209 245.247L122.558 225.905Z" fill="#88CEC0"/>
<path fill-rule="evenodd" clip-rule="evenodd" d="M142.966 41.8242C139.698 41.8254 136.433 41.9985 133.183 42.3428L131.094 22.6287C135.035 22.2111 138.996 22.0012 142.959 21.9998L142.966 41.8242Z" fill="#ECBB90"/>
<path fill-rule="evenodd" clip-rule="evenodd" d="M81.4711 40.2208C96.4532 30.4946 113.528 24.4588 131.294 22.6083L133.348 42.3261C118.698 43.8519 104.619 48.8289 92.2657 56.8487L81.4711 40.2208Z" fill="#9274F6"/>
<path fill-rule="evenodd" clip-rule="evenodd" d="M75.707 199.445C88.3894 212.688 104.697 221.894 122.588 225.911L118.245 245.254C96.5476 240.382 76.7701 229.217 61.3894 213.157C46.0086 197.097 35.7083 176.856 31.7785 154.969C27.8488 133.081 30.4642 110.521 39.2974 90.1137C48.1305 69.7061 62.7886 52.3584 81.4358 40.2432L92.2365 56.8671C76.8608 66.8568 64.7743 81.1611 57.4908 97.9884C50.2074 114.816 48.0507 133.418 51.2911 151.465C54.5314 169.513 63.0246 186.203 75.707 199.445Z" stroke="white" stroke-width="2.70958"/>
<path fill-rule="evenodd" clip-rule="evenodd" d="M122.558 225.905C135.342 228.78 148.589 228.926 161.434 226.334C174.279 223.741 186.432 218.469 197.101 210.86C207.769 203.252 216.713 193.479 223.348 182.179C229.983 170.88 234.16 158.308 235.606 145.284C237.052 132.261 235.735 119.079 231.741 106.599C227.747 94.1186 221.165 82.6215 212.426 72.8579C203.686 63.0944 192.986 55.2839 181.023 49.9366C169.06 44.5894 156.104 41.8255 143 41.8255V22.001C158.892 22.001 174.605 25.353 189.113 31.838C203.621 38.323 216.598 47.7952 227.197 59.6361C237.796 71.477 245.778 85.4204 250.622 100.556C255.466 115.691 257.064 131.678 255.31 147.472C253.556 163.267 248.49 178.514 240.443 192.217C232.397 205.921 221.55 217.774 208.611 227.001C195.673 236.228 180.934 242.622 165.356 245.766C149.779 248.91 133.713 248.733 118.209 245.247L122.558 225.905Z" stroke="white" stroke-width="2.70958"/>
<path fill-rule="evenodd" clip-rule="evenodd" d="M142.966 41.8242C139.698 41.8254 136.433 41.9985 133.183 42.3428L131.094 22.6287C135.035 22.2111 138.996 22.0012 142.959 21.9998L142.966 41.8242Z" stroke="white" stroke-width="2.70958"/>
<path fill-rule="evenodd" clip-rule="evenodd" d="M81.4711 40.2208C96.4532 30.4946 113.528 24.4588 131.294 22.6083L133.348 42.3261C118.698 43.8519 104.619 48.8289 92.2657 56.8487L81.4711 40.2208Z" stroke="white" stroke-width="2.70958"/>
<path d="M121.08 111.363V107.545H131.887V111.363H121.08ZM121.08 125V121.182H131.887V125H121.08ZM128.853 107.545V125H124.114V107.545H128.853ZM137.367 125.204C136.532 125.204 135.793 125.068 135.151 124.795C134.515 124.517 134.015 124.096 133.651 123.534C133.288 122.971 133.106 122.255 133.106 121.386C133.106 120.67 133.228 120.059 133.472 119.554C133.717 119.042 134.058 118.625 134.495 118.301C134.933 117.977 135.441 117.73 136.021 117.559C136.606 117.389 137.237 117.278 137.913 117.227C138.646 117.17 139.234 117.102 139.677 117.022C140.126 116.937 140.45 116.821 140.649 116.673C140.847 116.52 140.947 116.318 140.947 116.068V116.034C140.947 115.693 140.816 115.432 140.555 115.25C140.293 115.068 139.958 114.977 139.549 114.977C139.1 114.977 138.734 115.076 138.45 115.275C138.171 115.469 138.004 115.767 137.947 116.17H133.617C133.674 115.375 133.927 114.642 134.376 113.971C134.83 113.295 135.492 112.755 136.362 112.352C137.231 111.943 138.316 111.738 139.617 111.738C140.555 111.738 141.396 111.849 142.14 112.071C142.884 112.287 143.518 112.591 144.041 112.983C144.563 113.369 144.961 113.824 145.234 114.346C145.512 114.863 145.651 115.426 145.651 116.034V125H141.254V123.159H141.151C140.89 123.647 140.572 124.042 140.197 124.344C139.828 124.645 139.404 124.863 138.927 125C138.455 125.136 137.936 125.204 137.367 125.204ZM138.901 122.238C139.259 122.238 139.595 122.165 139.907 122.017C140.225 121.869 140.484 121.656 140.683 121.378C140.882 121.099 140.981 120.761 140.981 120.363V119.272C140.856 119.324 140.722 119.372 140.58 119.417C140.444 119.463 140.296 119.505 140.137 119.545C139.984 119.585 139.819 119.622 139.643 119.656C139.472 119.69 139.293 119.721 139.106 119.75C138.742 119.807 138.444 119.9 138.211 120.031C137.984 120.156 137.813 120.312 137.7 120.5C137.592 120.682 137.538 120.886 137.538 121.113C137.538 121.477 137.666 121.755 137.921 121.949C138.177 122.142 138.504 122.238 138.901 122.238ZM164.127 114.091H159.32C159.286 113.693 159.195 113.332 159.047 113.008C158.905 112.684 158.706 112.406 158.45 112.173C158.2 111.934 157.896 111.753 157.538 111.628C157.181 111.497 156.774 111.432 156.32 111.432C155.524 111.432 154.851 111.625 154.3 112.011C153.754 112.397 153.34 112.951 153.056 113.673C152.777 114.395 152.638 115.261 152.638 116.272C152.638 117.341 152.78 118.236 153.064 118.957C153.354 119.673 153.771 120.213 154.317 120.576C154.862 120.934 155.519 121.113 156.286 121.113C156.723 121.113 157.115 121.059 157.462 120.951C157.808 120.838 158.11 120.676 158.365 120.466C158.621 120.255 158.828 120.003 158.987 119.707C159.152 119.406 159.263 119.068 159.32 118.693L164.127 118.727C164.07 119.466 163.862 120.219 163.504 120.986C163.146 121.747 162.638 122.451 161.979 123.099C161.325 123.741 160.516 124.258 159.55 124.65C158.584 125.042 157.462 125.238 156.183 125.238C154.581 125.238 153.144 124.895 151.871 124.207C150.604 123.52 149.601 122.508 148.862 121.173C148.129 119.838 147.763 118.204 147.763 116.272C147.763 114.329 148.138 112.693 148.888 111.363C149.638 110.028 150.649 109.02 151.922 108.338C153.195 107.65 154.615 107.307 156.183 107.307C157.286 107.307 158.3 107.457 159.226 107.758C160.152 108.059 160.965 108.5 161.663 109.079C162.362 109.653 162.925 110.361 163.351 111.201C163.777 112.042 164.036 113.005 164.127 114.091ZM102.24 143.091H97.433C97.3989 142.693 97.308 142.332 97.1603 142.008C97.0182 141.684 96.8194 141.406 96.5637 141.173C96.3137 140.934 96.0097 140.753 95.6518 140.628C95.2938 140.497 94.8876 140.432 94.433 140.432C93.6376 140.432 92.9643 140.625 92.4131 141.011C91.8677 141.397 91.4529 141.951 91.1688 142.673C90.8904 143.395 90.7512 144.261 90.7512 145.272C90.7512 146.341 90.8932 147.236 91.1773 147.957C91.4671 148.673 91.8847 149.213 92.4302 149.576C92.9756 149.934 93.6319 150.113 94.3989 150.113C94.8364 150.113 95.2285 150.059 95.5751 149.951C95.9217 149.838 96.2228 149.676 96.4785 149.466C96.7342 149.255 96.9415 149.003 97.1006 148.707C97.2654 148.406 97.3762 148.068 97.433 147.693L102.24 147.727C102.183 148.466 101.976 149.219 101.618 149.986C101.26 150.747 100.751 151.451 100.092 152.099C99.4387 152.741 98.629 153.258 97.6631 153.65C96.6972 154.042 95.5751 154.238 94.2967 154.238C92.6944 154.238 91.2569 153.895 89.9842 153.207C88.7171 152.52 87.7143 151.508 86.9756 150.173C86.2427 148.838 85.8762 147.204 85.8762 145.272C85.8762 143.329 86.2512 141.693 87.0012 140.363C87.7512 139.028 88.7626 138.02 90.0353 137.338C91.308 136.65 92.7285 136.307 94.2967 136.307C95.3989 136.307 96.4131 136.457 97.3393 136.758C98.2654 137.059 99.0779 137.5 99.7768 138.079C100.476 138.653 101.038 139.361 101.464 140.201C101.89 141.042 102.149 142.005 102.24 143.091ZM110.765 154.238C109.344 154.238 108.128 153.957 107.117 153.395C106.106 152.826 105.33 152.037 104.79 151.025C104.25 150.008 103.981 148.829 103.981 147.488C103.981 146.147 104.25 144.971 104.79 143.96C105.33 142.943 106.106 142.153 107.117 141.591C108.128 141.022 109.344 140.738 110.765 140.738C112.185 140.738 113.401 141.022 114.412 141.591C115.424 142.153 116.199 142.943 116.739 143.96C117.279 144.971 117.549 146.147 117.549 147.488C117.549 148.829 117.279 150.008 116.739 151.025C116.199 152.037 115.424 152.826 114.412 153.395C113.401 153.957 112.185 154.238 110.765 154.238ZM110.799 150.761C111.197 150.761 111.54 150.628 111.83 150.361C112.12 150.094 112.344 149.713 112.503 149.219C112.662 148.724 112.742 148.136 112.742 147.454C112.742 146.767 112.662 146.179 112.503 145.69C112.344 145.196 112.12 144.815 111.83 144.548C111.54 144.281 111.197 144.147 110.799 144.147C110.378 144.147 110.018 144.281 109.716 144.548C109.415 144.815 109.185 145.196 109.026 145.69C108.867 146.179 108.787 146.767 108.787 147.454C108.787 148.136 108.867 148.724 109.026 149.219C109.185 149.713 109.415 150.094 109.716 150.361C110.018 150.628 110.378 150.761 110.799 150.761ZM132.253 140.909L127.855 154H122.4L118.003 140.909H122.946L125.059 149.568H125.196L127.309 140.909H132.253ZM139.465 154.238C138.067 154.238 136.863 153.971 135.851 153.437C134.846 152.897 134.07 152.125 133.525 151.119C132.985 150.108 132.715 148.897 132.715 147.488C132.715 146.136 132.988 144.954 133.533 143.943C134.079 142.932 134.849 142.145 135.843 141.582C136.837 141.02 138.01 140.738 139.363 140.738C140.351 140.738 141.246 140.892 142.047 141.199C142.849 141.505 143.533 141.951 144.101 142.537C144.67 143.116 145.107 143.821 145.414 144.65C145.721 145.48 145.874 146.415 145.874 147.454V148.545H134.181V145.954H141.545C141.539 145.579 141.442 145.25 141.255 144.966C141.073 144.676 140.826 144.451 140.513 144.292C140.206 144.128 139.857 144.045 139.465 144.045C139.084 144.045 138.735 144.128 138.417 144.292C138.099 144.451 137.843 144.673 137.65 144.957C137.462 145.241 137.363 145.574 137.351 145.954V148.75C137.351 149.17 137.439 149.545 137.616 149.875C137.792 150.204 138.045 150.463 138.374 150.65C138.704 150.838 139.101 150.932 139.567 150.932C139.891 150.932 140.187 150.886 140.454 150.795C140.726 150.704 140.959 150.574 141.152 150.403C141.346 150.227 141.488 150.017 141.579 149.772H145.874C145.726 150.682 145.377 151.471 144.826 152.142C144.275 152.807 143.545 153.324 142.635 153.693C141.732 154.057 140.675 154.238 139.465 154.238ZM147.794 154V140.909H152.362V143.397H152.498C152.737 142.477 153.115 141.804 153.632 141.378C154.155 140.951 154.765 140.738 155.464 140.738C155.669 140.738 155.871 140.755 156.069 140.79C156.274 140.818 156.47 140.861 156.657 140.917V144.932C156.424 144.852 156.138 144.792 155.797 144.753C155.456 144.713 155.163 144.693 154.919 144.693C154.459 144.693 154.044 144.798 153.674 145.008C153.311 145.213 153.024 145.503 152.814 145.878C152.603 146.247 152.498 146.682 152.498 147.182V154H147.794ZM161.238 154.204C160.403 154.204 159.665 154.068 159.023 153.795C158.386 153.517 157.886 153.096 157.523 152.534C157.159 151.971 156.977 151.255 156.977 150.386C156.977 149.67 157.099 149.059 157.344 148.554C157.588 148.042 157.929 147.625 158.366 147.301C158.804 146.977 159.312 146.73 159.892 146.559C160.477 146.389 161.108 146.278 161.784 146.227C162.517 146.17 163.105 146.102 163.548 146.022C163.997 145.937 164.321 145.821 164.52 145.673C164.719 145.52 164.818 145.318 164.818 145.068V145.034C164.818 144.693 164.687 144.432 164.426 144.25C164.165 144.068 163.829 143.977 163.42 143.977C162.971 143.977 162.605 144.076 162.321 144.275C162.042 144.469 161.875 144.767 161.818 145.17H157.488C157.545 144.375 157.798 143.642 158.247 142.971C158.701 142.295 159.363 141.755 160.233 141.352C161.102 140.943 162.187 140.738 163.488 140.738C164.426 140.738 165.267 140.849 166.011 141.071C166.755 141.287 167.389 141.591 167.912 141.983C168.434 142.369 168.832 142.824 169.105 143.346C169.383 143.863 169.523 144.426 169.523 145.034V154H165.125V152.159H165.023C164.761 152.647 164.443 153.042 164.068 153.344C163.699 153.645 163.275 153.863 162.798 154C162.326 154.136 161.807 154.204 161.238 154.204ZM162.773 151.238C163.13 151.238 163.466 151.165 163.778 151.017C164.096 150.869 164.355 150.656 164.554 150.378C164.753 150.099 164.852 149.761 164.852 149.363V148.272C164.727 148.324 164.594 148.372 164.451 148.417C164.315 148.463 164.167 148.505 164.008 148.545C163.855 148.585 163.69 148.622 163.514 148.656C163.344 148.69 163.165 148.721 162.977 148.75C162.613 148.807 162.315 148.9 162.082 149.031C161.855 149.156 161.684 149.312 161.571 149.5C161.463 149.682 161.409 149.886 161.409 150.113C161.409 150.477 161.537 150.755 161.792 150.949C162.048 151.142 162.375 151.238 162.773 151.238ZM178.077 159.182C176.765 159.182 175.64 158.994 174.702 158.619C173.77 158.25 173.046 157.738 172.529 157.085C172.018 156.437 171.731 155.693 171.668 154.852H176.202C176.248 155.13 176.361 155.355 176.543 155.525C176.725 155.696 176.958 155.818 177.242 155.892C177.532 155.971 177.856 156.011 178.214 156.011C178.822 156.011 179.324 155.863 179.722 155.568C180.125 155.272 180.327 154.738 180.327 153.966V151.75H180.191C180.02 152.193 179.759 152.571 179.407 152.883C179.054 153.19 178.631 153.426 178.137 153.591C177.643 153.75 177.1 153.829 176.509 153.829C175.577 153.829 174.719 153.613 173.935 153.182C173.157 152.75 172.532 152.065 172.06 151.128C171.594 150.19 171.361 148.966 171.361 147.454C171.361 145.875 171.606 144.591 172.094 143.602C172.589 142.613 173.225 141.889 174.003 141.429C174.787 140.969 175.611 140.738 176.475 140.738C177.123 140.738 177.691 140.852 178.179 141.079C178.668 141.301 179.077 141.599 179.407 141.974C179.736 142.344 179.986 142.75 180.157 143.193H180.259V140.909H184.964V153.966C184.964 155.074 184.677 156.014 184.103 156.787C183.535 157.565 182.733 158.159 181.699 158.568C180.665 158.977 179.458 159.182 178.077 159.182ZM178.248 150.488C178.679 150.488 179.049 150.369 179.356 150.13C179.668 149.886 179.907 149.54 180.072 149.091C180.242 148.636 180.327 148.091 180.327 147.454C180.327 146.807 180.242 146.253 180.072 145.792C179.907 145.326 179.668 144.971 179.356 144.727C179.049 144.477 178.679 144.352 178.248 144.352C177.816 144.352 177.447 144.477 177.14 144.727C176.839 144.971 176.606 145.326 176.441 145.792C176.282 146.253 176.202 146.807 176.202 147.454C176.202 148.102 176.282 148.653 176.441 149.108C176.606 149.557 176.839 149.9 177.14 150.139C177.447 150.372 177.816 150.488 178.248 150.488ZM193.629 154.238C192.231 154.238 191.027 153.971 190.015 153.437C189.01 152.897 188.234 152.125 187.689 151.119C187.149 150.108 186.879 148.897 186.879 147.488C186.879 146.136 187.152 144.954 187.697 143.943C188.243 142.932 189.013 142.145 190.007 141.582C191.001 141.02 192.174 140.738 193.527 140.738C194.515 140.738 195.41 140.892 196.211 141.199C197.013 141.505 197.697 141.951 198.265 142.537C198.834 143.116 199.271 143.821 199.578 144.65C199.885 145.48 200.038 146.415 200.038 147.454V148.545H188.345V145.954H195.709C195.703 145.579 195.606 145.25 195.419 144.966C195.237 144.676 194.99 144.451 194.677 144.292C194.371 144.128 194.021 144.045 193.629 144.045C193.248 144.045 192.899 144.128 192.581 144.292C192.263 144.451 192.007 144.673 191.814 144.957C191.626 145.241 191.527 145.574 191.515 145.954V148.75C191.515 149.17 191.603 149.545 191.78 149.875C191.956 150.204 192.209 150.463 192.538 150.65C192.868 150.838 193.265 150.932 193.731 150.932C194.055 150.932 194.351 150.886 194.618 150.795C194.89 150.704 195.123 150.574 195.317 150.403C195.51 150.227 195.652 150.017 195.743 149.772H200.038C199.89 150.682 199.541 151.471 198.99 152.142C198.439 152.807 197.709 153.324 196.799 153.693C195.896 154.057 194.839 154.238 193.629 154.238Z" fill="#303048"/>
<rect x="0.5" y="1.32275" width="808" height="268" rx="11.5" stroke="#B9A4FF"/>
<circle cx="354.152" cy="95.1515" r="25.1517" fill="#E6F5F2"/>
<g clip-path="url(#clip0_725_5833)">
<path d="M352.998 102.323L351.286 101.827C351.106 101.776 351.005 101.588 351.056 101.408L354.887 88.2092C354.938 88.0295 355.126 87.9285 355.306 87.979L357.018 88.4759C357.198 88.5264 357.299 88.7145 357.248 88.8941L353.416 102.093C353.363 102.273 353.178 102.377 352.998 102.323ZM349.798 99.1738L351.019 97.8713C351.148 97.7337 351.14 97.5148 350.997 97.3885L348.453 95.1512L350.997 92.9139C351.14 92.7876 351.151 92.5686 351.019 92.4311L349.798 91.1286C349.672 90.9939 349.458 90.9854 349.321 91.1146L345.276 94.9042C345.133 95.0361 345.133 95.2635 345.276 95.3954L349.321 99.1878C349.458 99.3169 349.672 99.3113 349.798 99.1738ZM358.983 99.1906L363.028 95.3982C363.171 95.2663 363.171 95.0389 363.028 94.907L358.983 91.1118C358.848 90.9854 358.635 90.991 358.506 91.1258L357.285 92.4283C357.155 92.5658 357.164 92.7848 357.307 92.9111L359.85 95.1512L357.307 97.3885C357.164 97.5148 357.153 97.7337 357.285 97.8713L358.506 99.1738C358.632 99.3113 358.845 99.3169 358.983 99.1906Z" fill="#88CEC0"/>
</g>
<path d="M400.824 100.291C400.042 100.291 399.348 100.153 398.741 99.8781C398.138 99.5997 397.662 99.2168 397.314 98.7296C396.97 98.2424 396.794 97.6823 396.787 97.0492H399.472C399.482 97.4006 399.618 97.6806 399.88 97.8894C400.145 98.0982 400.46 98.2026 400.824 98.2026C401.106 98.2026 401.354 98.143 401.57 98.0237C401.785 97.901 401.954 97.7287 402.077 97.5066C402.2 97.2846 402.259 97.026 402.256 96.7311C402.259 96.4328 402.2 96.1742 402.077 95.9555C401.954 95.7334 401.785 95.5627 401.57 95.4434C401.354 95.3208 401.106 95.2595 400.824 95.2595C400.532 95.2595 400.262 95.3307 400.014 95.4732C399.769 95.6124 399.588 95.8063 399.472 96.0549L397.046 95.5776L397.443 89.9697H404.284V92.1771H399.711L399.512 94.4242H399.571C399.73 94.116 400.006 93.8608 400.397 93.6586C400.788 93.4531 401.242 93.3504 401.759 93.3504C402.365 93.3504 402.906 93.4912 403.38 93.773C403.857 94.0547 404.233 94.4441 404.508 94.9413C404.787 95.4351 404.924 96.0052 404.921 96.6515C404.924 97.3608 404.755 97.9905 404.414 98.5407C404.076 99.0876 403.6 99.5168 402.987 99.8284C402.374 100.137 401.653 100.291 400.824 100.291ZM410.399 100.291C409.617 100.291 408.923 100.153 408.316 99.8781C407.713 99.5997 407.237 99.2168 406.889 98.7296C406.545 98.2424 406.369 97.6823 406.362 97.0492H409.047C409.057 97.4006 409.193 97.6806 409.455 97.8894C409.72 98.0982 410.035 98.2026 410.399 98.2026C410.681 98.2026 410.93 98.143 411.145 98.0237C411.361 97.901 411.53 97.7287 411.652 97.5066C411.775 97.2846 411.835 97.026 411.831 96.7311C411.835 96.4328 411.775 96.1742 411.652 95.9555C411.53 95.7334 411.361 95.5627 411.145 95.4434C410.93 95.3208 410.681 95.2595 410.399 95.2595C410.108 95.2595 409.838 95.3307 409.589 95.4732C409.344 95.6124 409.163 95.8063 409.047 96.0549L406.621 95.5776L407.019 89.9697H413.86V92.1771H409.286L409.087 94.4242H409.147C409.306 94.116 409.581 93.8608 409.972 93.6586C410.363 93.4531 410.817 93.3504 411.334 93.3504C411.941 93.3504 412.481 93.4912 412.955 93.773C413.432 94.0547 413.808 94.4441 414.083 94.9413C414.362 95.4351 414.499 96.0052 414.496 96.6515C414.499 97.3608 414.33 97.9905 413.989 98.5407C413.651 99.0876 413.175 99.5168 412.562 99.8284C411.949 100.137 411.228 100.291 410.399 100.291ZM421.725 98.2424V97.7055C421.725 97.2746 421.817 96.8769 422.003 96.5123C422.192 96.1477 422.465 95.8544 422.823 95.6323C423.181 95.4103 423.617 95.2992 424.131 95.2992C424.658 95.2992 425.1 95.4086 425.458 95.6274C425.82 95.8461 426.093 96.1378 426.279 96.5024C426.464 96.8669 426.557 97.268 426.557 97.7055V98.2424C426.557 98.6733 426.463 99.071 426.274 99.4356C426.088 99.8002 425.815 100.094 425.453 100.316C425.092 100.538 424.651 100.649 424.131 100.649C423.611 100.649 423.171 100.538 422.813 100.316C422.455 100.094 422.184 99.8002 421.998 99.4356C421.816 99.071 421.725 98.6733 421.725 98.2424ZM423.455 97.7055V98.2424C423.455 98.4313 423.501 98.6186 423.594 98.8042C423.69 98.9865 423.869 99.0776 424.131 99.0776C424.406 99.0776 424.587 98.9882 424.673 98.8092C424.762 98.6302 424.807 98.4413 424.807 98.2424V97.7055C424.807 97.5066 424.766 97.3144 424.683 97.1288C424.6 96.9432 424.416 96.8504 424.131 96.8504C423.869 96.8504 423.69 96.9432 423.594 97.1288C423.501 97.3144 423.455 97.5066 423.455 97.7055ZM416.395 92.4157V91.8788C416.395 91.4413 416.49 91.0402 416.678 90.6757C416.871 90.3111 417.146 90.0194 417.504 89.8007C417.862 89.5819 418.294 89.4725 418.801 89.4725C419.328 89.4725 419.771 89.5819 420.129 89.8007C420.49 90.0194 420.763 90.3111 420.949 90.6757C421.135 91.0402 421.227 91.4413 421.227 91.8788V92.4157C421.227 92.8532 421.133 93.2526 420.944 93.6139C420.758 93.9751 420.485 94.2635 420.124 94.4789C419.763 94.6944 419.322 94.8021 418.801 94.8021C418.281 94.8021 417.842 94.6927 417.484 94.4739C417.126 94.2552 416.854 93.9652 416.669 93.6039C416.486 93.2427 416.395 92.8466 416.395 92.4157ZM418.145 91.8788V92.4157C418.145 92.6146 418.191 92.8035 418.284 92.9825C418.377 93.1614 418.549 93.2509 418.801 93.2509C419.076 93.2509 419.257 93.1614 419.343 92.9825C419.433 92.8035 419.477 92.6146 419.477 92.4157V91.8788C419.477 91.6799 419.436 91.4877 419.353 91.3021C419.27 91.1165 419.086 91.0237 418.801 91.0237C418.539 91.0237 418.364 91.1198 418.274 91.312C418.188 91.5009 418.145 91.6899 418.145 91.8788ZM417.24 100.152L424.24 89.9697H425.652L418.652 100.152H417.24ZM441.062 93.7879H438.258C438.238 93.5559 438.185 93.3454 438.098 93.1565C438.016 92.9676 437.9 92.8052 437.75 92.6693C437.605 92.5301 437.427 92.424 437.218 92.3511C437.01 92.2748 436.773 92.2367 436.508 92.2367C436.044 92.2367 435.651 92.3494 435.329 92.5748C435.011 92.8002 434.769 93.1233 434.603 93.5443C434.441 93.9652 434.36 94.4706 434.36 95.0606C434.36 95.6837 434.443 96.2057 434.608 96.6266C434.777 97.0443 435.021 97.3591 435.339 97.5712C435.657 97.7801 436.04 97.8845 436.488 97.8845C436.743 97.8845 436.972 97.853 437.174 97.79C437.376 97.7237 437.552 97.6293 437.701 97.5066C437.85 97.384 437.971 97.2365 438.064 97.0641C438.16 96.8885 438.224 96.6913 438.258 96.4725L441.062 96.4924C441.028 96.9233 440.907 97.3624 440.699 97.8099C440.49 98.254 440.193 98.665 439.809 99.0428C439.428 99.4174 438.955 99.719 438.392 99.9477C437.828 100.176 437.174 100.291 436.428 100.291C435.493 100.291 434.655 100.09 433.912 99.6891C433.173 99.2881 432.588 98.6981 432.157 97.9193C431.73 97.1404 431.516 96.1875 431.516 95.0606C431.516 93.9271 431.735 92.9725 432.172 92.197C432.61 91.4181 433.2 90.8298 433.942 90.432C434.685 90.031 435.513 89.8305 436.428 89.8305C437.071 89.8305 437.663 89.9183 438.203 90.094C438.743 90.2696 439.217 90.5265 439.625 90.8646C440.032 91.1993 440.361 91.612 440.609 92.1025C440.858 92.593 441.008 93.1548 441.062 93.7879ZM446.244 100.291C445.416 100.291 444.706 100.127 444.117 99.7985C443.527 99.4671 443.074 99.0064 442.759 98.4164C442.444 97.8231 442.287 97.1354 442.287 96.3532C442.287 95.571 442.444 94.8849 442.759 94.295C443.074 93.7017 443.527 93.241 444.117 92.9129C444.706 92.5814 445.416 92.4157 446.244 92.4157C447.073 92.4157 447.782 92.5814 448.372 92.9129C448.962 93.241 449.415 93.7017 449.729 94.295C450.044 94.8849 450.202 95.571 450.202 96.3532C450.202 97.1354 450.044 97.8231 449.729 98.4164C449.415 99.0064 448.962 99.4671 448.372 99.7985C447.782 100.127 447.073 100.291 446.244 100.291ZM446.264 98.2623C446.496 98.2623 446.697 98.1844 446.866 98.0286C447.035 97.8729 447.166 97.6508 447.259 97.3624C447.351 97.0741 447.398 96.7311 447.398 96.3333C447.398 95.9323 447.351 95.5892 447.259 95.3042C447.166 95.0159 447.035 94.7938 446.866 94.638C446.697 94.4822 446.496 94.4043 446.264 94.4043C446.019 94.4043 445.809 94.4822 445.633 94.638C445.457 94.7938 445.323 95.0159 445.23 95.3042C445.137 95.5892 445.091 95.9323 445.091 96.3333C445.091 96.7311 445.137 97.0741 445.23 97.3624C445.323 97.6508 445.457 97.8729 445.633 98.0286C445.809 98.1844 446.019 98.2623 446.264 98.2623ZM454.29 100.251C453.746 100.251 453.246 100.108 452.788 99.8234C452.334 99.5383 451.97 99.1058 451.694 98.5258C451.423 97.9458 451.287 97.215 451.287 96.3333C451.287 95.4119 451.429 94.6629 451.714 94.0862C452.003 93.5095 452.374 93.0869 452.828 92.8184C453.285 92.5499 453.766 92.4157 454.27 92.4157C454.648 92.4157 454.979 92.482 455.264 92.6146C455.549 92.7438 455.788 92.9178 455.98 93.1366C456.172 93.352 456.318 93.589 456.417 93.8475H456.457V89.9697H459.202V100.152H456.477V98.8987H456.417C456.311 99.1572 456.159 99.3892 455.96 99.5947C455.764 99.7969 455.526 99.9576 455.244 100.077C454.966 100.193 454.648 100.251 454.29 100.251ZM455.304 98.143C455.556 98.143 455.771 98.0701 455.95 97.9242C456.132 97.7751 456.272 97.5663 456.368 97.2978C456.467 97.026 456.517 96.7045 456.517 96.3333C456.517 95.9555 456.467 95.6323 456.368 95.3639C456.272 95.0921 456.132 94.8849 455.95 94.7424C455.771 94.5966 455.556 94.5237 455.304 94.5237C455.052 94.5237 454.836 94.5966 454.657 94.7424C454.482 94.8849 454.346 95.0921 454.25 95.3639C454.157 95.6323 454.111 95.9555 454.111 96.3333C454.111 96.7112 454.157 97.036 454.25 97.3078C454.346 97.5762 454.482 97.7834 454.657 97.9292C454.836 98.0717 455.052 98.143 455.304 98.143ZM460.759 100.152V92.5151H463.503V100.152H460.759ZM462.131 91.7197C461.76 91.7197 461.442 91.5971 461.176 91.3518C460.911 91.1065 460.779 90.8115 460.779 90.4668C460.779 90.1221 460.911 89.8272 461.176 89.5819C461.442 89.3366 461.76 89.214 462.131 89.214C462.506 89.214 462.824 89.3366 463.086 89.5819C463.351 89.8272 463.483 90.1221 463.483 90.4668C463.483 90.8115 463.351 91.1065 463.086 91.3518C462.824 91.5971 462.506 91.7197 462.131 91.7197ZM469.685 92.5151V94.5038H464.574V92.5151H469.685ZM465.549 100.152V92.2964C465.549 91.6667 465.662 91.1446 465.887 90.7303C466.112 90.316 466.431 90.0061 466.842 89.8007C467.252 89.5952 467.736 89.4924 468.293 89.4924C468.641 89.4924 468.979 89.5189 469.307 89.572C469.639 89.625 469.884 89.6714 470.043 89.7112L469.645 91.6799C469.546 91.6501 469.43 91.6269 469.297 91.6103C469.165 91.5904 469.049 91.5805 468.949 91.5805C468.691 91.5805 468.517 91.6352 468.427 91.7445C468.338 91.8539 468.293 91.9981 468.293 92.1771V100.152H465.549ZM470.954 100.152V92.5151H473.699V100.152H470.954ZM472.326 91.7197C471.955 91.7197 471.637 91.5971 471.372 91.3518C471.107 91.1065 470.974 90.8115 470.974 90.4668C470.974 90.1221 471.107 89.8272 471.372 89.5819C471.637 89.3366 471.955 89.214 472.326 89.214C472.701 89.214 473.019 89.3366 473.281 89.5819C473.546 89.8272 473.679 90.1221 473.679 90.4668C473.679 90.8115 473.546 91.1065 473.281 91.3518C473.019 91.5971 472.701 91.7197 472.326 91.7197ZM478.966 100.291C478.151 100.291 477.448 100.135 476.858 99.8234C476.271 99.5085 475.819 99.0578 475.501 98.4711C475.186 97.8811 475.028 97.1752 475.028 96.3532C475.028 95.5644 475.187 94.875 475.506 94.285C475.824 93.6951 476.273 93.236 476.853 92.9079C477.433 92.5798 478.117 92.4157 478.906 92.4157C479.483 92.4157 480.005 92.5052 480.472 92.6842C480.94 92.8632 481.339 93.1233 481.67 93.4647C482.002 93.8028 482.257 94.2138 482.436 94.6977C482.615 95.1816 482.705 95.7268 482.705 96.3333V96.9697H475.883V95.4583H480.179C480.176 95.2396 480.119 95.0473 480.01 94.8816C479.904 94.7126 479.76 94.5817 479.577 94.4889C479.398 94.3927 479.195 94.3447 478.966 94.3447C478.744 94.3447 478.54 94.3927 478.354 94.4889C478.169 94.5817 478.02 94.7109 477.907 94.8766C477.798 95.0424 477.74 95.2363 477.733 95.4583V97.089C477.733 97.3343 477.784 97.553 477.887 97.7453C477.99 97.9375 478.137 98.0883 478.33 98.1977C478.522 98.307 478.754 98.3617 479.026 98.3617C479.214 98.3617 479.387 98.3352 479.543 98.2822C479.702 98.2292 479.838 98.1529 479.95 98.0535C480.063 97.9507 480.146 97.8281 480.199 97.6856H482.705C482.618 98.2159 482.415 98.6766 482.093 99.0677C481.772 99.4555 481.346 99.7571 480.815 99.9725C480.288 100.185 479.672 100.291 478.966 100.291ZM486.799 100.251C486.255 100.251 485.755 100.108 485.297 99.8234C484.843 99.5383 484.478 99.1058 484.203 98.5258C483.932 97.9458 483.796 97.215 483.796 96.3333C483.796 95.4119 483.938 94.6629 484.223 94.0862C484.512 93.5095 484.883 93.0869 485.337 92.8184C485.794 92.5499 486.275 92.4157 486.779 92.4157C487.157 92.4157 487.488 92.482 487.773 92.6146C488.058 92.7438 488.297 92.9178 488.489 93.1366C488.681 93.352 488.827 93.589 488.926 93.8475H488.966V89.9697H491.71V100.152H488.986V98.8987H488.926C488.82 99.1572 488.668 99.3892 488.469 99.5947C488.273 99.7969 488.035 99.9576 487.753 100.077C487.475 100.193 487.157 100.251 486.799 100.251ZM487.813 98.143C488.065 98.143 488.28 98.0701 488.459 97.9242C488.641 97.7751 488.781 97.5663 488.877 97.2978C488.976 97.026 489.026 96.7045 489.026 96.3333C489.026 95.9555 488.976 95.6323 488.877 95.3639C488.781 95.0921 488.641 94.8849 488.459 94.7424C488.28 94.5966 488.065 94.5237 487.813 94.5237C487.561 94.5237 487.345 94.5966 487.166 94.7424C486.991 94.8849 486.855 95.0921 486.759 95.3639C486.666 95.6323 486.62 95.9555 486.62 96.3333C486.62 96.7112 486.666 97.036 486.759 97.3078C486.855 97.5762 486.991 97.7834 487.166 97.9292C487.345 98.0717 487.561 98.143 487.813 98.143Z" fill="#88CEC0"/>
<circle cx="354.152" cy="175.455" r="25.1517" fill="#F4E1E7"/>
<g clip-path="url(#clip1_725_5833)">
<path d="M362.854 175.455C362.854 180.262 358.957 184.157 354.152 184.157C349.346 184.157 345.449 180.262 345.449 175.455C345.449 170.651 349.346 166.753 354.152 166.753C358.957 166.753 362.854 170.651 362.854 175.455ZM354.152 177.21C353.26 177.21 352.537 177.932 352.537 178.824C352.537 179.715 353.26 180.438 354.152 180.438C355.043 180.438 355.766 179.715 355.766 178.824C355.766 177.932 355.043 177.21 354.152 177.21ZM352.619 171.408L352.879 176.18C352.892 176.403 353.076 176.578 353.3 176.578H355.003C355.227 176.578 355.412 176.403 355.424 176.18L355.684 171.408C355.697 171.167 355.505 170.964 355.264 170.964H353.04C352.798 170.964 352.606 171.167 352.619 171.408Z" fill="#CB6F8F"/>
</g>
<path d="M400.725 180.594C399.923 180.594 399.21 180.457 398.587 180.182C397.967 179.903 397.48 179.52 397.125 179.033C396.771 178.546 396.592 177.986 396.588 177.353H399.372C399.376 177.548 399.435 177.724 399.551 177.88C399.671 178.032 399.833 178.151 400.039 178.238C400.244 178.324 400.479 178.367 400.745 178.367C401 178.367 401.225 178.322 401.421 178.233C401.616 178.14 401.769 178.012 401.878 177.85C401.988 177.687 402.041 177.502 402.037 177.293C402.041 177.088 401.978 176.905 401.848 176.746C401.722 176.587 401.545 176.463 401.316 176.373C401.088 176.284 400.824 176.239 400.526 176.239H399.492V174.33H400.526C400.801 174.33 401.043 174.285 401.252 174.196C401.464 174.106 401.628 173.982 401.744 173.823C401.863 173.664 401.921 173.482 401.918 173.276C401.921 173.077 401.873 172.901 401.774 172.749C401.674 172.597 401.535 172.477 401.356 172.391C401.18 172.305 400.977 172.262 400.745 172.262C400.493 172.262 400.267 172.307 400.068 172.396C399.873 172.486 399.719 172.61 399.606 172.769C399.493 172.928 399.435 173.11 399.432 173.316H396.787C396.791 172.693 396.961 172.143 397.299 171.665C397.641 171.188 398.108 170.813 398.701 170.542C399.295 170.27 399.976 170.134 400.745 170.134C401.497 170.134 402.162 170.262 402.738 170.517C403.318 170.772 403.771 171.123 404.095 171.571C404.424 172.015 404.586 172.524 404.583 173.097C404.589 173.667 404.394 174.134 403.996 174.499C403.602 174.864 403.101 175.079 402.495 175.145V175.225C403.317 175.314 403.935 175.566 404.349 175.981C404.763 176.392 404.967 176.909 404.961 177.532C404.964 178.128 404.785 178.657 404.424 179.118C404.066 179.578 403.567 179.94 402.927 180.201C402.291 180.463 401.557 180.594 400.725 180.594ZM410.481 180.594C409.699 180.594 409.005 180.457 408.398 180.182C407.795 179.903 407.319 179.52 406.971 179.033C406.627 178.546 406.451 177.986 406.444 177.353H409.129C409.139 177.704 409.275 177.984 409.537 178.193C409.802 178.402 410.117 178.506 410.481 178.506C410.763 178.506 411.012 178.446 411.227 178.327C411.443 178.205 411.612 178.032 411.734 177.81C411.857 177.588 411.917 177.33 411.913 177.035C411.917 176.736 411.857 176.478 411.734 176.259C411.612 176.037 411.443 175.866 411.227 175.747C411.012 175.624 410.763 175.563 410.481 175.563C410.19 175.563 409.92 175.634 409.671 175.777C409.426 175.916 409.245 176.11 409.129 176.358L406.703 175.881L407.101 170.273H413.942V172.481H409.368L409.169 174.728H409.229C409.388 174.419 409.663 174.164 410.054 173.962C410.445 173.757 410.899 173.654 411.416 173.654C412.023 173.654 412.563 173.795 413.037 174.076C413.514 174.358 413.89 174.748 414.165 175.245C414.444 175.739 414.581 176.309 414.578 176.955C414.581 177.664 414.412 178.294 414.071 178.844C413.733 179.391 413.257 179.82 412.644 180.132C412.031 180.44 411.31 180.594 410.481 180.594ZM421.807 178.546V178.009C421.807 177.578 421.899 177.18 422.085 176.816C422.274 176.451 422.547 176.158 422.905 175.936C423.263 175.714 423.699 175.603 424.213 175.603C424.74 175.603 425.182 175.712 425.54 175.931C425.902 176.15 426.175 176.441 426.361 176.806C426.546 177.17 426.639 177.571 426.639 178.009V178.546C426.639 178.977 426.545 179.375 426.356 179.739C426.17 180.104 425.897 180.397 425.535 180.619C425.174 180.841 424.733 180.952 424.213 180.952C423.693 180.952 423.253 180.841 422.895 180.619C422.537 180.397 422.266 180.104 422.08 179.739C421.898 179.375 421.807 178.977 421.807 178.546ZM423.537 178.009V178.546C423.537 178.735 423.583 178.922 423.676 179.108C423.772 179.29 423.951 179.381 424.213 179.381C424.488 179.381 424.669 179.292 424.755 179.113C424.844 178.934 424.889 178.745 424.889 178.546V178.009C424.889 177.81 424.848 177.618 424.765 177.432C424.682 177.247 424.498 177.154 424.213 177.154C423.951 177.154 423.772 177.247 423.676 177.432C423.583 177.618 423.537 177.81 423.537 178.009ZM416.477 172.719V172.182C416.477 171.745 416.572 171.344 416.76 170.979C416.953 170.615 417.228 170.323 417.586 170.104C417.944 169.885 418.376 169.776 418.883 169.776C419.41 169.776 419.853 169.885 420.211 170.104C420.572 170.323 420.845 170.615 421.031 170.979C421.217 171.344 421.309 171.745 421.309 172.182V172.719C421.309 173.157 421.215 173.556 421.026 173.917C420.841 174.279 420.567 174.567 420.206 174.782C419.845 174.998 419.404 175.106 418.883 175.106C418.363 175.106 417.924 174.996 417.566 174.777C417.208 174.559 416.936 174.269 416.751 173.907C416.568 173.546 416.477 173.15 416.477 172.719ZM418.227 172.182V172.719C418.227 172.918 418.274 173.107 418.366 173.286C418.459 173.465 418.631 173.554 418.883 173.554C419.158 173.554 419.339 173.465 419.425 173.286C419.515 173.107 419.559 172.918 419.559 172.719V172.182C419.559 171.983 419.518 171.791 419.435 171.606C419.352 171.42 419.168 171.327 418.883 171.327C418.622 171.327 418.446 171.423 418.356 171.616C418.27 171.804 418.227 171.993 418.227 172.182ZM417.322 180.455L424.322 170.273H425.734L418.734 180.455H417.322ZM437.663 170.273H440.428V176.796C440.428 177.571 440.242 178.243 439.871 178.809C439.503 179.373 438.989 179.809 438.33 180.117C437.67 180.422 436.904 180.574 436.033 180.574C435.154 180.574 434.386 180.422 433.726 180.117C433.066 179.809 432.553 179.373 432.185 178.809C431.82 178.243 431.638 177.571 431.638 176.796V170.273H434.402V176.557C434.402 176.872 434.472 177.154 434.611 177.402C434.75 177.648 434.942 177.84 435.188 177.979C435.436 178.118 435.718 178.188 436.033 178.188C436.351 178.188 436.633 178.118 436.878 177.979C437.123 177.84 437.315 177.648 437.455 177.402C437.594 177.154 437.663 176.872 437.663 176.557V170.273ZM444.735 176.16V180.455H441.991V172.819H444.596V174.27H444.676C444.842 173.786 445.133 173.407 445.551 173.132C445.972 172.857 446.462 172.719 447.022 172.719C447.563 172.719 448.032 172.843 448.429 173.092C448.83 173.337 449.14 173.675 449.359 174.106C449.581 174.537 449.691 175.029 449.687 175.583V180.455H446.943V176.16C446.946 175.782 446.85 175.485 446.655 175.27C446.462 175.054 446.194 174.946 445.849 174.946C445.624 174.946 445.427 174.996 445.258 175.096C445.092 175.192 444.964 175.331 444.875 175.513C444.785 175.692 444.739 175.908 444.735 176.16ZM451.252 180.455V172.819H453.857V174.27H453.937C454.096 173.793 454.367 173.415 454.752 173.137C455.136 172.858 455.594 172.719 456.124 172.719C456.661 172.719 457.123 172.862 457.511 173.147C457.899 173.428 458.133 173.803 458.212 174.27H458.292C458.421 173.803 458.696 173.428 459.117 173.147C459.538 172.862 460.032 172.719 460.599 172.719C461.331 172.719 461.924 172.955 462.378 173.425C462.836 173.896 463.064 174.522 463.064 175.304V180.455H460.32V176C460.32 175.666 460.236 175.404 460.067 175.215C459.898 175.023 459.671 174.927 459.385 174.927C459.104 174.927 458.88 175.023 458.714 175.215C458.552 175.404 458.471 175.666 458.471 176V180.455H455.846V176C455.846 175.666 455.761 175.404 455.592 175.215C455.423 175.023 455.196 174.927 454.911 174.927C454.722 174.927 454.56 174.97 454.424 175.056C454.288 175.142 454.182 175.266 454.106 175.429C454.033 175.588 453.996 175.778 453.996 176V180.455H451.252ZM466.756 180.574C466.269 180.574 465.838 180.495 465.463 180.336C465.092 180.173 464.8 179.928 464.588 179.6C464.376 179.272 464.27 178.854 464.27 178.347C464.27 177.929 464.341 177.573 464.484 177.278C464.626 176.98 464.825 176.736 465.08 176.547C465.336 176.358 465.632 176.214 465.97 176.115C466.312 176.015 466.68 175.951 467.074 175.921C467.502 175.888 467.845 175.848 468.103 175.802C468.365 175.752 468.554 175.684 468.67 175.598C468.786 175.508 468.844 175.391 468.844 175.245V175.225C468.844 175.026 468.768 174.874 468.615 174.768C468.463 174.661 468.267 174.608 468.029 174.608C467.767 174.608 467.553 174.666 467.387 174.782C467.225 174.895 467.127 175.069 467.094 175.304H464.568C464.601 174.84 464.749 174.413 465.011 174.022C465.276 173.627 465.662 173.312 466.169 173.077C466.676 172.839 467.309 172.719 468.068 172.719C468.615 172.719 469.106 172.784 469.54 172.913C469.974 173.039 470.344 173.216 470.649 173.445C470.953 173.67 471.185 173.936 471.345 174.241C471.507 174.542 471.588 174.87 471.588 175.225V180.455H469.023V179.381H468.963C468.811 179.666 468.625 179.897 468.406 180.072C468.191 180.248 467.944 180.375 467.666 180.455C467.391 180.535 467.087 180.574 466.756 180.574ZM467.651 178.844C467.859 178.844 468.055 178.801 468.237 178.715C468.423 178.629 468.574 178.504 468.69 178.342C468.806 178.18 468.864 177.982 468.864 177.75V177.114C468.791 177.144 468.713 177.172 468.63 177.199C468.551 177.225 468.464 177.25 468.372 177.273C468.282 177.296 468.186 177.318 468.083 177.338C467.984 177.358 467.879 177.376 467.77 177.393C467.558 177.426 467.384 177.48 467.248 177.557C467.115 177.629 467.016 177.721 466.95 177.83C466.887 177.936 466.855 178.055 466.855 178.188C466.855 178.4 466.93 178.562 467.079 178.675C467.228 178.788 467.419 178.844 467.651 178.844ZM475.854 176.16V180.455H473.109V172.819H475.715V174.27H475.794C475.96 173.786 476.251 173.407 476.669 173.132C477.09 172.857 477.581 172.719 478.141 172.719C478.681 172.719 479.15 172.843 479.548 173.092C479.949 173.337 480.259 173.675 480.477 174.106C480.699 174.537 480.809 175.029 480.805 175.583V180.455H478.061V176.16C478.064 175.782 477.968 175.485 477.773 175.27C477.581 175.054 477.312 174.946 476.967 174.946C476.742 174.946 476.545 174.996 476.376 175.096C476.21 175.192 476.082 175.331 475.993 175.513C475.903 175.692 475.857 175.908 475.854 176.16ZM484.498 180.574C484.011 180.574 483.58 180.495 483.205 180.336C482.834 180.173 482.543 179.928 482.33 179.6C482.118 179.272 482.012 178.854 482.012 178.347C482.012 177.929 482.084 177.573 482.226 177.278C482.369 176.98 482.567 176.736 482.823 176.547C483.078 176.358 483.374 176.214 483.713 176.115C484.054 176.015 484.422 175.951 484.816 175.921C485.244 175.888 485.587 175.848 485.845 175.802C486.107 175.752 486.296 175.684 486.412 175.598C486.528 175.508 486.586 175.391 486.586 175.245V175.225C486.586 175.026 486.51 174.874 486.357 174.768C486.205 174.661 486.009 174.608 485.771 174.608C485.509 174.608 485.295 174.666 485.129 174.782C484.967 174.895 484.869 175.069 484.836 175.304H482.311C482.344 174.84 482.491 174.413 482.753 174.022C483.018 173.627 483.404 173.312 483.911 173.077C484.419 172.839 485.052 172.719 485.811 172.719C486.357 172.719 486.848 172.784 487.282 172.913C487.716 173.039 488.086 173.216 488.391 173.445C488.696 173.67 488.928 173.936 489.087 174.241C489.249 174.542 489.33 174.87 489.33 175.225V180.455H486.765V179.381H486.705C486.553 179.666 486.367 179.897 486.149 180.072C485.933 180.248 485.686 180.375 485.408 180.455C485.133 180.535 484.83 180.574 484.498 180.574ZM485.393 178.844C485.602 178.844 485.797 178.801 485.98 178.715C486.165 178.629 486.316 178.504 486.432 178.342C486.548 178.18 486.606 177.982 486.606 177.75V177.114C486.533 177.144 486.455 177.172 486.372 177.199C486.293 177.225 486.207 177.25 486.114 177.273C486.024 177.296 485.928 177.318 485.825 177.338C485.726 177.358 485.622 177.376 485.512 177.393C485.3 177.426 485.126 177.48 484.99 177.557C484.858 177.629 484.758 177.721 484.692 177.83C484.629 177.936 484.597 178.055 484.597 178.188C484.597 178.4 484.672 178.562 484.821 178.675C484.97 178.788 485.161 178.844 485.393 178.844ZM494.531 183.478C493.765 183.478 493.109 183.368 492.562 183.15C492.018 182.934 491.596 182.636 491.294 182.255C490.996 181.877 490.829 181.443 490.792 180.952H493.437C493.463 181.115 493.53 181.245 493.636 181.345C493.742 181.444 493.878 181.516 494.043 181.559C494.213 181.605 494.401 181.628 494.61 181.628C494.965 181.628 495.258 181.542 495.49 181.37C495.726 181.197 495.843 180.886 495.843 180.435V179.143H495.764C495.664 179.401 495.512 179.621 495.306 179.804C495.101 179.983 494.854 180.12 494.565 180.216C494.277 180.309 493.961 180.356 493.616 180.356C493.072 180.356 492.572 180.23 492.114 179.978C491.66 179.726 491.296 179.326 491.021 178.78C490.749 178.233 490.613 177.518 490.613 176.637C490.613 175.715 490.756 174.966 491.041 174.39C491.329 173.813 491.7 173.39 492.154 173.122C492.612 172.853 493.092 172.719 493.596 172.719C493.974 172.719 494.305 172.785 494.59 172.918C494.875 173.047 495.114 173.221 495.306 173.44C495.498 173.656 495.644 173.893 495.744 174.151H495.803V172.819H498.548V180.435C498.548 181.081 498.38 181.63 498.046 182.081C497.714 182.535 497.247 182.881 496.644 183.12C496.04 183.358 495.336 183.478 494.531 183.478ZM494.63 178.407C494.882 178.407 495.097 178.337 495.276 178.198C495.459 178.055 495.598 177.853 495.694 177.591C495.793 177.326 495.843 177.008 495.843 176.637C495.843 176.259 495.793 175.936 495.694 175.667C495.598 175.396 495.459 175.188 495.276 175.046C495.097 174.9 494.882 174.827 494.63 174.827C494.378 174.827 494.163 174.9 493.984 175.046C493.808 175.188 493.672 175.396 493.576 175.667C493.483 175.936 493.437 176.259 493.437 176.637C493.437 177.015 493.483 177.336 493.576 177.601C493.672 177.863 493.808 178.064 493.984 178.203C494.163 178.339 494.378 178.407 494.63 178.407ZM503.813 180.594C502.997 180.594 502.295 180.438 501.705 180.127C501.118 179.812 500.666 179.361 500.347 178.775C500.033 178.185 499.875 177.479 499.875 176.657C499.875 175.868 500.034 175.178 500.352 174.589C500.671 173.999 501.12 173.54 501.7 173.211C502.28 172.883 502.964 172.719 503.753 172.719C504.33 172.719 504.852 172.809 505.319 172.988C505.786 173.167 506.186 173.427 506.517 173.768C506.849 174.106 507.104 174.517 507.283 175.001C507.462 175.485 507.551 176.03 507.551 176.637V177.273H500.73V175.762H505.026C505.022 175.543 504.966 175.351 504.857 175.185C504.751 175.016 504.606 174.885 504.424 174.792C504.245 174.696 504.041 174.648 503.813 174.648C503.591 174.648 503.387 174.696 503.201 174.792C503.015 174.885 502.866 175.014 502.754 175.18C502.644 175.346 502.586 175.54 502.58 175.762V177.393C502.58 177.638 502.631 177.857 502.734 178.049C502.837 178.241 502.984 178.392 503.176 178.501C503.368 178.611 503.6 178.665 503.872 178.665C504.061 178.665 504.234 178.639 504.389 178.586C504.548 178.533 504.684 178.456 504.797 178.357C504.91 178.254 504.993 178.132 505.046 177.989H507.551C507.465 178.519 507.261 178.98 506.94 179.371C506.618 179.759 506.192 180.061 505.662 180.276C505.135 180.488 504.519 180.594 503.813 180.594ZM511.645 180.554C511.102 180.554 510.601 180.412 510.144 180.127C509.69 179.842 509.325 179.409 509.05 178.829C508.778 178.249 508.642 177.518 508.642 176.637C508.642 175.715 508.785 174.966 509.07 174.39C509.358 173.813 509.73 173.39 510.184 173.122C510.641 172.853 511.122 172.719 511.625 172.719C512.003 172.719 512.335 172.785 512.62 172.918C512.905 173.047 513.143 173.221 513.336 173.44C513.528 173.656 513.674 173.893 513.773 174.151H513.813V170.273H516.557V180.455H513.833V179.202H513.773C513.667 179.461 513.515 179.693 513.316 179.898C513.12 180.1 512.882 180.261 512.6 180.38C512.321 180.496 512.003 180.554 511.645 180.554ZM512.659 178.446C512.911 178.446 513.127 178.374 513.306 178.228C513.488 178.079 513.627 177.87 513.723 177.601C513.823 177.33 513.873 177.008 513.873 176.637C513.873 176.259 513.823 175.936 513.723 175.667C513.627 175.396 513.488 175.188 513.306 175.046C513.127 174.9 512.911 174.827 512.659 174.827C512.408 174.827 512.192 174.9 512.013 175.046C511.838 175.188 511.702 175.396 511.606 175.667C511.513 175.936 511.466 176.259 511.466 176.637C511.466 177.015 511.513 177.339 511.606 177.611C511.702 177.88 511.838 178.087 512.013 178.233C512.192 178.375 512.408 178.446 512.659 178.446Z" fill="#CB6F8F"/>
<circle cx="580.223" cy="95.1515" r="25.1517" fill="#EEE8FE"/>
<g clip-path="url(#clip2_725_5833)">
<path d="M588.308 91.2214C588.308 89.6705 587.051 88.4143 585.5 88.4143C583.949 88.4143 582.693 89.6705 582.693 91.2214C582.693 92.4987 583.546 93.5759 584.711 93.9163C584.69 94.4812 584.564 94.9163 584.325 95.211C583.785 95.8847 582.595 95.997 581.335 96.1128C580.346 96.2041 579.321 96.3023 578.483 96.7058V91.653C579.623 91.2951 580.448 90.2319 580.448 88.9757C580.448 87.4248 579.191 86.1686 577.64 86.1686C576.09 86.1686 574.833 87.4248 574.833 88.9757C574.833 90.2319 575.658 91.2951 576.798 91.653V98.6462C575.658 99.0077 574.833 100.071 574.833 101.327C574.833 102.878 576.09 104.134 577.64 104.134C579.191 104.134 580.448 102.878 580.448 101.327C580.448 100.134 579.704 99.1129 578.651 98.7094C578.76 98.5269 578.925 98.3655 579.174 98.2392C579.742 97.9515 580.591 97.8743 581.493 97.7901C582.974 97.6532 584.651 97.4953 585.641 96.2672C586.132 95.6567 586.381 94.8707 586.399 93.8847C587.507 93.5057 588.308 92.4566 588.308 91.2214ZM577.64 88.4143C577.949 88.4143 578.202 88.667 578.202 88.9757C578.202 89.2845 577.949 89.5372 577.64 89.5372C577.332 89.5372 577.079 89.2845 577.079 88.9757C577.079 88.667 577.332 88.4143 577.64 88.4143ZM577.64 101.888C577.332 101.888 577.079 101.636 577.079 101.327C577.079 101.018 577.332 100.766 577.64 100.766C577.949 100.766 578.202 101.018 578.202 101.327C578.202 101.636 577.949 101.888 577.64 101.888ZM585.5 90.66C585.809 90.66 586.062 90.9126 586.062 91.2214C586.062 91.5302 585.809 91.7829 585.5 91.7829C585.192 91.7829 584.939 91.5302 584.939 91.2214C584.939 90.9126 585.192 90.66 585.5 90.66Z" fill="#9274F6"/>
</g>
<path d="M626.975 100.291C626.153 100.291 625.419 100.163 624.773 99.9079C624.13 99.6527 623.623 99.3063 623.251 98.8688C622.883 98.4313 622.7 97.9375 622.7 97.3873C622.7 96.9664 622.804 96.5819 623.013 96.2339C623.225 95.8859 623.51 95.5975 623.868 95.3688C624.226 95.1368 624.625 94.9877 625.066 94.9214V94.8418C624.486 94.7424 624.009 94.4855 623.634 94.0712C623.263 93.6536 623.077 93.1614 623.077 92.5947C623.077 92.0611 623.246 91.5871 623.584 91.1728C623.923 90.7552 624.385 90.4271 624.972 90.1884C625.558 89.9498 626.226 89.8305 626.975 89.8305C627.724 89.8305 628.392 89.9515 628.979 90.1934C629.565 90.432 630.028 90.7602 630.366 91.1778C630.704 91.5921 630.873 92.0644 630.873 92.5947C630.873 93.1648 630.684 93.6569 630.306 94.0712C629.928 94.4855 629.454 94.7424 628.884 94.8418V94.9214C629.322 94.9877 629.719 95.1368 630.077 95.3688C630.435 95.5975 630.72 95.8859 630.932 96.2339C631.145 96.5819 631.251 96.9664 631.251 97.3873C631.251 97.9375 631.065 98.4313 630.694 98.8688C630.326 99.3063 629.819 99.6527 629.173 99.9079C628.53 100.163 627.797 100.291 626.975 100.291ZM626.975 98.3816C627.237 98.3816 627.469 98.3286 627.671 98.2225C627.873 98.1165 628.032 97.9706 628.148 97.785C628.268 97.5961 628.327 97.384 628.327 97.1487C628.327 96.9133 628.268 96.7045 628.148 96.5222C628.032 96.34 627.873 96.1974 627.671 96.0947C627.469 95.9886 627.237 95.9356 626.975 95.9356C626.717 95.9356 626.485 95.9886 626.279 96.0947C626.077 96.1974 625.916 96.34 625.797 96.5222C625.681 96.7045 625.623 96.9133 625.623 97.1487C625.623 97.384 625.681 97.5944 625.797 97.7801C625.916 97.9657 626.077 98.1132 626.279 98.2225C626.485 98.3286 626.717 98.3816 626.975 98.3816ZM626.975 94.0265C627.207 94.0265 627.413 93.9784 627.592 93.8823C627.771 93.7862 627.911 93.6536 628.014 93.4846C628.117 93.3156 628.168 93.125 628.168 92.9129C628.168 92.7007 628.117 92.5135 628.014 92.3511C627.911 92.1854 627.771 92.0561 627.592 91.9633C627.413 91.8672 627.207 91.8191 626.975 91.8191C626.746 91.8191 626.541 91.8672 626.359 91.9633C626.18 92.0561 626.039 92.1854 625.936 92.3511C625.833 92.5135 625.782 92.7007 625.782 92.9129C625.782 93.125 625.833 93.3156 625.936 93.4846C626.039 93.6503 626.18 93.7829 626.359 93.8823C626.541 93.9784 626.746 94.0265 626.975 94.0265ZM638.522 98.2424V97.7055C638.522 97.2746 638.614 96.8769 638.8 96.5123C638.989 96.1477 639.262 95.8544 639.62 95.6323C639.978 95.4103 640.414 95.2992 640.928 95.2992C641.455 95.2992 641.897 95.4086 642.255 95.6274C642.616 95.8461 642.89 96.1378 643.076 96.5024C643.261 96.8669 643.354 97.268 643.354 97.7055V98.2424C643.354 98.6733 643.259 99.071 643.071 99.4356C642.885 99.8002 642.612 100.094 642.25 100.316C641.889 100.538 641.448 100.649 640.928 100.649C640.407 100.649 639.968 100.538 639.61 100.316C639.252 100.094 638.981 99.8002 638.795 99.4356C638.613 99.071 638.522 98.6733 638.522 98.2424ZM640.252 97.7055V98.2424C640.252 98.4313 640.298 98.6186 640.391 98.8042C640.487 98.9865 640.666 99.0776 640.928 99.0776C641.203 99.0776 641.384 98.9882 641.47 98.8092C641.559 98.6302 641.604 98.4413 641.604 98.2424V97.7055C641.604 97.5066 641.563 97.3144 641.48 97.1288C641.397 96.9432 641.213 96.8504 640.928 96.8504C640.666 96.8504 640.487 96.9432 640.391 97.1288C640.298 97.3144 640.252 97.5066 640.252 97.7055ZM633.192 92.4157V91.8788C633.192 91.4413 633.286 91.0402 633.475 90.6757C633.668 90.3111 633.943 90.0194 634.301 89.8007C634.659 89.5819 635.091 89.4725 635.598 89.4725C636.125 89.4725 636.568 89.5819 636.926 89.8007C637.287 90.0194 637.56 90.3111 637.746 90.6757C637.932 91.0402 638.024 91.4413 638.024 91.8788V92.4157C638.024 92.8532 637.93 93.2526 637.741 93.6139C637.555 93.9751 637.282 94.2635 636.921 94.4789C636.559 94.6944 636.119 94.8021 635.598 94.8021C635.078 94.8021 634.639 94.6927 634.281 94.4739C633.923 94.2552 633.651 93.9652 633.465 93.6039C633.283 93.2427 633.192 92.8466 633.192 92.4157ZM634.942 91.8788V92.4157C634.942 92.6146 634.988 92.8035 635.081 92.9825C635.174 93.1614 635.346 93.2509 635.598 93.2509C635.873 93.2509 636.054 93.1614 636.14 92.9825C636.23 92.8035 636.274 92.6146 636.274 92.4157V91.8788C636.274 91.6799 636.233 91.4877 636.15 91.3021C636.067 91.1165 635.883 91.0237 635.598 91.0237C635.336 91.0237 635.161 91.1198 635.071 91.312C634.985 91.5009 634.942 91.6899 634.942 91.8788ZM634.037 100.152L641.037 89.9697H642.449L635.449 100.152H634.037ZM652.27 100.152H648.353V89.9697H652.231C653.278 89.9697 654.183 90.1735 654.945 90.5812C655.711 90.9855 656.301 91.5689 656.715 92.3312C657.133 93.0902 657.341 94 657.341 95.0606C657.341 96.1212 657.134 97.0327 656.72 97.795C656.306 98.554 655.719 99.1373 654.96 99.545C654.201 99.9493 653.304 100.152 652.27 100.152ZM651.117 97.8049H652.171C652.675 97.8049 653.104 97.7237 653.459 97.5613C653.817 97.3989 654.088 97.1188 654.274 96.7211C654.463 96.3234 654.557 95.7699 654.557 95.0606C654.557 94.3513 654.461 93.7978 654.269 93.4001C654.08 93.0024 653.802 92.7223 653.434 92.5599C653.069 92.3975 652.622 92.3163 652.091 92.3163H651.117V97.8049ZM658.87 100.152V92.5151H661.535V93.9668H661.614C661.754 93.4299 661.974 93.0372 662.276 92.7886C662.581 92.54 662.937 92.4157 663.345 92.4157C663.464 92.4157 663.582 92.4257 663.698 92.4455C663.817 92.4621 663.931 92.487 664.041 92.5201V94.8617C663.905 94.8153 663.737 94.7805 663.538 94.7573C663.34 94.7341 663.169 94.7225 663.026 94.7225C662.758 94.7225 662.516 94.7838 662.301 94.9065C662.088 95.0258 661.921 95.1948 661.798 95.4136C661.676 95.629 661.614 95.8826 661.614 96.1742V100.152H658.87ZM665.15 100.152V92.5151H667.895V100.152H665.15ZM666.523 91.7197C666.151 91.7197 665.833 91.5971 665.568 91.3518C665.303 91.1065 665.17 90.8115 665.17 90.4668C665.17 90.1221 665.303 89.8272 665.568 89.5819C665.833 89.3366 666.151 89.214 666.523 89.214C666.897 89.214 667.215 89.3366 667.477 89.5819C667.742 89.8272 667.875 90.1221 667.875 90.4668C667.875 90.8115 667.742 91.1065 667.477 91.3518C667.215 91.5971 666.897 91.7197 666.523 91.7197ZM674.077 92.5151V94.5038H668.966V92.5151H674.077ZM669.941 100.152V92.2964C669.941 91.6667 670.053 91.1446 670.279 90.7303C670.504 90.316 670.822 90.0061 671.233 89.8007C671.644 89.5952 672.128 89.4924 672.685 89.4924C673.033 89.4924 673.371 89.5189 673.699 89.572C674.03 89.625 674.276 89.6714 674.435 89.7112L674.037 91.6799C673.938 91.6501 673.822 91.6269 673.689 91.6103C673.557 91.5904 673.441 91.5805 673.341 91.5805C673.083 91.5805 672.909 91.6352 672.819 91.7445C672.73 91.8539 672.685 91.9981 672.685 92.1771V100.152H669.941ZM679.9 92.5151V94.5038H674.869V92.5151H679.9ZM675.843 90.6856H678.587V97.6955C678.587 97.8016 678.606 97.8911 678.642 97.964C678.678 98.0336 678.735 98.0866 678.811 98.1231C678.887 98.1562 678.985 98.1728 679.104 98.1728C679.187 98.1728 679.283 98.1629 679.393 98.143C679.505 98.1231 679.588 98.1065 679.641 98.0933L680.039 100.022C679.916 100.059 679.741 100.103 679.512 100.156C679.287 100.21 679.018 100.244 678.707 100.261C678.077 100.294 677.548 100.229 677.121 100.067C676.693 99.9013 676.372 99.6411 676.156 99.2864C675.941 98.9318 675.836 98.4877 675.843 97.9541V90.6856ZM684.807 100.291C683.991 100.291 683.289 100.135 682.699 99.8234C682.112 99.5085 681.66 99.0578 681.342 98.4711C681.027 97.8811 680.869 97.1752 680.869 96.3532C680.869 95.5644 681.028 94.875 681.346 94.285C681.665 93.6951 682.114 93.236 682.694 92.9079C683.274 92.5798 683.958 92.4157 684.747 92.4157C685.324 92.4157 685.846 92.5052 686.313 92.6842C686.78 92.8632 687.18 93.1233 687.511 93.4647C687.843 93.8028 688.098 94.2138 688.277 94.6977C688.456 95.1816 688.545 95.7268 688.545 96.3333V96.9697H681.724V95.4583H686.02C686.016 95.2396 685.96 95.0473 685.851 94.8816C685.745 94.7126 685.601 94.5817 685.418 94.4889C685.239 94.3927 685.035 94.3447 684.807 94.3447C684.585 94.3447 684.381 94.3927 684.195 94.4889C684.01 94.5817 683.86 94.7109 683.748 94.8766C683.638 95.0424 683.58 95.2363 683.574 95.4583V97.089C683.574 97.3343 683.625 97.553 683.728 97.7453C683.831 97.9375 683.978 98.0883 684.17 98.1977C684.363 98.307 684.595 98.3617 684.866 98.3617C685.055 98.3617 685.228 98.3352 685.383 98.2822C685.543 98.2292 685.678 98.1529 685.791 98.0535C685.904 97.9507 685.987 97.8281 686.04 97.6856H688.545C688.459 98.2159 688.255 98.6766 687.934 99.0677C687.612 99.4555 687.186 99.7571 686.656 99.9725C686.129 100.185 685.513 100.291 684.807 100.291ZM692.639 100.251C692.096 100.251 691.595 100.108 691.138 99.8234C690.684 99.5383 690.319 99.1058 690.044 98.5258C689.772 97.9458 689.637 97.215 689.637 96.3333C689.637 95.4119 689.779 94.6629 690.064 94.0862C690.352 93.5095 690.724 93.0869 691.178 92.8184C691.635 92.5499 692.116 92.4157 692.62 92.4157C692.997 92.4157 693.329 92.482 693.614 92.6146C693.899 92.7438 694.138 92.9178 694.33 93.1366C694.522 93.352 694.668 93.589 694.767 93.8475H694.807V89.9697H697.551V100.152H694.827V98.8987H694.767C694.661 99.1572 694.509 99.3892 694.31 99.5947C694.114 99.7969 693.876 99.9576 693.594 100.077C693.316 100.193 692.997 100.251 692.639 100.251ZM693.654 98.143C693.906 98.143 694.121 98.0701 694.3 97.9242C694.482 97.7751 694.621 97.5663 694.718 97.2978C694.817 97.026 694.867 96.7045 694.867 96.3333C694.867 95.9555 694.817 95.6323 694.718 95.3639C694.621 95.0921 694.482 94.8849 694.3 94.7424C694.121 94.5966 693.906 94.5237 693.654 94.5237C693.402 94.5237 693.186 94.5966 693.007 94.7424C692.832 94.8849 692.696 95.0921 692.6 95.3639C692.507 95.6323 692.46 95.9555 692.46 96.3333C692.46 96.7112 692.507 97.036 692.6 97.3078C692.696 97.5762 692.832 97.7834 693.007 97.9292C693.186 98.0717 693.402 98.143 693.654 98.143Z" fill="#9274F6"/>
<circle cx="580.223" cy="175.455" r="25.1517" fill="#FBF1E8"/>
<g clip-path="url(#clip3_725_5833)">
<path d="M579.539 165.577C575.36 165.703 572.139 169.349 572.139 173.529V184.025C572.139 184.592 572.824 184.875 573.225 184.475L574.216 183.738C574.481 183.541 574.852 183.579 575.071 183.826L576.779 185.748C577.028 185.997 577.43 185.997 577.679 185.748L579.298 183.925C579.552 183.64 579.997 183.64 580.25 183.925L581.869 185.748C582.117 185.997 582.52 185.997 582.769 185.748L584.477 183.826C584.696 183.579 585.067 183.54 585.332 183.738L586.323 184.475C586.724 184.875 587.409 184.591 587.409 184.025V173.209C587.409 168.914 583.863 165.448 579.539 165.577ZM577.229 174.482C576.526 174.482 575.956 173.912 575.956 173.209C575.956 172.507 576.526 171.937 577.229 171.937C577.932 171.937 578.501 172.507 578.501 173.209C578.501 173.912 577.932 174.482 577.229 174.482ZM582.319 174.482C581.616 174.482 581.047 173.912 581.047 173.209C581.047 172.507 581.616 171.937 582.319 171.937C583.022 171.937 583.592 172.507 583.592 173.209C583.592 173.912 583.022 174.482 582.319 174.482Z" fill="#ECBB90"/>
</g>
<path d="M622.819 180.455V178.466L626.617 175.324C626.869 175.116 627.084 174.92 627.263 174.738C627.446 174.552 627.585 174.361 627.681 174.166C627.78 173.97 627.83 173.753 627.83 173.515C627.83 173.253 627.774 173.029 627.661 172.843C627.552 172.658 627.399 172.515 627.204 172.416C627.008 172.313 626.783 172.262 626.528 172.262C626.272 172.262 626.047 172.313 625.852 172.416C625.659 172.519 625.51 172.669 625.404 172.868C625.298 173.067 625.245 173.309 625.245 173.594H622.62C622.62 172.878 622.781 172.262 623.102 171.745C623.424 171.228 623.878 170.83 624.464 170.552C625.051 170.273 625.739 170.134 626.528 170.134C627.343 170.134 628.049 170.265 628.646 170.527C629.245 170.785 629.708 171.15 630.033 171.62C630.361 172.091 630.525 172.643 630.525 173.276C630.525 173.667 630.444 174.057 630.281 174.444C630.119 174.829 629.827 175.255 629.406 175.722C628.985 176.189 628.387 176.746 627.611 177.393L626.657 178.188V178.248H630.634V180.455H622.819ZM637.906 178.546V178.009C637.906 177.578 637.999 177.18 638.185 176.816C638.374 176.451 638.647 176.158 639.005 175.936C639.363 175.714 639.799 175.603 640.313 175.603C640.84 175.603 641.282 175.712 641.64 175.931C642.001 176.15 642.275 176.441 642.46 176.806C642.646 177.17 642.739 177.571 642.739 178.009V178.546C642.739 178.977 642.644 179.375 642.455 179.739C642.27 180.104 641.996 180.397 641.635 180.619C641.274 180.841 640.833 180.952 640.313 180.952C639.792 180.952 639.353 180.841 638.995 180.619C638.637 180.397 638.365 180.104 638.18 179.739C637.997 179.375 637.906 178.977 637.906 178.546ZM639.636 178.009V178.546C639.636 178.735 639.683 178.922 639.776 179.108C639.872 179.29 640.051 179.381 640.313 179.381C640.588 179.381 640.768 179.292 640.854 179.113C640.944 178.934 640.989 178.745 640.989 178.546V178.009C640.989 177.81 640.947 177.618 640.864 177.432C640.782 177.247 640.598 177.154 640.313 177.154C640.051 177.154 639.872 177.247 639.776 177.432C639.683 177.618 639.636 177.81 639.636 178.009ZM632.577 172.719V172.182C632.577 171.745 632.671 171.344 632.86 170.979C633.052 170.615 633.327 170.323 633.685 170.104C634.043 169.885 634.476 169.776 634.983 169.776C635.51 169.776 635.952 169.885 636.31 170.104C636.672 170.323 636.945 170.615 637.131 170.979C637.316 171.344 637.409 171.745 637.409 172.182V172.719C637.409 173.157 637.315 173.556 637.126 173.917C636.94 174.279 636.667 174.567 636.305 174.782C635.944 174.998 635.503 175.106 634.983 175.106C634.463 175.106 634.024 174.996 633.666 174.777C633.308 174.559 633.036 174.269 632.85 173.907C632.668 173.546 632.577 173.15 632.577 172.719ZM634.327 172.182V172.719C634.327 172.918 634.373 173.107 634.466 173.286C634.559 173.465 634.731 173.554 634.983 173.554C635.258 173.554 635.439 173.465 635.525 173.286C635.614 173.107 635.659 172.918 635.659 172.719V172.182C635.659 171.983 635.618 171.791 635.535 171.606C635.452 171.42 635.268 171.327 634.983 171.327C634.721 171.327 634.546 171.423 634.456 171.616C634.37 171.804 634.327 171.993 634.327 172.182ZM633.422 180.455L640.422 170.273H641.834L634.834 180.455H633.422ZM654.35 173.634C654.307 173.458 654.239 173.304 654.146 173.172C654.053 173.036 653.937 172.921 653.798 172.829C653.662 172.732 653.503 172.661 653.321 172.615C653.142 172.565 652.944 172.54 652.729 172.54C652.265 172.54 651.869 172.651 651.541 172.873C651.216 173.095 650.967 173.415 650.795 173.833C650.626 174.25 650.542 174.754 650.542 175.344C650.542 175.941 650.623 176.451 650.785 176.875C650.948 177.3 651.189 177.625 651.511 177.85C651.832 178.075 652.232 178.188 652.709 178.188C653.13 178.188 653.48 178.127 653.758 178.004C654.04 177.881 654.25 177.707 654.39 177.482C654.529 177.257 654.598 176.991 654.598 176.687L655.076 176.736H652.749V174.768H657.263V176.179C657.263 177.107 657.066 177.901 656.671 178.561C656.28 179.217 655.74 179.721 655.051 180.072C654.365 180.42 653.578 180.594 652.689 180.594C651.698 180.594 650.828 180.384 650.079 179.963C649.33 179.542 648.745 178.942 648.324 178.163C647.907 177.384 647.698 176.458 647.698 175.384C647.698 174.542 647.825 173.796 648.081 173.147C648.339 172.497 648.697 171.949 649.154 171.501C649.612 171.05 650.14 170.711 650.74 170.482C651.34 170.25 651.983 170.134 652.669 170.134C653.273 170.134 653.833 170.22 654.35 170.393C654.87 170.562 655.329 170.803 655.727 171.118C656.128 171.43 656.451 171.799 656.696 172.227C656.942 172.655 657.091 173.124 657.144 173.634H654.35ZM661.546 176.16V180.455H658.802V170.273H661.447V174.27H661.526C661.699 173.783 661.985 173.404 662.386 173.132C662.787 172.857 663.27 172.719 663.833 172.719C664.373 172.719 664.842 172.842 665.24 173.087C665.641 173.332 665.951 173.67 666.17 174.101C666.392 174.532 666.501 175.026 666.498 175.583V180.455H663.753V176.16C663.757 175.782 663.662 175.485 663.47 175.27C663.281 175.054 663.011 174.946 662.66 174.946C662.438 174.946 662.242 174.996 662.073 175.096C661.907 175.192 661.778 175.331 661.685 175.513C661.596 175.692 661.549 175.908 661.546 176.16ZM671.742 180.594C670.913 180.594 670.204 180.43 669.614 180.102C669.024 179.771 668.571 179.31 668.256 178.72C667.942 178.127 667.784 177.439 667.784 176.657C667.784 175.875 667.942 175.188 668.256 174.598C668.571 174.005 669.024 173.544 669.614 173.216C670.204 172.885 670.913 172.719 671.742 172.719C672.57 172.719 673.279 172.885 673.869 173.216C674.459 173.544 674.912 174.005 675.227 174.598C675.541 175.188 675.699 175.875 675.699 176.657C675.699 177.439 675.541 178.127 675.227 178.72C674.912 179.31 674.459 179.771 673.869 180.102C673.279 180.43 672.57 180.594 671.742 180.594ZM671.761 178.566C671.993 178.566 672.194 178.488 672.363 178.332C672.532 178.176 672.663 177.954 672.756 177.666C672.849 177.378 672.895 177.035 672.895 176.637C672.895 176.236 672.849 175.893 672.756 175.608C672.663 175.319 672.532 175.097 672.363 174.942C672.194 174.786 671.993 174.708 671.761 174.708C671.516 174.708 671.306 174.786 671.13 174.942C670.954 175.097 670.82 175.319 670.727 175.608C670.635 175.893 670.588 176.236 670.588 176.637C670.588 177.035 670.635 177.378 670.727 177.666C670.82 177.954 670.954 178.176 671.13 178.332C671.306 178.488 671.516 178.566 671.761 178.566ZM684.003 175.304H681.477C681.464 175.149 681.409 175.014 681.313 174.902C681.217 174.789 681.093 174.703 680.94 174.643C680.791 174.58 680.625 174.549 680.443 174.549C680.208 174.549 680.006 174.592 679.836 174.678C679.667 174.764 679.585 174.887 679.588 175.046C679.585 175.159 679.633 175.263 679.732 175.359C679.835 175.455 680.032 175.53 680.324 175.583L681.875 175.861C682.657 176.004 683.239 176.244 683.62 176.582C684.004 176.917 684.198 177.366 684.202 177.929C684.198 178.473 684.036 178.945 683.714 179.346C683.396 179.744 682.96 180.052 682.407 180.271C681.857 180.486 681.229 180.594 680.523 180.594C679.356 180.594 678.443 180.356 677.783 179.878C677.127 179.401 676.761 178.771 676.684 177.989H679.409C679.445 178.231 679.565 178.418 679.767 178.551C679.972 178.68 680.231 178.745 680.542 178.745C680.794 178.745 681.001 178.702 681.164 178.616C681.33 178.529 681.414 178.407 681.417 178.248C681.414 178.102 681.341 177.986 681.199 177.9C681.059 177.813 680.841 177.744 680.542 177.691L679.19 177.452C678.411 177.316 677.828 177.058 677.44 176.677C677.052 176.295 676.86 175.805 676.863 175.205C676.86 174.675 676.999 174.226 677.281 173.858C677.566 173.486 677.972 173.205 678.499 173.013C679.029 172.817 679.657 172.719 680.383 172.719C681.487 172.719 682.357 172.948 682.993 173.405C683.633 173.863 683.97 174.496 684.003 175.304ZM690.017 172.819V174.807H684.986V172.819H690.017ZM685.96 170.989H688.704V177.999C688.704 178.105 688.723 178.195 688.759 178.268C688.796 178.337 688.852 178.39 688.928 178.427C689.004 178.46 689.102 178.476 689.222 178.476C689.304 178.476 689.401 178.466 689.51 178.446C689.623 178.427 689.705 178.41 689.758 178.397L690.156 180.326C690.034 180.362 689.858 180.407 689.629 180.46C689.404 180.513 689.135 180.548 688.824 180.564C688.194 180.598 687.665 180.533 687.238 180.37C686.81 180.205 686.489 179.945 686.273 179.59C686.058 179.235 685.954 178.791 685.96 178.258V170.989Z" fill="#ECBB90"/>
<defs>
<clipPath id="clip0_725_5833">
<rect width="17.9655" height="14.3724" fill="white" transform="translate(345.169 87.9651)"/>
</clipPath>
<clipPath id="clip1_725_5833">
<rect width="17.9655" height="17.9655" fill="white" transform="translate(345.169 166.472)"/>
</clipPath>
<clipPath id="clip2_725_5833">
<rect width="13.4741" height="17.9655" fill="white" transform="translate(574.833 86.1686)"/>
</clipPath>
<clipPath id="clip3_725_5833">
<rect width="15.2707" height="20.3609" fill="white" transform="translate(572.139 165.574)"/>
</clipPath>
</defs>
</svg>
