<svg width="809" height="470" viewBox="0 0 809 470" fill="none" xmlns="http://www.w3.org/2000/svg">
<rect y="118.045" width="809" height="315.96" fill="#303048"/>
<path d="M0 12C0 5.37259 5.37258 0 12 0H797C803.627 0 809 5.37258 809 12V117.985H0V12Z" fill="#232334"/>
<path d="M24.696 20.8182H27.4403V28.5142C27.4437 28.67 27.4884 28.7893 27.5746 28.8722C27.6641 28.9517 27.7917 28.9915 27.9574 28.9915C28.0436 28.9915 28.1132 28.9882 28.1662 28.9815C28.2192 28.9749 28.2623 28.965 28.2955 28.9517L28.6932 30.8409C28.5805 30.8774 28.4446 30.9155 28.2855 30.9553C28.1264 30.995 27.8845 31.0232 27.5597 31.0398C26.5753 31.0895 25.8527 30.937 25.392 30.5824C24.9313 30.2244 24.6993 29.6212 24.696 28.7727V20.8182ZM31.6413 31.1193C31.1541 31.1193 30.7232 31.0398 30.3487 30.8807C29.9775 30.7183 29.6858 30.473 29.4737 30.1449C29.2616 29.8168 29.1555 29.3991 29.1555 28.892C29.1555 28.4744 29.2267 28.1181 29.3693 27.8232C29.5118 27.5249 29.7107 27.2812 29.9659 27.0923C30.2211 26.9034 30.5177 26.7592 30.8558 26.6598C31.1972 26.5604 31.5651 26.4957 31.9595 26.4659C32.387 26.4328 32.7301 26.393 32.9886 26.3466C33.2504 26.2969 33.4393 26.2289 33.5553 26.1428C33.6714 26.0533 33.7294 25.9356 33.7294 25.7898V25.7699C33.7294 25.571 33.6531 25.4186 33.5007 25.3125C33.3482 25.2064 33.1526 25.1534 32.914 25.1534C32.6522 25.1534 32.4384 25.2114 32.2727 25.3274C32.1103 25.4401 32.0125 25.6141 31.9794 25.8494H29.4538C29.4869 25.3854 29.6344 24.9579 29.8963 24.5668C30.1614 24.1723 30.5475 23.8575 31.0546 23.6222C31.5617 23.3835 32.1948 23.2642 32.9538 23.2642C33.5007 23.2642 33.9912 23.3288 34.4254 23.4581C34.8596 23.584 35.2291 23.7614 35.534 23.9901C35.839 24.2154 36.071 24.4806 36.2301 24.7855C36.3925 25.0871 36.4737 25.4152 36.4737 25.7699V31H33.9083V29.9261H33.8487C33.6962 30.2112 33.5106 30.4415 33.2919 30.6172C33.0764 30.7929 32.8295 30.9205 32.5511 31C32.276 31.0795 31.9727 31.1193 31.6413 31.1193ZM32.5362 29.3892C32.745 29.3892 32.9405 29.3461 33.1228 29.2599C33.3084 29.1738 33.4592 29.0495 33.5752 28.8871C33.6912 28.7247 33.7492 28.5275 33.7492 28.2955V27.6591C33.6763 27.6889 33.5984 27.7171 33.5156 27.7436C33.436 27.7701 33.3499 27.795 33.2571 27.8182C33.1676 27.8414 33.0714 27.8629 32.9687 27.8828C32.8693 27.9027 32.7649 27.9209 32.6555 27.9375C32.4434 27.9706 32.2694 28.0253 32.1335 28.1016C32.0009 28.1745 31.9015 28.2656 31.8352 28.375C31.7722 28.4811 31.7407 28.6004 31.7407 28.733C31.7407 28.9451 31.8153 29.1075 31.9644 29.2202C32.1136 29.3329 32.3042 29.3892 32.5362 29.3892ZM37.9949 31V23.3636H40.6V24.8153H40.6796C40.8387 24.3381 41.1105 23.9602 41.4949 23.6818C41.8794 23.4034 42.3368 23.2642 42.8671 23.2642C43.404 23.2642 43.8664 23.4067 44.2542 23.6918C44.6419 23.9735 44.8756 24.348 44.9552 24.8153H45.0347C45.164 24.348 45.4391 23.9735 45.86 23.6918C46.2809 23.4067 46.7748 23.2642 47.3415 23.2642C48.074 23.2642 48.6673 23.4995 49.1213 23.9702C49.5787 24.4408 49.8074 25.0672 49.8074 25.8494V31H47.0631V26.5455C47.0631 26.2107 46.9786 25.9489 46.8096 25.7599C46.6405 25.5677 46.4135 25.4716 46.1285 25.4716C45.8467 25.4716 45.623 25.5677 45.4573 25.7599C45.2949 25.9489 45.2137 26.2107 45.2137 26.5455V31H42.5887V26.5455C42.5887 26.2107 42.5042 25.9489 42.3351 25.7599C42.1661 25.5677 41.9391 25.4716 41.654 25.4716C41.4651 25.4716 41.3027 25.5147 41.1668 25.6009C41.0309 25.687 40.9249 25.8113 40.8486 25.9737C40.7757 26.1328 40.7392 26.3234 40.7392 26.5455V31H37.9949ZM51.3312 31V20.8182H54.0755V24.696H54.1153C54.2147 24.4375 54.3605 24.2005 54.5528 23.9851C54.745 23.7663 54.9836 23.5923 55.2687 23.4631C55.5537 23.3305 55.8851 23.2642 56.263 23.2642C56.7668 23.2642 57.2457 23.3984 57.6998 23.6669C58.1572 23.9354 58.5284 24.358 58.8134 24.9347C59.1018 25.5114 59.2459 26.2604 59.2459 27.1818C59.2459 28.0634 59.1084 28.7943 58.8333 29.3743C58.5615 29.9543 58.1969 30.3868 57.7396 30.6719C57.2855 30.9569 56.7867 31.0994 56.2431 31.0994C55.8851 31.0994 55.5653 31.0414 55.2836 30.9254C55.0052 30.8061 54.7665 30.6454 54.5677 30.4432C54.3721 30.2377 54.2213 30.0057 54.1153 29.7472H54.0556V31H51.3312ZM54.0158 27.1818C54.0158 27.553 54.0639 27.8745 54.16 28.1463C54.2594 28.4148 54.3986 28.6236 54.5776 28.7727C54.7599 28.9186 54.977 28.9915 55.2289 28.9915C55.4808 28.9915 55.6946 28.9202 55.8702 28.7777C56.0492 28.6319 56.1851 28.4247 56.2779 28.1562C56.374 27.8845 56.4221 27.5597 56.4221 27.1818C56.4221 26.804 56.374 26.4808 56.2779 26.2124C56.1851 25.9406 56.0492 25.7334 55.8702 25.5909C55.6946 25.4451 55.4808 25.3722 55.2289 25.3722C54.977 25.3722 54.7599 25.4451 54.5776 25.5909C54.3986 25.7334 54.2594 25.9406 54.16 26.2124C54.0639 26.4808 54.0158 26.804 54.0158 27.1818ZM63.3686 31.0994C62.825 31.0994 62.3246 30.9569 61.8672 30.6719C61.4131 30.3868 61.0485 29.9543 60.7734 29.3743C60.5016 28.7943 60.3657 28.0634 60.3657 27.1818C60.3657 26.2604 60.5083 25.5114 60.7933 24.9347C61.0817 24.358 61.4529 23.9354 61.9069 23.6669C62.3643 23.3984 62.8449 23.2642 63.3487 23.2642C63.7265 23.2642 64.058 23.3305 64.343 23.4631C64.6281 23.5923 64.8667 23.7663 65.0589 23.9851C65.2512 24.2005 65.397 24.4375 65.4964 24.696H65.5362V20.8182H68.2805V31H65.5561V29.7472H65.4964C65.3904 30.0057 65.2379 30.2377 65.039 30.4432C64.8435 30.6454 64.6049 30.8061 64.3231 30.9254C64.0447 31.0414 63.7265 31.0994 63.3686 31.0994ZM64.3828 28.9915C64.6347 28.9915 64.8501 28.9186 65.0291 28.7727C65.2114 28.6236 65.3506 28.4148 65.4467 28.1463C65.5461 27.8745 65.5959 27.553 65.5959 27.1818C65.5959 26.804 65.5461 26.4808 65.4467 26.2124C65.3506 25.9406 65.2114 25.7334 65.0291 25.5909C64.8501 25.4451 64.6347 25.3722 64.3828 25.3722C64.1309 25.3722 63.9155 25.4451 63.7365 25.5909C63.5608 25.7334 63.4249 25.9406 63.3288 26.2124C63.236 26.4808 63.1896 26.804 63.1896 27.1818C63.1896 27.5597 63.236 27.8845 63.3288 28.1562C63.4249 28.4247 63.5608 28.6319 63.7365 28.7777C63.9155 28.9202 64.1309 28.9915 64.3828 28.9915ZM71.9657 31.1193C71.4784 31.1193 71.0476 31.0398 70.673 30.8807C70.3018 30.7183 70.0102 30.473 69.798 30.1449C69.5859 29.8168 69.4799 29.3991 69.4799 28.892C69.4799 28.4744 69.5511 28.1181 69.6936 27.8232C69.8362 27.5249 70.035 27.2812 70.2902 27.0923C70.5454 26.9034 70.8421 26.7592 71.1801 26.6598C71.5215 26.5604 71.8894 26.4957 72.2838 26.4659C72.7114 26.4328 73.0544 26.393 73.313 26.3466C73.5748 26.2969 73.7637 26.2289 73.8797 26.1428C73.9957 26.0533 74.0537 25.9356 74.0537 25.7898V25.7699C74.0537 25.571 73.9775 25.4186 73.825 25.3125C73.6726 25.2064 73.477 25.1534 73.2384 25.1534C72.9765 25.1534 72.7628 25.2114 72.5971 25.3274C72.4346 25.4401 72.3369 25.6141 72.3037 25.8494H69.7782C69.8113 25.3854 69.9588 24.9579 70.2206 24.5668C70.4858 24.1723 70.8719 23.8575 71.379 23.6222C71.8861 23.3835 72.5192 23.2642 73.2782 23.2642C73.825 23.2642 74.3156 23.3288 74.7498 23.4581C75.1839 23.584 75.5535 23.7614 75.8584 23.9901C76.1633 24.2154 76.3953 24.4806 76.5544 24.7855C76.7168 25.0871 76.798 25.4152 76.798 25.7699V31H74.2327V29.9261H74.173C74.0206 30.2112 73.835 30.4415 73.6162 30.6172C73.4008 30.7929 73.1539 30.9205 72.8755 31C72.6004 31.0795 72.2971 31.1193 71.9657 31.1193ZM72.8605 29.3892C73.0694 29.3892 73.2649 29.3461 73.4472 29.2599C73.6328 29.1738 73.7836 29.0495 73.8996 28.8871C74.0156 28.7247 74.0736 28.5275 74.0736 28.2955V27.6591C74.0007 27.6889 73.9228 27.7171 73.8399 27.7436C73.7604 27.7701 73.6742 27.795 73.5814 27.8182C73.4919 27.8414 73.3958 27.8629 73.2931 27.8828C73.1936 27.9027 73.0892 27.9209 72.9799 27.9375C72.7677 27.9706 72.5937 28.0253 72.4578 28.1016C72.3253 28.1745 72.2258 28.2656 72.1596 28.375C72.0966 28.4811 72.0651 28.6004 72.0651 28.733C72.0651 28.9451 72.1397 29.1075 72.2888 29.2202C72.438 29.3329 72.6285 29.3892 72.8605 29.3892ZM83.3307 25.9091V27.9773H78.5579V25.9091H83.3307ZM91.0602 21.9318L91.9949 22.2898L88.0772 29.8466L87.1824 29.4489L91.0602 21.9318ZM89.5886 31.2585C88.6639 31.2552 87.8651 31.0414 87.1923 30.6172C86.5195 30.1929 86.0008 29.5814 85.6362 28.7827C85.2716 27.9839 85.091 27.026 85.0943 25.9091C85.0976 24.7888 85.2799 23.8376 85.6412 23.0554C86.0057 22.2732 86.5228 21.6783 87.1923 21.2706C87.8651 20.8629 88.6639 20.6591 89.5886 20.6591C90.5133 20.6591 91.3121 20.8646 91.9849 21.2756C92.6577 21.6832 93.1764 22.2782 93.541 23.0604C93.9056 23.8426 94.0862 24.7921 94.0829 25.9091C94.0829 27.0327 93.9006 27.9938 93.5361 28.7926C93.1715 29.5914 92.6528 30.2029 91.9799 30.6271C91.3104 31.0481 90.5133 31.2585 89.5886 31.2585ZM89.5886 29.0114C90.0659 29.0114 90.457 28.7628 90.7619 28.2656C91.0701 27.7652 91.2226 26.9796 91.2193 25.9091C91.2193 25.2098 91.1497 24.638 91.0105 24.1939C90.8713 23.7498 90.679 23.4216 90.4338 23.2095C90.1885 22.9941 89.9068 22.8864 89.5886 22.8864C89.1113 22.8864 88.7219 23.1283 88.4203 23.6122C88.1187 24.0961 87.9646 24.8617 87.9579 25.9091C87.9546 26.6217 88.0226 27.2083 88.1618 27.669C88.301 28.1264 88.4932 28.4645 88.7385 28.6832C88.987 28.902 89.2704 29.0114 89.5886 29.0114ZM95.4911 29.4091V27.2614L99.5877 20.8182H101.537V23.6818H100.423L98.2155 27.1818V27.2614H104.261V29.4091H95.4911ZM100.443 31V28.7528L100.502 27.8182V20.8182H103.088V31H100.443ZM109.886 31.1392C109.293 31.1392 108.73 31.0464 108.196 30.8608C107.666 30.6719 107.195 30.3752 106.784 29.9709C106.373 29.5665 106.05 29.0395 105.815 28.3899C105.583 27.7403 105.468 26.9531 105.471 26.0284C105.475 25.2031 105.581 24.4607 105.79 23.8011C106.002 23.1416 106.302 22.5798 106.69 22.1158C107.081 21.6518 107.548 21.2971 108.092 21.0518C108.635 20.8033 109.24 20.679 109.906 20.679C110.655 20.679 111.315 20.8232 111.885 21.1115C112.455 21.3999 112.909 21.786 113.247 22.2699C113.588 22.7505 113.787 23.2808 113.844 23.8608H111.119C111.056 23.5724 110.91 23.362 110.682 23.2294C110.456 23.0935 110.198 23.0256 109.906 23.0256C109.326 23.0256 108.9 23.2775 108.628 23.7812C108.36 24.285 108.222 24.9479 108.216 25.7699H108.275C108.405 25.4583 108.6 25.1915 108.862 24.9695C109.124 24.7474 109.429 24.5767 109.777 24.4574C110.125 24.3381 110.493 24.2784 110.881 24.2784C111.497 24.2784 112.036 24.4176 112.496 24.696C112.96 24.9744 113.322 25.3556 113.58 25.8395C113.839 26.3234 113.966 26.8769 113.963 27.5C113.966 28.2292 113.794 28.8672 113.446 29.4141C113.101 29.9609 112.622 30.3852 112.009 30.6868C111.396 30.9884 110.688 31.1392 109.886 31.1392ZM109.866 29.0511C110.141 29.0511 110.385 28.9882 110.597 28.8622C110.813 28.7363 110.98 28.5639 111.099 28.3452C111.222 28.1264 111.282 27.8778 111.278 27.5994C111.282 27.3177 111.222 27.0691 111.099 26.8537C110.98 26.6349 110.813 26.4626 110.597 26.3366C110.385 26.2107 110.141 26.1477 109.866 26.1477C109.664 26.1477 109.477 26.1842 109.305 26.2571C109.136 26.3267 108.988 26.4278 108.862 26.5604C108.736 26.6896 108.637 26.8437 108.564 27.0227C108.494 27.1984 108.458 27.3906 108.454 27.5994C108.458 27.8778 108.521 28.1264 108.643 28.3452C108.766 28.5639 108.933 28.7363 109.146 28.8622C109.358 28.9882 109.598 29.0511 109.866 29.0511ZM126.299 27.1023L118.901 30.0653V27.5597L123.614 25.929L123.534 26.0483V25.7699L123.614 25.8892L118.901 24.2585V21.7528L126.299 24.7159V27.1023ZM131.32 31V20.8182H138.479V23.0455H134.084V24.7955H138.041V27.0227H134.084V31H131.32ZM139.745 31V23.3636H142.49V31H139.745ZM141.118 22.5682C140.746 22.5682 140.428 22.4455 140.163 22.2003C139.898 21.955 139.765 21.66 139.765 21.3153C139.765 20.9706 139.898 20.6757 140.163 20.4304C140.428 20.1851 140.746 20.0625 141.118 20.0625C141.492 20.0625 141.81 20.1851 142.072 20.4304C142.337 20.6757 142.47 20.9706 142.47 21.3153C142.47 21.66 142.337 21.955 142.072 22.2003C141.81 22.4455 141.492 22.5682 141.118 22.5682ZM146.464 23.3636L147.578 25.7301L148.751 23.3636H151.476L149.428 27.1818L151.575 31H148.871L147.578 28.5739L146.325 31H143.581L145.749 27.1818L143.72 23.3636H146.464ZM159.538 31H155.621V20.8182H159.499C160.546 20.8182 161.451 21.022 162.213 21.4297C162.979 21.834 163.569 22.4174 163.983 23.1797C164.401 23.9387 164.609 24.8485 164.609 25.9091C164.609 26.9697 164.402 27.8812 163.988 28.6435C163.574 29.4025 162.987 29.9858 162.228 30.3935C161.469 30.7978 160.572 31 159.538 31ZM158.385 28.6534H159.439C159.943 28.6534 160.372 28.5722 160.727 28.4098C161.085 28.2474 161.356 27.9673 161.542 27.5696C161.731 27.1719 161.825 26.6184 161.825 25.9091C161.825 25.1998 161.729 24.6463 161.537 24.2486C161.348 23.8509 161.07 23.5708 160.702 23.4084C160.337 23.246 159.89 23.1648 159.359 23.1648H158.385V28.6534ZM166.138 31V23.3636H168.803V24.8153H168.882C169.022 24.2784 169.242 23.8857 169.544 23.6371C169.849 23.3885 170.205 23.2642 170.613 23.2642C170.732 23.2642 170.85 23.2741 170.966 23.294C171.085 23.3106 171.199 23.3355 171.309 23.3686V25.7102C171.173 25.6638 171.005 25.629 170.806 25.6058C170.608 25.5826 170.437 25.571 170.294 25.571C170.026 25.571 169.784 25.6323 169.569 25.755C169.356 25.8743 169.189 26.0433 169.066 26.2621C168.944 26.4775 168.882 26.7311 168.882 27.0227V31H166.138ZM172.418 31V23.3636H175.163V31H172.418ZM173.791 22.5682C173.419 22.5682 173.101 22.4455 172.836 22.2003C172.571 21.955 172.438 21.66 172.438 21.3153C172.438 20.9706 172.571 20.6757 172.836 20.4304C173.101 20.1851 173.419 20.0625 173.791 20.0625C174.165 20.0625 174.483 20.1851 174.745 20.4304C175.01 20.6757 175.143 20.9706 175.143 21.3153C175.143 21.66 175.01 21.955 174.745 22.2003C174.483 22.4455 174.165 22.5682 173.791 22.5682ZM181.345 23.3636V25.3523H176.234V23.3636H181.345ZM177.209 31V23.1449C177.209 22.5152 177.321 21.9931 177.547 21.5788C177.772 21.1645 178.09 20.8546 178.501 20.6491C178.912 20.4437 179.396 20.3409 179.953 20.3409C180.301 20.3409 180.639 20.3674 180.967 20.4205C181.298 20.4735 181.544 20.5199 181.703 20.5597L181.305 22.5284C181.206 22.4986 181.09 22.4754 180.957 22.4588C180.825 22.4389 180.709 22.429 180.609 22.429C180.351 22.429 180.177 22.4837 180.087 22.593C179.998 22.7024 179.953 22.8466 179.953 23.0256V31H177.209ZM187.168 23.3636V25.3523H182.137V23.3636H187.168ZM183.111 21.5341H185.855V28.544C185.855 28.6501 185.874 28.7396 185.91 28.8125C185.946 28.8821 186.003 28.9351 186.079 28.9716C186.155 29.0047 186.253 29.0213 186.372 29.0213C186.455 29.0213 186.551 29.0114 186.661 28.9915C186.773 28.9716 186.856 28.955 186.909 28.9418L187.307 30.8707C187.184 30.9072 187.009 30.9519 186.78 31.005C186.555 31.058 186.286 31.0928 185.975 31.1094C185.345 31.1425 184.816 31.0779 184.389 30.9155C183.961 30.7498 183.64 30.4896 183.424 30.1349C183.209 29.7803 183.104 29.3362 183.111 28.8026V21.5341ZM191.457 31V20.8182H195.852C196.608 20.8182 197.269 20.9673 197.836 21.2656C198.402 21.5639 198.843 21.9832 199.158 22.5234C199.473 23.0637 199.63 23.6951 199.63 24.4176C199.63 25.1468 199.468 25.7782 199.143 26.3118C198.822 26.8454 198.369 27.2564 197.786 27.5447C197.206 27.8331 196.528 27.9773 195.752 27.9773H193.127V25.8295H195.196C195.52 25.8295 195.797 25.7732 196.026 25.6605C196.258 25.5445 196.435 25.3804 196.558 25.1683C196.684 24.9562 196.747 24.706 196.747 24.4176C196.747 24.1259 196.684 23.8774 196.558 23.6719C196.435 23.4631 196.258 23.304 196.026 23.1946C195.797 23.0819 195.52 23.0256 195.196 23.0256H194.221V31H191.457ZM205.846 27.6591V23.3636H208.59V31H205.985V29.5483H205.906C205.74 30.0355 205.45 30.4167 205.036 30.6918C204.621 30.9635 204.129 31.0994 203.559 31.0994C203.025 31.0994 202.558 30.9768 202.157 30.7315C201.759 30.4863 201.449 30.1482 201.227 29.7173C201.009 29.2865 200.898 28.7926 200.894 28.2358V23.3636H203.639V27.6591C203.642 28.0369 203.738 28.3336 203.927 28.549C204.119 28.7644 204.388 28.8722 204.732 28.8722C204.961 28.8722 205.158 28.8241 205.324 28.728C205.493 28.6286 205.622 28.4893 205.712 28.3104C205.804 28.1281 205.849 27.911 205.846 27.6591ZM210.196 20.8182H212.94V28.5142C212.944 28.67 212.988 28.7893 213.075 28.8722C213.164 28.9517 213.292 28.9915 213.457 28.9915C213.544 28.9915 213.613 28.9882 213.666 28.9815C213.719 28.9749 213.762 28.965 213.795 28.9517L214.193 30.8409C214.08 30.8774 213.945 30.9155 213.786 30.9553C213.626 30.995 213.384 31.0232 213.06 31.0398C212.075 31.0895 211.353 30.937 210.892 30.5824C210.431 30.2244 210.199 29.6212 210.196 28.7727V20.8182ZM215.219 20.8182H217.963V28.5142C217.966 28.67 218.011 28.7893 218.097 28.8722C218.187 28.9517 218.314 28.9915 218.48 28.9915C218.566 28.9915 218.636 28.9882 218.689 28.9815C218.742 28.9749 218.785 28.965 218.818 28.9517L219.216 30.8409C219.103 30.8774 218.967 30.9155 218.808 30.9553C218.649 30.995 218.407 31.0232 218.082 31.0398C217.098 31.0895 216.375 30.937 215.915 30.5824C215.454 30.2244 215.222 29.6212 215.219 28.7727V20.8182ZM222.995 31V20.8182H227.39C228.146 20.8182 228.807 20.9557 229.374 21.2308C229.941 21.5059 230.381 21.902 230.696 22.419C231.011 22.9361 231.169 23.5559 231.169 24.2784C231.169 25.0076 231.006 25.6224 230.681 26.1229C230.36 26.6233 229.907 27.0012 229.324 27.2564C228.744 27.5116 228.066 27.6392 227.291 27.6392H224.666V25.4915H226.734C227.059 25.4915 227.335 25.4517 227.564 25.3722C227.796 25.2893 227.973 25.1584 228.096 24.9794C228.222 24.8004 228.285 24.5668 228.285 24.2784C228.285 23.9867 228.222 23.7498 228.096 23.5675C227.973 23.3819 227.796 23.246 227.564 23.1598C227.335 23.0703 227.059 23.0256 226.734 23.0256H225.759V31H222.995ZM228.961 26.3267L231.507 31H228.504L226.018 26.3267H228.961ZM236.092 31.1392C235.276 31.1392 234.574 30.9834 233.984 30.6719C233.397 30.357 232.945 29.9062 232.626 29.3196C232.312 28.7296 232.154 28.0237 232.154 27.2017C232.154 26.4129 232.313 25.7235 232.631 25.1335C232.95 24.5436 233.399 24.0845 233.979 23.7564C234.559 23.4283 235.243 23.2642 236.032 23.2642C236.609 23.2642 237.131 23.3537 237.598 23.5327C238.065 23.7116 238.465 23.9718 238.796 24.3132C239.128 24.6513 239.383 25.0623 239.562 25.5462C239.741 26.0301 239.83 26.5753 239.83 27.1818V27.8182H233.009V26.3068H237.305C237.301 26.0881 237.245 25.8958 237.136 25.7301C237.03 25.5611 236.885 25.4302 236.703 25.3374C236.524 25.2412 236.32 25.1932 236.092 25.1932C235.87 25.1932 235.666 25.2412 235.48 25.3374C235.294 25.4302 235.145 25.5594 235.033 25.7251C234.923 25.8909 234.865 26.0848 234.859 26.3068V27.9375C234.859 28.1828 234.91 28.4015 235.013 28.5938C235.116 28.786 235.263 28.9368 235.455 29.0462C235.647 29.1555 235.879 29.2102 236.151 29.2102C236.34 29.2102 236.513 29.1837 236.668 29.1307C236.827 29.0777 236.963 29.0014 237.076 28.902C237.189 28.7992 237.272 28.6766 237.325 28.5341H239.83C239.744 29.0644 239.54 29.5251 239.219 29.9162C238.897 30.304 238.471 30.6056 237.941 30.821C237.414 31.0331 236.798 31.1392 236.092 31.1392ZM246.092 33.8636V29.7472H246.052C245.946 30.0057 245.794 30.2377 245.595 30.4432C245.399 30.6454 245.161 30.8061 244.879 30.9254C244.6 31.0414 244.282 31.0994 243.924 31.0994C243.381 31.0994 242.88 30.9569 242.423 30.6719C241.969 30.3868 241.604 29.9543 241.329 29.3743C241.057 28.7943 240.921 28.0634 240.921 27.1818C240.921 26.2604 241.064 25.5114 241.349 24.9347C241.637 24.358 242.009 23.9354 242.463 23.6669C242.92 23.3984 243.401 23.2642 243.904 23.2642C244.282 23.2642 244.614 23.3305 244.899 23.4631C245.184 23.5923 245.422 23.7663 245.615 23.9851C245.807 24.2005 245.953 24.4375 246.052 24.696H246.112V23.3636H248.836V33.8636H246.092ZM244.938 28.9915C245.19 28.9915 245.406 28.9186 245.585 28.7727C245.767 28.6236 245.906 28.4148 246.002 28.1463C246.102 27.8745 246.152 27.553 246.152 27.1818C246.152 26.804 246.102 26.4808 246.002 26.2124C245.906 25.9406 245.767 25.7334 245.585 25.5909C245.406 25.4451 245.19 25.3722 244.938 25.3722C244.687 25.3722 244.471 25.4451 244.292 25.5909C244.117 25.7334 243.981 25.9406 243.885 26.2124C243.792 26.4808 243.745 26.804 243.745 27.1818C243.745 27.5597 243.792 27.8845 243.885 28.1562C243.981 28.4247 244.117 28.6319 244.292 28.7777C244.471 28.9202 244.687 28.9915 244.938 28.9915ZM255.386 27.6591V23.3636H258.131V31H255.525V29.5483H255.446C255.28 30.0355 254.99 30.4167 254.576 30.6918C254.162 30.9635 253.669 31.0994 253.099 31.0994C252.566 31.0994 252.098 30.9768 251.697 30.7315C251.3 30.4863 250.99 30.1482 250.768 29.7173C250.549 29.2865 250.438 28.7926 250.435 28.2358V23.3636H253.179V27.6591C253.182 28.0369 253.278 28.3336 253.467 28.549C253.659 28.7644 253.928 28.8722 254.273 28.8722C254.501 28.8722 254.699 28.8241 254.864 28.728C255.033 28.6286 255.163 28.4893 255.252 28.3104C255.345 28.1281 255.39 27.911 255.386 27.6591ZM263.395 31.1392C262.58 31.1392 261.877 30.9834 261.287 30.6719C260.701 30.357 260.248 29.9062 259.93 29.3196C259.615 28.7296 259.458 28.0237 259.458 27.2017C259.458 26.4129 259.617 25.7235 259.935 25.1335C260.253 24.5436 260.702 24.0845 261.283 23.7564C261.863 23.4283 262.547 23.2642 263.336 23.2642C263.912 23.2642 264.434 23.3537 264.902 23.5327C265.369 23.7116 265.769 23.9718 266.1 24.3132C266.431 24.6513 266.687 25.0623 266.866 25.5462C267.045 26.0301 267.134 26.5753 267.134 27.1818V27.8182H260.313V26.3068H264.608C264.605 26.0881 264.549 25.8958 264.439 25.7301C264.333 25.5611 264.189 25.4302 264.007 25.3374C263.828 25.2412 263.624 25.1932 263.395 25.1932C263.173 25.1932 262.97 25.2412 262.784 25.3374C262.598 25.4302 262.449 25.5594 262.336 25.7251C262.227 25.8909 262.169 26.0848 262.162 26.3068V27.9375C262.162 28.1828 262.214 28.4015 262.317 28.5938C262.419 28.786 262.567 28.9368 262.759 29.0462C262.951 29.1555 263.183 29.2102 263.455 29.2102C263.644 29.2102 263.816 29.1837 263.972 29.1307C264.131 29.0777 264.267 29.0014 264.38 28.902C264.492 28.7992 264.575 28.6766 264.628 28.5341H267.134C267.048 29.0644 266.844 29.5251 266.523 29.9162C266.201 30.304 265.775 30.6056 265.245 30.821C264.718 31.0331 264.101 31.1392 263.395 31.1392ZM275.444 25.8494H272.918C272.905 25.6937 272.851 25.5594 272.754 25.4467C272.658 25.334 272.534 25.2479 272.382 25.1882C272.232 25.1252 272.067 25.0938 271.884 25.0938C271.649 25.0938 271.447 25.1368 271.278 25.223C271.109 25.3092 271.026 25.4318 271.029 25.5909C271.026 25.7036 271.074 25.808 271.173 25.9041C271.276 26.0002 271.473 26.0748 271.765 26.1278L273.316 26.4062C274.098 26.5488 274.68 26.7891 275.061 27.1271C275.446 27.4619 275.64 27.911 275.643 28.4744C275.64 29.018 275.477 29.4903 275.156 29.8913C274.837 30.2891 274.402 30.5973 273.848 30.8161C273.298 31.0315 272.67 31.1392 271.964 31.1392C270.797 31.1392 269.884 30.9006 269.225 30.4233C268.568 29.946 268.202 29.3163 268.126 28.5341H270.85C270.887 28.776 271.006 28.9633 271.208 29.0959C271.414 29.2251 271.672 29.2898 271.984 29.2898C272.236 29.2898 272.443 29.2467 272.605 29.1605C272.771 29.0743 272.855 28.9517 272.859 28.7926C272.855 28.6468 272.783 28.5308 272.64 28.4446C272.501 28.3584 272.282 28.2888 271.984 28.2358L270.632 27.9972C269.853 27.8613 269.269 27.6027 268.882 27.2216C268.494 26.8404 268.302 26.3499 268.305 25.75C268.302 25.2197 268.441 24.7706 268.722 24.4027C269.007 24.0315 269.413 23.7498 269.94 23.5575C270.471 23.362 271.099 23.2642 271.825 23.2642C272.928 23.2642 273.798 23.4929 274.435 23.9503C275.074 24.4077 275.411 25.0407 275.444 25.8494ZM281.458 23.3636V25.3523H276.427V23.3636H281.458ZM277.402 21.5341H280.146V28.544C280.146 28.6501 280.164 28.7396 280.201 28.8125C280.237 28.8821 280.293 28.9351 280.37 28.9716C280.446 29.0047 280.544 29.0213 280.663 29.0213C280.746 29.0213 280.842 29.0114 280.951 28.9915C281.064 28.9716 281.147 28.955 281.2 28.9418L281.598 30.8707C281.475 30.9072 281.299 30.9519 281.071 31.005C280.845 31.058 280.577 31.0928 280.265 31.1094C279.635 31.1425 279.107 31.0779 278.679 30.9155C278.252 30.7498 277.93 30.4896 277.715 30.1349C277.499 29.7803 277.395 29.3362 277.402 28.8026V21.5341Z" fill="#BEAAFF"/>
<path d="M0 117.985H809" stroke="#876BE3" stroke-width="3"/>
<path d="M24 51.9933H785" stroke="#4E4E74"/>
<rect x="143" y="134.983" width="315" height="28.9963" fill="#71444F"/>
<rect x="458" y="134.983" width="315" height="28.9963" fill="#3E5457"/>
<rect width="44" height="29" transform="translate(172 134.983)" fill="#A05B66"/>
<path d="M181.517 144.863C182.102 144.863 182.6 144.974 183.012 145.195C183.423 145.416 183.737 145.717 183.954 146.098C184.171 146.48 184.279 146.906 184.279 147.379C184.279 147.782 184.21 148.176 184.071 148.562C183.932 148.947 183.707 149.353 183.395 149.777C183.087 150.198 182.682 150.666 182.18 151.181C181.677 151.697 181.062 152.286 180.334 152.949H184.487L184.338 153.983H178.91V153.001C179.569 152.369 180.132 151.814 180.6 151.337C181.072 150.856 181.462 150.434 181.77 150.07C182.078 149.706 182.32 149.379 182.498 149.088C182.676 148.794 182.799 148.516 182.869 148.256C182.942 147.992 182.979 147.719 182.979 147.437C182.979 146.956 182.843 146.577 182.57 146.3C182.301 146.022 181.926 145.884 181.445 145.884C181.016 145.884 180.663 145.96 180.386 146.111C180.113 146.259 179.837 146.499 179.56 146.833L178.728 146.189C179.079 145.752 179.476 145.422 179.918 145.201C180.36 144.976 180.893 144.863 181.517 144.863ZM189.89 144.863C190.874 144.863 191.617 145.266 192.119 146.072C192.622 146.874 192.873 148.016 192.873 149.498C192.873 150.984 192.622 152.13 192.119 152.936C191.617 153.742 190.874 154.145 189.89 154.145C188.906 154.145 188.163 153.742 187.66 152.936C187.158 152.13 186.906 150.984 186.906 149.498C186.906 148.016 187.158 146.874 187.66 146.072C188.163 145.266 188.906 144.863 189.89 144.863ZM189.89 145.845C189.357 145.845 188.939 146.129 188.635 146.696C188.336 147.264 188.187 148.198 188.187 149.498C188.187 150.169 188.219 150.739 188.284 151.207C188.349 151.675 188.449 152.052 188.583 152.338C188.722 152.624 188.9 152.834 189.116 152.969C189.333 153.099 189.591 153.164 189.89 153.164C190.25 153.164 190.557 153.04 190.813 152.793C191.069 152.546 191.261 152.152 191.391 151.61C191.526 151.069 191.593 150.364 191.593 149.498C191.593 148.605 191.534 147.892 191.417 147.359C191.305 146.822 191.123 146.436 190.871 146.202C190.62 145.964 190.293 145.845 189.89 145.845ZM191.164 146.157L191.489 147.138L188.713 152.774L188.278 151.987L191.164 146.157ZM197.464 144.863L198.51 145.292L196.17 150.869H200.902V151.851H194.857V150.967L197.464 144.863ZM199.784 148.393V153.983H198.582L198.575 151.077L198.744 148.393H199.784ZM208.606 147.158C208.606 147.591 208.474 147.966 208.21 148.282C207.95 148.599 207.573 148.893 207.079 149.166C207.664 149.418 208.123 149.747 208.457 150.154C208.795 150.557 208.964 151.032 208.964 151.578C208.964 152.059 208.838 152.494 208.587 152.884C208.34 153.274 207.982 153.582 207.514 153.807C207.051 154.033 206.494 154.145 205.844 154.145C205.189 154.145 204.633 154.033 204.173 153.807C203.718 153.578 203.372 153.272 203.133 152.891C202.895 152.505 202.776 152.076 202.776 151.604C202.776 151.058 202.936 150.596 203.257 150.219C203.582 149.838 204.011 149.526 204.544 149.283C204.076 149.045 203.723 148.768 203.484 148.451C203.25 148.131 203.133 147.721 203.133 147.223C203.133 146.82 203.216 146.471 203.38 146.176C203.545 145.877 203.762 145.63 204.03 145.435C204.299 145.24 204.594 145.097 204.914 145.006C205.239 144.911 205.558 144.863 205.87 144.863C206.216 144.863 206.552 144.911 206.877 145.006C207.202 145.097 207.495 145.238 207.755 145.429C208.015 145.615 208.221 145.853 208.372 146.144C208.528 146.43 208.606 146.768 208.606 147.158ZM207.67 151.584C207.67 151.199 207.575 150.893 207.384 150.668C207.194 150.442 206.927 150.254 206.585 150.102C206.242 149.946 205.842 149.79 205.382 149.634C205.148 149.747 204.929 149.888 204.726 150.057C204.526 150.226 204.366 150.436 204.245 150.687C204.128 150.934 204.069 151.233 204.069 151.584C204.069 152.074 204.219 152.46 204.518 152.741C204.817 153.023 205.259 153.164 205.844 153.164C206.437 153.164 206.89 153.012 207.202 152.709C207.514 152.405 207.67 152.031 207.67 151.584ZM204.355 147.236C204.355 147.556 204.429 147.812 204.576 148.003C204.724 148.193 204.936 148.352 205.213 148.477C205.495 148.599 205.829 148.724 206.214 148.854C206.609 148.62 206.901 148.384 207.092 148.146C207.287 147.907 207.384 147.595 207.384 147.21C207.384 146.781 207.252 146.438 206.988 146.183C206.728 145.927 206.355 145.799 205.87 145.799C205.393 145.799 205.02 145.925 204.752 146.176C204.487 146.428 204.355 146.781 204.355 147.236Z" fill="white"/>
<path d="M154.012 150.439V149.386H160.993V150.439H154.012Z" fill="white"/>
<rect width="44" height="29" transform="translate(487 134.983)" fill="#587D7A"/>
<path d="M497.96 145.026V153.723H496.718V146.339L494.697 147.574L494.157 146.69L496.861 145.026H497.96ZM499.799 152.982V153.983H494.521V152.982H499.799ZM504.89 144.863C505.874 144.863 506.617 145.266 507.119 146.072C507.622 146.874 507.873 148.016 507.873 149.498C507.873 150.984 507.622 152.13 507.119 152.936C506.617 153.742 505.874 154.145 504.89 154.145C503.906 154.145 503.163 153.742 502.66 152.936C502.158 152.13 501.906 150.984 501.906 149.498C501.906 148.016 502.158 146.874 502.66 146.072C503.163 145.266 503.906 144.863 504.89 144.863ZM504.89 145.845C504.357 145.845 503.939 146.129 503.635 146.696C503.336 147.264 503.187 148.198 503.187 149.498C503.187 150.169 503.219 150.739 503.284 151.207C503.349 151.675 503.449 152.052 503.583 152.338C503.722 152.624 503.9 152.834 504.116 152.969C504.333 153.099 504.591 153.164 504.89 153.164C505.25 153.164 505.557 153.04 505.813 152.793C506.069 152.546 506.261 152.152 506.391 151.61C506.526 151.069 506.593 150.364 506.593 149.498C506.593 148.605 506.534 147.892 506.417 147.359C506.305 146.822 506.123 146.436 505.871 146.202C505.62 145.964 505.293 145.845 504.89 145.845ZM506.164 146.157L506.489 147.138L503.713 152.774L503.278 151.987L506.164 146.157ZM512.496 144.863C513.081 144.863 513.58 144.974 513.991 145.195C514.403 145.416 514.717 145.717 514.934 146.098C515.151 146.48 515.259 146.906 515.259 147.379C515.259 147.782 515.19 148.176 515.051 148.562C514.912 148.947 514.687 149.353 514.375 149.777C514.067 150.198 513.662 150.666 513.159 151.181C512.657 151.697 512.041 152.286 511.313 152.949H515.467L515.317 153.983H509.89V153.001C510.549 152.369 511.112 151.814 511.58 151.337C512.052 150.856 512.442 150.434 512.75 150.07C513.058 149.706 513.3 149.379 513.478 149.088C513.656 148.794 513.779 148.516 513.848 148.256C513.922 147.992 513.959 147.719 513.959 147.437C513.959 146.956 513.822 146.577 513.549 146.3C513.281 146.022 512.906 145.884 512.425 145.884C511.996 145.884 511.643 145.96 511.365 146.111C511.092 146.259 510.817 146.499 510.54 146.833L509.708 146.189C510.059 145.752 510.455 145.422 510.897 145.201C511.339 144.976 511.872 144.863 512.496 144.863ZM520.454 144.863L521.5 145.292L519.16 150.869H523.892V151.851H517.847V150.967L520.454 144.863ZM522.774 148.393V153.983H521.572L521.565 151.077L521.734 148.393H522.774Z" fill="white"/>
<path d="M473.055 146.819V149.425H475.623V150.452H473.055V153.039H471.924V150.452H469.383V149.425H471.924V146.819H473.055Z" fill="white"/>
<path d="M0 416.007H809V458C809 464.627 803.627 470 797 470H12C5.3726 470 0 464.627 0 458V416.007Z" fill="#232334"/>
<rect x="24" y="430.255" width="149" height="26.5" rx="4" fill="#9174F5"/>
<path d="M41.5753 441.384H40.0241C39.9645 441.053 39.8535 440.761 39.6911 440.509C39.5286 440.257 39.3298 440.044 39.0945 439.868C38.8591 439.692 38.5956 439.56 38.304 439.47C38.0156 439.381 37.709 439.336 37.3842 439.336C36.7976 439.336 36.2723 439.484 35.8082 439.779C35.3475 440.074 34.983 440.506 34.7145 441.076C34.4493 441.646 34.3168 442.342 34.3168 443.164C34.3168 443.993 34.4493 444.692 34.7145 445.262C34.983 445.832 35.3492 446.263 35.8132 446.555C36.2772 446.847 36.7992 446.992 37.3793 446.992C37.7008 446.992 38.0057 446.949 38.294 446.863C38.5857 446.774 38.8492 446.643 39.0845 446.47C39.3198 446.298 39.5187 446.088 39.6811 445.839C39.8468 445.587 39.9612 445.299 40.0241 444.974L41.5753 444.979C41.4924 445.479 41.3317 445.94 41.093 446.361C40.8577 446.779 40.5545 447.14 40.1832 447.445C39.8153 447.746 39.3944 447.98 38.9205 448.146C38.4465 448.311 37.9295 448.394 37.3693 448.394C36.4877 448.394 35.7022 448.186 35.0128 447.768C34.3234 447.347 33.7798 446.745 33.3821 445.963C32.9877 445.181 32.7905 444.248 32.7905 443.164C32.7905 442.077 32.9893 441.144 33.3871 440.365C33.7848 439.583 34.3284 438.983 35.0178 438.565C35.7071 438.145 36.491 437.934 37.3693 437.934C37.9096 437.934 38.4134 438.012 38.8807 438.168C39.3513 438.32 39.7739 438.546 40.1484 438.844C40.523 439.139 40.8329 439.5 41.0781 439.928C41.3234 440.352 41.4891 440.838 41.5753 441.384ZM43.2942 448.255V440.619H44.731V441.832H44.8105C44.9498 441.421 45.195 441.098 45.5463 440.862C45.901 440.624 46.302 440.504 46.7495 440.504C46.8423 440.504 46.9516 440.508 47.0776 440.514C47.2069 440.521 47.3079 440.529 47.3809 440.539V441.961C47.3212 441.945 47.2151 441.926 47.0627 441.906C46.9102 441.883 46.7578 441.872 46.6053 441.872C46.254 441.872 45.9408 441.946 45.6657 442.095C45.3939 442.241 45.1784 442.445 45.0194 442.707C44.8603 442.965 44.7807 443.26 44.7807 443.592V448.255H43.2942ZM51.685 448.409C50.9326 448.409 50.2847 448.248 49.7411 447.927C49.2009 447.602 48.7833 447.146 48.4883 446.56C48.1966 445.97 48.0508 445.279 48.0508 444.487C48.0508 443.704 48.1966 443.015 48.4883 442.418C48.7833 441.822 49.1942 441.356 49.7212 441.021C50.2515 440.687 50.8713 440.519 51.5806 440.519C52.0115 440.519 52.4291 440.591 52.8335 440.733C53.2378 440.876 53.6007 441.099 53.9222 441.404C54.2437 441.709 54.4973 442.105 54.6829 442.592C54.8685 443.076 54.9613 443.665 54.9613 444.357V444.884H48.891V443.771H53.5046C53.5046 443.38 53.4251 443.033 53.266 442.732C53.1069 442.427 52.8832 442.186 52.5948 442.011C52.3098 441.835 51.975 441.747 51.5906 441.747C51.1729 441.747 50.8084 441.85 50.4968 442.056C50.1886 442.258 49.9499 442.523 49.7809 442.851C49.6152 443.176 49.5323 443.529 49.5323 443.91V444.78C49.5323 445.29 49.6218 445.725 49.8008 446.083C49.9831 446.44 50.2366 446.714 50.5614 446.903C50.8862 447.088 51.2657 447.181 51.6999 447.181C51.9817 447.181 52.2385 447.141 52.4705 447.062C52.7025 446.979 52.9031 446.856 53.0721 446.694C53.2411 446.532 53.3704 446.331 53.4599 446.092L54.8668 446.346C54.7541 446.76 54.552 447.123 54.2603 447.435C53.9719 447.743 53.609 447.983 53.1715 448.156C52.7373 448.325 52.2418 448.409 51.685 448.409ZM58.8329 448.424C58.349 448.424 57.9115 448.335 57.5204 448.156C57.1293 447.973 56.8194 447.71 56.5907 447.365C56.3654 447.021 56.2527 446.598 56.2527 446.097C56.2527 445.667 56.3355 445.312 56.5012 445.034C56.667 444.755 56.8907 444.535 57.1724 444.372C57.4541 444.21 57.769 444.087 58.117 444.004C58.465 443.922 58.8197 443.859 59.1809 443.815C59.6383 443.762 60.0095 443.719 60.2946 443.686C60.5796 443.65 60.7868 443.592 60.916 443.512C61.0453 443.433 61.1099 443.303 61.1099 443.124V443.09C61.1099 442.655 60.9873 442.319 60.742 442.08C60.5001 441.842 60.1388 441.722 59.6582 441.722C59.1577 441.722 58.7633 441.833 58.475 442.056C58.1899 442.274 57.9927 442.518 57.8833 442.786L56.4863 442.468C56.652 442.004 56.894 441.63 57.2122 441.345C57.5337 441.056 57.9032 440.847 58.3208 440.718C58.7385 440.586 59.1776 440.519 59.6383 440.519C59.9432 440.519 60.2664 440.556 60.6078 440.629C60.9525 440.698 61.274 440.828 61.5723 441.016C61.8739 441.205 62.1208 441.476 62.313 441.827C62.5053 442.175 62.6014 442.627 62.6014 443.184V448.255H61.1497V447.211H61.09C60.9939 447.403 60.8497 447.592 60.6575 447.778C60.4653 447.963 60.2183 448.118 59.9167 448.24C59.6151 448.363 59.2538 448.424 58.8329 448.424ZM59.1561 447.231C59.5671 447.231 59.9184 447.15 60.21 446.987C60.505 446.825 60.7288 446.613 60.8812 446.351C61.037 446.086 61.1149 445.802 61.1149 445.501V444.516C61.0618 444.57 60.9591 444.619 60.8066 444.666C60.6575 444.709 60.4868 444.747 60.2946 444.78C60.1023 444.81 59.9151 444.838 59.7328 444.865C59.5505 444.888 59.398 444.908 59.2754 444.924C58.987 444.961 58.7235 445.022 58.4849 445.108C58.2496 445.194 58.0607 445.319 57.9181 445.481C57.7789 445.64 57.7093 445.852 57.7093 446.117C57.7093 446.485 57.8452 446.764 58.117 446.953C58.3888 447.138 58.7351 447.231 59.1561 447.231ZM68.146 440.619V441.812H63.9748V440.619H68.146ZM65.0934 438.789H66.5799V446.013C66.5799 446.301 66.623 446.518 66.7092 446.664C66.7953 446.807 66.9064 446.905 67.0423 446.958C67.1815 447.007 67.3323 447.032 67.4947 447.032C67.614 447.032 67.7184 447.024 67.8079 447.007C67.8974 446.991 67.967 446.977 68.0167 446.967L68.2852 448.195C68.199 448.229 68.0763 448.262 67.9173 448.295C67.7582 448.331 67.5593 448.351 67.3207 448.355C66.9296 448.361 66.565 448.292 66.2269 448.146C65.8888 448 65.6154 447.775 65.4066 447.47C65.1978 447.165 65.0934 446.782 65.0934 446.321V438.789ZM72.9995 448.409C72.2471 448.409 71.5991 448.248 71.0556 447.927C70.5153 447.602 70.0977 447.146 69.8027 446.56C69.5111 445.97 69.3652 445.279 69.3652 444.487C69.3652 443.704 69.5111 443.015 69.8027 442.418C70.0977 441.822 70.5087 441.356 71.0357 441.021C71.566 440.687 72.1858 440.519 72.8951 440.519C73.3259 440.519 73.7435 440.591 74.1479 440.733C74.5523 440.876 74.9152 441.099 75.2367 441.404C75.5582 441.709 75.8117 442.105 75.9973 442.592C76.1829 443.076 76.2757 443.665 76.2757 444.357V444.884H70.2054V443.771H74.8191C74.8191 443.38 74.7395 443.033 74.5804 442.732C74.4213 442.427 74.1976 442.186 73.9093 442.011C73.6242 441.835 73.2895 441.747 72.905 441.747C72.4874 441.747 72.1228 441.85 71.8113 442.056C71.503 442.258 71.2644 442.523 71.0953 442.851C70.9296 443.176 70.8468 443.529 70.8468 443.91V444.78C70.8468 445.29 70.9363 445.725 71.1152 446.083C71.2975 446.44 71.5511 446.714 71.8759 446.903C72.2007 447.088 72.5802 447.181 73.0144 447.181C73.2961 447.181 73.553 447.141 73.785 447.062C74.017 446.979 74.2175 446.856 74.3865 446.694C74.5556 446.532 74.6848 446.331 74.7743 446.092L76.1813 446.346C76.0686 446.76 75.8664 447.123 75.5748 447.435C75.2864 447.743 74.9235 447.983 74.486 448.156C74.0518 448.325 73.5563 448.409 72.9995 448.409ZM81.7495 448.255V438.073H85.3787C86.1709 438.073 86.8271 438.217 87.3475 438.506C87.8678 438.794 88.2573 439.189 88.5158 439.689C88.7743 440.186 88.9036 440.746 88.9036 441.369C88.9036 441.996 88.7727 442.559 88.5108 443.06C88.2523 443.557 87.8612 443.951 87.3375 444.243C86.8172 444.531 86.1626 444.676 85.3738 444.676H82.878V443.373H85.2346C85.735 443.373 86.141 443.287 86.4526 443.115C86.7641 442.939 86.9928 442.7 87.1387 442.399C87.2845 442.097 87.3574 441.754 87.3574 441.369C87.3574 440.985 87.2845 440.644 87.1387 440.345C86.9928 440.047 86.7625 439.813 86.4476 439.644C86.1361 439.475 85.7251 439.391 85.2147 439.391H83.2857V448.255H81.7495ZM95.4226 445.088V440.619H96.9141V448.255H95.4524V446.933H95.3729C95.1972 447.34 94.9155 447.68 94.5277 447.952C94.1432 448.22 93.6643 448.355 93.0909 448.355C92.6004 448.355 92.1662 448.247 91.7884 448.031C91.4138 447.813 91.1188 447.49 90.9034 447.062C90.6913 446.634 90.5852 446.106 90.5852 445.476V440.619H92.0717V445.297C92.0717 445.817 92.2159 446.232 92.5043 446.54C92.7926 446.848 93.1671 447.002 93.6278 447.002C93.9063 447.002 94.183 446.933 94.4581 446.793C94.7365 446.654 94.9669 446.444 95.1491 446.162C95.3348 445.88 95.4259 445.522 95.4226 445.088ZM98.9114 438.073H100.398V446.167C100.398 446.495 100.439 446.727 100.522 446.863C100.608 446.999 100.771 447.064 101.009 447.057C101.139 447.054 101.235 447.045 101.298 447.032C101.364 447.019 101.424 447.004 101.477 446.987L101.745 448.176C101.642 448.205 101.512 448.234 101.352 448.26C101.197 448.29 101.019 448.307 100.82 448.31C100.177 448.32 99.6986 448.167 99.3837 447.852C99.0688 447.538 98.9114 447.079 98.9114 446.475V438.073ZM102.931 438.073H104.417V446.167C104.417 446.495 104.459 446.727 104.542 446.863C104.628 446.999 104.79 447.064 105.029 447.057C105.158 447.054 105.254 447.045 105.317 447.032C105.384 447.019 105.443 447.004 105.496 446.987L105.765 448.176C105.662 448.205 105.531 448.234 105.372 448.26C105.216 448.29 105.039 448.307 104.84 448.31C104.197 448.32 103.718 448.167 103.403 447.852C103.088 447.538 102.931 447.079 102.931 446.475V438.073ZM110.57 448.255V438.073H114.199C114.988 438.073 115.642 438.209 116.163 438.481C116.686 438.753 117.078 439.129 117.336 439.61C117.595 440.087 117.724 440.639 117.724 441.265C117.724 441.888 117.593 442.437 117.331 442.911C117.073 443.381 116.682 443.748 116.158 444.009C115.637 444.271 114.983 444.402 114.194 444.402H111.445V443.08H114.055C114.552 443.08 114.956 443.008 115.268 442.866C115.583 442.723 115.813 442.516 115.959 442.244C116.105 441.973 116.178 441.646 116.178 441.265C116.178 440.881 116.103 440.548 115.954 440.266C115.808 439.984 115.578 439.769 115.263 439.619C114.951 439.467 114.542 439.391 114.035 439.391H112.106V448.255H110.57ZM115.596 443.661L118.112 448.255H116.362L113.896 443.661H115.596ZM122.669 448.409C121.917 448.409 121.269 448.248 120.725 447.927C120.185 447.602 119.768 447.146 119.473 446.56C119.181 445.97 119.035 445.279 119.035 444.487C119.035 443.704 119.181 443.015 119.473 442.418C119.768 441.822 120.179 441.356 120.706 441.021C121.236 440.687 121.856 440.519 122.565 440.519C122.996 440.519 123.413 440.591 123.818 440.733C124.222 440.876 124.585 441.099 124.907 441.404C125.228 441.709 125.482 442.105 125.667 442.592C125.853 443.076 125.946 443.665 125.946 444.357V444.884H119.875V443.771H124.489C124.489 443.38 124.409 443.033 124.25 442.732C124.091 442.427 123.868 442.186 123.579 442.011C123.294 441.835 122.959 441.747 122.575 441.747C122.157 441.747 121.793 441.85 121.481 442.056C121.173 442.258 120.934 442.523 120.765 442.851C120.6 443.176 120.517 443.529 120.517 443.91V444.78C120.517 445.29 120.606 445.725 120.785 446.083C120.967 446.44 121.221 446.714 121.546 446.903C121.871 447.088 122.25 447.181 122.684 447.181C122.966 447.181 123.223 447.141 123.455 447.062C123.687 446.979 123.887 446.856 124.056 446.694C124.225 446.532 124.355 446.331 124.444 446.092L125.851 446.346C125.739 446.76 125.536 447.123 125.245 447.435C124.956 447.743 124.593 447.983 124.156 448.156C123.722 448.325 123.226 448.409 122.669 448.409ZM132.751 451.119V447.067H132.661C132.572 447.229 132.442 447.415 132.273 447.624C132.108 447.833 131.879 448.015 131.587 448.171C131.296 448.326 130.918 448.404 130.454 448.404C129.837 448.404 129.287 448.247 128.803 447.932C128.323 447.614 127.945 447.161 127.67 446.575C127.398 445.985 127.262 445.277 127.262 444.452C127.262 443.627 127.399 442.921 127.675 442.334C127.953 441.747 128.334 441.298 128.818 440.987C129.302 440.675 129.85 440.519 130.464 440.519C130.938 440.519 131.319 440.599 131.607 440.758C131.899 440.914 132.124 441.096 132.283 441.305C132.446 441.514 132.572 441.698 132.661 441.857H132.785V440.619H134.237V451.119H132.751ZM130.782 447.137C131.209 447.137 131.571 447.024 131.866 446.798C132.164 446.57 132.389 446.253 132.542 445.849C132.698 445.445 132.775 444.974 132.775 444.437C132.775 443.907 132.699 443.443 132.547 443.045C132.394 442.647 132.171 442.337 131.876 442.115C131.581 441.893 131.216 441.782 130.782 441.782C130.334 441.782 129.961 441.898 129.663 442.13C129.365 442.362 129.14 442.679 128.987 443.08C128.838 443.481 128.763 443.933 128.763 444.437C128.763 444.947 128.84 445.406 128.992 445.814C129.144 446.222 129.37 446.545 129.668 446.784C129.97 447.019 130.341 447.137 130.782 447.137ZM141.073 445.088V440.619H142.564V448.255H141.103V446.933H141.023C140.848 447.34 140.566 447.68 140.178 447.952C139.794 448.22 139.315 448.355 138.741 448.355C138.251 448.355 137.817 448.247 137.439 448.031C137.064 447.813 136.769 447.49 136.554 447.062C136.342 446.634 136.236 446.106 136.236 445.476V440.619H137.722V445.297C137.722 445.817 137.866 446.232 138.155 446.54C138.443 446.848 138.818 447.002 139.278 447.002C139.557 447.002 139.833 446.933 140.108 446.793C140.387 446.654 140.617 446.444 140.8 446.162C140.985 445.88 141.076 445.522 141.073 445.088ZM147.853 448.409C147.101 448.409 146.453 448.248 145.909 447.927C145.369 447.602 144.951 447.146 144.656 446.56C144.365 445.97 144.219 445.279 144.219 444.487C144.219 443.704 144.365 443.015 144.656 442.418C144.951 441.822 145.362 441.356 145.889 441.021C146.42 440.687 147.039 440.519 147.749 440.519C148.179 440.519 148.597 440.591 149.001 440.733C149.406 440.876 149.769 441.099 150.09 441.404C150.412 441.709 150.665 442.105 150.851 442.592C151.036 443.076 151.129 443.665 151.129 444.357V444.884H145.059V443.771H149.673C149.673 443.38 149.593 443.033 149.434 442.732C149.275 442.427 149.051 442.186 148.763 442.011C148.478 441.835 148.143 441.747 147.759 441.747C147.341 441.747 146.976 441.85 146.665 442.056C146.357 442.258 146.118 442.523 145.949 442.851C145.783 443.176 145.7 443.529 145.7 443.91V444.78C145.7 445.29 145.79 445.725 145.969 446.083C146.151 446.44 146.405 446.714 146.729 446.903C147.054 447.088 147.434 447.181 147.868 447.181C148.15 447.181 148.406 447.141 148.638 447.062C148.871 446.979 149.071 446.856 149.24 446.694C149.409 446.532 149.538 446.331 149.628 446.092L151.035 446.346C150.922 446.76 150.72 447.123 150.428 447.435C150.14 447.743 149.777 447.983 149.339 448.156C148.905 448.325 148.41 448.409 147.853 448.409ZM158.501 442.483L157.154 442.722C157.097 442.549 157.008 442.385 156.885 442.23C156.766 442.074 156.603 441.946 156.398 441.847C156.192 441.747 155.936 441.698 155.627 441.698C155.206 441.698 154.855 441.792 154.573 441.981C154.292 442.167 154.151 442.407 154.151 442.702C154.151 442.957 154.245 443.163 154.434 443.318C154.623 443.474 154.928 443.602 155.349 443.701L156.562 443.98C157.265 444.142 157.788 444.392 158.133 444.73C158.478 445.068 158.65 445.507 158.65 446.048C158.65 446.505 158.517 446.913 158.252 447.271C157.99 447.625 157.624 447.904 157.154 448.106C156.686 448.308 156.144 448.409 155.528 448.409C154.673 448.409 153.975 448.227 153.435 447.862C152.895 447.494 152.563 446.972 152.441 446.296L153.877 446.078C153.967 446.452 154.151 446.735 154.429 446.928C154.708 447.117 155.07 447.211 155.518 447.211C156.005 447.211 156.395 447.11 156.686 446.908C156.978 446.702 157.124 446.452 157.124 446.157C157.124 445.918 157.034 445.718 156.855 445.556C156.68 445.393 156.41 445.271 156.045 445.188L154.752 444.904C154.04 444.742 153.513 444.483 153.171 444.129C152.833 443.774 152.664 443.325 152.664 442.781C152.664 442.331 152.79 441.936 153.042 441.598C153.294 441.26 153.642 440.997 154.086 440.808C154.53 440.615 155.039 440.519 155.612 440.519C156.438 440.519 157.087 440.698 157.561 441.056C158.035 441.411 158.348 441.887 158.501 442.483ZM163.849 440.619V441.812H159.678V440.619H163.849ZM160.797 438.789H162.283V446.013C162.283 446.301 162.326 446.518 162.412 446.664C162.498 446.807 162.609 446.905 162.745 446.958C162.885 447.007 163.035 447.032 163.198 447.032C163.317 447.032 163.422 447.024 163.511 447.007C163.6 446.991 163.67 446.977 163.72 446.967L163.988 448.195C163.902 448.229 163.779 448.262 163.62 448.295C163.461 448.331 163.262 448.351 163.024 448.355C162.633 448.361 162.268 448.292 161.93 448.146C161.592 448 161.319 447.775 161.11 447.47C160.901 447.165 160.797 446.782 160.797 446.321V438.789Z" fill="white"/>
<path d="M208.575 442.134H207.024C206.964 441.803 206.853 441.511 206.691 441.259C206.529 441.007 206.33 440.794 206.094 440.618C205.859 440.442 205.596 440.31 205.304 440.22C205.016 440.131 204.709 440.086 204.384 440.086C203.798 440.086 203.272 440.234 202.808 440.529C202.348 440.824 201.983 441.256 201.714 441.826C201.449 442.396 201.317 443.092 201.317 443.914C201.317 444.743 201.449 445.442 201.714 446.012C201.983 446.582 202.349 447.013 202.813 447.305C203.277 447.597 203.799 447.742 204.379 447.742C204.701 447.742 205.006 447.699 205.294 447.613C205.586 447.524 205.849 447.393 206.085 447.22C206.32 447.048 206.519 446.838 206.681 446.589C206.847 446.337 206.961 446.049 207.024 445.724L208.575 445.729C208.492 446.229 208.332 446.69 208.093 447.111C207.858 447.529 207.554 447.89 207.183 448.195C206.815 448.496 206.394 448.73 205.92 448.896C205.446 449.061 204.929 449.144 204.369 449.144C203.488 449.144 202.702 448.936 202.013 448.518C201.323 448.097 200.78 447.495 200.382 446.713C199.988 445.931 199.79 444.998 199.79 443.914C199.79 442.827 199.989 441.894 200.387 441.115C200.785 440.333 201.328 439.733 202.018 439.315C202.707 438.895 203.491 438.684 204.369 438.684C204.91 438.684 205.413 438.762 205.881 438.918C206.351 439.07 206.774 439.296 207.148 439.594C207.523 439.889 207.833 440.25 208.078 440.678C208.323 441.102 208.489 441.588 208.575 442.134ZM210.294 438.823H211.781V446.917C211.781 447.245 211.822 447.477 211.905 447.613C211.991 447.749 212.154 447.814 212.392 447.807C212.521 447.804 212.618 447.795 212.681 447.782C212.747 447.769 212.807 447.754 212.86 447.737L213.128 448.926C213.025 448.955 212.894 448.984 212.735 449.01C212.579 449.04 212.402 449.057 212.203 449.06C211.56 449.07 211.081 448.917 210.767 448.602C210.452 448.288 210.294 447.829 210.294 447.225V438.823ZM217.325 449.159C216.609 449.159 215.985 448.995 215.451 448.667C214.917 448.339 214.503 447.88 214.208 447.29C213.913 446.7 213.766 446.011 213.766 445.222C213.766 444.43 213.913 443.737 214.208 443.144C214.503 442.55 214.917 442.09 215.451 441.762C215.985 441.433 216.609 441.269 217.325 441.269C218.041 441.269 218.666 441.433 219.2 441.762C219.733 442.09 220.147 442.55 220.442 443.144C220.737 443.737 220.885 444.43 220.885 445.222C220.885 446.011 220.737 446.7 220.442 447.29C220.147 447.88 219.733 448.339 219.2 448.667C218.666 448.995 218.041 449.159 217.325 449.159ZM217.33 447.911C217.794 447.911 218.179 447.789 218.484 447.543C218.789 447.298 219.014 446.972 219.16 446.564C219.309 446.156 219.384 445.707 219.384 445.217C219.384 444.73 219.309 444.282 219.16 443.874C219.014 443.463 218.789 443.134 218.484 442.885C218.179 442.637 217.794 442.512 217.33 442.512C216.863 442.512 216.475 442.637 216.167 442.885C215.862 443.134 215.635 443.463 215.486 443.874C215.34 444.282 215.267 444.73 215.267 445.217C215.267 445.707 215.34 446.156 215.486 446.564C215.635 446.972 215.862 447.298 216.167 447.543C216.475 447.789 216.863 447.911 217.33 447.911ZM228.267 443.233L226.919 443.472C226.863 443.299 226.773 443.135 226.651 442.98C226.531 442.824 226.369 442.696 226.164 442.597C225.958 442.497 225.701 442.448 225.393 442.448C224.972 442.448 224.621 442.542 224.339 442.731C224.057 442.917 223.916 443.157 223.916 443.452C223.916 443.707 224.011 443.913 224.2 444.068C224.389 444.224 224.694 444.352 225.115 444.451L226.328 444.73C227.03 444.892 227.554 445.142 227.899 445.48C228.243 445.818 228.416 446.257 228.416 446.798C228.416 447.255 228.283 447.663 228.018 448.021C227.756 448.375 227.39 448.654 226.919 448.856C226.452 449.058 225.91 449.159 225.294 449.159C224.438 449.159 223.741 448.977 223.2 448.612C222.66 448.244 222.329 447.722 222.206 447.046L223.643 446.828C223.732 447.202 223.916 447.485 224.195 447.678C224.473 447.867 224.836 447.961 225.284 447.961C225.771 447.961 226.16 447.86 226.452 447.658C226.744 447.452 226.889 447.202 226.889 446.907C226.889 446.668 226.8 446.468 226.621 446.306C226.445 446.143 226.175 446.021 225.811 445.938L224.518 445.654C223.805 445.492 223.278 445.233 222.937 444.879C222.599 444.524 222.43 444.075 222.43 443.531C222.43 443.081 222.556 442.686 222.808 442.348C223.06 442.01 223.408 441.747 223.852 441.558C224.296 441.365 224.805 441.269 225.378 441.269C226.203 441.269 226.853 441.448 227.327 441.806C227.801 442.161 228.114 442.637 228.267 443.233ZM233.341 449.159C232.589 449.159 231.941 448.998 231.397 448.677C230.857 448.352 230.44 447.896 230.145 447.31C229.853 446.72 229.707 446.029 229.707 445.237C229.707 444.454 229.853 443.765 230.145 443.168C230.44 442.572 230.85 442.106 231.377 441.771C231.908 441.437 232.528 441.269 233.237 441.269C233.668 441.269 234.085 441.341 234.49 441.483C234.894 441.626 235.257 441.849 235.578 442.154C235.9 442.459 236.154 442.855 236.339 443.342C236.525 443.826 236.618 444.415 236.618 445.107V445.634H230.547V444.521H235.161C235.161 444.13 235.081 443.783 234.922 443.482C234.763 443.177 234.539 442.936 234.251 442.761C233.966 442.585 233.631 442.497 233.247 442.497C232.829 442.497 232.465 442.6 232.153 442.806C231.845 443.008 231.606 443.273 231.437 443.601C231.271 443.926 231.189 444.279 231.189 444.66V445.53C231.189 446.04 231.278 446.475 231.457 446.833C231.639 447.19 231.893 447.464 232.218 447.653C232.542 447.838 232.922 447.931 233.356 447.931C233.638 447.931 233.895 447.891 234.127 447.812C234.359 447.729 234.559 447.606 234.728 447.444C234.897 447.282 235.027 447.081 235.116 446.842L236.523 447.096C236.41 447.51 236.208 447.873 235.917 448.185C235.628 448.493 235.265 448.733 234.828 448.906C234.394 449.075 233.898 449.159 233.341 449.159Z" fill="white"/>
<rect x="191.5" y="430.505" width="54" height="26" rx="3.5" stroke="#4E4E74"/>
<path d="M0 416.507H809" stroke="#4E4E74"/>
<rect x="0.5" y="0.560059" width="808" height="468.94" rx="11.5" stroke="#B9A4FF"/>
<path d="M31.532 90.3636L28.7628 98H27.1719L24.3977 90.3636H25.9936L27.9276 96.2401H28.0071L29.9361 90.3636H31.532ZM35.1425 98.169C34.6586 98.169 34.2211 98.0795 33.83 97.9006C33.4389 97.7183 33.129 97.4548 32.9003 97.1101C32.675 96.7654 32.5623 96.3428 32.5623 95.8423C32.5623 95.4115 32.6451 95.0568 32.8109 94.7784C32.9766 94.5 33.2003 94.2796 33.482 94.1172C33.7637 93.9548 34.0786 93.8321 34.4266 93.7493C34.7746 93.6664 35.1293 93.6035 35.4905 93.5604C35.9479 93.5073 36.3191 93.4643 36.6042 93.4311C36.8892 93.3946 37.0964 93.3366 37.2256 93.2571C37.3549 93.1776 37.4195 93.0483 37.4195 92.8693V92.8345C37.4195 92.4003 37.2969 92.0639 37.0516 91.8253C36.8097 91.5866 36.4484 91.4673 35.9678 91.4673C35.4673 91.4673 35.0729 91.5784 34.7846 91.8004C34.4995 92.0192 34.3023 92.2628 34.193 92.5312L32.7959 92.2131C32.9617 91.7491 33.2036 91.3745 33.5218 91.0895C33.8433 90.8011 34.2128 90.5923 34.6305 90.4631C35.0481 90.3305 35.4872 90.2642 35.9479 90.2642C36.2529 90.2642 36.576 90.3007 36.9174 90.3736C37.2621 90.4432 37.5836 90.5724 37.8819 90.7614C38.1835 90.9503 38.4304 91.2204 38.6226 91.5717C38.8149 91.9197 38.911 92.3722 38.911 92.929V98H37.4593V96.956H37.3996C37.3035 97.1482 37.1593 97.3371 36.9671 97.5227C36.7749 97.7083 36.5279 97.8625 36.2263 97.9851C35.9247 98.1077 35.5635 98.169 35.1425 98.169ZM35.4657 96.9759C35.8767 96.9759 36.228 96.8946 36.5197 96.7322C36.8146 96.5698 37.0384 96.3577 37.1908 96.0959C37.3466 95.8307 37.4245 95.5473 37.4245 95.2457V94.2614C37.3715 94.3144 37.2687 94.3641 37.1163 94.4105C36.9671 94.4536 36.7964 94.4917 36.6042 94.5249C36.4119 94.5547 36.2247 94.5829 36.0424 94.6094C35.8601 94.6326 35.7076 94.6525 35.585 94.669C35.2966 94.7055 35.0332 94.7668 34.7945 94.853C34.5592 94.9392 34.3703 95.0634 34.2278 95.2259C34.0886 95.3849 34.0189 95.5971 34.0189 95.8622C34.0189 96.2301 34.1548 96.5085 34.4266 96.6974C34.6984 96.883 35.0448 96.9759 35.4657 96.9759ZM41.1009 87.8182H42.5874V95.9119C42.5874 96.2401 42.6289 96.4721 42.7117 96.608C42.7979 96.7438 42.9603 96.8085 43.1989 96.8018C43.3282 96.7985 43.4243 96.7902 43.4873 96.777C43.5536 96.7637 43.6132 96.7488 43.6663 96.7322L43.9347 97.9205C43.832 97.9503 43.7011 97.9785 43.542 98.005C43.3862 98.0348 43.2089 98.0514 43.01 98.0547C42.367 98.0646 41.8881 97.9122 41.5732 97.5973C41.2584 97.2824 41.1009 96.8234 41.1009 96.2202V87.8182ZM45.1254 98V90.3636H46.6119V98H45.1254ZM45.8761 89.1854C45.6176 89.1854 45.3955 89.0992 45.2099 88.9268C45.0276 88.7512 44.9365 88.5424 44.9365 88.3004C44.9365 88.0552 45.0276 87.8464 45.2099 87.674C45.3955 87.4983 45.6176 87.4105 45.8761 87.4105C46.1346 87.4105 46.355 87.4983 46.5373 87.674C46.7229 87.8464 46.8157 88.0552 46.8157 88.3004C46.8157 88.5424 46.7229 88.7512 46.5373 88.9268C46.355 89.0992 46.1346 89.1854 45.8761 89.1854ZM51.6804 98.1491C51.0639 98.1491 50.5137 97.9917 50.0298 97.6768C49.5492 97.3587 49.1714 96.9062 48.8963 96.3196C48.6245 95.7296 48.4886 95.022 48.4886 94.1967C48.4886 93.3714 48.6262 92.6655 48.9013 92.0788C49.1797 91.4922 49.5608 91.0431 50.0447 90.7315C50.5286 90.42 51.0772 90.2642 51.6903 90.2642C52.1643 90.2642 52.5454 90.3438 52.8338 90.5028C53.1255 90.6586 53.3508 90.8409 53.5099 91.0497C53.6723 91.2585 53.7983 91.4425 53.8878 91.6016H53.9773V87.8182H55.4638V98H54.0121V96.8118H53.8878C53.7983 96.9742 53.669 97.1598 53.5 97.3686C53.3343 97.5774 53.1056 97.7597 52.8139 97.9155C52.5222 98.0713 52.1444 98.1491 51.6804 98.1491ZM52.0085 96.8814C52.4361 96.8814 52.7973 96.7687 53.0923 96.5433C53.3906 96.3146 53.616 95.9981 53.7684 95.5938C53.9242 95.1894 54.0021 94.7187 54.0021 94.1818C54.0021 93.6515 53.9259 93.1875 53.7734 92.7898C53.621 92.392 53.3972 92.0821 53.1023 91.8601C52.8073 91.638 52.4427 91.527 52.0085 91.527C51.5611 91.527 51.1882 91.643 50.8899 91.875C50.5916 92.107 50.3662 92.4235 50.2138 92.8246C50.0646 93.2256 49.99 93.678 49.99 94.1818C49.99 94.6922 50.0663 95.1513 50.2187 95.5589C50.3712 95.9666 50.5966 96.2898 50.8949 96.5284C51.1965 96.7637 51.5677 96.8814 52.0085 96.8814ZM57.7954 98V90.3636H59.2819V98H57.7954ZM58.5461 89.1854C58.2876 89.1854 58.0655 89.0992 57.8799 88.9268C57.6976 88.7512 57.6065 88.5424 57.6065 88.3004C57.6065 88.0552 57.6976 87.8464 57.8799 87.674C58.0655 87.4983 58.2876 87.4105 58.5461 87.4105C58.8046 87.4105 59.025 87.4983 59.2073 87.674C59.3929 87.8464 59.4857 88.0552 59.4857 88.3004C59.4857 88.5424 59.3929 88.7512 59.2073 88.9268C59.025 89.0992 58.8046 89.1854 58.5461 89.1854ZM63.714 98.169C63.2301 98.169 62.7926 98.0795 62.4015 97.9006C62.0104 97.7183 61.7005 97.4548 61.4718 97.1101C61.2464 96.7654 61.1338 96.3428 61.1338 95.8423C61.1338 95.4115 61.2166 95.0568 61.3823 94.7784C61.5481 94.5 61.7718 94.2796 62.0535 94.1172C62.3352 93.9548 62.6501 93.8321 62.9981 93.7493C63.3461 93.6664 63.7008 93.6035 64.062 93.5604C64.5194 93.5073 64.8906 93.4643 65.1757 93.4311C65.4607 93.3946 65.6678 93.3366 65.7971 93.2571C65.9264 93.1776 65.991 93.0483 65.991 92.8693V92.8345C65.991 92.4003 65.8684 92.0639 65.6231 91.8253C65.3812 91.5866 65.0199 91.4673 64.5393 91.4673C64.0388 91.4673 63.6444 91.5784 63.3561 91.8004C63.071 92.0192 62.8738 92.2628 62.7644 92.5312L61.3674 92.2131C61.5331 91.7491 61.7751 91.3745 62.0933 91.0895C62.4148 90.8011 62.7843 90.5923 63.2019 90.4631C63.6196 90.3305 64.0587 90.2642 64.5194 90.2642C64.8243 90.2642 65.1475 90.3007 65.4889 90.3736C65.8336 90.4432 66.1551 90.5724 66.4534 90.7614C66.755 90.9503 67.0019 91.2204 67.1941 91.5717C67.3864 91.9197 67.4825 92.3722 67.4825 92.929V98H66.0308V96.956H65.9711C65.875 97.1482 65.7308 97.3371 65.5386 97.5227C65.3464 97.7083 65.0994 97.8625 64.7978 97.9851C64.4962 98.1077 64.1349 98.169 63.714 98.169ZM64.0372 96.9759C64.4481 96.9759 64.7995 96.8946 65.0911 96.7322C65.3861 96.5698 65.6098 96.3577 65.7623 96.0959C65.9181 95.8307 65.996 95.5473 65.996 95.2457V94.2614C65.9429 94.3144 65.8402 94.3641 65.6877 94.4105C65.5386 94.4536 65.3679 94.4917 65.1757 94.5249C64.9834 94.5547 64.7962 94.5829 64.6139 94.6094C64.4316 94.6326 64.2791 94.6525 64.1565 94.669C63.8681 94.7055 63.6046 94.7668 63.366 94.853C63.1307 94.9392 62.9418 95.0634 62.7992 95.2259C62.66 95.3849 62.5904 95.5971 62.5904 95.8622C62.5904 96.2301 62.7263 96.5085 62.9981 96.6974C63.2699 96.883 63.6162 96.9759 64.0372 96.9759ZM72.889 98.1541C72.1499 98.1541 71.5136 97.9867 70.9799 97.652C70.4496 97.3139 70.042 96.8482 69.7569 96.255C69.4719 95.6617 69.3294 94.9822 69.3294 94.2166C69.3294 93.4411 69.4752 92.7566 69.7669 92.1634C70.0585 91.5668 70.4695 91.1011 70.9998 90.7663C71.5301 90.4316 72.1549 90.2642 72.8741 90.2642C73.4541 90.2642 73.9712 90.3719 74.4253 90.5874C74.8793 90.7995 75.2456 91.0978 75.524 91.4822C75.8057 91.8667 75.9731 92.3158 76.0261 92.8295H74.5794C74.4998 92.4716 74.3175 92.1634 74.0325 91.9048C73.7508 91.6463 73.3729 91.517 72.899 91.517C72.4847 91.517 72.1218 91.6264 71.8102 91.8452C71.502 92.0606 71.2617 92.3688 71.0893 92.7699C70.917 93.1676 70.8308 93.6383 70.8308 94.1818C70.8308 94.7386 70.9153 95.2192 71.0843 95.6236C71.2534 96.0279 71.492 96.3411 71.8003 96.5632C72.1118 96.7853 72.4781 96.8963 72.899 96.8963C73.1807 96.8963 73.4359 96.8449 73.6646 96.7422C73.8966 96.6361 74.0905 96.4853 74.2463 96.2898C74.4054 96.0942 74.5164 95.8589 74.5794 95.5838H76.0261C75.9731 96.0777 75.8123 96.5185 75.5439 96.9062C75.2754 97.294 74.9158 97.599 74.465 97.821C74.0176 98.0431 73.4923 98.1541 72.889 98.1541ZM81.7036 87.3409L78.4224 99.5312H77.095L80.3762 87.3409H81.7036ZM83.1764 87.8182H84.6629V95.9119C84.6629 96.2401 84.7043 96.4721 84.7872 96.608C84.8734 96.7438 85.0358 96.8085 85.2744 96.8018C85.4037 96.7985 85.4998 96.7902 85.5628 96.777C85.6291 96.7637 85.6887 96.7488 85.7417 96.7322L86.0102 97.9205C85.9075 97.9503 85.7765 97.9785 85.6174 98.005C85.4617 98.0348 85.2844 98.0514 85.0855 98.0547C84.4425 98.0646 83.9636 97.9122 83.6487 97.5973C83.3338 97.2824 83.1764 96.8234 83.1764 96.2202V87.8182ZM89.4232 98.169C88.9393 98.169 88.5018 98.0795 88.1107 97.9006C87.7196 97.7183 87.4097 97.4548 87.181 97.1101C86.9556 96.7654 86.8429 96.3428 86.8429 95.8423C86.8429 95.4115 86.9258 95.0568 87.0915 94.7784C87.2572 94.5 87.4809 94.2796 87.7626 94.1172C88.0444 93.9548 88.3592 93.8321 88.7072 93.7493C89.0553 93.6664 89.4099 93.6035 89.7712 93.5604C90.2285 93.5073 90.5998 93.4643 90.8848 93.4311C91.1698 93.3946 91.377 93.3366 91.5062 93.2571C91.6355 93.1776 91.7001 93.0483 91.7001 92.8693V92.8345C91.7001 92.4003 91.5775 92.0639 91.3322 91.8253C91.0903 91.5866 90.729 91.4673 90.2484 91.4673C89.748 91.4673 89.3535 91.5784 89.0652 91.8004C88.7802 92.0192 88.583 92.2628 88.4736 92.5312L87.0766 92.2131C87.2423 91.7491 87.4842 91.3745 87.8024 91.0895C88.1239 90.8011 88.4935 90.5923 88.9111 90.4631C89.3287 90.3305 89.7678 90.2642 90.2285 90.2642C90.5335 90.2642 90.8566 90.3007 91.198 90.3736C91.5427 90.4432 91.8642 90.5724 92.1625 90.7614C92.4641 90.9503 92.711 91.2204 92.9033 91.5717C93.0955 91.9197 93.1916 92.3722 93.1916 92.929V98H91.7399V96.956H91.6803C91.5841 97.1482 91.44 97.3371 91.2477 97.5227C91.0555 97.7083 90.8086 97.8625 90.507 97.9851C90.2053 98.1077 89.8441 98.169 89.4232 98.169ZM89.7463 96.9759C90.1573 96.9759 90.5086 96.8946 90.8003 96.7322C91.0953 96.5698 91.319 96.3577 91.4714 96.0959C91.6272 95.8307 91.7051 95.5473 91.7051 95.2457V94.2614C91.6521 94.3144 91.5493 94.3641 91.3969 94.4105C91.2477 94.4536 91.077 94.4917 90.8848 94.5249C90.6926 94.5547 90.5053 94.5829 90.323 94.6094C90.1407 94.6326 89.9883 94.6525 89.8656 94.669C89.5773 94.7055 89.3138 94.7668 89.0751 94.853C88.8398 94.9392 88.6509 95.0634 88.5084 95.2259C88.3692 95.3849 88.2996 95.5971 88.2996 95.8622C88.2996 96.2301 88.4355 96.5085 88.7072 96.6974C88.979 96.883 89.3254 96.9759 89.7463 96.9759ZM95.3816 98V90.3636H96.8084V91.6065H96.9029C97.062 91.1856 97.3221 90.8575 97.6834 90.6222C98.0447 90.3835 98.4772 90.2642 98.981 90.2642C99.4914 90.2642 99.919 90.3835 100.264 90.6222C100.612 90.8608 100.869 91.1889 101.034 91.6065H101.114C101.296 91.1989 101.586 90.8741 101.984 90.6321C102.382 90.3868 102.856 90.2642 103.406 90.2642C104.098 90.2642 104.664 90.4813 105.101 90.9155C105.542 91.3497 105.762 92.0043 105.762 92.8793V98H104.276V93.0185C104.276 92.5014 104.135 92.1269 103.853 91.8949C103.571 91.6629 103.235 91.5469 102.844 91.5469C102.36 91.5469 101.984 91.696 101.715 91.9943C101.447 92.2893 101.313 92.6688 101.313 93.1328V98H99.8311V92.924C99.8311 92.5097 99.7019 92.1766 99.4433 91.9247C99.1848 91.6728 98.8484 91.5469 98.4341 91.5469C98.1524 91.5469 97.8922 91.6214 97.6536 91.7706C97.4182 91.9164 97.2277 92.1203 97.0818 92.3821C96.9393 92.6439 96.8681 92.9472 96.8681 93.2919V98H95.3816ZM108.084 98V87.8182H109.57V91.6016H109.66C109.746 91.4425 109.87 91.2585 110.033 91.0497C110.195 90.8409 110.421 90.6586 110.709 90.5028C110.997 90.3438 111.378 90.2642 111.852 90.2642C112.469 90.2642 113.019 90.42 113.503 90.7315C113.987 91.0431 114.366 91.4922 114.641 92.0788C114.92 92.6655 115.059 93.3714 115.059 94.1967C115.059 95.022 114.922 95.7296 114.646 96.3196C114.371 96.9062 113.993 97.3587 113.513 97.6768C113.032 97.9917 112.484 98.1491 111.867 98.1491C111.403 98.1491 111.024 98.0713 110.729 97.9155C110.437 97.7597 110.208 97.5774 110.043 97.3686C109.877 97.1598 109.749 96.9742 109.66 96.8118H109.536V98H108.084ZM109.541 94.1818C109.541 94.7187 109.618 95.1894 109.774 95.5938C109.93 95.9981 110.155 96.3146 110.45 96.5433C110.745 96.7687 111.107 96.8814 111.534 96.8814C111.978 96.8814 112.35 96.7637 112.648 96.5284C112.946 96.2898 113.172 95.9666 113.324 95.5589C113.48 95.1513 113.558 94.6922 113.558 94.1818C113.558 93.678 113.481 93.2256 113.329 92.8246C113.18 92.4235 112.954 92.107 112.653 91.875C112.355 91.643 111.982 91.527 111.534 91.527C111.103 91.527 110.739 91.638 110.44 91.8601C110.145 92.0821 109.922 92.392 109.769 92.7898C109.617 93.1875 109.541 93.6515 109.541 94.1818ZM119.797 98.1491C119.18 98.1491 118.63 97.9917 118.146 97.6768C117.666 97.3587 117.288 96.9062 117.013 96.3196C116.741 95.7296 116.605 95.022 116.605 94.1967C116.605 93.3714 116.743 92.6655 117.018 92.0788C117.296 91.4922 117.677 91.0431 118.161 90.7315C118.645 90.42 119.194 90.2642 119.807 90.2642C120.281 90.2642 120.662 90.3438 120.95 90.5028C121.242 90.6586 121.467 90.8409 121.626 91.0497C121.789 91.2585 121.915 91.4425 122.004 91.6016H122.094V87.8182H123.58V98H122.129V96.8118H122.004C121.915 96.9742 121.786 97.1598 121.617 97.3686C121.451 97.5774 121.222 97.7597 120.93 97.9155C120.639 98.0713 120.261 98.1491 119.797 98.1491ZM120.125 96.8814C120.553 96.8814 120.914 96.7687 121.209 96.5433C121.507 96.3146 121.733 95.9981 121.885 95.5938C122.041 95.1894 122.119 94.7187 122.119 94.1818C122.119 93.6515 122.042 93.1875 121.89 92.7898C121.738 92.392 121.514 92.0821 121.219 91.8601C120.924 91.638 120.559 91.527 120.125 91.527C119.678 91.527 119.305 91.643 119.006 91.875C118.708 92.107 118.483 92.4235 118.33 92.8246C118.181 93.2256 118.107 93.678 118.107 94.1818C118.107 94.6922 118.183 95.1513 118.335 95.5589C118.488 95.9666 118.713 96.2898 119.011 96.5284C119.313 96.7637 119.684 96.8814 120.125 96.8814ZM128.134 98.169C127.65 98.169 127.213 98.0795 126.822 97.9006C126.431 97.7183 126.121 97.4548 125.892 97.1101C125.667 96.7654 125.554 96.3428 125.554 95.8423C125.554 95.4115 125.637 95.0568 125.803 94.7784C125.968 94.5 126.192 94.2796 126.474 94.1172C126.755 93.9548 127.07 93.8321 127.418 93.7493C127.766 93.6664 128.121 93.6035 128.482 93.5604C128.94 93.5073 129.311 93.4643 129.596 93.4311C129.881 93.3946 130.088 93.3366 130.217 93.2571C130.347 93.1776 130.411 93.0483 130.411 92.8693V92.8345C130.411 92.4003 130.289 92.0639 130.043 91.8253C129.801 91.5866 129.44 91.4673 128.96 91.4673C128.459 91.4673 128.065 91.5784 127.776 91.8004C127.491 92.0192 127.294 92.2628 127.185 92.5312L125.788 92.2131C125.953 91.7491 126.195 91.3745 126.514 91.0895C126.835 90.8011 127.205 90.5923 127.622 90.4631C128.04 90.3305 128.479 90.2642 128.94 90.2642C129.245 90.2642 129.568 90.3007 129.909 90.3736C130.254 90.4432 130.575 90.5724 130.874 90.7614C131.175 90.9503 131.422 91.2204 131.614 91.5717C131.807 91.9197 131.903 92.3722 131.903 92.929V98H130.451V96.956H130.391C130.295 97.1482 130.151 97.3371 129.959 97.5227C129.767 97.7083 129.52 97.8625 129.218 97.9851C128.916 98.1077 128.555 98.169 128.134 98.169ZM128.457 96.9759C128.868 96.9759 129.22 96.8946 129.511 96.7322C129.806 96.5698 130.03 96.3577 130.183 96.0959C130.338 95.8307 130.416 95.5473 130.416 95.2457V94.2614C130.363 94.3144 130.26 94.3641 130.108 94.4105C129.959 94.4536 129.788 94.4917 129.596 94.5249C129.404 94.5547 129.216 94.5829 129.034 94.6094C128.852 94.6326 128.699 94.6525 128.577 94.669C128.288 94.7055 128.025 94.7668 127.786 94.853C127.551 94.9392 127.362 95.0634 127.219 95.2259C127.08 95.3849 127.011 95.5971 127.011 95.8622C127.011 96.2301 127.147 96.5085 127.418 96.6974C127.69 96.883 128.036 96.9759 128.457 96.9759ZM135.072 98.0945C134.8 98.0945 134.567 97.9983 134.371 97.8061C134.176 97.6106 134.078 97.3752 134.078 97.1001C134.078 96.8284 134.176 96.5964 134.371 96.4041C134.567 96.2086 134.8 96.1108 135.072 96.1108C135.344 96.1108 135.577 96.2086 135.773 96.4041C135.969 96.5964 136.066 96.8284 136.066 97.1001C136.066 97.2824 136.02 97.4498 135.927 97.6023C135.838 97.7514 135.718 97.8707 135.569 97.9602C135.42 98.0497 135.254 98.0945 135.072 98.0945ZM141.832 90.3636V91.5568H137.661V90.3636H141.832ZM138.78 88.5341H140.266V95.7578C140.266 96.0462 140.309 96.2633 140.395 96.4091C140.482 96.5516 140.593 96.6494 140.728 96.7024C140.868 96.7521 141.018 96.777 141.181 96.777C141.3 96.777 141.405 96.7687 141.494 96.7521C141.584 96.7356 141.653 96.7223 141.703 96.7124L141.971 97.9403C141.885 97.9735 141.763 98.0066 141.603 98.0398C141.444 98.0762 141.245 98.0961 141.007 98.0994C140.616 98.1061 140.251 98.0365 139.913 97.8906C139.575 97.7448 139.302 97.5194 139.093 97.2145C138.884 96.9096 138.78 96.5268 138.78 96.0661V88.5341ZM147.321 90.3636V91.5568H143.005V90.3636H147.321ZM144.189 98V89.4787C144.189 89.0014 144.293 88.6053 144.502 88.2905C144.711 87.9723 144.987 87.7353 145.332 87.5795C145.677 87.4205 146.051 87.3409 146.456 87.3409C146.754 87.3409 147.009 87.3658 147.221 87.4155C147.433 87.4619 147.591 87.505 147.694 87.5447L147.346 88.7479C147.276 88.728 147.186 88.7048 147.077 88.6783C146.968 88.6484 146.835 88.6335 146.679 88.6335C146.318 88.6335 146.06 88.723 145.904 88.902C145.751 89.081 145.675 89.3395 145.675 89.6776V98H144.189Z" fill="#9797A3"/>
<mask id="path-20-inside-1_726_6784" fill="white">
<path d="M0 304H809V416H0V304Z"/>
</mask>
<path d="M0 304H809V416H0V304Z" fill="#232334"/>
<path opacity="0.65" d="M25.1186 337V326.818H28.7479C29.54 326.818 30.1963 326.962 30.7166 327.251C31.237 327.539 31.6264 327.933 31.8849 328.434C32.1435 328.931 32.2727 329.491 32.2727 330.114C32.2727 330.741 32.1418 331.304 31.88 331.805C31.6214 332.302 31.2304 332.696 30.7067 332.988C30.1863 333.276 29.5317 333.42 28.7429 333.42H26.2472V332.118H28.6037C29.1042 332.118 29.5102 332.032 29.8217 331.859C30.1333 331.684 30.362 331.445 30.5078 331.143C30.6536 330.842 30.7266 330.499 30.7266 330.114C30.7266 329.73 30.6536 329.388 30.5078 329.09C30.362 328.792 30.1316 328.558 29.8168 328.389C29.5052 328.22 29.0942 328.136 28.5838 328.136H26.6548V337H25.1186ZM38.7917 333.833V329.364H40.2832V337H38.8216V335.678H38.742C38.5663 336.085 38.2846 336.425 37.8968 336.697C37.5124 336.965 37.0334 337.099 36.46 337.099C35.9695 337.099 35.5353 336.992 35.1575 336.776C34.783 336.558 34.488 336.234 34.2725 335.807C34.0604 335.379 33.9544 334.851 33.9544 334.221V329.364H35.4409V334.042C35.4409 334.562 35.585 334.977 35.8734 335.285C36.1618 335.593 36.5363 335.747 36.997 335.747C37.2754 335.747 37.5521 335.678 37.8272 335.538C38.1056 335.399 38.336 335.189 38.5183 334.907C38.7039 334.625 38.795 334.267 38.7917 333.833ZM42.2805 326.818H43.767V334.912C43.767 335.24 43.8085 335.472 43.8913 335.608C43.9775 335.744 44.1399 335.808 44.3786 335.802C44.5078 335.799 44.6039 335.79 44.6669 335.777C44.7332 335.764 44.7929 335.749 44.8459 335.732L45.1143 336.92C45.0116 336.95 44.8807 336.978 44.7216 337.005C44.5658 337.035 44.3885 337.051 44.1896 337.055C43.5466 337.065 43.0677 336.912 42.7528 336.597C42.438 336.282 42.2805 335.823 42.2805 335.22V326.818ZM46.3001 326.818H47.7866V334.912C47.7866 335.24 47.828 335.472 47.9109 335.608C47.997 335.744 48.1594 335.808 48.3981 335.802C48.5273 335.799 48.6235 335.79 48.6864 335.777C48.7527 335.764 48.8124 335.749 48.8654 335.732L49.1339 336.92C49.0311 336.95 48.9002 336.978 48.7411 337.005C48.5853 337.035 48.408 337.051 48.2092 337.055C47.5662 337.065 47.0872 336.912 46.7724 336.597C46.4575 336.282 46.3001 335.823 46.3001 335.22V326.818ZM53.9389 337V326.818H57.5682C58.357 326.818 59.0116 326.954 59.532 327.226C60.0556 327.498 60.4467 327.874 60.7053 328.354C60.9638 328.832 61.093 329.384 61.093 330.01C61.093 330.633 60.9621 331.182 60.7003 331.656C60.4418 332.126 60.0507 332.492 59.527 332.754C59.0066 333.016 58.352 333.147 57.5632 333.147H54.8139V331.825H57.424C57.9212 331.825 58.3255 331.753 58.6371 331.611C58.9519 331.468 59.1823 331.261 59.3281 330.989C59.474 330.718 59.5469 330.391 59.5469 330.01C59.5469 329.625 59.4723 329.292 59.3232 329.011C59.1773 328.729 58.947 328.513 58.6321 328.364C58.3205 328.212 57.9112 328.136 57.4041 328.136H55.4751V337H53.9389ZM58.9652 332.406L61.4808 337H59.7308L57.2649 332.406H58.9652ZM66.0385 337.154C65.2862 337.154 64.6382 336.993 64.0946 336.672C63.5544 336.347 63.1368 335.891 62.8418 335.305C62.5501 334.715 62.4043 334.024 62.4043 333.232C62.4043 332.449 62.5501 331.76 62.8418 331.163C63.1368 330.567 63.5478 330.101 64.0748 329.766C64.6051 329.432 65.2248 329.264 65.9341 329.264C66.365 329.264 66.7826 329.335 67.187 329.478C67.5913 329.621 67.9542 329.844 68.2757 330.149C68.5972 330.454 68.8508 330.85 69.0364 331.337C69.222 331.821 69.3148 332.41 69.3148 333.102V333.629H63.2445V332.516H67.8581C67.8581 332.125 67.7786 331.778 67.6195 331.477C67.4604 331.172 67.2367 330.931 66.9483 330.756C66.6633 330.58 66.3285 330.492 65.9441 330.492C65.5265 330.492 65.1619 330.595 64.8503 330.8C64.5421 331.003 64.3034 331.268 64.1344 331.596C63.9687 331.921 63.8858 332.274 63.8858 332.655V333.525C63.8858 334.035 63.9753 334.469 64.1543 334.827C64.3366 335.185 64.5901 335.459 64.915 335.648C65.2398 335.833 65.6193 335.926 66.0534 335.926C66.3352 335.926 66.592 335.886 66.824 335.807C67.056 335.724 67.2566 335.601 67.4256 335.439C67.5946 335.277 67.7239 335.076 67.8134 334.837L69.2203 335.091C69.1077 335.505 68.9055 335.868 68.6138 336.18C68.3255 336.488 67.9625 336.728 67.525 336.901C67.0908 337.07 66.5953 337.154 66.0385 337.154ZM76.1197 339.864V335.812H76.0302C75.9407 335.974 75.8114 336.16 75.6424 336.369C75.4767 336.577 75.248 336.76 74.9563 336.915C74.6647 337.071 74.2868 337.149 73.8228 337.149C73.2063 337.149 72.6561 336.992 72.1722 336.677C71.6916 336.359 71.3138 335.906 71.0387 335.32C70.7669 334.73 70.631 334.022 70.631 333.197C70.631 332.371 70.7686 331.665 71.0437 331.079C71.3221 330.492 71.7032 330.043 72.1871 329.732C72.671 329.42 73.2196 329.264 73.8327 329.264C74.3067 329.264 74.6879 329.344 74.9762 329.503C75.2679 329.659 75.4933 329.841 75.6523 330.05C75.8147 330.259 75.9407 330.442 76.0302 330.602H76.1545V329.364H77.6062V339.864H76.1197ZM74.1509 335.881C74.5785 335.881 74.9397 335.769 75.2347 335.543C75.533 335.315 75.7584 334.998 75.9109 334.594C76.0666 334.189 76.1445 333.719 76.1445 333.182C76.1445 332.652 76.0683 332.187 75.9158 331.79C75.7634 331.392 75.5397 331.082 75.2447 330.86C74.9497 330.638 74.5851 330.527 74.1509 330.527C73.7035 330.527 73.3306 330.643 73.0323 330.875C72.734 331.107 72.5086 331.424 72.3562 331.825C72.207 332.226 72.1325 332.678 72.1325 333.182C72.1325 333.692 72.2087 334.151 72.3612 334.559C72.5136 334.967 72.739 335.29 73.0373 335.528C73.3389 335.764 73.7101 335.881 74.1509 335.881ZM84.4421 333.833V329.364H85.9336V337H84.4719V335.678H84.3924C84.2167 336.085 83.935 336.425 83.5472 336.697C83.1628 336.965 82.6838 337.099 82.1104 337.099C81.6199 337.099 81.1857 336.992 80.8079 336.776C80.4334 336.558 80.1384 336.234 79.9229 335.807C79.7108 335.379 79.6048 334.851 79.6048 334.221V329.364H81.0913V334.042C81.0913 334.562 81.2354 334.977 81.5238 335.285C81.8121 335.593 82.1867 335.747 82.6474 335.747C82.9258 335.747 83.2025 335.678 83.4776 335.538C83.756 335.399 83.9864 335.189 84.1687 334.907C84.3543 334.625 84.4454 334.267 84.4421 333.833ZM91.2221 337.154C90.4698 337.154 89.8218 336.993 89.2782 336.672C88.738 336.347 88.3204 335.891 88.0254 335.305C87.7337 334.715 87.5879 334.024 87.5879 333.232C87.5879 332.449 87.7337 331.76 88.0254 331.163C88.3204 330.567 88.7314 330.101 89.2583 329.766C89.7886 329.432 90.4084 329.264 91.1177 329.264C91.5486 329.264 91.9662 329.335 92.3706 329.478C92.7749 329.621 93.1378 329.844 93.4593 330.149C93.7808 330.454 94.0344 330.85 94.22 331.337C94.4056 331.821 94.4984 332.41 94.4984 333.102V333.629H88.4281V332.516H93.0417C93.0417 332.125 92.9622 331.778 92.8031 331.477C92.644 331.172 92.4203 330.931 92.1319 330.756C91.8469 330.58 91.5121 330.492 91.1277 330.492C90.71 330.492 90.3455 330.595 90.0339 330.8C89.7257 331.003 89.487 331.268 89.318 331.596C89.1523 331.921 89.0694 332.274 89.0694 332.655V333.525C89.0694 334.035 89.1589 334.469 89.3379 334.827C89.5202 335.185 89.7737 335.459 90.0985 335.648C90.4234 335.833 90.8029 335.926 91.237 335.926C91.5188 335.926 91.7756 335.886 92.0076 335.807C92.2396 335.724 92.4402 335.601 92.6092 335.439C92.7782 335.277 92.9075 335.076 92.997 334.837L94.4039 335.091C94.2913 335.505 94.0891 335.868 93.7974 336.18C93.5091 336.488 93.1461 336.728 92.7086 336.901C92.2744 337.07 91.7789 337.154 91.2221 337.154ZM101.87 331.228L100.523 331.467C100.466 331.294 100.377 331.13 100.254 330.974C100.135 330.819 99.9725 330.691 99.767 330.592C99.5616 330.492 99.3047 330.442 98.9964 330.442C98.5755 330.442 98.2242 330.537 97.9425 330.726C97.6607 330.911 97.5199 331.152 97.5199 331.447C97.5199 331.702 97.6143 331.907 97.8033 332.063C97.9922 332.219 98.2971 332.347 98.718 332.446L99.9311 332.724C100.634 332.887 101.157 333.137 101.502 333.475C101.847 333.813 102.019 334.252 102.019 334.793C102.019 335.25 101.887 335.658 101.621 336.016C101.36 336.37 100.993 336.649 100.523 336.851C100.055 337.053 99.5135 337.154 98.897 337.154C98.0419 337.154 97.3442 336.972 96.804 336.607C96.2637 336.239 95.9323 335.717 95.8097 335.041L97.2464 334.822C97.3359 335.197 97.5199 335.48 97.7983 335.673C98.0767 335.862 98.4396 335.956 98.8871 335.956C99.3743 335.956 99.7637 335.855 100.055 335.653C100.347 335.447 100.493 335.197 100.493 334.902C100.493 334.663 100.403 334.463 100.224 334.3C100.049 334.138 99.7786 334.015 99.4141 333.933L98.1214 333.649C97.4089 333.487 96.8819 333.228 96.5405 332.874C96.2024 332.519 96.0334 332.07 96.0334 331.526C96.0334 331.076 96.1593 330.681 96.4112 330.343C96.6631 330.005 97.0111 329.741 97.4553 329.553C97.8994 329.36 98.4081 329.264 98.9815 329.264C99.8068 329.264 100.456 329.443 100.93 329.801C101.404 330.156 101.718 330.631 101.87 331.228ZM107.218 329.364V330.557H103.047V329.364H107.218ZM104.166 327.534H105.652V334.758C105.652 335.046 105.695 335.263 105.781 335.409C105.868 335.552 105.979 335.649 106.115 335.702C106.254 335.752 106.405 335.777 106.567 335.777C106.686 335.777 106.791 335.769 106.88 335.752C106.97 335.736 107.039 335.722 107.089 335.712L107.357 336.94C107.271 336.973 107.149 337.007 106.99 337.04C106.83 337.076 106.632 337.096 106.393 337.099C106.002 337.106 105.637 337.036 105.299 336.891C104.961 336.745 104.688 336.519 104.479 336.214C104.27 335.91 104.166 335.527 104.166 335.066V327.534ZM121.144 330.129H119.593C119.533 329.798 119.422 329.506 119.259 329.254C119.097 329.002 118.898 328.789 118.663 328.613C118.427 328.437 118.164 328.305 117.872 328.215C117.584 328.126 117.277 328.081 116.953 328.081C116.366 328.081 115.841 328.228 115.377 328.523C114.916 328.818 114.551 329.251 114.283 329.821C114.018 330.391 113.885 331.087 113.885 331.909C113.885 332.738 114.018 333.437 114.283 334.007C114.551 334.577 114.918 335.008 115.382 335.3C115.846 335.591 116.368 335.737 116.948 335.737C117.269 335.737 117.574 335.694 117.862 335.608C118.154 335.518 118.418 335.388 118.653 335.215C118.888 335.043 119.087 334.832 119.249 334.584C119.415 334.332 119.53 334.044 119.593 333.719L121.144 333.724C121.061 334.224 120.9 334.685 120.661 335.106C120.426 335.523 120.123 335.885 119.752 336.19C119.384 336.491 118.963 336.725 118.489 336.891C118.015 337.056 117.498 337.139 116.938 337.139C116.056 337.139 115.271 336.93 114.581 336.513C113.892 336.092 113.348 335.49 112.95 334.708C112.556 333.926 112.359 332.993 112.359 331.909C112.359 330.822 112.558 329.889 112.955 329.11C113.353 328.328 113.897 327.728 114.586 327.31C115.276 326.889 116.059 326.679 116.938 326.679C117.478 326.679 117.982 326.757 118.449 326.913C118.92 327.065 119.342 327.29 119.717 327.589C120.091 327.884 120.401 328.245 120.646 328.673C120.892 329.097 121.057 329.582 121.144 330.129ZM126.079 337.154C125.363 337.154 124.739 336.99 124.205 336.662C123.671 336.334 123.257 335.875 122.962 335.285C122.667 334.695 122.52 334.005 122.52 333.217C122.52 332.424 122.667 331.732 122.962 331.138C123.257 330.545 123.671 330.085 124.205 329.756C124.739 329.428 125.363 329.264 126.079 329.264C126.795 329.264 127.42 329.428 127.953 329.756C128.487 330.085 128.901 330.545 129.196 331.138C129.491 331.732 129.639 332.424 129.639 333.217C129.639 334.005 129.491 334.695 129.196 335.285C128.901 335.875 128.487 336.334 127.953 336.662C127.42 336.99 126.795 337.154 126.079 337.154ZM126.084 335.906C126.548 335.906 126.933 335.784 127.238 335.538C127.542 335.293 127.768 334.967 127.914 334.559C128.063 334.151 128.137 333.702 128.137 333.212C128.137 332.724 128.063 332.277 127.914 331.869C127.768 331.458 127.542 331.129 127.238 330.88C126.933 330.631 126.548 330.507 126.084 330.507C125.617 330.507 125.229 330.631 124.921 330.88C124.616 331.129 124.389 331.458 124.24 331.869C124.094 332.277 124.021 332.724 124.021 333.212C124.021 333.702 124.094 334.151 124.24 334.559C124.389 334.967 124.616 335.293 124.921 335.538C125.229 335.784 125.617 335.906 126.084 335.906ZM131.298 337V329.364H132.725V330.607H132.819C132.979 330.186 133.239 329.857 133.6 329.622C133.961 329.384 134.394 329.264 134.898 329.264C135.408 329.264 135.836 329.384 136.18 329.622C136.528 329.861 136.785 330.189 136.951 330.607H137.03C137.213 330.199 137.503 329.874 137.9 329.632C138.298 329.387 138.772 329.264 139.322 329.264C140.015 329.264 140.58 329.481 141.018 329.915C141.458 330.35 141.679 331.004 141.679 331.879V337H140.192V332.018C140.192 331.501 140.051 331.127 139.77 330.895C139.488 330.663 139.152 330.547 138.76 330.547C138.277 330.547 137.9 330.696 137.632 330.994C137.363 331.289 137.229 331.669 137.229 332.133V337H135.748V331.924C135.748 331.51 135.618 331.177 135.36 330.925C135.101 330.673 134.765 330.547 134.351 330.547C134.069 330.547 133.809 330.621 133.57 330.771C133.335 330.916 133.144 331.12 132.998 331.382C132.856 331.644 132.785 331.947 132.785 332.292V337H131.298ZM143.671 337V329.364H145.098V330.607H145.192C145.352 330.186 145.612 329.857 145.973 329.622C146.334 329.384 146.767 329.264 147.271 329.264C147.781 329.264 148.209 329.384 148.553 329.622C148.901 329.861 149.158 330.189 149.324 330.607H149.403C149.586 330.199 149.876 329.874 150.273 329.632C150.671 329.387 151.145 329.264 151.695 329.264C152.388 329.264 152.953 329.481 153.391 329.915C153.831 330.35 154.052 331.004 154.052 331.879V337H152.565V332.018C152.565 331.501 152.424 331.127 152.143 330.895C151.861 330.663 151.525 330.547 151.134 330.547C150.65 330.547 150.273 330.696 150.005 330.994C149.737 331.289 149.602 331.669 149.602 332.133V337H148.121V331.924C148.121 331.51 147.991 331.177 147.733 330.925C147.474 330.673 147.138 330.547 146.724 330.547C146.442 330.547 146.182 330.621 145.943 330.771C145.708 330.916 145.517 331.12 145.371 331.382C145.229 331.644 145.158 331.947 145.158 332.292V337H143.671ZM159.335 337.154C158.583 337.154 157.935 336.993 157.392 336.672C156.851 336.347 156.434 335.891 156.139 335.305C155.847 334.715 155.701 334.024 155.701 333.232C155.701 332.449 155.847 331.76 156.139 331.163C156.434 330.567 156.845 330.101 157.372 329.766C157.902 329.432 158.522 329.264 159.231 329.264C159.662 329.264 160.079 329.335 160.484 329.478C160.888 329.621 161.251 329.844 161.573 330.149C161.894 330.454 162.148 330.85 162.333 331.337C162.519 331.821 162.612 332.41 162.612 333.102V333.629H156.541V332.516H161.155C161.155 332.125 161.075 331.778 160.916 331.477C160.757 331.172 160.534 330.931 160.245 330.756C159.96 330.58 159.625 330.492 159.241 330.492C158.823 330.492 158.459 330.595 158.147 330.8C157.839 331.003 157.6 331.268 157.431 331.596C157.266 331.921 157.183 332.274 157.183 332.655V333.525C157.183 334.035 157.272 334.469 157.451 334.827C157.633 335.185 157.887 335.459 158.212 335.648C158.537 335.833 158.916 335.926 159.35 335.926C159.632 335.926 159.889 335.886 160.121 335.807C160.353 335.724 160.553 335.601 160.722 335.439C160.892 335.277 161.021 335.076 161.11 334.837L162.517 335.091C162.405 335.505 162.202 335.868 161.911 336.18C161.622 336.488 161.259 336.728 160.822 336.901C160.388 337.07 159.892 337.154 159.335 337.154ZM165.748 332.466V337H164.261V329.364H165.688V330.607H165.782C165.958 330.202 166.233 329.877 166.608 329.632C166.985 329.387 167.461 329.264 168.034 329.264C168.555 329.264 169.011 329.374 169.402 329.592C169.793 329.808 170.096 330.129 170.311 330.557C170.527 330.984 170.635 331.513 170.635 332.143V337H169.148V332.322C169.148 331.768 169.004 331.336 168.716 331.024C168.427 330.709 168.031 330.552 167.527 330.552C167.183 330.552 166.876 330.626 166.608 330.776C166.342 330.925 166.132 331.143 165.976 331.432C165.824 331.717 165.748 332.062 165.748 332.466ZM176.193 329.364V330.557H172.022V329.364H176.193ZM173.14 327.534H174.627V334.758C174.627 335.046 174.67 335.263 174.756 335.409C174.842 335.552 174.953 335.649 175.089 335.702C175.228 335.752 175.379 335.777 175.542 335.777C175.661 335.777 175.765 335.769 175.855 335.752C175.944 335.736 176.014 335.722 176.064 335.712L176.332 336.94C176.246 336.973 176.123 337.007 175.964 337.04C175.805 337.076 175.606 337.096 175.368 337.099C174.976 337.106 174.612 337.036 174.274 336.891C173.936 336.745 173.662 336.519 173.453 336.214C173.245 335.91 173.14 335.527 173.14 335.066V327.534ZM181.975 331.909C181.975 330.663 182.139 329.516 182.467 328.469C182.795 327.421 183.274 326.455 183.904 325.57H185.266C185.021 325.898 184.792 326.301 184.58 326.778C184.368 327.256 184.182 327.779 184.023 328.349C183.864 328.916 183.74 329.504 183.65 330.114C183.561 330.721 183.516 331.319 183.516 331.909C183.516 332.698 183.594 333.497 183.75 334.305C183.905 335.114 184.116 335.865 184.381 336.558C184.646 337.25 184.941 337.815 185.266 338.253H183.904C183.274 337.368 182.795 336.402 182.467 335.354C182.139 334.307 181.975 333.159 181.975 331.909ZM195.797 331.909C195.797 332.996 195.598 333.931 195.2 334.713C194.803 335.492 194.258 336.092 193.565 336.513C192.875 336.93 192.092 337.139 191.213 337.139C190.332 337.139 189.544 336.93 188.852 336.513C188.162 336.092 187.619 335.49 187.221 334.708C186.823 333.926 186.624 332.993 186.624 331.909C186.624 330.822 186.823 329.889 187.221 329.11C187.619 328.328 188.162 327.728 188.852 327.31C189.544 326.889 190.332 326.679 191.213 326.679C192.092 326.679 192.875 326.889 193.565 327.31C194.258 327.728 194.803 328.328 195.2 329.11C195.598 329.889 195.797 330.822 195.797 331.909ZM194.276 331.909C194.276 331.08 194.142 330.383 193.873 329.816C193.608 329.246 193.243 328.815 192.779 328.523C192.319 328.228 191.797 328.081 191.213 328.081C190.627 328.081 190.103 328.228 189.642 328.523C189.182 328.815 188.817 329.246 188.548 329.816C188.283 330.383 188.151 331.08 188.151 331.909C188.151 332.738 188.283 333.437 188.548 334.007C188.817 334.574 189.182 335.005 189.642 335.3C190.103 335.591 190.627 335.737 191.213 335.737C191.797 335.737 192.319 335.591 192.779 335.3C193.243 335.005 193.608 334.574 193.873 334.007C194.142 333.437 194.276 332.738 194.276 331.909ZM197.593 339.864V329.364H199.045V330.602H199.169C199.255 330.442 199.379 330.259 199.542 330.05C199.704 329.841 199.93 329.659 200.218 329.503C200.506 329.344 200.888 329.264 201.362 329.264C201.978 329.264 202.528 329.42 203.012 329.732C203.496 330.043 203.875 330.492 204.151 331.079C204.429 331.665 204.568 332.371 204.568 333.197C204.568 334.022 204.431 334.73 204.156 335.32C203.88 335.906 203.503 336.359 203.022 336.677C202.541 336.992 201.993 337.149 201.376 337.149C200.912 337.149 200.533 337.071 200.238 336.915C199.946 336.76 199.718 336.577 199.552 336.369C199.386 336.16 199.259 335.974 199.169 335.812H199.08V339.864H197.593ZM199.05 333.182C199.05 333.719 199.128 334.189 199.283 334.594C199.439 334.998 199.665 335.315 199.96 335.543C200.254 335.769 200.616 335.881 201.043 335.881C201.487 335.881 201.859 335.764 202.157 335.528C202.455 335.29 202.681 334.967 202.833 334.559C202.989 334.151 203.067 333.692 203.067 333.182C203.067 332.678 202.991 332.226 202.838 331.825C202.689 331.424 202.464 331.107 202.162 330.875C201.864 330.643 201.491 330.527 201.043 330.527C200.612 330.527 200.248 330.638 199.95 330.86C199.655 331.082 199.431 331.392 199.278 331.79C199.126 332.187 199.05 332.652 199.05 333.182ZM209.798 329.364V330.557H205.627V329.364H209.798ZM206.746 327.534H208.232V334.758C208.232 335.046 208.275 335.263 208.362 335.409C208.448 335.552 208.559 335.649 208.695 335.702C208.834 335.752 208.985 335.777 209.147 335.777C209.266 335.777 209.371 335.769 209.46 335.752C209.55 335.736 209.619 335.722 209.669 335.712L209.938 336.94C209.851 336.973 209.729 337.007 209.57 337.04C209.411 337.076 209.212 337.096 208.973 337.099C208.582 337.106 208.217 337.036 207.879 336.891C207.541 336.745 207.268 336.519 207.059 336.214C206.85 335.91 206.746 335.527 206.746 335.066V327.534ZM211.443 337V329.364H212.929V337H211.443ZM212.193 328.185C211.935 328.185 211.713 328.099 211.527 327.927C211.345 327.751 211.254 327.542 211.254 327.3C211.254 327.055 211.345 326.846 211.527 326.674C211.713 326.498 211.935 326.411 212.193 326.411C212.452 326.411 212.672 326.498 212.855 326.674C213.04 326.846 213.133 327.055 213.133 327.3C213.133 327.542 213.04 327.751 212.855 327.927C212.672 328.099 212.452 328.185 212.193 328.185ZM218.146 337.154C217.43 337.154 216.805 336.99 216.271 336.662C215.738 336.334 215.323 335.875 215.028 335.285C214.733 334.695 214.586 334.005 214.586 333.217C214.586 332.424 214.733 331.732 215.028 331.138C215.323 330.545 215.738 330.085 216.271 329.756C216.805 329.428 217.43 329.264 218.146 329.264C218.862 329.264 219.486 329.428 220.02 329.756C220.554 330.085 220.968 330.545 221.263 331.138C221.558 331.732 221.705 332.424 221.705 333.217C221.705 334.005 221.558 334.695 221.263 335.285C220.968 335.875 220.554 336.334 220.02 336.662C219.486 336.99 218.862 337.154 218.146 337.154ZM218.151 335.906C218.615 335.906 218.999 335.784 219.304 335.538C219.609 335.293 219.834 334.967 219.98 334.559C220.129 334.151 220.204 333.702 220.204 333.212C220.204 332.724 220.129 332.277 219.98 331.869C219.834 331.458 219.609 331.129 219.304 330.88C218.999 330.631 218.615 330.507 218.151 330.507C217.683 330.507 217.295 330.631 216.987 330.88C216.682 331.129 216.455 331.458 216.306 331.869C216.16 332.277 216.087 332.724 216.087 333.212C216.087 333.702 216.16 334.151 216.306 334.559C216.455 334.967 216.682 335.293 216.987 335.538C217.295 335.784 217.683 335.906 218.151 335.906ZM224.851 332.466V337H223.365V329.364H224.791V330.607H224.886C225.061 330.202 225.337 329.877 225.711 329.632C226.089 329.387 226.565 329.264 227.138 329.264C227.658 329.264 228.114 329.374 228.505 329.592C228.896 329.808 229.2 330.129 229.415 330.557C229.63 330.984 229.738 331.513 229.738 332.143V337H228.252V332.322C228.252 331.768 228.107 331.336 227.819 331.024C227.531 330.709 227.135 330.552 226.631 330.552C226.286 330.552 225.98 330.626 225.711 330.776C225.446 330.925 225.235 331.143 225.08 331.432C224.927 331.717 224.851 332.062 224.851 332.466ZM233.954 337.169C233.47 337.169 233.033 337.08 232.642 336.901C232.25 336.718 231.941 336.455 231.712 336.11C231.486 335.765 231.374 335.343 231.374 334.842C231.374 334.411 231.457 334.057 231.622 333.778C231.788 333.5 232.012 333.28 232.294 333.117C232.575 332.955 232.89 332.832 233.238 332.749C233.586 332.666 233.941 332.603 234.302 332.56C234.759 332.507 235.131 332.464 235.416 332.431C235.701 332.395 235.908 332.337 236.037 332.257C236.166 332.178 236.231 332.048 236.231 331.869V331.835C236.231 331.4 236.108 331.064 235.863 330.825C235.621 330.587 235.26 330.467 234.779 330.467C234.279 330.467 233.884 330.578 233.596 330.8C233.311 331.019 233.114 331.263 233.004 331.531L231.607 331.213C231.773 330.749 232.015 330.375 232.333 330.089C232.655 329.801 233.024 329.592 233.442 329.463C233.86 329.33 234.299 329.264 234.759 329.264C235.064 329.264 235.387 329.301 235.729 329.374C236.074 329.443 236.395 329.572 236.693 329.761C236.995 329.95 237.242 330.22 237.434 330.572C237.626 330.92 237.722 331.372 237.722 331.929V337H236.271V335.956H236.211C236.115 336.148 235.971 336.337 235.779 336.523C235.586 336.708 235.339 336.862 235.038 336.985C234.736 337.108 234.375 337.169 233.954 337.169ZM234.277 335.976C234.688 335.976 235.039 335.895 235.331 335.732C235.626 335.57 235.85 335.358 236.002 335.096C236.158 334.831 236.236 334.547 236.236 334.246V333.261C236.183 333.314 236.08 333.364 235.928 333.411C235.779 333.454 235.608 333.492 235.416 333.525C235.223 333.555 235.036 333.583 234.854 333.609C234.672 333.633 234.519 333.652 234.396 333.669C234.108 333.705 233.845 333.767 233.606 333.853C233.371 333.939 233.182 334.063 233.039 334.226C232.9 334.385 232.83 334.597 232.83 334.862C232.83 335.23 232.966 335.509 233.238 335.697C233.51 335.883 233.856 335.976 234.277 335.976ZM239.702 326.818H241.189V334.912C241.189 335.24 241.23 335.472 241.313 335.608C241.399 335.744 241.562 335.808 241.8 335.802C241.93 335.799 242.026 335.79 242.089 335.777C242.155 335.764 242.215 335.749 242.268 335.732L242.536 336.92C242.433 336.95 242.303 336.978 242.143 337.005C241.988 337.035 241.81 337.051 241.612 337.055C240.969 337.065 240.49 336.912 240.175 336.597C239.86 336.282 239.702 335.823 239.702 335.22V326.818ZM246.376 332.774C246.376 334.024 246.211 335.172 245.883 336.219C245.555 337.267 245.076 338.233 244.447 339.118H243.084C243.33 338.79 243.558 338.387 243.77 337.91C243.983 337.433 244.168 336.911 244.327 336.344C244.486 335.774 244.611 335.184 244.7 334.574C244.79 333.964 244.834 333.364 244.834 332.774C244.834 331.989 244.756 331.192 244.601 330.383C244.445 329.574 244.234 328.823 243.969 328.131C243.704 327.438 243.409 326.873 243.084 326.435H244.447C245.076 327.32 245.555 328.286 245.883 329.334C246.211 330.381 246.376 331.528 246.376 332.774Z" fill="white"/>
<rect x="24.5" y="348.5" width="760" height="49" rx="5.5" stroke="#4E4E74"/>
<path d="M0 305H809V303H0V305Z" fill="#4E4E74" mask="url(#path-20-inside-1_726_6784)"/>
</svg>
