<svg width="809" height="59" viewBox="0 0 809 59" fill="none" xmlns="http://www.w3.org/2000/svg">
<path d="M37.3098 40.0001H22.6595V37.2937C22.6595 33.8517 23.8656 31.1747 29.2492 29.1448C32.2792 27.9975 32.9853 26.9973 32.9853 25.0851V25.0263C32.9853 23.4377 32.0145 22.1433 30.2494 22.1433C28.249 22.1433 27.1899 23.3494 27.1016 25.4381H22.836C23.1302 21.349 25.719 18.7308 30.1906 18.7308C34.515 18.7308 37.2215 21.5843 37.2215 24.8792V25.0557C37.2215 27.7622 36.133 30.145 31.5732 32.0278C27.9548 33.4987 27.2782 34.4989 27.2193 36.3817H37.3098V40.0001Z" fill="#303048"/>
<g clip-path="url(#clip0_725_5897)">
<path d="M55.159 33.0977C54.9965 33.0977 54.8406 33.1623 54.7257 33.2772C54.6107 33.3921 54.5462 33.548 54.5462 33.7106V34.6299C54.5462 34.6705 54.5623 34.7095 54.591 34.7382C54.6198 34.767 54.6587 34.7832 54.6994 34.7832H56.8444C56.8851 34.7832 56.9241 34.767 56.9528 34.7382C56.9815 34.7095 56.9977 34.6705 56.9977 34.6299V33.7106C56.9977 33.548 56.9331 33.3921 56.8182 33.2772C56.7032 33.1623 56.5473 33.0977 56.3848 33.0977H55.159Z" fill="#88CEC0"/>
<path d="M58.8363 31.2591C58.6738 31.2591 58.5179 31.3236 58.4029 31.4386C58.288 31.5535 58.2234 31.7094 58.2234 31.8719V34.6299C58.2234 34.6705 58.2396 34.7095 58.2683 34.7382C58.297 34.767 58.336 34.7832 58.3766 34.7832H60.5217C60.5624 34.7832 60.6013 34.767 60.6301 34.7382C60.6588 34.7095 60.6749 34.6705 60.6749 34.6299V31.8719C60.6749 31.7094 60.6104 31.5535 60.4954 31.4386C60.3805 31.3236 60.2246 31.2591 60.0621 31.2591H58.8363Z" fill="#88CEC0"/>
<path d="M62.5136 29.114C62.351 29.114 62.1951 29.1786 62.0802 29.2935C61.9653 29.4084 61.9007 29.5643 61.9007 29.7269V34.6299C61.9007 34.6705 61.9168 34.7095 61.9456 34.7382C61.9743 34.767 62.0133 34.7832 62.0539 34.7832H64.199C64.2396 34.7832 64.2786 34.767 64.3073 34.7382C64.3361 34.7095 64.3522 34.6705 64.3522 34.6299V29.7269C64.3522 29.5643 64.2876 29.4084 64.1727 29.2935C64.0578 29.1786 63.9019 29.114 63.7393 29.114H62.5136Z" fill="#88CEC0"/>
<path d="M65.7312 34.7832H67.8763C67.917 34.7832 67.9558 34.767 67.9846 34.7382C68.0133 34.7095 68.0295 34.6705 68.0295 34.6299V27.2754C68.0295 27.1128 67.9649 26.9569 67.85 26.842C67.7351 26.727 67.5791 26.6625 67.4166 26.6625H66.1908C66.0283 26.6625 65.8724 26.727 65.7575 26.842C65.6425 26.9569 65.578 27.1128 65.578 27.2754V34.6299C65.578 34.6705 65.5941 34.7095 65.6228 34.7382C65.6516 34.767 65.6906 34.7832 65.7312 34.7832Z" fill="#88CEC0"/>
<path d="M65.0084 24.7258L65.1984 25.0077C65.24 25.0703 65.2965 25.1215 65.3628 25.1568C65.4291 25.1921 65.5032 25.2104 65.5783 25.21C65.6564 25.2072 65.7323 25.1842 65.7989 25.1434C65.8655 25.1026 65.9204 25.0453 65.9583 24.9771L67.1841 22.832C67.2291 22.7593 67.253 22.6755 67.253 22.5899C67.253 22.5044 67.2291 22.4206 67.1841 22.3479C67.1387 22.2758 67.0736 22.2183 66.9964 22.1824C66.9192 22.1465 66.8333 22.1337 66.7489 22.1456L64.2974 22.452C64.2197 22.4619 64.1459 22.4914 64.0828 22.5377C64.0197 22.5841 63.9695 22.6458 63.937 22.717C63.9045 22.7883 63.8907 22.8666 63.8969 22.9446C63.9031 23.0227 63.9292 23.0978 63.9726 23.163L64.1565 23.4449C64.1678 23.4613 64.1757 23.4797 64.1796 23.4992C64.1836 23.5187 64.1836 23.5388 64.1796 23.5583C64.1756 23.5777 64.1676 23.5962 64.1563 23.6125C64.1449 23.6289 64.1304 23.6427 64.1136 23.6533L55.4352 29.4511C55.3678 29.4956 55.3099 29.553 55.2648 29.62C55.2197 29.687 55.1882 29.7622 55.1723 29.8414C55.1563 29.9206 55.1562 30.0021 55.1719 30.0813C55.1875 30.1605 55.2187 30.2359 55.2636 30.303C55.3198 30.3862 55.3956 30.4543 55.4843 30.5013C55.573 30.5483 55.6719 30.5728 55.7723 30.5727C55.8928 30.5741 56.0107 30.5376 56.1094 30.4685L64.7938 24.6829C64.8107 24.6715 64.8296 24.6635 64.8496 24.6594C64.8696 24.6554 64.8901 24.6553 64.9101 24.6593C64.9301 24.6633 64.9491 24.6713 64.9659 24.6827C64.9828 24.6941 64.9972 24.7088 65.0084 24.7258Z" fill="#88CEC0"/>
<path d="M54.546 36.8546H68.0294C68.175 36.8542 68.3157 36.8021 68.4264 36.7074C68.5371 36.6127 68.6104 36.4817 68.6332 36.3379C68.6561 36.1941 68.6269 36.0468 68.5512 35.9225C68.4753 35.7982 68.3576 35.7049 68.2194 35.6595C68.1578 35.6398 68.0938 35.6296 68.0294 35.6288H54.546C54.4815 35.6296 54.4174 35.6398 54.356 35.6595C54.2176 35.7049 54.1 35.7982 54.0242 35.9225C53.9483 36.0468 53.9192 36.1941 53.9421 36.3379C53.9649 36.4817 54.0383 36.6127 54.1489 36.7074C54.2596 36.8021 54.4003 36.8542 54.546 36.8546Z" fill="#88CEC0"/>
</g>
<path d="M86.5168 29.4092C86.5168 30.5427 86.2964 31.4989 85.8556 32.2778C85.4148 33.0534 84.8199 33.6417 84.0708 34.0427C83.3218 34.4405 82.4865 34.6393 81.5651 34.6393C80.6371 34.6393 79.7986 34.4388 79.0495 34.0378C78.3038 33.6334 77.7105 33.0434 77.2697 32.2679C76.8322 31.489 76.6134 30.5361 76.6134 29.4092C76.6134 28.2757 76.8322 27.3211 77.2697 26.5456C77.7105 25.7667 78.3038 25.1784 79.0495 24.7807C79.7986 24.3796 80.6371 24.1791 81.5651 24.1791C82.4865 24.1791 83.3218 24.3796 84.0708 24.7807C84.8199 25.1784 85.4148 25.7667 85.8556 26.5456C86.2964 27.3211 86.5168 28.2757 86.5168 29.4092ZM83.6731 29.4092C83.6731 28.7994 83.5919 28.2856 83.4295 27.868C83.2704 27.4471 83.0334 27.1289 82.7185 26.9135C82.407 26.6947 82.0225 26.5853 81.5651 26.5853C81.1077 26.5853 80.7216 26.6947 80.4067 26.9135C80.0952 27.1289 79.8582 27.4471 79.6958 27.868C79.5367 28.2856 79.4572 28.7994 79.4572 29.4092C79.4572 30.0191 79.5367 30.5344 79.6958 30.9554C79.8582 31.373 80.0952 31.6912 80.4067 31.9099C80.7216 32.1254 81.1077 32.2331 81.5651 32.2331C82.0225 32.2331 82.407 32.1254 82.7185 31.9099C83.0334 31.6912 83.2704 31.373 83.4295 30.9554C83.5919 30.5344 83.6731 30.0191 83.6731 29.4092ZM88.0455 37.3638V26.8638H90.77V28.1961H90.8296C90.9291 27.9376 91.0749 27.7006 91.2671 27.4852C91.4594 27.2665 91.698 27.0925 91.983 26.9632C92.2681 26.8306 92.5995 26.7643 92.9774 26.7643C93.4811 26.7643 93.9601 26.8986 94.4141 27.167C94.8715 27.4355 95.2427 27.8581 95.5278 28.4348C95.8161 29.0115 95.9603 29.7605 95.9603 30.6819C95.9603 31.5636 95.8228 32.2944 95.5477 32.8744C95.2759 33.4544 94.9113 33.887 94.4539 34.172C93.9999 34.457 93.501 34.5996 92.9575 34.5996C92.5995 34.5996 92.2797 34.5416 91.998 34.4255C91.7195 34.3062 91.4809 34.1455 91.282 33.9433C91.0865 33.7378 90.9357 33.5058 90.8296 33.2473H90.7899V37.3638H88.0455ZM90.7302 30.6819C90.7302 31.0532 90.7783 31.3746 90.8744 31.6464C90.9738 31.9149 91.113 32.1237 91.292 32.2728C91.4743 32.4187 91.6914 32.4916 91.9433 32.4916C92.1952 32.4916 92.4089 32.4203 92.5846 32.2778C92.7636 32.132 92.8995 31.9248 92.9923 31.6564C93.0884 31.3846 93.1365 31.0598 93.1365 30.6819C93.1365 30.3041 93.0884 29.9809 92.9923 29.7125C92.8995 29.4407 92.7636 29.2336 92.5846 29.091C92.4089 28.9452 92.1952 28.8723 91.9433 28.8723C91.6914 28.8723 91.4743 28.9452 91.292 29.091C91.113 29.2336 90.9738 29.4407 90.8744 29.7125C90.7783 29.9809 90.7302 30.3041 90.7302 30.6819ZM101.874 26.8638V28.8524H96.8427V26.8638H101.874ZM97.8172 25.0342H100.561V32.0442C100.561 32.1502 100.58 32.2397 100.616 32.3126C100.653 32.3822 100.709 32.4353 100.785 32.4717C100.861 32.5049 100.959 32.5214 101.079 32.5214C101.161 32.5214 101.257 32.5115 101.367 32.4916C101.48 32.4717 101.562 32.4551 101.615 32.4419L102.013 34.3709C101.891 34.4073 101.715 34.4521 101.486 34.5051C101.261 34.5581 100.992 34.5929 100.681 34.6095C100.051 34.6426 99.5224 34.578 99.0949 34.4156C98.6673 34.2499 98.3458 33.9897 98.1304 33.6351C97.9149 33.2804 97.8105 32.8363 97.8172 32.3027V25.0342ZM103.204 34.5001V26.8638H105.948V34.5001H103.204ZM104.576 26.0683C104.205 26.0683 103.887 25.9457 103.621 25.7004C103.356 25.4551 103.224 25.1602 103.224 24.8155C103.224 24.4708 103.356 24.1758 103.621 23.9305C103.887 23.6853 104.205 23.5626 104.576 23.5626C104.951 23.5626 105.269 23.6853 105.531 23.9305C105.796 24.1758 105.928 24.4708 105.928 24.8155C105.928 25.1602 105.796 25.4551 105.531 25.7004C105.269 25.9457 104.951 26.0683 104.576 26.0683ZM107.556 34.5001V26.8638H110.162V28.3155H110.241C110.4 27.8382 110.672 27.4603 111.056 27.1819C111.441 26.9035 111.898 26.7643 112.429 26.7643C112.965 26.7643 113.428 26.9068 113.816 27.1919C114.203 27.4736 114.437 27.8481 114.517 28.3155H114.596C114.725 27.8481 115.001 27.4736 115.421 27.1919C115.842 26.9068 116.336 26.7643 116.903 26.7643C117.635 26.7643 118.229 26.9996 118.683 27.4703C119.14 27.9409 119.369 28.5674 119.369 29.3496V34.5001H116.625V30.0456C116.625 29.7108 116.54 29.449 116.371 29.2601C116.202 29.0678 115.975 28.9717 115.69 28.9717C115.408 28.9717 115.184 29.0678 115.019 29.2601C114.856 29.449 114.775 29.7108 114.775 30.0456V34.5001H112.15V30.0456C112.15 29.7108 112.066 29.449 111.897 29.2601C111.728 29.0678 111.501 28.9717 111.215 28.9717C111.027 28.9717 110.864 29.0148 110.728 29.101C110.592 29.1871 110.486 29.3114 110.41 29.4738C110.337 29.6329 110.301 29.8235 110.301 30.0456V34.5001H107.556ZM120.932 34.5001V26.8638H123.677V34.5001H120.932ZM122.305 26.0683C121.933 26.0683 121.615 25.9457 121.35 25.7004C121.085 25.4551 120.952 25.1602 120.952 24.8155C120.952 24.4708 121.085 24.1758 121.35 23.9305C121.615 23.6853 121.933 23.5626 122.305 23.5626C122.679 23.5626 122.997 23.6853 123.259 23.9305C123.524 24.1758 123.657 24.4708 123.657 24.8155C123.657 25.1602 123.524 25.4551 123.259 25.7004C122.997 25.9457 122.679 26.0683 122.305 26.0683ZM125.365 34.5001V32.9888L128.705 28.9916V28.9518H125.484V26.8638H131.947V28.5342L128.904 32.3723V32.4121H132.066V34.5001H125.365ZM135.922 34.6194C135.434 34.6194 135.004 34.5399 134.629 34.3808C134.258 34.2184 133.966 33.9731 133.754 33.645C133.542 33.3169 133.436 32.8993 133.436 32.3922C133.436 31.9746 133.507 31.6183 133.65 31.3233C133.792 31.025 133.991 30.7814 134.246 30.5925C134.501 30.4035 134.798 30.2594 135.136 30.1599C135.478 30.0605 135.845 29.9959 136.24 29.966C136.667 29.9329 137.01 29.8931 137.269 29.8467C137.531 29.797 137.72 29.7291 137.836 29.6429C137.952 29.5534 138.01 29.4357 138.01 29.2899V29.27C138.01 29.0711 137.934 28.9187 137.781 28.8126C137.629 28.7066 137.433 28.6535 137.194 28.6535C136.933 28.6535 136.719 28.7115 136.553 28.8275C136.391 28.9402 136.293 29.1142 136.26 29.3496H133.734C133.767 28.8855 133.915 28.458 134.177 28.0669C134.442 27.6725 134.828 27.3576 135.335 27.1223C135.842 26.8836 136.475 26.7643 137.234 26.7643C137.781 26.7643 138.272 26.829 138.706 26.9582C139.14 27.0842 139.509 27.2615 139.814 27.4902C140.119 27.7156 140.351 27.9807 140.51 28.2856C140.673 28.5872 140.754 28.9154 140.754 29.27V34.5001H138.189V33.4263H138.129C137.977 33.7113 137.791 33.9416 137.572 34.1173C137.357 34.293 137.11 34.4206 136.831 34.5001C136.556 34.5797 136.253 34.6194 135.922 34.6194ZM136.817 32.8893C137.025 32.8893 137.221 32.8462 137.403 32.7601C137.589 32.6739 137.74 32.5496 137.856 32.3872C137.972 32.2248 138.03 32.0276 138.03 31.7956V31.1592C137.957 31.189 137.879 31.2172 137.796 31.2437C137.716 31.2702 137.63 31.2951 137.537 31.3183C137.448 31.3415 137.352 31.363 137.249 31.3829C137.15 31.4028 137.045 31.4211 136.936 31.4376C136.724 31.4708 136.55 31.5255 136.414 31.6017C136.281 31.6746 136.182 31.7657 136.116 31.8751C136.053 31.9812 136.021 32.1005 136.021 32.2331C136.021 32.4452 136.096 32.6076 136.245 32.7203C136.394 32.833 136.585 32.8893 136.817 32.8893ZM146.829 26.8638V28.8524H141.798V26.8638H146.829ZM142.772 25.0342H145.517V32.0442C145.517 32.1502 145.535 32.2397 145.571 32.3126C145.608 32.3822 145.664 32.4353 145.741 32.4717C145.817 32.5049 145.915 32.5214 146.034 32.5214C146.117 32.5214 146.213 32.5115 146.322 32.4916C146.435 32.4717 146.518 32.4551 146.571 32.4419L146.968 34.3709C146.846 34.4073 146.67 34.4521 146.442 34.5051C146.216 34.5581 145.948 34.5929 145.636 34.6095C145.006 34.6426 144.478 34.578 144.05 34.4156C143.623 34.2499 143.301 33.9897 143.086 33.6351C142.87 33.2804 142.766 32.8363 142.772 32.3027V25.0342ZM148.159 34.5001V26.8638H150.903V34.5001H148.159ZM149.531 26.0683C149.16 26.0683 148.842 25.9457 148.577 25.7004C148.312 25.4551 148.179 25.1602 148.179 24.8155C148.179 24.4708 148.312 24.1758 148.577 23.9305C148.842 23.6853 149.16 23.5626 149.531 23.5626C149.906 23.5626 150.224 23.6853 150.486 23.9305C150.751 24.1758 150.884 24.4708 150.884 24.8155C150.884 25.1602 150.751 25.4551 150.486 25.7004C150.224 25.9457 149.906 26.0683 149.531 26.0683ZM156.191 34.6393C155.362 34.6393 154.653 34.4753 154.063 34.1471C153.473 33.8157 153.02 33.355 152.706 32.765C152.391 32.1718 152.233 31.484 152.233 30.7018C152.233 29.9196 152.391 29.2335 152.706 28.6436C153.02 28.0503 153.473 27.5896 154.063 27.2615C154.653 26.93 155.362 26.7643 156.191 26.7643C157.019 26.7643 157.729 26.93 158.319 27.2615C158.908 27.5896 159.361 28.0503 159.676 28.6436C159.991 29.2335 160.148 29.9196 160.148 30.7018C160.148 31.484 159.991 32.1718 159.676 32.765C159.361 33.355 158.908 33.8157 158.319 34.1471C157.729 34.4753 157.019 34.6393 156.191 34.6393ZM156.211 32.6109C156.443 32.6109 156.643 32.533 156.812 32.3773C156.981 32.2215 157.112 31.9994 157.205 31.7111C157.298 31.4227 157.344 31.0797 157.344 30.6819C157.344 30.2809 157.298 29.9379 157.205 29.6528C157.112 29.3645 156.981 29.1424 156.812 28.9866C156.643 28.8309 156.443 28.753 156.211 28.753C155.965 28.753 155.755 28.8309 155.579 28.9866C155.404 29.1424 155.269 29.3645 155.176 29.6528C155.084 29.9379 155.037 30.2809 155.037 30.6819C155.037 31.0797 155.084 31.4227 155.176 31.7111C155.269 31.9994 155.404 32.2215 155.579 32.3773C155.755 32.533 155.965 32.6109 156.211 32.6109ZM164.216 30.2047V34.5001H161.472V26.8638H164.077V28.3155H164.156C164.322 27.8316 164.614 27.4521 165.031 27.177C165.452 26.9019 165.943 26.7643 166.503 26.7643C167.043 26.7643 167.512 26.8886 167.91 27.1372C168.311 27.3825 168.621 27.7205 168.84 28.1514C169.062 28.5823 169.171 29.0745 169.168 29.628V34.5001H166.423V30.2047C166.427 29.8268 166.331 29.5302 166.135 29.3148C165.943 29.0993 165.674 28.9916 165.33 28.9916C165.104 28.9916 164.907 29.0413 164.738 29.1407C164.572 29.2369 164.445 29.3761 164.355 29.5584C164.266 29.7373 164.219 29.9528 164.216 30.2047ZM177.713 29.3496H175.187C175.174 29.1938 175.119 29.0595 175.023 28.9469C174.927 28.8342 174.803 28.748 174.65 28.6883C174.501 28.6254 174.335 28.5939 174.153 28.5939C173.918 28.5939 173.715 28.637 173.546 28.7231C173.377 28.8093 173.295 28.9319 173.298 29.091C173.295 29.2037 173.343 29.3081 173.442 29.4042C173.545 29.5004 173.742 29.5749 174.034 29.628L175.585 29.9064C176.367 30.0489 176.949 30.2892 177.33 30.6273C177.714 30.962 177.908 31.4111 177.911 31.9746C177.908 32.5181 177.746 32.9904 177.424 33.3915C177.106 33.7892 176.67 34.0974 176.117 34.3162C175.567 34.5316 174.938 34.6393 174.232 34.6393C173.066 34.6393 172.153 34.4007 171.493 33.9234C170.837 33.4461 170.471 32.8164 170.394 32.0342H173.119C173.155 32.2762 173.275 32.4634 173.477 32.596C173.682 32.7253 173.941 32.7899 174.252 32.7899C174.504 32.7899 174.711 32.7468 174.874 32.6606C175.04 32.5745 175.124 32.4518 175.127 32.2927C175.124 32.1469 175.051 32.0309 174.909 31.9447C174.769 31.8585 174.551 31.7889 174.252 31.7359L172.9 31.4973C172.121 31.3614 171.538 31.1029 171.15 30.7217C170.762 30.3406 170.57 29.85 170.573 29.2501C170.57 28.7198 170.709 28.2707 170.991 27.9028C171.276 27.5316 171.682 27.2499 172.209 27.0577C172.739 26.8621 173.367 26.7643 174.093 26.7643C175.197 26.7643 176.067 26.993 176.703 27.4504C177.343 27.9078 177.679 28.5408 177.713 29.3496Z" fill="#88CEC0"/>
<rect x="0.5" y="0.500122" width="258" height="58" rx="11.5" stroke="#B9A4FF"/>
<path d="M305.131 40.3824C300.6 40.3824 297.658 37.9407 297.364 33.9399H301.6C301.865 35.9109 303.307 36.9405 305.189 36.9405C307.278 36.9405 308.69 35.5284 308.69 33.4397V33.1161C308.69 30.9686 307.278 29.6154 305.131 29.6154C303.63 29.6154 302.424 30.3508 301.777 31.2922L298.1 31.0275L299.982 19.1131H311.838V22.7315H303.071L302.306 27.6149C303.307 26.7912 304.719 26.35 306.19 26.35C309.985 26.35 312.926 28.9682 312.926 32.9691V33.2927C312.926 37.4995 309.749 40.3824 305.131 40.3824Z" fill="#303048"/>
<g clip-path="url(#clip1_725_5897)">
<mask id="mask0_725_5897" style="mask-type:luminance" maskUnits="userSpaceOnUse" x="328" y="22" width="16" height="15">
<path d="M343.642 22.1455H328.933V36.8545H343.642V22.1455Z" fill="white"/>
</mask>
<g mask="url(#mask0_725_5897)">
<path d="M343.643 28.9238C343.668 28.0275 343.352 27.1549 342.758 26.4834C342.164 25.8118 341.336 25.3915 340.443 25.3078C340.417 25.303 340.393 25.2915 340.372 25.2742C340.352 25.2571 340.336 25.2348 340.327 25.2097C339.843 24.3988 339.127 23.7521 338.271 23.3536C337.415 22.9551 336.459 22.8233 335.527 22.9753C334.595 23.1274 333.73 23.5562 333.045 24.206C332.36 24.8559 331.886 25.6967 331.685 26.6194C331.678 26.6504 331.661 26.6783 331.637 26.6992C331.612 26.7201 331.582 26.7329 331.551 26.7358C331.093 26.7723 330.651 26.9182 330.262 27.1615C329.872 27.4047 329.547 27.7379 329.314 28.1332C329.048 28.588 328.917 29.1084 328.934 29.6347C328.926 29.9862 328.99 30.3355 329.121 30.6618C329.251 30.9882 329.446 31.285 329.694 31.5346C330.039 31.8647 330.46 32.1047 330.919 32.2333C331.006 32.256 331.096 32.2595 331.184 32.2437C331.271 32.2278 331.355 32.193 331.428 32.1417C331.501 32.0903 331.561 32.0236 331.606 31.9463C331.651 31.869 331.678 31.7829 331.685 31.694C331.69 31.5564 331.649 31.4212 331.568 31.31C331.487 31.1988 331.371 31.1182 331.238 31.0811C330.971 31.0132 330.727 30.8781 330.527 30.6889C330.39 30.5385 330.286 30.3608 330.223 30.1675C330.16 29.9742 330.138 29.7696 330.159 29.5673C330.159 29.3586 330.199 29.1518 330.279 28.9589C330.358 28.7659 330.475 28.5906 330.622 28.4431C330.77 28.2955 330.945 28.1786 331.138 28.0991C331.331 28.0197 331.538 27.9791 331.747 27.9799C331.856 27.9804 331.965 27.9927 332.072 28.0167C332.162 28.0351 332.255 28.033 332.344 28.0106C332.433 27.9881 332.516 27.9459 332.587 27.8871C332.657 27.8282 332.714 27.7542 332.752 27.6706C332.79 27.5869 332.809 27.4958 332.807 27.4038C332.862 23.892 337.894 22.8869 339.438 26.1781C339.49 26.2862 339.572 26.3769 339.674 26.439C339.776 26.5011 339.895 26.5318 340.014 26.5274C340.418 26.5106 340.819 26.6003 341.178 26.7874C341.536 26.9746 341.839 27.2527 342.055 27.5938C342.285 27.9437 342.411 28.3519 342.417 28.7706C342.442 29.1191 342.381 29.4684 342.241 29.7886C342.102 30.1088 341.886 30.3903 341.614 30.6092C341.531 30.6737 341.467 30.7597 341.429 30.8581C341.391 30.9564 341.381 31.0632 341.4 31.1669C341.418 31.2688 341.462 31.3642 341.528 31.4444C341.593 31.5245 341.678 31.5868 341.774 31.6254C341.87 31.6639 341.975 31.6775 342.077 31.6649C342.18 31.6522 342.278 31.6137 342.362 31.553C342.762 31.2419 343.086 30.8431 343.308 30.3873C343.53 29.9315 343.644 29.4308 343.643 28.9238Z" fill="#CB6F8F"/>
<path d="M340.578 32.0736C340.578 31.2857 340.344 30.5155 339.907 29.8604C339.469 29.2053 338.847 28.6947 338.119 28.3931C337.391 28.0916 336.59 28.0127 335.817 28.1664C335.044 28.3202 334.335 28.6996 333.777 29.2567C333.22 29.8138 332.841 30.5237 332.687 31.2964C332.533 32.0692 332.612 32.8702 332.914 33.5981C333.215 34.326 333.726 34.9482 334.381 35.386C335.036 35.8237 335.806 36.0573 336.594 36.0573C337.65 36.0557 338.663 35.6355 339.409 34.8887C340.156 34.142 340.576 33.1297 340.578 32.0736ZM338.218 30.4434C338.305 30.5295 338.353 30.6464 338.353 30.7682C338.353 30.89 338.305 31.0068 338.218 31.093L337.354 31.951C337.34 31.9648 337.328 31.9814 337.32 31.9999C337.312 32.0183 337.308 32.0382 337.308 32.0583C337.308 32.0784 337.312 32.0983 337.32 32.1167C337.328 32.1352 337.34 32.1518 337.354 32.1655L338.218 33.0358C338.305 33.122 338.353 33.2389 338.353 33.3607C338.353 33.4825 338.305 33.5993 338.218 33.6855C338.132 33.7716 338.015 33.8199 337.894 33.8199C337.772 33.8199 337.655 33.7716 337.569 33.6855L336.705 32.8152C336.674 32.7881 336.635 32.7731 336.594 32.7731C336.554 32.7731 336.514 32.7881 336.484 32.8152L335.62 33.6855C335.534 33.7716 335.417 33.8199 335.295 33.8199C335.173 33.8199 335.056 33.7716 334.97 33.6855C334.884 33.5993 334.836 33.4825 334.836 33.3607C334.836 33.2389 334.884 33.122 334.97 33.0358L335.834 32.1655C335.849 32.1518 335.861 32.1352 335.869 32.1167C335.877 32.0983 335.881 32.0784 335.881 32.0583C335.881 32.0382 335.877 32.0183 335.869 31.9999C335.861 31.9814 335.849 31.9648 335.834 31.951L334.97 31.093C334.889 31.0059 334.845 30.8906 334.847 30.7715C334.849 30.6525 334.897 30.5388 334.981 30.4546C335.066 30.3704 335.179 30.3222 335.298 30.3201C335.417 30.318 335.533 30.3622 335.62 30.4434L336.484 31.3382C336.498 31.353 336.515 31.3648 336.534 31.3728C336.553 31.3809 336.574 31.385 336.594 31.385C336.615 31.385 336.635 31.3809 336.654 31.3728C336.673 31.3648 336.69 31.353 336.705 31.3382L337.569 30.4679C337.61 30.4236 337.659 30.3879 337.714 30.3626C337.769 30.3375 337.828 30.3233 337.889 30.321C337.949 30.3188 338.009 30.3284 338.066 30.3494C338.122 30.3704 338.174 30.4023 338.218 30.4434Z" fill="#CB6F8F"/>
</g>
</g>
<path d="M351.653 24.3182H355.094L357.46 30.0852H357.579L359.946 24.3182H363.386V34.5H360.682V28.6136H360.602L358.335 34.4205H356.704L354.437 28.5739H354.358V34.5H351.653V24.3182ZM364.946 34.5V26.8636H367.69V34.5H364.946ZM366.318 26.0682C365.947 26.0682 365.629 25.9455 365.364 25.7003C365.098 25.455 364.966 25.16 364.966 24.8153C364.966 24.4706 365.098 24.1757 365.364 23.9304C365.629 23.6851 365.947 23.5625 366.318 23.5625C366.693 23.5625 367.011 23.6851 367.273 23.9304C367.538 24.1757 367.67 24.4706 367.67 24.8153C367.67 25.16 367.538 25.455 367.273 25.7003C367.011 25.9455 366.693 26.0682 366.318 26.0682ZM376.279 29.3494H373.753C373.74 29.1937 373.685 29.0594 373.589 28.9467C373.493 28.834 373.369 28.7479 373.216 28.6882C373.067 28.6252 372.901 28.5937 372.719 28.5937C372.484 28.5937 372.281 28.6368 372.112 28.723C371.943 28.8092 371.861 28.9318 371.864 29.0909C371.861 29.2036 371.909 29.308 372.008 29.4041C372.111 29.5002 372.308 29.5748 372.6 29.6278L374.151 29.9062C374.933 30.0488 375.515 30.2891 375.896 30.6271C376.28 30.9619 376.474 31.411 376.477 31.9744C376.474 32.518 376.312 32.9903 375.99 33.3913C375.672 33.7891 375.236 34.0973 374.683 34.316C374.133 34.5315 373.504 34.6392 372.799 34.6392C371.632 34.6392 370.719 34.4006 370.059 33.9233C369.403 33.446 369.037 32.8163 368.96 32.0341H371.685C371.721 32.276 371.841 32.4633 372.043 32.5959C372.248 32.7251 372.507 32.7898 372.818 32.7898C373.07 32.7898 373.277 32.7467 373.44 32.6605C373.606 32.5743 373.69 32.4517 373.693 32.2926C373.69 32.1468 373.617 32.0308 373.475 31.9446C373.335 31.8584 373.117 31.7888 372.818 31.7358L371.466 31.4972C370.687 31.3613 370.104 31.1027 369.716 30.7216C369.328 30.3404 369.136 29.8499 369.139 29.25C369.136 28.7197 369.275 28.2706 369.557 27.9027C369.842 27.5315 370.248 27.2498 370.775 27.0575C371.305 26.862 371.933 26.7642 372.659 26.7642C373.763 26.7642 374.633 26.9929 375.269 27.4503C375.909 27.9077 376.245 28.5407 376.279 29.3494ZM381.418 34.6392C380.589 34.6392 379.88 34.4751 379.29 34.147C378.7 33.8156 378.248 33.3549 377.933 32.7649C377.618 32.1716 377.461 31.4839 377.461 30.7017C377.461 29.9195 377.618 29.2334 377.933 28.6435C378.248 28.0502 378.7 27.5895 379.29 27.2614C379.88 26.9299 380.589 26.7642 381.418 26.7642C382.167 26.7642 382.815 26.9001 383.362 27.1719C383.912 27.4403 384.338 27.8215 384.64 28.3153C384.941 28.8059 385.094 29.3826 385.097 30.0455H382.551C382.515 29.6444 382.399 29.3395 382.203 29.1307C382.011 28.9186 381.763 28.8125 381.458 28.8125C381.219 28.8125 381.01 28.8821 380.831 29.0213C380.652 29.1572 380.513 29.3643 380.414 29.6428C380.314 29.9178 380.265 30.2642 380.265 30.6818C380.265 31.0994 380.314 31.4474 380.414 31.7258C380.513 32.0009 380.652 32.2081 380.831 32.3473C381.01 32.4832 381.219 32.5511 381.458 32.5511C381.66 32.5511 381.839 32.5047 381.995 32.4119C382.15 32.3158 382.276 32.1766 382.373 31.9943C382.472 31.8087 382.532 31.5833 382.551 31.3182H385.097C385.087 31.991 384.933 32.5776 384.635 33.0781C384.336 33.5753 383.914 33.9598 383.367 34.2315C382.823 34.5033 382.174 34.6392 381.418 34.6392ZM390.118 34.6392C389.29 34.6392 388.58 34.4751 387.99 34.147C387.4 33.8156 386.948 33.3549 386.633 32.7649C386.318 32.1716 386.161 31.4839 386.161 30.7017C386.161 29.9195 386.318 29.2334 386.633 28.6435C386.948 28.0502 387.4 27.5895 387.99 27.2614C388.58 26.9299 389.29 26.7642 390.118 26.7642C390.947 26.7642 391.656 26.9299 392.246 27.2614C392.836 27.5895 393.288 28.0502 393.603 28.6435C393.918 29.2334 394.076 29.9195 394.076 30.7017C394.076 31.4839 393.918 32.1716 393.603 32.7649C393.288 33.3549 392.836 33.8156 392.246 34.147C391.656 34.4751 390.947 34.6392 390.118 34.6392ZM390.138 32.6108C390.37 32.6108 390.571 32.5329 390.74 32.3771C390.909 32.2214 391.04 31.9993 391.132 31.7109C391.225 31.4226 391.272 31.0795 391.272 30.6818C391.272 30.2808 391.225 29.9377 391.132 29.6527C391.04 29.3643 390.909 29.1423 390.74 28.9865C390.571 28.8307 390.37 28.7528 390.138 28.7528C389.893 28.7528 389.682 28.8307 389.507 28.9865C389.331 29.1423 389.197 29.3643 389.104 29.6527C389.011 29.9377 388.965 30.2808 388.965 30.6818C388.965 31.0795 389.011 31.4226 389.104 31.7109C389.197 31.9993 389.331 32.2214 389.507 32.3771C389.682 32.5329 389.893 32.6108 390.138 32.6108ZM398.144 30.2045V34.5H395.399V26.8636H398.004V28.3153H398.084C398.25 27.8314 398.541 27.4519 398.959 27.1768C399.38 26.9017 399.87 26.7642 400.43 26.7642C400.971 26.7642 401.44 26.8885 401.837 27.1371C402.238 27.3823 402.548 27.7204 402.767 28.1513C402.989 28.5821 403.099 29.0743 403.095 29.6278V34.5H400.351V30.2045C400.354 29.8267 400.258 29.5301 400.063 29.3146C399.87 29.0992 399.602 28.9915 399.257 28.9915C399.032 28.9915 398.835 29.0412 398.666 29.1406C398.5 29.2367 398.372 29.3759 398.283 29.5582C398.193 29.7372 398.147 29.9526 398.144 30.2045ZM409.234 26.8636V28.8523H404.123V26.8636H409.234ZM405.098 34.5V26.6449C405.098 26.0151 405.21 25.4931 405.436 25.0788C405.661 24.6645 405.979 24.3546 406.39 24.1491C406.801 23.9437 407.285 23.8409 407.842 23.8409C408.19 23.8409 408.528 23.8674 408.856 23.9205C409.187 23.9735 409.433 24.0199 409.592 24.0597L409.194 26.0284C409.095 25.9986 408.979 25.9754 408.846 25.9588C408.714 25.9389 408.598 25.929 408.498 25.929C408.24 25.929 408.066 25.9837 407.976 26.093C407.887 26.2024 407.842 26.3466 407.842 26.5256V34.5H405.098ZM410.503 34.5V26.8636H413.247V34.5H410.503ZM411.875 26.0682C411.504 26.0682 411.186 25.9455 410.92 25.7003C410.655 25.455 410.523 25.16 410.523 24.8153C410.523 24.4706 410.655 24.1757 410.92 23.9304C411.186 23.6851 411.504 23.5625 411.875 23.5625C412.25 23.5625 412.568 23.6851 412.83 23.9304C413.095 24.1757 413.227 24.4706 413.227 24.8153C413.227 25.16 413.095 25.455 412.83 25.7003C412.568 25.9455 412.25 26.0682 411.875 26.0682ZM418.534 37.5227C417.769 37.5227 417.112 37.4133 416.566 37.1946C416.022 36.9792 415.599 36.6809 415.298 36.2997C415 35.9219 414.832 35.4877 414.796 34.9972H417.441C417.467 35.1596 417.533 35.2905 417.639 35.3899C417.746 35.4893 417.881 35.5606 418.047 35.6037C418.216 35.6501 418.405 35.6733 418.614 35.6733C418.969 35.6733 419.262 35.5871 419.494 35.4148C419.729 35.2424 419.847 34.9309 419.847 34.4801V33.1875H419.767C419.668 33.446 419.515 33.6664 419.31 33.8487C419.104 34.0277 418.858 34.1652 418.569 34.2614C418.281 34.3542 417.964 34.4006 417.62 34.4006C417.076 34.4006 416.576 34.2746 416.118 34.0227C415.664 33.7708 415.3 33.3714 415.024 32.8246C414.753 32.2777 414.617 31.5634 414.617 30.6818C414.617 29.7604 414.759 29.0114 415.044 28.4347C415.333 27.858 415.704 27.4354 416.158 27.1669C416.615 26.8984 417.096 26.7642 417.6 26.7642C417.978 26.7642 418.309 26.8305 418.594 26.9631C418.879 27.0923 419.118 27.2663 419.31 27.4851C419.502 27.7005 419.648 27.9375 419.747 28.196H419.807V26.8636H422.551V34.4801C422.551 35.1264 422.384 35.6749 422.049 36.1257C421.718 36.5798 421.251 36.9261 420.647 37.1648C420.044 37.4034 419.34 37.5227 418.534 37.5227ZM418.634 32.4517C418.886 32.4517 419.101 32.3821 419.28 32.2429C419.462 32.1004 419.602 31.8982 419.698 31.6364C419.797 31.3712 419.847 31.053 419.847 30.6818C419.847 30.304 419.797 29.9808 419.698 29.7124C419.602 29.4406 419.462 29.2334 419.28 29.0909C419.101 28.9451 418.886 28.8722 418.634 28.8722C418.382 28.8722 418.166 28.9451 417.987 29.0909C417.812 29.2334 417.676 29.4406 417.58 29.7124C417.487 29.9808 417.441 30.304 417.441 30.6818C417.441 31.0597 417.487 31.3812 417.58 31.6463C417.676 31.9081 417.812 32.1087 417.987 32.2479C418.166 32.3838 418.382 32.4517 418.634 32.4517ZM429.109 31.1591V26.8636H431.853V34.5H429.248V33.0483H429.169C429.003 33.5355 428.713 33.9167 428.299 34.1918C427.884 34.4635 427.392 34.5994 426.822 34.5994C426.288 34.5994 425.821 34.4768 425.42 34.2315C425.022 33.9863 424.712 33.6482 424.49 33.2173C424.272 32.7865 424.161 32.2926 424.157 31.7358V26.8636H426.902V31.1591C426.905 31.5369 427.001 31.8336 427.19 32.049C427.382 32.2644 427.651 32.3722 427.995 32.3722C428.224 32.3722 428.421 32.3241 428.587 32.228C428.756 32.1285 428.885 31.9893 428.975 31.8104C429.067 31.6281 429.112 31.411 429.109 31.1591ZM433.459 34.5V26.8636H436.124V28.3153H436.203C436.343 27.7784 436.563 27.3857 436.865 27.1371C437.169 26.8885 437.526 26.7642 437.933 26.7642C438.053 26.7642 438.17 26.7741 438.286 26.794C438.406 26.8106 438.52 26.8355 438.629 26.8686V29.2102C438.494 29.1638 438.326 29.129 438.127 29.1058C437.928 29.0826 437.758 29.071 437.615 29.071C437.347 29.071 437.105 29.1323 436.889 29.255C436.677 29.3743 436.51 29.5433 436.387 29.7621C436.265 29.9775 436.203 30.2311 436.203 30.5227V34.5H433.459ZM441.512 34.6193C441.024 34.6193 440.594 34.5398 440.219 34.3807C439.848 34.2183 439.556 33.973 439.344 33.6449C439.132 33.3168 439.026 32.8991 439.026 32.392C439.026 31.9744 439.097 31.6181 439.24 31.3232C439.382 31.0249 439.581 30.7812 439.836 30.5923C440.091 30.4034 440.388 30.2592 440.726 30.1598C441.068 30.0604 441.435 29.9957 441.83 29.9659C442.257 29.9328 442.6 29.893 442.859 29.8466C443.121 29.7969 443.31 29.7289 443.426 29.6428C443.542 29.5533 443.6 29.4356 443.6 29.2898V29.2699C443.6 29.071 443.524 28.9186 443.371 28.8125C443.219 28.7064 443.023 28.6534 442.784 28.6534C442.523 28.6534 442.309 28.7114 442.143 28.8274C441.981 28.9401 441.883 29.1141 441.85 29.3494H439.324C439.357 28.8854 439.505 28.4579 439.767 28.0668C440.032 27.6723 440.418 27.3575 440.925 27.1222C441.432 26.8835 442.065 26.7642 442.824 26.7642C443.371 26.7642 443.862 26.8288 444.296 26.9581C444.73 27.084 445.1 27.2614 445.404 27.4901C445.709 27.7154 445.941 27.9806 446.1 28.2855C446.263 28.5871 446.344 28.9152 446.344 29.2699V34.5H443.779V33.4261H443.719C443.567 33.7112 443.381 33.9415 443.162 34.1172C442.947 34.2928 442.7 34.4205 442.421 34.5C442.146 34.5795 441.843 34.6193 441.512 34.6193ZM442.407 32.8892C442.615 32.8892 442.811 32.8461 442.993 32.7599C443.179 32.6738 443.33 32.5495 443.446 32.3871C443.562 32.2247 443.62 32.0275 443.62 31.7955V31.1591C443.547 31.1889 443.469 31.2171 443.386 31.2436C443.306 31.2701 443.22 31.295 443.127 31.3182C443.038 31.3414 442.942 31.3629 442.839 31.3828C442.74 31.4027 442.635 31.4209 442.526 31.4375C442.314 31.4706 442.14 31.5253 442.004 31.6016C441.871 31.6745 441.772 31.7656 441.706 31.875C441.643 31.9811 441.611 32.1004 441.611 32.233C441.611 32.4451 441.686 32.6075 441.835 32.7202C441.984 32.8329 442.175 32.8892 442.407 32.8892ZM452.419 26.8636V28.8523H447.388V26.8636H452.419ZM448.362 25.0341H451.107V32.044C451.107 32.1501 451.125 32.2396 451.161 32.3125C451.198 32.3821 451.254 32.4351 451.331 32.4716C451.407 32.5047 451.505 32.5213 451.624 32.5213C451.707 32.5213 451.803 32.5114 451.912 32.4915C452.025 32.4716 452.108 32.455 452.161 32.4418L452.558 34.3707C452.436 34.4072 452.26 34.4519 452.032 34.505C451.806 34.558 451.538 34.5928 451.226 34.6094C450.596 34.6425 450.068 34.5779 449.64 34.4155C449.213 34.2498 448.891 33.9896 448.676 33.6349C448.46 33.2803 448.356 32.8362 448.362 32.3026V25.0341ZM453.749 34.5V26.8636H456.493V34.5H453.749ZM455.121 26.0682C454.75 26.0682 454.432 25.9455 454.167 25.7003C453.902 25.455 453.769 25.16 453.769 24.8153C453.769 24.4706 453.902 24.1757 454.167 23.9304C454.432 23.6851 454.75 23.5625 455.121 23.5625C455.496 23.5625 455.814 23.6851 456.076 23.9304C456.341 24.1757 456.474 24.4706 456.474 24.8153C456.474 25.16 456.341 25.455 456.076 25.7003C455.814 25.9455 455.496 26.0682 455.121 26.0682ZM461.781 34.6392C460.952 34.6392 460.243 34.4751 459.653 34.147C459.063 33.8156 458.61 33.3549 458.296 32.7649C457.981 32.1716 457.823 31.4839 457.823 30.7017C457.823 29.9195 457.981 29.2334 458.296 28.6435C458.61 28.0502 459.063 27.5895 459.653 27.2614C460.243 26.9299 460.952 26.7642 461.781 26.7642C462.609 26.7642 463.319 26.9299 463.909 27.2614C464.499 27.5895 464.951 28.0502 465.266 28.6435C465.581 29.2334 465.738 29.9195 465.738 30.7017C465.738 31.4839 465.581 32.1716 465.266 32.7649C464.951 33.3549 464.499 33.8156 463.909 34.147C463.319 34.4751 462.609 34.6392 461.781 34.6392ZM461.801 32.6108C462.033 32.6108 462.233 32.5329 462.402 32.3771C462.571 32.2214 462.702 31.9993 462.795 31.7109C462.888 31.4226 462.934 31.0795 462.934 30.6818C462.934 30.2808 462.888 29.9377 462.795 29.6527C462.702 29.3643 462.571 29.1423 462.402 28.9865C462.233 28.8307 462.033 28.7528 461.801 28.7528C461.555 28.7528 461.345 28.8307 461.169 28.9865C460.994 29.1423 460.859 29.3643 460.766 29.6527C460.674 29.9377 460.627 30.2808 460.627 30.6818C460.627 31.0795 460.674 31.4226 460.766 31.7109C460.859 31.9993 460.994 32.2214 461.169 32.3771C461.345 32.5329 461.555 32.6108 461.801 32.6108ZM469.806 30.2045V34.5H467.062V26.8636H469.667V28.3153H469.746C469.912 27.8314 470.204 27.4519 470.621 27.1768C471.042 26.9017 471.533 26.7642 472.093 26.7642C472.633 26.7642 473.102 26.8885 473.5 27.1371C473.901 27.3823 474.211 27.7204 474.43 28.1513C474.652 28.5821 474.761 29.0743 474.758 29.6278V34.5H472.013V30.2045C472.017 29.8267 471.921 29.5301 471.725 29.3146C471.533 29.0992 471.264 28.9915 470.92 28.9915C470.694 28.9915 470.497 29.0412 470.328 29.1406C470.162 29.2367 470.035 29.3759 469.945 29.5582C469.856 29.7372 469.809 29.9526 469.806 30.2045ZM483.303 29.3494H480.777C480.764 29.1937 480.709 29.0594 480.613 28.9467C480.517 28.834 480.393 28.7479 480.24 28.6882C480.091 28.6252 479.925 28.5937 479.743 28.5937C479.508 28.5937 479.305 28.6368 479.136 28.723C478.967 28.8092 478.885 28.9318 478.888 29.0909C478.885 29.2036 478.933 29.308 479.032 29.4041C479.135 29.5002 479.332 29.5748 479.624 29.6278L481.175 29.9062C481.957 30.0488 482.539 30.2891 482.92 30.6271C483.304 30.9619 483.498 31.411 483.501 31.9744C483.498 32.518 483.336 32.9903 483.014 33.3913C482.696 33.7891 482.26 34.0973 481.707 34.316C481.157 34.5315 480.528 34.6392 479.823 34.6392C478.656 34.6392 477.743 34.4006 477.083 33.9233C476.427 33.446 476.061 32.8163 475.984 32.0341H478.709C478.745 32.276 478.865 32.4633 479.067 32.5959C479.272 32.7251 479.531 32.7898 479.842 32.7898C480.094 32.7898 480.301 32.7467 480.464 32.6605C480.63 32.5743 480.714 32.4517 480.717 32.2926C480.714 32.1468 480.641 32.0308 480.499 31.9446C480.359 31.8584 480.141 31.7888 479.842 31.7358L478.49 31.4972C477.711 31.3613 477.128 31.1027 476.74 30.7216C476.352 30.3404 476.16 29.8499 476.163 29.25C476.16 28.7197 476.299 28.2706 476.581 27.9027C476.866 27.5315 477.272 27.2498 477.799 27.0575C478.329 26.862 478.957 26.7642 479.683 26.7642C480.787 26.7642 481.657 26.9929 482.293 27.4503C482.933 27.9077 483.269 28.5407 483.303 29.3494Z" fill="#CB6F8F"/>
<rect x="275.5" y="0.5" width="258" height="58" rx="11.5" stroke="#B9A4FF"/>
<path d="M580.029 40H575.263C576.264 33.881 579.088 28.1445 583.03 22.7315H572.469V19.1131H587.884V21.9961C583.648 27.5561 580.882 33.5868 580.029 40Z" fill="#303048"/>
<g clip-path="url(#clip2_725_5897)">
<mask id="mask1_725_5897" style="mask-type:luminance" maskUnits="userSpaceOnUse" x="603" y="22" width="15" height="15">
<path d="M617.974 22.1455H603.933V36.8545H617.974V22.1455Z" fill="white"/>
</mask>
<g mask="url(#mask1_725_5897)">
<path d="M615.529 29.0744C615.257 31.8657 613.647 33.852 610.401 35.4028C606.824 33.7003 605.227 31.4698 605.227 28.2099V24.8906C605.44 24.9038 605.654 24.9104 605.873 24.9104C607.503 24.9104 609.055 24.4947 610.401 23.7028C611.532 24.3693 612.813 24.7652 614.158 24.8774L615.439 23.5708C615.27 23.584 615.102 23.5906 614.928 23.5906C613.408 23.5906 611.959 23.1683 610.75 22.3764L610.401 22.1455L610.051 22.3764C608.842 23.1683 607.4 23.5906 605.873 23.5906C605.466 23.5906 605.065 23.5576 604.677 23.4982L603.933 23.3795V28.2099C603.933 33.3043 607.471 35.515 610.135 36.7292L610.401 36.8479L610.666 36.7292C613.33 35.5083 616.868 33.2977 616.868 28.2099V27.7084L615.529 29.0744Z" fill="#6F9FCB"/>
<path d="M610.446 32.3936L606.766 29.3779L607.568 28.3484L610.355 30.6251L617.056 23.782L617.974 24.719L610.446 32.3936Z" fill="#6F9FCB"/>
</g>
</g>
<path d="M626.653 34.5V24.3182H631.048C631.804 24.3182 632.465 24.4557 633.032 24.7308C633.599 25.0059 634.039 25.402 634.354 25.919C634.669 26.4361 634.826 27.0559 634.826 27.7784C634.826 28.5076 634.664 29.1224 634.339 29.6229C634.018 30.1233 633.565 30.5012 632.982 30.7564C632.402 31.0116 631.724 31.1392 630.949 31.1392H628.324V28.9915H630.392C630.717 28.9915 630.993 28.9517 631.222 28.8722C631.454 28.7893 631.631 28.6584 631.754 28.4794C631.88 28.3004 631.943 28.0668 631.943 27.7784C631.943 27.4867 631.88 27.2498 631.754 27.0675C631.631 26.8819 631.454 26.746 631.222 26.6598C630.993 26.5703 630.717 26.5256 630.392 26.5256H629.417V34.5H626.653ZM632.619 29.8267L635.165 34.5H632.162L629.676 29.8267H632.619ZM639.75 34.6392C638.934 34.6392 638.232 34.4834 637.642 34.1719C637.055 33.857 636.603 33.4062 636.284 32.8196C635.969 32.2296 635.812 31.5237 635.812 30.7017C635.812 29.9129 635.971 29.2235 636.289 28.6335C636.608 28.0436 637.057 27.5845 637.637 27.2564C638.217 26.9283 638.901 26.7642 639.69 26.7642C640.267 26.7642 640.789 26.8537 641.256 27.0327C641.723 27.2116 642.123 27.4718 642.454 27.8132C642.786 28.1513 643.041 28.5623 643.22 29.0462C643.399 29.5301 643.488 30.0753 643.488 30.6818V31.3182H636.667V29.8068H640.963C640.959 29.5881 640.903 29.3958 640.794 29.2301C640.688 29.0611 640.543 28.9302 640.361 28.8374C640.182 28.7412 639.978 28.6932 639.75 28.6932C639.527 28.6932 639.324 28.7412 639.138 28.8374C638.952 28.9302 638.803 29.0594 638.691 29.2251C638.581 29.3909 638.523 29.5848 638.517 29.8068V31.4375C638.517 31.6828 638.568 31.9015 638.671 32.0937C638.773 32.286 638.921 32.4368 639.113 32.5462C639.305 32.6555 639.537 32.7102 639.809 32.7102C639.998 32.7102 640.17 32.6837 640.326 32.6307C640.485 32.5776 640.621 32.5014 640.734 32.402C640.847 32.2992 640.929 32.1766 640.983 32.0341H643.488C643.402 32.5644 643.198 33.0251 642.877 33.4162C642.555 33.804 642.129 34.1056 641.599 34.321C641.072 34.5331 640.456 34.6392 639.75 34.6392ZM647.562 24.3182V34.5H644.818V24.3182H647.562ZM649.171 34.5V26.8636H651.915V34.5H649.171ZM650.543 26.0682C650.172 26.0682 649.853 25.9455 649.588 25.7003C649.323 25.455 649.191 25.16 649.191 24.8153C649.191 24.4706 649.323 24.1757 649.588 23.9304C649.853 23.6851 650.172 23.5625 650.543 23.5625C650.917 23.5625 651.235 23.6851 651.497 23.9304C651.762 24.1757 651.895 24.4706 651.895 24.8153C651.895 25.16 651.762 25.455 651.497 25.7003C651.235 25.9455 650.917 26.0682 650.543 26.0682ZM655.651 34.6193C655.164 34.6193 654.733 34.5398 654.358 34.3807C653.987 34.2183 653.696 33.973 653.483 33.6449C653.271 33.3168 653.165 32.8991 653.165 32.392C653.165 31.9744 653.237 31.6181 653.379 31.3232C653.522 31.0249 653.72 30.7812 653.976 30.5923C654.231 30.4034 654.527 30.2592 654.866 30.1598C655.207 30.0604 655.575 29.9957 655.969 29.9659C656.397 29.9328 656.74 29.893 656.998 29.8466C657.26 29.7969 657.449 29.7289 657.565 29.6428C657.681 29.5533 657.739 29.4356 657.739 29.2898V29.2699C657.739 29.071 657.663 28.9186 657.51 28.8125C657.358 28.7064 657.162 28.6534 656.924 28.6534C656.662 28.6534 656.448 28.7114 656.282 28.8274C656.12 28.9401 656.022 29.1141 655.989 29.3494H653.464C653.497 28.8854 653.644 28.4579 653.906 28.0668C654.171 27.6723 654.557 27.3575 655.064 27.1222C655.572 26.8835 656.205 26.7642 656.964 26.7642C657.51 26.7642 658.001 26.8288 658.435 26.9581C658.869 27.084 659.239 27.2614 659.544 27.4901C659.849 27.7154 660.081 27.9806 660.24 28.2855C660.402 28.5871 660.483 28.9152 660.483 29.2699V34.5H657.918V33.4261H657.858C657.706 33.7112 657.52 33.9415 657.302 34.1172C657.086 34.2928 656.839 34.4205 656.561 34.5C656.286 34.5795 655.982 34.6193 655.651 34.6193ZM656.546 32.8892C656.755 32.8892 656.95 32.8461 657.133 32.7599C657.318 32.6738 657.469 32.5495 657.585 32.3871C657.701 32.2247 657.759 32.0275 657.759 31.7955V31.1591C657.686 31.1889 657.608 31.2171 657.525 31.2436C657.446 31.2701 657.36 31.295 657.267 31.3182C657.177 31.3414 657.081 31.3629 656.978 31.3828C656.879 31.4027 656.775 31.4209 656.665 31.4375C656.453 31.4706 656.279 31.5253 656.143 31.6016C656.011 31.6745 655.911 31.7656 655.845 31.875C655.782 31.9811 655.75 32.1004 655.75 32.233C655.75 32.4451 655.825 32.6075 655.974 32.7202C656.123 32.8329 656.314 32.8892 656.546 32.8892ZM661.965 34.5V24.3182H664.709V28.196H664.749C664.848 27.9375 664.994 27.7005 665.187 27.4851C665.379 27.2663 665.617 27.0923 665.902 26.9631C666.187 26.8305 666.519 26.7642 666.897 26.7642C667.401 26.7642 667.879 26.8984 668.334 27.1669C668.791 27.4354 669.162 27.858 669.447 28.4347C669.736 29.0114 669.88 29.7604 669.88 30.6818C669.88 31.5634 669.742 32.2943 669.467 32.8743C669.195 33.4543 668.831 33.8868 668.373 34.1719C667.919 34.4569 667.42 34.5994 666.877 34.5994C666.519 34.5994 666.199 34.5414 665.917 34.4254C665.639 34.3061 665.4 34.1454 665.201 33.9432C665.006 33.7377 664.855 33.5057 664.749 33.2472H664.689V34.5H661.965ZM664.65 30.6818C664.65 31.053 664.698 31.3745 664.794 31.6463C664.893 31.9148 665.032 32.1236 665.211 32.2727C665.394 32.4186 665.611 32.4915 665.863 32.4915C666.115 32.4915 666.328 32.4202 666.504 32.2777C666.683 32.1319 666.819 31.9247 666.912 31.6562C667.008 31.3845 667.056 31.0597 667.056 30.6818C667.056 30.304 667.008 29.9808 666.912 29.7124C666.819 29.4406 666.683 29.2334 666.504 29.0909C666.328 28.9451 666.115 28.8722 665.863 28.8722C665.611 28.8722 665.394 28.9451 665.211 29.0909C665.032 29.2334 664.893 29.4406 664.794 29.7124C664.698 29.9808 664.65 30.304 664.65 30.6818ZM671.238 34.5V26.8636H673.982V34.5H671.238ZM672.61 26.0682C672.239 26.0682 671.921 25.9455 671.656 25.7003C671.391 25.455 671.258 25.16 671.258 24.8153C671.258 24.4706 671.391 24.1757 671.656 23.9304C671.921 23.6851 672.239 23.5625 672.61 23.5625C672.985 23.5625 673.303 23.6851 673.565 23.9304C673.83 24.1757 673.963 24.4706 673.963 24.8153C673.963 25.16 673.83 25.455 673.565 25.7003C673.303 25.9455 672.985 26.0682 672.61 26.0682ZM678.335 24.3182V34.5H675.591V24.3182H678.335ZM679.943 34.5V26.8636H682.688V34.5H679.943ZM681.315 26.0682C680.944 26.0682 680.626 25.9455 680.361 25.7003C680.096 25.455 679.963 25.16 679.963 24.8153C679.963 24.4706 680.096 24.1757 680.361 23.9304C680.626 23.6851 680.944 23.5625 681.315 23.5625C681.69 23.5625 682.008 23.6851 682.27 23.9304C682.535 24.1757 682.668 24.4706 682.668 24.8153C682.668 25.16 682.535 25.455 682.27 25.7003C682.008 25.9455 681.69 26.0682 681.315 26.0682ZM688.85 26.8636V28.8523H683.819V26.8636H688.85ZM684.793 25.0341H687.537V32.044C687.537 32.1501 687.556 32.2396 687.592 32.3125C687.628 32.3821 687.685 32.4351 687.761 32.4716C687.837 32.5047 687.935 32.5213 688.054 32.5213C688.137 32.5213 688.233 32.5114 688.343 32.4915C688.455 32.4716 688.538 32.455 688.591 32.4418L688.989 34.3707C688.866 34.4072 688.691 34.4519 688.462 34.505C688.237 34.558 687.968 34.5928 687.657 34.6094C687.027 34.6425 686.498 34.5779 686.071 34.4155C685.643 34.2498 685.322 33.9896 685.106 33.6349C684.891 33.2803 684.786 32.8362 684.793 32.3026V25.0341ZM691.85 37.3636C691.535 37.3636 691.235 37.3388 690.95 37.2891C690.665 37.2427 690.415 37.178 690.2 37.0952L690.796 35.1463C691.022 35.2258 691.227 35.2772 691.413 35.3004C691.602 35.3236 691.762 35.3104 691.895 35.2607C692.031 35.2109 692.129 35.1165 692.188 34.9773L692.248 34.8381L689.563 26.8636H692.427L693.66 32.1534H693.739L694.992 26.8636H697.876L695.092 35.1364C694.952 35.5573 694.75 35.9351 694.485 36.2699C694.223 36.608 693.879 36.8748 693.451 37.0703C693.023 37.2659 692.49 37.3636 691.85 37.3636ZM704.59 24.3182V34.5H701.826V24.3182H704.59ZM708.894 30.2045V34.5H706.15V26.8636H708.755V28.3153H708.834C709 27.8314 709.292 27.4519 709.709 27.1768C710.13 26.9017 710.621 26.7642 711.181 26.7642C711.721 26.7642 712.19 26.8885 712.588 27.1371C712.989 27.3823 713.299 27.7204 713.517 28.1513C713.739 28.5821 713.849 29.0743 713.846 29.6278V34.5H711.101V30.2045C711.105 29.8267 711.008 29.5301 710.813 29.3146C710.621 29.0992 710.352 28.9915 710.007 28.9915C709.782 28.9915 709.585 29.0412 709.416 29.1406C709.25 29.2367 709.123 29.3759 709.033 29.5582C708.944 29.7372 708.897 29.9526 708.894 30.2045ZM722.39 29.3494H719.865C719.852 29.1937 719.797 29.0594 719.701 28.9467C719.605 28.834 719.48 28.7479 719.328 28.6882C719.179 28.6252 719.013 28.5937 718.831 28.5937C718.595 28.5937 718.393 28.6368 718.224 28.723C718.055 28.8092 717.972 28.9318 717.976 29.0909C717.972 29.2036 718.02 29.308 718.12 29.4041C718.223 29.5002 718.42 29.5748 718.711 29.6278L720.263 29.9062C721.045 30.0488 721.626 30.2891 722.008 30.6271C722.392 30.9619 722.586 31.411 722.589 31.9744C722.586 32.518 722.424 32.9903 722.102 33.3913C721.784 33.7891 721.348 34.0973 720.795 34.316C720.244 34.5315 719.616 34.6392 718.91 34.6392C717.744 34.6392 716.831 34.4006 716.171 33.9233C715.515 33.446 715.148 32.8163 715.072 32.0341H717.797C717.833 32.276 717.952 32.4633 718.155 32.5959C718.36 32.7251 718.619 32.7898 718.93 32.7898C719.182 32.7898 719.389 32.7467 719.552 32.6605C719.717 32.5743 719.802 32.4517 719.805 32.2926C719.802 32.1468 719.729 32.0308 719.586 31.9446C719.447 31.8584 719.228 31.7888 718.93 31.7358L717.578 31.4972C716.799 31.3613 716.216 31.1027 715.828 30.7216C715.44 30.3404 715.248 29.8499 715.251 29.25C715.248 28.7197 715.387 28.2706 715.669 27.9027C715.954 27.5315 716.36 27.2498 716.887 27.0575C717.417 26.862 718.045 26.7642 718.771 26.7642C719.875 26.7642 720.745 26.9929 721.381 27.4503C722.021 27.9077 722.357 28.5407 722.39 29.3494ZM723.851 34.5V26.8636H726.595V34.5H723.851ZM725.223 26.0682C724.852 26.0682 724.534 25.9455 724.268 25.7003C724.003 25.455 723.871 25.16 723.871 24.8153C723.871 24.4706 724.003 24.1757 724.268 23.9304C724.534 23.6851 724.852 23.5625 725.223 23.5625C725.597 23.5625 725.916 23.6851 726.177 23.9304C726.443 24.1757 726.575 24.4706 726.575 24.8153C726.575 25.16 726.443 25.455 726.177 25.7003C725.916 25.9455 725.597 26.0682 725.223 26.0682ZM731.882 37.5227C731.117 37.5227 730.46 37.4133 729.914 37.1946C729.37 36.9792 728.947 36.6809 728.646 36.2997C728.348 35.9219 728.18 35.4877 728.144 34.9972H730.789C730.815 35.1596 730.881 35.2905 730.987 35.3899C731.094 35.4893 731.229 35.5606 731.395 35.6037C731.564 35.6501 731.753 35.6733 731.962 35.6733C732.317 35.6733 732.61 35.5871 732.842 35.4148C733.077 35.2424 733.195 34.9309 733.195 34.4801V33.1875H733.115C733.016 33.446 732.863 33.6664 732.658 33.8487C732.452 34.0277 732.205 34.1652 731.917 34.2614C731.629 34.3542 731.312 34.4006 730.968 34.4006C730.424 34.4006 729.924 34.2746 729.466 34.0227C729.012 33.7708 728.647 33.3714 728.372 32.8246C728.101 32.2777 727.965 31.5634 727.965 30.6818C727.965 29.7604 728.107 29.0114 728.392 28.4347C728.681 27.858 729.052 27.4354 729.506 27.1669C729.963 26.8984 730.444 26.7642 730.948 26.7642C731.326 26.7642 731.657 26.8305 731.942 26.9631C732.227 27.0923 732.466 27.2663 732.658 27.4851C732.85 27.7005 732.996 27.9375 733.095 28.196H733.155V26.8636H735.899V34.4801C735.899 35.1264 735.732 35.6749 735.397 36.1257C735.066 36.5798 734.598 36.9261 733.995 37.1648C733.392 37.4034 732.688 37.5227 731.882 37.5227ZM731.982 32.4517C732.234 32.4517 732.449 32.3821 732.628 32.2429C732.81 32.1004 732.95 31.8982 733.046 31.6364C733.145 31.3712 733.195 31.053 733.195 30.6818C733.195 30.304 733.145 29.9808 733.046 29.7124C732.95 29.4406 732.81 29.2334 732.628 29.0909C732.449 28.9451 732.234 28.8722 731.982 28.8722C731.73 28.8722 731.514 28.9451 731.335 29.0909C731.16 29.2334 731.024 29.4406 730.928 29.7124C730.835 29.9808 730.789 30.304 730.789 30.6818C730.789 31.0597 730.835 31.3812 730.928 31.6463C731.024 31.9081 731.16 32.1087 731.335 32.2479C731.514 32.3838 731.73 32.4517 731.982 32.4517ZM740.249 30.2045V34.5H737.505V24.3182H740.15V28.3153H740.23C740.402 27.8281 740.689 27.4486 741.09 27.1768C741.491 26.9017 741.973 26.7642 742.536 26.7642C743.077 26.7642 743.546 26.8868 743.943 27.1321C744.344 27.3774 744.654 27.7154 744.873 28.1463C745.095 28.5772 745.204 29.071 745.201 29.6278V34.5H742.457V30.2045C742.46 29.8267 742.366 29.5301 742.173 29.3146C741.985 29.0992 741.714 28.9915 741.363 28.9915C741.141 28.9915 740.945 29.0412 740.776 29.1406C740.611 29.2367 740.481 29.3759 740.389 29.5582C740.299 29.7372 740.253 29.9526 740.249 30.2045ZM751.32 26.8636V28.8523H746.289V26.8636H751.32ZM747.263 25.0341H750.007V32.044C750.007 32.1501 750.026 32.2396 750.062 32.3125C750.099 32.3821 750.155 32.4351 750.231 32.4716C750.307 32.5047 750.405 32.5213 750.524 32.5213C750.607 32.5213 750.703 32.5114 750.813 32.4915C750.926 32.4716 751.008 32.455 751.061 32.4418L751.459 34.3707C751.336 34.4072 751.161 34.4519 750.932 34.505C750.707 34.558 750.438 34.5928 750.127 34.6094C749.497 34.6425 748.968 34.5779 748.541 34.4155C748.113 34.2498 747.792 33.9896 747.576 33.6349C747.361 33.2803 747.256 32.8362 747.263 32.3026V25.0341ZM759.548 29.3494H757.022C757.009 29.1937 756.954 29.0594 756.858 28.9467C756.762 28.834 756.638 28.7479 756.485 28.6882C756.336 28.6252 756.17 28.5937 755.988 28.5937C755.753 28.5937 755.551 28.6368 755.382 28.723C755.213 28.8092 755.13 28.9318 755.133 29.0909C755.13 29.2036 755.178 29.308 755.277 29.4041C755.38 29.5002 755.577 29.5748 755.869 29.6278L757.42 29.9062C758.202 30.0488 758.784 30.2891 759.165 30.6271C759.55 30.9619 759.743 31.411 759.747 31.9744C759.743 32.518 759.581 32.9903 759.259 33.3913C758.941 33.7891 758.505 34.0973 757.952 34.316C757.402 34.5315 756.774 34.6392 756.068 34.6392C754.901 34.6392 753.988 34.4006 753.328 33.9233C752.672 33.446 752.306 32.8163 752.23 32.0341H754.954C754.991 32.276 755.11 32.4633 755.312 32.5959C755.518 32.7251 755.776 32.7898 756.088 32.7898C756.34 32.7898 756.547 32.7467 756.709 32.6605C756.875 32.5743 756.959 32.4517 756.963 32.2926C756.959 32.1468 756.886 32.0308 756.744 31.9446C756.605 31.8584 756.386 31.7888 756.088 31.7358L754.735 31.4972C753.956 31.3613 753.373 31.1027 752.985 30.7216C752.598 30.3404 752.405 29.8499 752.409 29.25C752.405 28.7197 752.545 28.2706 752.826 27.9027C753.111 27.5315 753.517 27.2498 754.044 27.0575C754.575 26.862 755.203 26.7642 755.929 26.7642C757.032 26.7642 757.902 26.9929 758.539 27.4503C759.178 27.9077 759.515 28.5407 759.548 29.3494Z" fill="#6F9FCB"/>
<rect x="550.5" y="0.5" width="258" height="58" rx="11.5" stroke="#B9A4FF"/>
<defs>
<clipPath id="clip0_725_5897">
<rect width="14.7091" height="14.7091" fill="white" transform="translate(53.9333 22.1456)"/>
</clipPath>
<clipPath id="clip1_725_5897">
<rect width="14.7091" height="14.7091" fill="white" transform="translate(328.933 22.1455)"/>
</clipPath>
<clipPath id="clip2_725_5897">
<rect width="14.7091" height="14.7091" fill="white" transform="translate(603.933 22.1455)"/>
</clipPath>
</defs>
</svg>
