<svg width="446" height="145" viewBox="0 0 446 145" fill="none" xmlns="http://www.w3.org/2000/svg">
<rect x="0.5" y="0.5" width="445" height="143.274" rx="6.6233" fill="white"/>
<path d="M15.1697 26.3972H11.7606L15.6015 14.7609H19.9197L23.7606 26.3972H20.3515L17.8061 17.9654H17.7152L15.1697 26.3972ZM14.5333 21.8063H20.9424V24.1699H14.5333V21.8063ZM26.7165 26.3972L23.2847 14.7609H26.8074L28.3983 21.9199H28.4892L30.3756 14.7609H33.1483L35.0347 21.9427H35.1256L36.7165 14.7609H40.2392L36.8074 26.3972H33.7847L31.8074 19.8972H31.7165L29.7392 26.3972H26.7165ZM47.5872 18.3972C47.5569 18.0184 47.4149 17.723 47.1611 17.5109C46.9111 17.2987 46.5304 17.1927 46.019 17.1927C45.6933 17.1927 45.4262 17.2324 45.2179 17.312C45.0133 17.3877 44.8618 17.4919 44.7633 17.6245C44.6649 17.7571 44.6137 17.9086 44.6099 18.079C44.6024 18.2192 44.627 18.3461 44.6838 18.4597C44.7444 18.5696 44.8391 18.6699 44.9679 18.7609C45.0967 18.848 45.2614 18.9275 45.4622 18.9995C45.663 19.0715 45.9016 19.1359 46.1781 19.1927L47.1327 19.3972C47.7766 19.5336 48.3277 19.7135 48.7861 19.937C49.2444 20.1605 49.6194 20.4237 49.9111 20.7268C50.2027 21.026 50.4167 21.3631 50.5531 21.7381C50.6933 22.1131 50.7652 22.5222 50.769 22.9654C50.7652 23.7306 50.5739 24.3783 50.1952 24.9086C49.8164 25.4389 49.2747 25.8423 48.5702 26.1188C47.8694 26.3953 47.0266 26.5336 46.0417 26.5336C45.0304 26.5336 44.1478 26.384 43.394 26.0847C42.644 25.7855 42.0607 25.3252 41.644 24.704C41.2311 24.079 41.0228 23.2798 41.019 22.3063H44.019C44.038 22.6624 44.127 22.9616 44.2861 23.204C44.4452 23.4465 44.6686 23.6302 44.9565 23.7552C45.2482 23.8802 45.5948 23.9427 45.9963 23.9427C46.3334 23.9427 46.6156 23.901 46.8429 23.8177C47.0702 23.7343 47.2425 23.6188 47.3599 23.4711C47.4774 23.3234 47.538 23.1548 47.5417 22.9654C47.538 22.7874 47.4792 22.6321 47.3656 22.4995C47.2558 22.3631 47.0739 22.2419 46.8202 22.1359C46.5664 22.026 46.2236 21.9237 45.7917 21.829L44.6327 21.579C43.6024 21.3555 42.7899 20.9824 42.1952 20.4597C41.6042 19.9332 41.3107 19.2154 41.3145 18.3063C41.3107 17.5677 41.5077 16.9218 41.9054 16.3688C42.3069 15.812 42.8618 15.3783 43.5702 15.0677C44.2823 14.7571 45.0986 14.6018 46.019 14.6018C46.9584 14.6018 47.7709 14.759 48.4565 15.0734C49.1421 15.3877 49.6705 15.8309 50.0417 16.4029C50.4167 16.9711 50.6061 17.6359 50.6099 18.3972H47.5872ZM55.6382 26.3972V14.7609H60.6609C61.5246 14.7609 62.2803 14.9313 62.928 15.2722C63.5757 15.6131 64.0795 16.0923 64.4394 16.7097C64.7992 17.3271 64.9791 18.0487 64.9791 18.8745C64.9791 19.7078 64.7935 20.4294 64.4223 21.0393C64.0549 21.6491 63.5378 22.1188 62.8712 22.4484C62.2083 22.7779 61.4337 22.9427 60.5473 22.9427H57.5473V20.4881H59.9109C60.2822 20.4881 60.5984 20.4237 60.8598 20.2949C61.125 20.1624 61.3276 19.9749 61.4678 19.7324C61.6117 19.49 61.6837 19.204 61.6837 18.8745C61.6837 18.5412 61.6117 18.2571 61.4678 18.0222C61.3276 17.7836 61.125 17.6018 60.8598 17.4768C60.5984 17.348 60.2822 17.2836 59.9109 17.2836H58.7973V26.3972H55.6382ZM72.0828 22.579V17.6699H75.2191V26.3972H72.2419V24.7381H72.151C71.9616 25.2949 71.6301 25.7306 71.1566 26.0449C70.6831 26.3556 70.1206 26.5109 69.4691 26.5109C68.8593 26.5109 68.3252 26.3707 67.8669 26.0904C67.4123 25.8101 67.0581 25.4237 66.8044 24.9313C66.5544 24.4389 66.4275 23.8745 66.4237 23.2381V17.6699H69.56V22.579C69.5638 23.0109 69.6737 23.3499 69.8896 23.5961C70.1093 23.8423 70.4161 23.9654 70.81 23.9654C71.0714 23.9654 71.2968 23.9105 71.4862 23.8006C71.6794 23.687 71.8271 23.5279 71.9294 23.3234C72.0354 23.115 72.0866 22.8669 72.0828 22.579ZM77.0089 26.3972V14.7609H80.1452V19.1927H80.1907C80.3043 18.8972 80.471 18.6264 80.6907 18.3802C80.9104 18.1302 81.1831 17.9313 81.5089 17.7836C81.8346 17.6321 82.2134 17.5563 82.6452 17.5563C83.221 17.5563 83.7683 17.7097 84.2873 18.0165C84.81 18.3234 85.2342 18.8063 85.56 19.4654C85.8895 20.1245 86.0543 20.9805 86.0543 22.0336C86.0543 23.0412 85.8971 23.8764 85.5827 24.5393C85.2721 25.2021 84.8554 25.6965 84.3327 26.0222C83.8138 26.348 83.2437 26.5109 82.6225 26.5109C82.2134 26.5109 81.8479 26.4446 81.5259 26.312C81.2077 26.1756 80.935 25.9919 80.7077 25.7609C80.4842 25.526 80.3119 25.2609 80.1907 24.9654H80.1225V26.3972H77.0089ZM80.077 22.0336C80.077 22.4578 80.132 22.8252 80.2418 23.1359C80.3554 23.4427 80.5145 23.6813 80.7191 23.8518C80.9274 24.0184 81.1755 24.1018 81.4634 24.1018C81.7513 24.1018 81.9956 24.0203 82.1964 23.8574C82.4009 23.6908 82.5562 23.454 82.6623 23.1472C82.7721 22.8366 82.827 22.4654 82.827 22.0336C82.827 21.6018 82.7721 21.2324 82.6623 20.9256C82.5562 20.615 82.4009 20.3783 82.1964 20.2154C81.9956 20.0487 81.7513 19.9654 81.4634 19.9654C81.1755 19.9654 80.9274 20.0487 80.7191 20.2154C80.5145 20.3783 80.3554 20.615 80.2418 20.9256C80.132 21.2324 80.077 21.6018 80.077 22.0336ZM87.6068 14.7609H90.7432V23.5563C90.747 23.7343 90.7981 23.8707 90.8966 23.9654C90.9988 24.0563 91.1447 24.1018 91.3341 24.1018C91.4326 24.1018 91.5121 24.098 91.5727 24.0904C91.6333 24.0828 91.6826 24.0715 91.7204 24.0563L92.175 26.2154C92.0462 26.2571 91.8909 26.3006 91.7091 26.3461C91.5273 26.3915 91.2507 26.4237 90.8795 26.4427C89.7545 26.4995 88.9288 26.3252 88.4023 25.9199C87.8757 25.5109 87.6106 24.8215 87.6068 23.8518V14.7609ZM93.1124 26.3972V17.6699H96.2488V26.3972H93.1124ZM94.6806 16.7609C94.2564 16.7609 93.8927 16.6207 93.5897 16.3404C93.2867 16.0601 93.1352 15.723 93.1352 15.329C93.1352 14.9351 93.2867 14.598 93.5897 14.3177C93.8927 14.0374 94.2564 13.8972 94.6806 13.8972C95.1086 13.8972 95.4723 14.0374 95.7715 14.3177C96.0745 14.598 96.2261 14.9351 96.2261 15.329C96.2261 15.723 96.0745 16.0601 95.7715 16.3404C95.4723 16.6207 95.1086 16.7609 94.6806 16.7609ZM102.291 26.5563C101.344 26.5563 100.534 26.3688 99.8595 25.9938C99.1853 25.615 98.6682 25.0885 98.3084 24.4143C97.9485 23.7362 97.7686 22.9502 97.7686 22.0563C97.7686 21.1624 97.9485 20.3783 98.3084 19.704C98.6682 19.026 99.1853 18.4995 99.8595 18.1245C100.534 17.7457 101.344 17.5563 102.291 17.5563C103.147 17.5563 103.888 17.7116 104.513 18.0222C105.142 18.329 105.628 18.7646 105.973 19.329C106.318 19.8896 106.492 20.5487 106.496 21.3063H103.587C103.545 20.848 103.413 20.4995 103.189 20.2609C102.969 20.0184 102.685 19.8972 102.337 19.8972C102.064 19.8972 101.825 19.9768 101.621 20.1359C101.416 20.2912 101.257 20.5279 101.144 20.8461C101.03 21.1605 100.973 21.5563 100.973 22.0336C100.973 22.5109 101.03 22.9086 101.144 23.2268C101.257 23.5412 101.416 23.7779 101.621 23.937C101.825 24.0923 102.064 24.1699 102.337 24.1699C102.568 24.1699 102.772 24.1169 102.95 24.0109C103.128 23.901 103.272 23.7419 103.382 23.5336C103.496 23.3215 103.564 23.0639 103.587 22.7609H106.496C106.485 23.5298 106.308 24.2002 105.967 24.7722C105.627 25.3404 105.144 25.7798 104.519 26.0904C103.897 26.401 103.155 26.5563 102.291 26.5563ZM108.03 14.7609H111.166V23.5563C111.17 23.7343 111.221 23.8707 111.32 23.9654C111.422 24.0563 111.568 24.1018 111.757 24.1018C111.856 24.1018 111.935 24.098 111.996 24.0904C112.056 24.0828 112.106 24.0715 112.144 24.0563L112.598 26.2154C112.469 26.2571 112.314 26.3006 112.132 26.3461C111.95 26.3915 111.674 26.4237 111.303 26.4427C110.178 26.4995 109.352 26.3252 108.825 25.9199C108.299 25.5109 108.034 24.8215 108.03 23.8518V14.7609ZM115.445 29.6699C115.085 29.6699 114.742 29.6415 114.416 29.5847C114.09 29.5317 113.804 29.4578 113.558 29.3631L114.24 27.1359C114.498 27.2268 114.733 27.2855 114.945 27.312C115.161 27.3385 115.344 27.3234 115.496 27.2665C115.651 27.2097 115.763 27.1018 115.831 26.9427L115.899 26.7836L112.831 17.6699H116.104L117.513 23.7154H117.604L119.036 17.6699H122.331L119.149 27.1245C118.99 27.6056 118.759 28.0374 118.456 28.4199C118.157 28.8063 117.763 29.1112 117.274 29.3347C116.786 29.5582 116.176 29.6699 115.445 29.6699ZM129.868 26.3972H126.459L130.3 14.7609H134.618L138.459 26.3972H135.05L132.504 17.9654H132.413L129.868 26.3972ZM129.231 21.8063H135.641V24.1699H129.231V21.8063ZM143.382 26.5563C142.435 26.5563 141.624 26.3688 140.95 25.9938C140.276 25.615 139.759 25.0885 139.399 24.4143C139.039 23.7362 138.859 22.9502 138.859 22.0563C138.859 21.1624 139.039 20.3783 139.399 19.704C139.759 19.026 140.276 18.4995 140.95 18.1245C141.624 17.7457 142.435 17.5563 143.382 17.5563C144.238 17.5563 144.979 17.7116 145.604 18.0222C146.232 18.329 146.719 18.7646 147.064 19.329C147.408 19.8896 147.583 20.5487 147.587 21.3063H144.677C144.636 20.848 144.503 20.4995 144.28 20.2609C144.06 20.0184 143.776 19.8972 143.427 19.8972C143.155 19.8972 142.916 19.9768 142.712 20.1359C142.507 20.2912 142.348 20.5279 142.234 20.8461C142.121 21.1605 142.064 21.5563 142.064 22.0336C142.064 22.5109 142.121 22.9086 142.234 23.2268C142.348 23.5412 142.507 23.7779 142.712 23.937C142.916 24.0923 143.155 24.1699 143.427 24.1699C143.658 24.1699 143.863 24.1169 144.041 24.0109C144.219 23.901 144.363 23.7419 144.473 23.5336C144.587 23.3215 144.655 23.0639 144.677 22.7609H147.587C147.575 23.5298 147.399 24.2002 147.058 24.7722C146.717 25.3404 146.234 25.7798 145.609 26.0904C144.988 26.401 144.246 26.5563 143.382 26.5563ZM153.325 26.5563C152.378 26.5563 151.568 26.3688 150.893 25.9938C150.219 25.615 149.702 25.0885 149.342 24.4143C148.982 23.7362 148.802 22.9502 148.802 22.0563C148.802 21.1624 148.982 20.3783 149.342 19.704C149.702 19.026 150.219 18.4995 150.893 18.1245C151.568 17.7457 152.378 17.5563 153.325 17.5563C154.181 17.5563 154.922 17.7116 155.547 18.0222C156.175 18.329 156.662 18.7646 157.007 19.329C157.352 19.8896 157.526 20.5487 157.53 21.3063H154.621C154.579 20.848 154.446 20.4995 154.223 20.2609C154.003 20.0184 153.719 19.8972 153.371 19.8972C153.098 19.8972 152.859 19.9768 152.655 20.1359C152.45 20.2912 152.291 20.5279 152.177 20.8461C152.064 21.1605 152.007 21.5563 152.007 22.0336C152.007 22.5109 152.064 22.9086 152.177 23.2268C152.291 23.5412 152.45 23.7779 152.655 23.937C152.859 24.0923 153.098 24.1699 153.371 24.1699C153.602 24.1699 153.806 24.1169 153.984 24.0109C154.162 23.901 154.306 23.7419 154.416 23.5336C154.53 23.3215 154.598 23.0639 154.621 22.7609H157.53C157.518 23.5298 157.342 24.2002 157.001 24.7722C156.66 25.3404 156.177 25.7798 155.552 26.0904C154.931 26.401 154.189 26.5563 153.325 26.5563ZM163.245 26.5563C162.314 26.5563 161.511 26.3783 160.836 26.0222C160.166 25.6624 159.649 25.1472 159.285 24.4768C158.925 23.8025 158.745 22.9957 158.745 22.0563C158.745 21.1548 158.927 20.3669 159.291 19.6927C159.655 19.0184 160.168 18.4938 160.831 18.1188C161.494 17.7438 162.276 17.5563 163.177 17.5563C163.836 17.5563 164.433 17.6586 164.967 17.8631C165.501 18.0677 165.958 18.365 166.336 18.7552C166.715 19.1415 167.007 19.6112 167.211 20.1643C167.416 20.7173 167.518 21.3404 167.518 22.0336V22.7609H159.723V21.0336H164.632C164.628 20.7836 164.564 20.5639 164.439 20.3745C164.317 20.1813 164.153 20.0317 163.944 19.9256C163.74 19.8158 163.507 19.7609 163.245 19.7609C162.992 19.7609 162.759 19.8158 162.547 19.9256C162.335 20.0317 162.164 20.1794 162.035 20.3688C161.91 20.5582 161.844 20.7798 161.836 21.0336V22.8972C161.836 23.1775 161.895 23.4275 162.013 23.6472C162.13 23.8669 162.299 24.0393 162.518 24.1643C162.738 24.2893 163.003 24.3518 163.314 24.3518C163.53 24.3518 163.727 24.3215 163.905 24.2609C164.086 24.2002 164.242 24.1131 164.37 23.9995C164.499 23.8821 164.594 23.7419 164.655 23.579H167.518C167.42 24.1851 167.187 24.7116 166.819 25.1586C166.452 25.6018 165.965 25.9465 165.359 26.1927C164.757 26.4351 164.052 26.5563 163.245 26.5563ZM177.015 20.5109H174.129C174.114 20.3328 174.051 20.1794 173.941 20.0506C173.832 19.9218 173.69 19.8234 173.515 19.7552C173.345 19.6832 173.155 19.6472 172.947 19.6472C172.678 19.6472 172.447 19.6965 172.254 19.7949C172.061 19.8934 171.966 20.0336 171.97 20.2154C171.966 20.3442 172.021 20.4635 172.135 20.5734C172.252 20.6832 172.477 20.7684 172.811 20.829L174.584 21.1472C175.477 21.3101 176.142 21.5847 176.578 21.9711C177.017 22.3537 177.239 22.8669 177.243 23.5109C177.239 24.1321 177.053 24.6718 176.686 25.1302C176.322 25.5847 175.824 25.937 175.191 26.187C174.563 26.4332 173.845 26.5563 173.038 26.5563C171.705 26.5563 170.661 26.2836 169.907 25.7381C169.157 25.1927 168.739 24.473 168.652 23.579H171.765C171.807 23.8555 171.943 24.0696 172.174 24.2211C172.409 24.3688 172.705 24.4427 173.061 24.4427C173.349 24.4427 173.585 24.3934 173.771 24.2949C173.96 24.1965 174.057 24.0563 174.061 23.8745C174.057 23.7078 173.974 23.5752 173.811 23.4768C173.652 23.3783 173.402 23.2987 173.061 23.2381L171.515 22.9654C170.625 22.8101 169.959 22.5146 169.515 22.079C169.072 21.6434 168.852 21.0828 168.856 20.3972C168.852 19.7912 169.012 19.2779 169.334 18.8574C169.659 18.4332 170.123 18.1112 170.726 17.8915C171.332 17.6681 172.049 17.5563 172.879 17.5563C174.14 17.5563 175.135 17.8177 175.862 18.3404C176.593 18.8631 176.977 19.5866 177.015 20.5109ZM186.662 20.5109H183.775C183.76 20.3328 183.698 20.1794 183.588 20.0506C183.478 19.9218 183.336 19.8234 183.162 19.7552C182.991 19.6832 182.802 19.6472 182.593 19.6472C182.324 19.6472 182.093 19.6965 181.9 19.7949C181.707 19.8934 181.612 20.0336 181.616 20.2154C181.612 20.3442 181.667 20.4635 181.781 20.5734C181.898 20.6832 182.124 20.7684 182.457 20.829L184.23 21.1472C185.124 21.3101 185.788 21.5847 186.224 21.9711C186.663 22.3537 186.885 22.8669 186.889 23.5109C186.885 24.1321 186.699 24.6718 186.332 25.1302C185.968 25.5847 185.47 25.937 184.838 26.187C184.209 26.4332 183.491 26.5563 182.684 26.5563C181.351 26.5563 180.307 26.2836 179.554 25.7381C178.804 25.1927 178.385 24.473 178.298 23.579H181.412C181.453 23.8555 181.59 24.0696 181.821 24.2211C182.056 24.3688 182.351 24.4427 182.707 24.4427C182.995 24.4427 183.232 24.3934 183.417 24.2949C183.607 24.1965 183.703 24.0563 183.707 23.8745C183.703 23.7078 183.62 23.5752 183.457 23.4768C183.298 23.3783 183.048 23.2987 182.707 23.2381L181.162 22.9654C180.271 22.8101 179.605 22.5146 179.162 22.079C178.718 21.6434 178.499 21.0828 178.502 20.3972C178.499 19.7912 178.658 19.2779 178.98 18.8574C179.306 18.4332 179.77 18.1112 180.372 17.8915C180.978 17.6681 181.696 17.5563 182.525 17.5563C183.787 17.5563 184.781 17.8177 185.508 18.3404C186.239 18.8631 186.624 19.5866 186.662 20.5109ZM188.331 26.3972V17.6699H191.467V26.3972H188.331ZM189.899 16.7609C189.474 16.7609 189.111 16.6207 188.808 16.3404C188.505 16.0601 188.353 15.723 188.353 15.329C188.353 14.9351 188.505 14.598 188.808 14.3177C189.111 14.0374 189.474 13.8972 189.899 13.8972C190.327 13.8972 190.69 14.0374 190.99 14.3177C191.293 14.598 191.444 14.9351 191.444 15.329C191.444 15.723 191.293 16.0601 190.99 16.3404C190.69 16.6207 190.327 16.7609 189.899 16.7609ZM193.259 26.3972V14.7609H196.396V19.1927H196.441C196.555 18.8972 196.722 18.6264 196.941 18.3802C197.161 18.1302 197.434 17.9313 197.759 17.7836C198.085 17.6321 198.464 17.5563 198.896 17.5563C199.472 17.5563 200.019 17.7097 200.538 18.0165C201.061 18.3234 201.485 18.8063 201.811 19.4654C202.14 20.1245 202.305 20.9805 202.305 22.0336C202.305 23.0412 202.148 23.8764 201.833 24.5393C201.523 25.2021 201.106 25.6965 200.583 26.0222C200.064 26.348 199.494 26.5109 198.873 26.5109C198.464 26.5109 198.098 26.4446 197.777 26.312C197.458 26.1756 197.186 25.9919 196.958 25.7609C196.735 25.526 196.563 25.2609 196.441 24.9654H196.373V26.3972H193.259ZM196.328 22.0336C196.328 22.4578 196.383 22.8252 196.492 23.1359C196.606 23.4427 196.765 23.6813 196.97 23.8518C197.178 24.0184 197.426 24.1018 197.714 24.1018C198.002 24.1018 198.246 24.0203 198.447 23.8574C198.652 23.6908 198.807 23.454 198.913 23.1472C199.023 22.8366 199.078 22.4654 199.078 22.0336C199.078 21.6018 199.023 21.2324 198.913 20.9256C198.807 20.615 198.652 20.3783 198.447 20.2154C198.246 20.0487 198.002 19.9654 197.714 19.9654C197.426 19.9654 197.178 20.0487 196.97 20.2154C196.765 20.3783 196.606 20.615 196.492 20.9256C196.383 21.2324 196.328 21.6018 196.328 22.0336ZM203.857 14.7609H206.994V23.5563C206.998 23.7343 207.049 23.8707 207.147 23.9654C207.249 24.0563 207.395 24.1018 207.585 24.1018C207.683 24.1018 207.763 24.098 207.823 24.0904C207.884 24.0828 207.933 24.0715 207.971 24.0563L208.426 26.2154C208.297 26.2571 208.142 26.3006 207.96 26.3461C207.778 26.3915 207.501 26.4237 207.13 26.4427C206.005 26.4995 205.179 26.3252 204.653 25.9199C204.126 25.5109 203.861 24.8215 203.857 23.8518V14.7609ZM213.545 26.5563C212.613 26.5563 211.81 26.3783 211.136 26.0222C210.465 25.6624 209.948 25.1472 209.585 24.4768C209.225 23.8025 209.045 22.9957 209.045 22.0563C209.045 21.1548 209.227 20.3669 209.59 19.6927C209.954 19.0184 210.467 18.4938 211.13 18.1188C211.793 17.7438 212.575 17.5563 213.477 17.5563C214.136 17.5563 214.732 17.6586 215.266 17.8631C215.801 18.0677 216.257 18.365 216.636 18.7552C217.015 19.1415 217.306 19.6112 217.511 20.1643C217.715 20.7173 217.818 21.3404 217.818 22.0336V22.7609H210.022V21.0336H214.931C214.927 20.7836 214.863 20.5639 214.738 20.3745C214.617 20.1813 214.452 20.0317 214.244 19.9256C214.039 19.8158 213.806 19.7609 213.545 19.7609C213.291 19.7609 213.058 19.8158 212.846 19.9256C212.634 20.0317 212.463 20.1794 212.335 20.3688C212.21 20.5582 212.143 20.7798 212.136 21.0336V22.8972C212.136 23.1775 212.194 23.4275 212.312 23.6472C212.429 23.8669 212.598 24.0393 212.818 24.1643C213.037 24.2893 213.302 24.3518 213.613 24.3518C213.829 24.3518 214.026 24.3215 214.204 24.2609C214.386 24.2002 214.541 24.1131 214.67 23.9995C214.799 23.8821 214.893 23.7419 214.954 23.579H217.818C217.719 24.1851 217.486 24.7116 217.119 25.1586C216.751 25.6018 216.265 25.9465 215.659 26.1927C215.056 26.4351 214.352 26.5563 213.545 26.5563ZM225.742 26.3972H222.333L226.174 14.7609H230.492L234.333 26.3972H230.924L228.379 17.9654H228.288L225.742 26.3972ZM225.106 21.8063H231.515V24.1699H225.106V21.8063ZM243.373 20.5109H240.486C240.471 20.3328 240.409 20.1794 240.299 20.0506C240.189 19.9218 240.047 19.8234 239.873 19.7552C239.702 19.6832 239.513 19.6472 239.305 19.6472C239.036 19.6472 238.805 19.6965 238.611 19.7949C238.418 19.8934 238.324 20.0336 238.327 20.2154C238.324 20.3442 238.379 20.4635 238.492 20.5734C238.61 20.6832 238.835 20.7684 239.168 20.829L240.941 21.1472C241.835 21.3101 242.5 21.5847 242.935 21.9711C243.375 22.3537 243.596 22.8669 243.6 23.5109C243.596 24.1321 243.411 24.6718 243.043 25.1302C242.68 25.5847 242.182 25.937 241.549 26.187C240.92 26.4332 240.202 26.5563 239.396 26.5563C238.062 26.5563 237.019 26.2836 236.265 25.7381C235.515 25.1927 235.096 24.473 235.009 23.579H238.123C238.164 23.8555 238.301 24.0696 238.532 24.2211C238.767 24.3688 239.062 24.4427 239.418 24.4427C239.706 24.4427 239.943 24.3934 240.129 24.2949C240.318 24.1965 240.414 24.0563 240.418 23.8745C240.414 23.7078 240.331 23.5752 240.168 23.4768C240.009 23.3783 239.759 23.2987 239.418 23.2381L237.873 22.9654C236.983 22.8101 236.316 22.5146 235.873 22.079C235.43 21.6434 235.21 21.0828 235.214 20.3972C235.21 19.7912 235.369 19.2779 235.691 18.8574C236.017 18.4332 236.481 18.1112 237.083 17.8915C237.689 17.6681 238.407 17.5563 239.236 17.5563C240.498 17.5563 241.492 17.8177 242.219 18.3404C242.95 18.8631 243.335 19.5866 243.373 20.5109ZM253.019 20.5109H250.133C250.118 20.3328 250.055 20.1794 249.945 20.0506C249.835 19.9218 249.693 19.8234 249.519 19.7552C249.349 19.6832 249.159 19.6472 248.951 19.6472C248.682 19.6472 248.451 19.6965 248.258 19.7949C248.065 19.8934 247.97 20.0336 247.974 20.2154C247.97 20.3442 248.025 20.4635 248.138 20.5734C248.256 20.6832 248.481 20.7684 248.815 20.829L250.587 21.1472C251.481 21.3101 252.146 21.5847 252.582 21.9711C253.021 22.3537 253.243 22.8669 253.246 23.5109C253.243 24.1321 253.057 24.6718 252.69 25.1302C252.326 25.5847 251.828 25.937 251.195 26.187C250.566 26.4332 249.849 26.5563 249.042 26.5563C247.708 26.5563 246.665 26.2836 245.911 25.7381C245.161 25.1927 244.743 24.473 244.655 23.579H247.769C247.811 23.8555 247.947 24.0696 248.178 24.2211C248.413 24.3688 248.708 24.4427 249.065 24.4427C249.352 24.4427 249.589 24.3934 249.775 24.2949C249.964 24.1965 250.061 24.0563 250.065 23.8745C250.061 23.7078 249.977 23.5752 249.815 23.4768C249.655 23.3783 249.405 23.2987 249.065 23.2381L247.519 22.9654C246.629 22.8101 245.962 22.5146 245.519 22.079C245.076 21.6434 244.856 21.0828 244.86 20.3972C244.856 19.7912 245.015 19.2779 245.337 18.8574C245.663 18.4332 246.127 18.1112 246.729 17.8915C247.335 17.6681 248.053 17.5563 248.883 17.5563C250.144 17.5563 251.138 17.8177 251.866 18.3404C252.597 18.8631 252.981 19.5866 253.019 20.5109ZM258.87 26.5563C257.938 26.5563 257.135 26.3783 256.461 26.0222C255.79 25.6624 255.273 25.1472 254.91 24.4768C254.55 23.8025 254.37 22.9957 254.37 22.0563C254.37 21.1548 254.552 20.3669 254.915 19.6927C255.279 19.0184 255.792 18.4938 256.455 18.1188C257.118 17.7438 257.9 17.5563 258.802 17.5563C259.461 17.5563 260.057 17.6586 260.591 17.8631C261.126 18.0677 261.582 18.365 261.961 18.7552C262.34 19.1415 262.631 19.6112 262.836 20.1643C263.04 20.7173 263.143 21.3404 263.143 22.0336V22.7609H255.347V21.0336H260.256C260.252 20.7836 260.188 20.5639 260.063 20.3745C259.942 20.1813 259.777 20.0317 259.569 19.9256C259.364 19.8158 259.131 19.7609 258.87 19.7609C258.616 19.7609 258.383 19.8158 258.171 19.9256C257.959 20.0317 257.788 20.1794 257.66 20.3688C257.535 20.5582 257.468 20.7798 257.461 21.0336V22.8972C257.461 23.1775 257.519 23.4275 257.637 23.6472C257.754 23.8669 257.923 24.0393 258.143 24.1643C258.362 24.2893 258.627 24.3518 258.938 24.3518C259.154 24.3518 259.351 24.3215 259.529 24.2609C259.711 24.2002 259.866 24.1131 259.995 23.9995C260.124 23.8821 260.218 23.7419 260.279 23.579H263.143C263.044 24.1851 262.811 24.7116 262.444 25.1586C262.076 25.6018 261.59 25.9465 260.984 26.1927C260.381 26.4351 259.677 26.5563 258.87 26.5563ZM269.867 17.6699V19.9427H264.117V17.6699H269.867ZM265.231 15.579H268.367V23.5904C268.367 23.7116 268.388 23.8139 268.429 23.8972C268.471 23.9768 268.536 24.0374 268.623 24.079C268.71 24.1169 268.822 24.1359 268.958 24.1359C269.053 24.1359 269.162 24.1245 269.287 24.1018C269.416 24.079 269.511 24.0601 269.572 24.0449L270.026 26.2495C269.886 26.2912 269.685 26.3423 269.424 26.4029C269.166 26.4635 268.859 26.5033 268.503 26.5222C267.784 26.5601 267.179 26.4862 266.691 26.3006C266.202 26.1112 265.835 25.8139 265.589 25.4086C265.342 25.0033 265.223 24.4957 265.231 23.8859V15.579ZM279.27 20.5109H276.384C276.369 20.3328 276.306 20.1794 276.196 20.0506C276.087 19.9218 275.945 19.8234 275.77 19.7552C275.6 19.6832 275.41 19.6472 275.202 19.6472C274.933 19.6472 274.702 19.6965 274.509 19.7949C274.316 19.8934 274.221 20.0336 274.225 20.2154C274.221 20.3442 274.276 20.4635 274.39 20.5734C274.507 20.6832 274.732 20.7684 275.066 20.829L276.838 21.1472C277.732 21.3101 278.397 21.5847 278.833 21.9711C279.272 22.3537 279.494 22.8669 279.498 23.5109C279.494 24.1321 279.308 24.6718 278.941 25.1302C278.577 25.5847 278.079 25.937 277.446 26.187C276.818 26.4332 276.1 26.5563 275.293 26.5563C273.96 26.5563 272.916 26.2836 272.162 25.7381C271.412 25.1927 270.994 24.473 270.907 23.579H274.02C274.062 23.8555 274.198 24.0696 274.429 24.2211C274.664 24.3688 274.96 24.4427 275.316 24.4427C275.604 24.4427 275.84 24.3934 276.026 24.2949C276.215 24.1965 276.312 24.0563 276.316 23.8745C276.312 23.7078 276.229 23.5752 276.066 23.4768C275.907 23.3783 275.657 23.2987 275.316 23.2381L273.77 22.9654C272.88 22.8101 272.213 22.5146 271.77 22.079C271.327 21.6434 271.107 21.0828 271.111 20.3972C271.107 19.7912 271.267 19.2779 271.588 18.8574C271.914 18.4332 272.378 18.1112 272.981 17.8915C273.587 17.6681 274.304 17.5563 275.134 17.5563C276.395 17.5563 277.39 17.8177 278.117 18.3404C278.848 18.8631 279.232 19.5866 279.27 20.5109Z" fill="#303048"/>
<rect x="291.657" y="11.3972" width="142.945" height="18.411" rx="9.20548" fill="#F4E1E7"/>
<path d="M306.88 16.2465H309.052V21.3715C309.052 21.9809 308.906 22.5082 308.614 22.9536C308.325 23.3963 307.922 23.7387 307.403 23.9809C306.885 24.2205 306.284 24.3403 305.599 24.3403C304.909 24.3403 304.304 24.2205 303.786 23.9809C303.268 23.7387 302.864 23.3963 302.575 22.9536C302.289 22.5082 302.146 21.9809 302.146 21.3715V16.2465H304.317V21.184C304.317 21.4314 304.372 21.6528 304.481 21.8481C304.591 22.0408 304.742 22.1918 304.935 22.3012C305.13 22.4106 305.351 22.4653 305.599 22.4653C305.849 22.4653 306.07 22.4106 306.263 22.3012C306.455 22.1918 306.606 22.0408 306.716 21.8481C306.825 21.6528 306.88 21.4314 306.88 21.184V16.2465ZM310.28 26.4965V18.2465H312.421V19.2934H312.468C312.546 19.0903 312.66 18.9041 312.811 18.7348C312.963 18.5629 313.15 18.4262 313.374 18.3246C313.598 18.2205 313.858 18.1684 314.155 18.1684C314.551 18.1684 314.927 18.2739 315.284 18.4848C315.644 18.6957 315.935 19.0278 316.159 19.4809C316.386 19.934 316.499 20.5226 316.499 21.2465C316.499 21.9392 316.391 22.5134 316.175 22.9692C315.961 23.4249 315.675 23.7648 315.315 23.9887C314.959 24.2127 314.567 24.3246 314.14 24.3246C313.858 24.3246 313.607 24.2791 313.386 24.1879C313.167 24.0942 312.979 23.9679 312.823 23.809C312.67 23.6476 312.551 23.4653 312.468 23.2621H312.436V26.4965H310.28ZM312.39 21.2465C312.39 21.5382 312.427 21.7908 312.503 22.0043C312.581 22.2153 312.69 22.3793 312.831 22.4965C312.974 22.6111 313.145 22.6684 313.343 22.6684C313.541 22.6684 313.709 22.6124 313.847 22.5004C313.987 22.3858 314.094 22.2231 314.167 22.0121C314.242 21.7986 314.28 21.5434 314.28 21.2465C314.28 20.9496 314.242 20.6957 314.167 20.4848C314.094 20.2713 313.987 20.1085 313.847 19.9965C313.709 19.8819 313.541 19.8246 313.343 19.8246C313.145 19.8246 312.974 19.8819 312.831 19.9965C312.69 20.1085 312.581 20.2713 312.503 20.4848C312.427 20.6957 312.39 20.9496 312.39 21.2465ZM319.724 20.8715V24.2465H317.567V16.2465H319.645V19.3871H319.708C319.843 19.0043 320.069 18.7062 320.384 18.4926C320.699 18.2765 321.078 18.1684 321.52 18.1684C321.945 18.1684 322.313 18.2648 322.626 18.4575C322.941 18.6502 323.184 18.9158 323.356 19.2543C323.531 19.5929 323.617 19.9809 323.614 20.4184V24.2465H321.458V20.8715C321.461 20.5746 321.386 20.3416 321.235 20.1723C321.087 20.003 320.875 19.9184 320.599 19.9184C320.424 19.9184 320.27 19.9575 320.138 20.0356C320.007 20.1111 319.906 20.2205 319.833 20.3637C319.763 20.5043 319.726 20.6736 319.724 20.8715ZM327.734 24.3559C327.083 24.3559 326.526 24.227 326.062 23.9692C325.599 23.7088 325.243 23.3468 324.996 22.8832C324.749 22.4171 324.625 21.8767 324.625 21.2621C324.625 20.6476 324.749 20.1085 324.996 19.645C325.243 19.1788 325.599 18.8168 326.062 18.559C326.526 18.2986 327.083 18.1684 327.734 18.1684C328.385 18.1684 328.943 18.2986 329.406 18.559C329.87 18.8168 330.225 19.1788 330.473 19.645C330.72 20.1085 330.844 20.6476 330.844 21.2621C330.844 21.8767 330.72 22.4171 330.473 22.8832C330.225 23.3468 329.87 23.7088 329.406 23.9692C328.943 24.227 328.385 24.3559 327.734 24.3559ZM327.75 22.7621C327.932 22.7621 328.09 22.7009 328.223 22.5786C328.355 22.4562 328.458 22.2817 328.531 22.0551C328.604 21.8286 328.641 21.559 328.641 21.2465C328.641 20.9314 328.604 20.6619 328.531 20.4379C328.458 20.2114 328.355 20.0369 328.223 19.9145C328.09 19.7921 327.932 19.7309 327.75 19.7309C327.557 19.7309 327.392 19.7921 327.254 19.9145C327.116 20.0369 327.01 20.2114 326.937 20.4379C326.864 20.6619 326.828 20.9314 326.828 21.2465C326.828 21.559 326.864 21.8286 326.937 22.0551C327.01 22.2817 327.116 22.4562 327.254 22.5786C327.392 22.7009 327.557 22.7621 327.75 22.7621ZM334.04 16.2465V24.2465H331.884V16.2465H334.04ZM337.475 24.3246C337.048 24.3246 336.655 24.2127 336.296 23.9887C335.939 23.7648 335.652 23.4249 335.436 22.9692C335.223 22.5134 335.116 21.9392 335.116 21.2465C335.116 20.5226 335.228 19.934 335.452 19.4809C335.679 19.0278 335.97 18.6957 336.327 18.4848C336.686 18.2739 337.064 18.1684 337.46 18.1684C337.757 18.1684 338.017 18.2205 338.241 18.3246C338.465 18.4262 338.652 18.5629 338.804 18.7348C338.955 18.9041 339.069 19.0903 339.147 19.2934H339.179V16.2465H341.335V24.2465H339.194V23.2621H339.147C339.064 23.4653 338.944 23.6476 338.788 23.809C338.634 23.9679 338.447 24.0942 338.225 24.1879C338.007 24.2791 337.757 24.3246 337.475 24.3246ZM338.272 22.6684C338.47 22.6684 338.639 22.6111 338.78 22.4965C338.923 22.3793 339.033 22.2153 339.108 22.0043C339.186 21.7908 339.225 21.5382 339.225 21.2465C339.225 20.9496 339.186 20.6957 339.108 20.4848C339.033 20.2713 338.923 20.1085 338.78 19.9965C338.639 19.8819 338.47 19.8246 338.272 19.8246C338.074 19.8246 337.905 19.8819 337.764 19.9965C337.626 20.1085 337.52 20.2713 337.444 20.4848C337.371 20.6957 337.335 20.9496 337.335 21.2465C337.335 21.5434 337.371 21.7986 337.444 22.0121C337.52 22.2231 337.626 22.3858 337.764 22.5004C337.905 22.6124 338.074 22.6684 338.272 22.6684ZM344.884 24.2465V16.2465H348.337C348.93 16.2465 349.45 16.3637 349.895 16.5981C350.341 16.8325 350.687 17.1619 350.934 17.5864C351.182 18.0108 351.305 18.5069 351.305 19.0746C351.305 19.6476 351.178 20.1437 350.923 20.5629C350.67 20.9822 350.315 21.3051 349.856 21.5317C349.4 21.7582 348.868 21.8715 348.259 21.8715H346.196V20.184H347.821C348.076 20.184 348.294 20.1398 348.473 20.0512C348.656 19.9601 348.795 19.8312 348.891 19.6645C348.99 19.4978 349.04 19.3012 349.04 19.0746C349.04 18.8455 348.99 18.6502 348.891 18.4887C348.795 18.3246 348.656 18.1996 348.473 18.1137C348.294 18.0252 348.076 17.9809 347.821 17.9809H347.055V24.2465H344.884ZM352.299 24.2465V18.2465H354.392V19.3871H354.455C354.564 18.9653 354.737 18.6567 354.974 18.4614C355.214 18.2661 355.494 18.1684 355.814 18.1684C355.908 18.1684 356 18.1762 356.091 18.1918C356.185 18.2049 356.275 18.2244 356.361 18.2504V20.0903C356.254 20.0538 356.123 20.0265 355.966 20.0082C355.81 19.99 355.676 19.9809 355.564 19.9809C355.353 19.9809 355.163 20.0291 354.994 20.1254C354.827 20.2192 354.696 20.352 354.599 20.5239C354.503 20.6931 354.455 20.8924 354.455 21.1215V24.2465H352.299ZM357.233 24.2465V18.2465H359.389V24.2465H357.233ZM358.311 17.6215C358.02 17.6215 357.77 17.5252 357.561 17.3325C357.353 17.1398 357.249 16.908 357.249 16.6371C357.249 16.3663 357.353 16.1345 357.561 15.9418C357.77 15.7491 358.02 15.6528 358.311 15.6528C358.605 15.6528 358.855 15.7491 359.061 15.9418C359.27 16.1345 359.374 16.3663 359.374 16.6371C359.374 16.908 359.27 17.1398 359.061 17.3325C358.855 17.5252 358.605 17.6215 358.311 17.6215ZM366.7 18.2465L364.684 24.2465H362.184L360.169 18.2465H362.434L363.403 22.2153H363.465L364.434 18.2465H366.7ZM369 24.3403C368.617 24.3403 368.278 24.2778 367.984 24.1528C367.692 24.0252 367.463 23.8325 367.296 23.5746C367.13 23.3168 367.046 22.9887 367.046 22.5903C367.046 22.2621 367.102 21.9822 367.214 21.7504C367.326 21.5161 367.483 21.3246 367.683 21.1762C367.884 21.0278 368.117 20.9145 368.382 20.8364C368.651 20.7582 368.94 20.7075 369.25 20.684C369.586 20.658 369.855 20.6267 370.058 20.5903C370.264 20.5512 370.412 20.4978 370.503 20.4301C370.595 20.3598 370.64 20.2674 370.64 20.1528V20.1371C370.64 19.9809 370.58 19.8611 370.461 19.7778C370.341 19.6944 370.187 19.6528 370 19.6528C369.794 19.6528 369.626 19.6983 369.496 19.7895C369.368 19.878 369.291 20.0147 369.265 20.1996H367.281C367.307 19.8351 367.423 19.4991 367.628 19.1918C367.837 18.8819 368.14 18.6345 368.539 18.4496C368.937 18.2621 369.434 18.1684 370.031 18.1684C370.461 18.1684 370.846 18.2192 371.187 18.3207C371.528 18.4197 371.819 18.559 372.058 18.7387C372.298 18.9158 372.48 19.1241 372.605 19.3637C372.733 19.6007 372.796 19.8585 372.796 20.1371V24.2465H370.781V23.4028H370.734C370.614 23.6267 370.468 23.8077 370.296 23.9457C370.127 24.0838 369.933 24.184 369.714 24.2465C369.498 24.309 369.26 24.3403 369 24.3403ZM369.703 22.9809C369.867 22.9809 370.02 22.947 370.164 22.8793C370.309 22.8116 370.428 22.714 370.519 22.5864C370.61 22.4588 370.656 22.3038 370.656 22.1215V21.6215C370.599 21.645 370.537 21.6671 370.472 21.6879C370.41 21.7088 370.342 21.7283 370.269 21.7465C370.199 21.7648 370.123 21.7817 370.043 21.7973C369.964 21.8129 369.882 21.8273 369.796 21.8403C369.63 21.8663 369.493 21.9093 369.386 21.9692C369.282 22.0265 369.204 22.0981 369.152 22.184C369.102 22.2674 369.078 22.3611 369.078 22.4653C369.078 22.6319 369.136 22.7595 369.253 22.8481C369.371 22.9366 369.52 22.9809 369.703 22.9809ZM376.882 24.3559C376.231 24.3559 375.674 24.227 375.21 23.9692C374.747 23.7088 374.391 23.3468 374.144 22.8832C373.897 22.4171 373.773 21.8767 373.773 21.2621C373.773 20.6476 373.897 20.1085 374.144 19.645C374.391 19.1788 374.747 18.8168 375.21 18.559C375.674 18.2986 376.231 18.1684 376.882 18.1684C377.471 18.1684 377.98 18.2752 378.41 18.4887C378.842 18.6996 379.177 18.9991 379.414 19.3871C379.651 19.7726 379.77 20.2257 379.773 20.7465H377.773C377.744 20.4314 377.653 20.1918 377.5 20.0278C377.348 19.8611 377.153 19.7778 376.914 19.7778C376.726 19.7778 376.562 19.8325 376.421 19.9418C376.281 20.0486 376.171 20.2114 376.093 20.4301C376.015 20.6463 375.976 20.9184 375.976 21.2465C375.976 21.5746 376.015 21.8481 376.093 22.0668C376.171 22.283 376.281 22.4457 376.421 22.5551C376.562 22.6619 376.726 22.7153 376.914 22.7153C377.072 22.7153 377.213 22.6788 377.335 22.6059C377.458 22.5304 377.557 22.421 377.632 22.2778C377.71 22.1319 377.757 21.9549 377.773 21.7465H379.773C379.765 22.2752 379.644 22.7361 379.41 23.1293C379.175 23.52 378.843 23.822 378.414 24.0356C377.987 24.2491 377.476 24.3559 376.882 24.3559ZM382.14 26.4965C381.893 26.4965 381.657 26.477 381.433 26.4379C381.209 26.4015 381.013 26.3507 380.843 26.2856L381.312 24.7543C381.489 24.8168 381.651 24.8572 381.796 24.8754C381.945 24.8937 382.071 24.8832 382.175 24.8442C382.282 24.8051 382.359 24.7309 382.406 24.6215L382.453 24.5121L380.343 18.2465H382.593L383.562 22.4028H383.624L384.609 18.2465H386.874L384.687 24.7465C384.578 25.0773 384.419 25.3741 384.21 25.6371C384.005 25.9028 383.734 26.1124 383.398 26.2661C383.062 26.4197 382.643 26.4965 382.14 26.4965ZM389.978 24.2465V16.2465H393.431C394.025 16.2465 394.544 16.3637 394.99 16.5981C395.435 16.8325 395.781 17.1619 396.029 17.5864C396.276 18.0108 396.4 18.5069 396.4 19.0746C396.4 19.6476 396.272 20.1437 396.017 20.5629C395.764 20.9822 395.409 21.3051 394.951 21.5317C394.495 21.7582 393.962 21.8715 393.353 21.8715H391.29V20.184H392.915C393.171 20.184 393.388 20.1398 393.568 20.0512C393.75 19.9601 393.889 19.8312 393.986 19.6645C394.085 19.4978 394.134 19.3012 394.134 19.0746C394.134 18.8455 394.085 18.6502 393.986 18.4887C393.889 18.3246 393.75 18.1996 393.568 18.1137C393.388 18.0252 393.171 17.9809 392.915 17.9809H392.15V24.2465H389.978ZM400.155 24.3559C399.504 24.3559 398.946 24.227 398.483 23.9692C398.019 23.7088 397.664 23.3468 397.416 22.8832C397.169 22.4171 397.045 21.8767 397.045 21.2621C397.045 20.6476 397.169 20.1085 397.416 19.645C397.664 19.1788 398.019 18.8168 398.483 18.559C398.946 18.2986 399.504 18.1684 400.155 18.1684C400.806 18.1684 401.363 18.2986 401.827 18.559C402.29 18.8168 402.646 19.1788 402.893 19.645C403.14 20.1085 403.264 20.6476 403.264 21.2621C403.264 21.8767 403.14 22.4171 402.893 22.8832C402.646 23.3468 402.29 23.7088 401.827 23.9692C401.363 24.227 400.806 24.3559 400.155 24.3559ZM400.17 22.7621C400.353 22.7621 400.51 22.7009 400.643 22.5786C400.776 22.4562 400.879 22.2817 400.952 22.0551C401.024 21.8286 401.061 21.559 401.061 21.2465C401.061 20.9314 401.024 20.6619 400.952 20.4379C400.879 20.2114 400.776 20.0369 400.643 19.9145C400.51 19.7921 400.353 19.7309 400.17 19.7309C399.978 19.7309 399.812 19.7921 399.674 19.9145C399.536 20.0369 399.431 20.2114 399.358 20.4379C399.285 20.6619 399.248 20.9314 399.248 21.2465C399.248 21.559 399.285 21.8286 399.358 22.0551C399.431 22.2817 399.536 22.4562 399.674 22.5786C399.812 22.7009 399.978 22.7621 400.17 22.7621ZM406.46 16.2465V24.2465H404.304V16.2465H406.46ZM407.724 24.2465V18.2465H409.88V24.2465H407.724ZM408.802 17.6215C408.51 17.6215 408.26 17.5252 408.052 17.3325C407.844 17.1398 407.74 16.908 407.74 16.6371C407.74 16.3663 407.844 16.1345 408.052 15.9418C408.26 15.7491 408.51 15.6528 408.802 15.6528C409.096 15.6528 409.346 15.7491 409.552 15.9418C409.76 16.1345 409.865 16.3663 409.865 16.6371C409.865 16.908 409.76 17.1398 409.552 17.3325C409.346 17.5252 409.096 17.6215 408.802 17.6215ZM414.034 24.3559C413.383 24.3559 412.826 24.227 412.363 23.9692C411.899 23.7088 411.544 23.3468 411.296 22.8832C411.049 22.4171 410.925 21.8767 410.925 21.2621C410.925 20.6476 411.049 20.1085 411.296 19.645C411.544 19.1788 411.899 18.8168 412.363 18.559C412.826 18.2986 413.383 18.1684 414.034 18.1684C414.623 18.1684 415.132 18.2752 415.562 18.4887C415.994 18.6996 416.329 18.9991 416.566 19.3871C416.803 19.7726 416.922 20.2257 416.925 20.7465H414.925C414.896 20.4314 414.805 20.1918 414.652 20.0278C414.501 19.8611 414.305 19.7778 414.066 19.7778C413.878 19.7778 413.714 19.8325 413.573 19.9418C413.433 20.0486 413.323 20.2114 413.245 20.4301C413.167 20.6463 413.128 20.9184 413.128 21.2465C413.128 21.5746 413.167 21.8481 413.245 22.0668C413.323 22.283 413.433 22.4457 413.573 22.5551C413.714 22.6619 413.878 22.7153 414.066 22.7153C414.225 22.7153 414.365 22.6788 414.488 22.6059C414.61 22.5304 414.709 22.421 414.784 22.2778C414.863 22.1319 414.909 21.9549 414.925 21.7465H416.925C416.917 22.2752 416.796 22.7361 416.562 23.1293C416.327 23.52 415.995 23.822 415.566 24.0356C415.139 24.2491 414.628 24.3559 414.034 24.3559ZM419.292 26.4965C419.045 26.4965 418.809 26.477 418.585 26.4379C418.361 26.4015 418.165 26.3507 417.995 26.2856L418.464 24.7543C418.641 24.8168 418.803 24.8572 418.948 24.8754C419.097 24.8937 419.223 24.8832 419.327 24.8442C419.434 24.8051 419.511 24.7309 419.558 24.6215L419.605 24.5121L417.495 18.2465H419.745L420.714 22.4028H420.777L421.761 18.2465H424.027L421.839 24.7465C421.73 25.0773 421.571 25.3741 421.363 25.6371C421.157 25.9028 420.886 26.1124 420.55 26.2661C420.214 26.4197 419.795 26.4965 419.292 26.4965Z" fill="#CB6F8F"/>
<g opacity="0.8">
<path d="M24.5091 67.3844C23.9416 67.2208 23.3507 67.5513 23.1872 68.1188L18.9141 83.0746C18.7505 83.6421 19.081 84.233 19.6485 84.3966C20.216 84.5602 20.8069 84.2297 20.9705 83.6621L25.2436 68.7064C25.4072 68.1389 25.0767 67.548 24.5091 67.3844ZM27.1998 71.3937C26.7826 71.811 26.7826 72.4887 27.1998 72.906L30.181 75.8905L27.1965 78.875C26.7792 79.2923 26.7792 79.9699 27.1965 80.3872C27.6138 80.8045 28.2915 80.8045 28.7088 80.3872L32.4477 76.6483C32.865 76.231 32.865 75.5533 32.4477 75.136L28.7088 71.3971C28.2915 70.9798 27.6138 70.9798 27.1965 71.3971L27.1998 71.3937ZM16.9612 71.3937C16.5439 70.9765 15.8662 70.9765 15.4489 71.3937L11.7099 75.1327C11.2926 75.55 11.2926 76.2277 11.7099 76.645L15.4489 80.3839C15.8662 80.8012 16.5439 80.8012 16.9612 80.3839C17.3784 79.9666 17.3784 79.2889 16.9612 78.8716L13.9767 75.8905L16.9612 72.906C17.3784 72.4887 17.3784 71.811 16.9612 71.3937Z" fill="#303048"/>
<path d="M42.6955 80.5345C41.9275 80.5345 41.2635 80.3625 40.7035 80.0185C40.1515 79.6745 39.7275 79.1945 39.4315 78.5785C39.1435 77.9545 38.9995 77.2345 38.9995 76.4185C38.9995 75.6025 39.1475 74.8865 39.4435 74.2705C39.7395 73.6465 40.1675 73.1625 40.7275 72.8185C41.2875 72.4745 41.9435 72.3025 42.6955 72.3025C43.5755 72.3025 44.2955 72.5225 44.8555 72.9625C45.4235 73.3945 45.7955 74.0385 45.9715 74.8945L44.5435 75.1945C44.3995 74.5945 44.1795 74.1585 43.8835 73.8865C43.5955 73.6145 43.1955 73.4785 42.6835 73.4785C42.2275 73.4785 41.8315 73.5985 41.4955 73.8385C41.1675 74.0785 40.9155 74.4185 40.7395 74.8585C40.5635 75.2905 40.4755 75.7985 40.4755 76.3825V76.4305C40.4755 77.3345 40.6715 78.0505 41.0635 78.5785C41.4555 79.0985 42.0035 79.3585 42.7075 79.3585C43.2595 79.3585 43.6795 79.2105 43.9675 78.9145C44.2555 78.6105 44.4555 78.1745 44.5675 77.6065L45.9835 77.8705C45.8315 78.7265 45.4675 79.3865 44.8915 79.8505C44.3235 80.3065 43.5915 80.5345 42.6955 80.5345ZM50.7976 80.5345C50.0216 80.5345 49.3576 80.3705 48.8056 80.0425C48.2616 79.7065 47.8496 79.2305 47.5696 78.6145C47.2896 77.9985 47.1496 77.2665 47.1496 76.4185C47.1496 75.5865 47.2976 74.8625 47.5936 74.2465C47.8976 73.6305 48.3296 73.1545 48.8896 72.8185C49.4576 72.4745 50.1376 72.3025 50.9296 72.3025C51.7056 72.3025 52.3656 72.4745 52.9096 72.8185C53.4616 73.1545 53.8776 73.6305 54.1576 74.2465C54.4456 74.8625 54.5896 75.5865 54.5896 76.4185C54.5896 77.2585 54.4376 77.9905 54.1336 78.6145C53.8376 79.2305 53.4016 79.7065 52.8256 80.0425C52.2576 80.3705 51.5816 80.5345 50.7976 80.5345ZM50.8576 79.3705C51.3376 79.3705 51.7416 79.2585 52.0696 79.0345C52.3976 78.8105 52.6456 78.4785 52.8136 78.0385C52.9816 77.5985 53.0656 77.0625 53.0656 76.4305V76.3945C53.0656 75.7705 52.9816 75.2425 52.8136 74.8105C52.6536 74.3785 52.4096 74.0505 52.0816 73.8265C51.7536 73.5945 51.3496 73.4785 50.8696 73.4785C50.3896 73.4785 49.9816 73.5945 49.6456 73.8265C49.3176 74.0505 49.0656 74.3785 48.8896 74.8105C48.7136 75.2425 48.6256 75.7705 48.6256 76.3945V76.4305C48.6256 77.0465 48.7096 77.5745 48.8776 78.0145C49.0536 78.4545 49.3056 78.7905 49.6336 79.0225C49.9696 79.2545 50.3776 79.3705 50.8576 79.3705ZM56.4252 72.4705H59.1012C60.3492 72.4705 61.3012 72.8105 61.9572 73.4905C62.6132 74.1705 62.9412 75.1505 62.9412 76.4305C62.9412 77.6865 62.5932 78.6625 61.8972 79.3585C61.2092 80.0465 60.2252 80.3905 58.9452 80.3905H56.4252V72.4705ZM59.0172 79.1785C59.8412 79.1785 60.4452 78.9465 60.8292 78.4825C61.2132 78.0185 61.4052 77.3385 61.4052 76.4425V76.3825C61.4052 75.4705 61.2132 74.7865 60.8292 74.3305C60.4452 73.8745 59.8532 73.6465 59.0532 73.6465H57.8412V79.1785H59.0172ZM64.7745 72.4705H70.0785V73.7185H66.1905V75.7105H68.8905V76.9105H66.1905V79.1545H70.2225V80.3905H64.7745V72.4705Z" fill="#303048"/>
<path d="M90.2653 69.0521C90.2653 68.5987 90.4454 68.1639 90.766 67.8433C91.0866 67.5226 91.5214 67.3425 91.9748 67.3425C92.4283 67.3425 92.8631 67.5226 93.1837 67.8433C93.5043 68.1639 93.6844 68.5987 93.6844 69.0521C93.6844 69.5055 93.5043 69.9404 93.1837 70.261C92.8631 70.5816 92.4283 70.7617 91.9748 70.7617C91.5214 70.7617 91.0866 70.5816 90.766 70.261C90.4454 69.9404 90.2653 69.5055 90.2653 69.0521ZM88.5557 74.1809C88.5557 73.5505 89.065 73.0412 89.6954 73.0412H91.9748C92.6053 73.0412 93.1146 73.5505 93.1146 74.1809V82.159H94.2543C94.8847 82.159 95.394 82.6683 95.394 83.2987C95.394 83.9291 94.8847 84.4384 94.2543 84.4384H89.6954C89.065 84.4384 88.5557 83.9291 88.5557 83.2987C88.5557 82.6683 89.065 82.159 89.6954 82.159H90.8351V75.3206H89.6954C89.065 75.3206 88.5557 74.8113 88.5557 74.1809Z" fill="#303048"/>
<path d="M102.161 72.4705H103.625V80.3905H102.161V72.4705ZM105.975 72.4705H107.619L110.319 76.8505L111.243 78.7345L111.075 76.7905V72.4705H112.467V80.3905H111.099L108.039 75.5185L107.127 73.7305L107.331 75.5665V80.3905H105.975V72.4705ZM114.816 72.4705H119.94V73.7305H116.268V75.8785H119.136V77.1505H116.268V80.3905H114.816V72.4705ZM124.669 80.5345C123.893 80.5345 123.229 80.3705 122.677 80.0425C122.133 79.7065 121.721 79.2305 121.441 78.6145C121.161 77.9985 121.021 77.2665 121.021 76.4185C121.021 75.5865 121.169 74.8625 121.465 74.2465C121.769 73.6305 122.201 73.1545 122.761 72.8185C123.329 72.4745 124.009 72.3025 124.801 72.3025C125.577 72.3025 126.237 72.4745 126.781 72.8185C127.333 73.1545 127.749 73.6305 128.029 74.2465C128.317 74.8625 128.461 75.5865 128.461 76.4185C128.461 77.2585 128.309 77.9905 128.005 78.6145C127.709 79.2305 127.273 79.7065 126.697 80.0425C126.129 80.3705 125.453 80.5345 124.669 80.5345ZM124.729 79.3705C125.209 79.3705 125.613 79.2585 125.941 79.0345C126.269 78.8105 126.517 78.4785 126.685 78.0385C126.853 77.5985 126.937 77.0625 126.937 76.4305V76.3945C126.937 75.7705 126.853 75.2425 126.685 74.8105C126.525 74.3785 126.281 74.0505 125.953 73.8265C125.625 73.5945 125.221 73.4785 124.741 73.4785C124.261 73.4785 123.853 73.5945 123.517 73.8265C123.189 74.0505 122.937 74.3785 122.761 74.8105C122.585 75.2425 122.497 75.7705 122.497 76.3945V76.4305C122.497 77.0465 122.581 77.5745 122.749 78.0145C122.925 78.4545 123.177 78.7905 123.505 79.0225C123.841 79.2545 124.249 79.3705 124.729 79.3705Z" fill="#303048"/>
<path d="M153.667 67.3425C153.076 67.3425 152.599 67.82 152.599 68.411V69.0521C150.161 69.5463 148.325 71.7033 148.325 74.2877V74.9155C148.325 76.4848 147.747 78.0008 146.705 79.1761L146.458 79.4533C146.178 79.7671 146.111 80.2179 146.281 80.6019C146.452 80.9859 146.836 81.233 147.256 81.233H160.078C160.499 81.233 160.88 80.9859 161.053 80.6019C161.227 80.2179 161.157 79.7671 160.876 79.4533L160.629 79.1761C159.587 78.0008 159.01 76.4882 159.01 74.9155V74.2877C159.01 71.7033 157.173 69.5463 154.736 69.0521V68.411C154.736 67.82 154.258 67.3425 153.667 67.3425ZM155.18 83.814C155.581 83.4134 155.804 82.8691 155.804 82.3015H153.667H151.53C151.53 82.8691 151.754 83.4134 152.155 83.814C152.555 84.2147 153.1 84.4384 153.667 84.4384C154.235 84.4384 154.779 84.2147 155.18 83.814Z" fill="#303048"/>
<path d="M170.158 80.5225C169.414 80.5225 168.786 80.3625 168.274 80.0425C167.77 79.7145 167.426 79.2305 167.242 78.5905L168.514 78.0865C168.642 78.5025 168.854 78.8185 169.15 79.0345C169.454 79.2425 169.814 79.3465 170.23 79.3465C170.526 79.3465 170.778 79.3065 170.986 79.2265C171.202 79.1385 171.366 79.0145 171.478 78.8545C171.59 78.6865 171.646 78.4905 171.646 78.2665C171.646 78.0345 171.582 77.8425 171.454 77.6905C171.326 77.5385 171.13 77.4065 170.866 77.2945C170.61 77.1825 170.238 77.0505 169.75 76.8985C169.23 76.7385 168.81 76.5625 168.49 76.3705C168.17 76.1705 167.926 75.9225 167.758 75.6265C167.598 75.3305 167.518 74.9665 167.518 74.5345C167.518 74.1105 167.63 73.7305 167.854 73.3945C168.086 73.0585 168.41 72.7945 168.826 72.6025C169.25 72.4105 169.734 72.3145 170.278 72.3145C171.022 72.3145 171.634 72.4745 172.114 72.7945C172.602 73.1065 172.926 73.5465 173.086 74.1145L171.862 74.6425C171.75 74.2585 171.562 73.9705 171.298 73.7785C171.042 73.5785 170.706 73.4785 170.29 73.4785C169.834 73.4785 169.49 73.5745 169.258 73.7665C169.034 73.9505 168.922 74.1785 168.922 74.4505C168.922 74.6585 168.966 74.8305 169.054 74.9665C169.142 75.1025 169.302 75.2305 169.534 75.3505C169.774 75.4625 170.138 75.5945 170.626 75.7465C171.154 75.9065 171.594 76.0825 171.946 76.2745C172.306 76.4585 172.594 76.6985 172.81 76.9945C173.026 77.2905 173.134 77.6585 173.134 78.0985C173.134 78.5865 173.006 79.0145 172.75 79.3825C172.502 79.7505 172.154 80.0345 171.706 80.2345C171.258 80.4265 170.742 80.5225 170.158 80.5225ZM177.951 80.5465C176.919 80.5465 176.135 80.2665 175.599 79.7065C175.071 79.1465 174.807 78.3065 174.807 77.1865V72.4705H176.271V77.1145C176.271 77.6265 176.327 78.0425 176.439 78.3625C176.559 78.6745 176.743 78.9065 176.991 79.0585C177.239 79.2025 177.547 79.2745 177.915 79.2745C178.307 79.2745 178.627 79.2025 178.875 79.0585C179.131 78.9065 179.315 78.6745 179.427 78.3625C179.547 78.0505 179.607 77.6345 179.607 77.1145V72.4705H181.035V77.1865C181.035 78.3145 180.763 79.1585 180.219 79.7185C179.675 80.2705 178.919 80.5465 177.951 80.5465ZM183.265 72.4705H185.977C186.993 72.4705 187.749 72.6305 188.245 72.9505C188.741 73.2705 188.989 73.7865 188.989 74.4985C188.989 74.9225 188.865 75.2665 188.617 75.5305C188.377 75.7945 188.021 75.9865 187.549 76.1065C188.133 76.2345 188.581 76.4625 188.893 76.7905C189.213 77.1105 189.373 77.5385 189.373 78.0745C189.373 78.8105 189.101 79.3825 188.557 79.7905C188.013 80.1905 187.245 80.3905 186.253 80.3905H183.265V72.4705ZM186.229 79.2505C186.781 79.2505 187.193 79.1585 187.465 78.9745C187.737 78.7905 187.873 78.4985 187.873 78.0985C187.873 77.6985 187.729 77.3865 187.441 77.1625C187.161 76.9385 186.673 76.8265 185.977 76.8265H184.669V79.2505H186.229ZM186.241 75.8185C186.633 75.8185 186.949 75.7105 187.189 75.4945C187.429 75.2785 187.549 74.9985 187.549 74.6545C187.549 74.3025 187.425 74.0425 187.177 73.8745C186.929 73.6985 186.501 73.6105 185.893 73.6105H184.669V75.8185H186.241ZM193.425 80.5225C192.681 80.5225 192.053 80.3625 191.541 80.0425C191.037 79.7145 190.693 79.2305 190.509 78.5905L191.781 78.0865C191.909 78.5025 192.121 78.8185 192.417 79.0345C192.721 79.2425 193.081 79.3465 193.497 79.3465C193.793 79.3465 194.045 79.3065 194.253 79.2265C194.469 79.1385 194.633 79.0145 194.745 78.8545C194.857 78.6865 194.913 78.4905 194.913 78.2665C194.913 78.0345 194.849 77.8425 194.721 77.6905C194.593 77.5385 194.397 77.4065 194.133 77.2945C193.877 77.1825 193.505 77.0505 193.017 76.8985C192.497 76.7385 192.077 76.5625 191.757 76.3705C191.437 76.1705 191.193 75.9225 191.025 75.6265C190.865 75.3305 190.785 74.9665 190.785 74.5345C190.785 74.1105 190.897 73.7305 191.121 73.3945C191.353 73.0585 191.677 72.7945 192.093 72.6025C192.517 72.4105 193.001 72.3145 193.545 72.3145C194.289 72.3145 194.901 72.4745 195.381 72.7945C195.869 73.1065 196.193 73.5465 196.353 74.1145L195.129 74.6425C195.017 74.2585 194.829 73.9705 194.565 73.7785C194.309 73.5785 193.973 73.4785 193.557 73.4785C193.101 73.4785 192.757 73.5745 192.525 73.7665C192.301 73.9505 192.189 74.1785 192.189 74.4505C192.189 74.6585 192.233 74.8305 192.321 74.9665C192.409 75.1025 192.569 75.2305 192.801 75.3505C193.041 75.4625 193.405 75.5945 193.893 75.7465C194.421 75.9065 194.861 76.0825 195.213 76.2745C195.573 76.4585 195.861 76.6985 196.077 76.9945C196.293 77.2905 196.401 77.6585 196.401 78.0985C196.401 78.5865 196.273 79.0145 196.017 79.3825C195.769 79.7505 195.421 80.0345 194.973 80.2345C194.525 80.4265 194.009 80.5225 193.425 80.5225ZM201.386 80.5345C200.618 80.5345 199.954 80.3625 199.394 80.0185C198.842 79.6745 198.418 79.1945 198.122 78.5785C197.834 77.9545 197.69 77.2345 197.69 76.4185C197.69 75.6025 197.838 74.8865 198.134 74.2705C198.43 73.6465 198.858 73.1625 199.418 72.8185C199.978 72.4745 200.634 72.3025 201.386 72.3025C202.266 72.3025 202.986 72.5225 203.546 72.9625C204.114 73.3945 204.486 74.0385 204.662 74.8945L203.234 75.1945C203.09 74.5945 202.87 74.1585 202.574 73.8865C202.286 73.6145 201.886 73.4785 201.374 73.4785C200.918 73.4785 200.522 73.5985 200.186 73.8385C199.858 74.0785 199.606 74.4185 199.43 74.8585C199.254 75.2905 199.166 75.7985 199.166 76.3825V76.4305C199.166 77.3345 199.362 78.0505 199.754 78.5785C200.146 79.0985 200.694 79.3585 201.398 79.3585C201.95 79.3585 202.37 79.2105 202.658 78.9145C202.946 78.6105 203.146 78.1745 203.258 77.6065L204.674 77.8705C204.522 78.7265 204.158 79.3865 203.582 79.8505C203.014 80.3065 202.282 80.5345 201.386 80.5345ZM206.356 72.4705H209.176C210.176 72.4705 210.9 72.6625 211.348 73.0465C211.804 73.4225 212.032 73.9345 212.032 74.5825C212.032 75.0305 211.9 75.4385 211.636 75.8065C211.372 76.1745 210.924 76.4305 210.292 76.5745C210.884 76.6945 211.344 77.0425 211.672 77.6185C212 78.1865 212.192 78.9465 212.248 79.8985C212.264 79.9945 212.272 80.0745 212.272 80.1385C212.272 80.2025 212.276 80.2585 212.284 80.3065V80.3905H210.796L210.784 80.0065C210.728 79.0705 210.548 78.3865 210.244 77.9545C209.948 77.5145 209.464 77.2945 208.792 77.2945H207.784V80.3905H206.356V72.4705ZM208.888 76.2145C209.48 76.2145 209.904 76.0825 210.16 75.8185C210.424 75.5465 210.556 75.2065 210.556 74.7985C210.556 74.4065 210.436 74.1105 210.196 73.9105C209.956 73.7105 209.52 73.6105 208.888 73.6105H207.784V76.2145H208.888ZM214.202 72.4705H215.666V80.3905H214.202V72.4705ZM218.016 72.4705H220.728C221.744 72.4705 222.5 72.6305 222.996 72.9505C223.492 73.2705 223.74 73.7865 223.74 74.4985C223.74 74.9225 223.616 75.2665 223.368 75.5305C223.128 75.7945 222.772 75.9865 222.3 76.1065C222.884 76.2345 223.332 76.4625 223.644 76.7905C223.964 77.1105 224.124 77.5385 224.124 78.0745C224.124 78.8105 223.852 79.3825 223.308 79.7905C222.764 80.1905 221.996 80.3905 221.004 80.3905H218.016V72.4705ZM220.98 79.2505C221.532 79.2505 221.944 79.1585 222.216 78.9745C222.488 78.7905 222.624 78.4985 222.624 78.0985C222.624 77.6985 222.48 77.3865 222.192 77.1625C221.912 76.9385 221.424 76.8265 220.728 76.8265H219.42V79.2505H220.98ZM220.992 75.8185C221.384 75.8185 221.7 75.7105 221.94 75.4945C222.18 75.2785 222.3 74.9985 222.3 74.6545C222.3 74.3025 222.176 74.0425 221.928 73.8745C221.68 73.6985 221.252 73.6105 220.644 73.6105H219.42V75.8185H220.992ZM225.92 72.4705H231.224V73.7185H227.336V75.7105H230.036V76.9105H227.336V79.1545H231.368V80.3905H225.92V72.4705Z" fill="#303048"/>
</g>
<mask id="path-11-inside-1_726_6861" fill="white">
<path d="M0 104.384H445.919V137.151C445.919 141.085 442.729 144.274 438.795 144.274H7.12328C3.18919 144.274 0 141.085 0 137.151V104.384Z"/>
</mask>
<path d="M0 104.384H445.919V137.151C445.919 141.085 442.729 144.274 438.795 144.274H7.12328C3.18919 144.274 0 141.085 0 137.151V104.384Z" fill="url(#paint0_linear_726_6861)"/>
<g clip-path="url(#clip0_726_6861)">
<mask id="mask0_726_6861" style="mask-type:luminance" maskUnits="userSpaceOnUse" x="11" y="115" width="18" height="18">
<path d="M28.4929 115.781H11.397V132.877H28.4929V115.781Z" fill="white"/>
</mask>
<g mask="url(#mask0_726_6861)">
<path d="M28.4931 123.659C28.523 122.617 28.1553 121.603 27.4648 120.823C26.7741 120.042 25.8125 119.554 24.7748 119.456C24.7442 119.451 24.7157 119.438 24.6919 119.418C24.6682 119.398 24.6501 119.372 24.6394 119.343C24.0772 118.4 23.2446 117.648 22.2496 117.185C21.2547 116.722 20.1434 116.569 19.0602 116.746C17.9771 116.922 16.9721 117.421 16.1759 118.176C15.3797 118.931 14.8291 119.909 14.5956 120.981C14.5868 121.017 14.567 121.049 14.5389 121.074C14.5108 121.098 14.4758 121.113 14.4389 121.116C13.907 121.159 13.3931 121.328 12.9406 121.611C12.4881 121.894 12.1102 122.281 11.8388 122.74C11.5305 123.269 11.3774 123.874 11.3972 124.486C11.389 124.894 11.4629 125.3 11.6146 125.679C11.7664 126.059 11.9928 126.404 12.2805 126.694C12.6814 127.077 13.1708 127.356 13.7052 127.506C13.8055 127.532 13.9103 127.536 14.0124 127.518C14.1144 127.499 14.2112 127.459 14.296 127.399C14.3808 127.34 14.4515 127.262 14.5033 127.172C14.555 127.082 14.5865 126.982 14.5956 126.879C14.6015 126.719 14.5534 126.562 14.4591 126.433C14.3647 126.303 14.2297 126.21 14.0756 126.167C13.7657 126.088 13.4813 125.931 13.2493 125.711C13.09 125.536 12.9696 125.329 12.8959 125.105C12.8222 124.88 12.797 124.642 12.8219 124.407C12.8209 124.165 12.868 123.924 12.9604 123.7C13.0528 123.476 13.1886 123.272 13.3601 123.101C13.5316 122.929 13.7354 122.793 13.9597 122.701C14.1839 122.608 14.4243 122.561 14.6668 122.562C14.7938 122.563 14.9204 122.577 15.0443 122.605C15.149 122.626 15.2572 122.624 15.3608 122.598C15.4644 122.572 15.5609 122.523 15.643 122.454C15.7251 122.386 15.7907 122.3 15.8351 122.203C15.8794 122.105 15.9013 121.999 15.8991 121.893C15.9632 117.811 21.8115 116.643 23.6065 120.468C23.6663 120.594 23.7615 120.699 23.8805 120.771C23.9995 120.843 24.1371 120.879 24.2761 120.874C24.7455 120.854 25.2117 120.959 25.6281 121.176C26.0444 121.394 26.3963 121.717 26.6482 122.113C26.9156 122.52 27.0613 122.995 27.0684 123.481C27.0971 123.886 27.0271 124.292 26.8646 124.664C26.702 125.037 26.4518 125.364 26.1353 125.618C26.0384 125.693 25.964 125.793 25.92 125.907C25.8761 126.022 25.8643 126.146 25.886 126.266C25.9076 126.385 25.9589 126.496 26.0351 126.589C26.1112 126.682 26.2098 126.754 26.3214 126.799C26.433 126.844 26.5543 126.86 26.6737 126.845C26.7932 126.83 26.9069 126.786 27.0043 126.715C27.4696 126.353 27.8457 125.89 28.1039 125.36C28.362 124.83 28.4951 124.249 28.4931 123.659Z" fill="#CB6F8F"/>
<path d="M24.9312 127.32C24.9312 126.405 24.6596 125.51 24.1509 124.748C23.6421 123.987 22.919 123.393 22.0729 123.043C21.2269 122.692 20.2959 122.601 19.3977 122.779C18.4996 122.958 17.6746 123.399 17.027 124.046C16.3795 124.694 15.9385 125.519 15.7599 126.417C15.5812 127.315 15.6729 128.246 16.0233 129.092C16.3738 129.938 16.9673 130.662 17.7287 131.17C18.4901 131.679 19.3853 131.951 20.301 131.951C21.5285 131.949 22.7051 131.46 23.573 130.592C24.4409 129.724 24.9293 128.548 24.9312 127.32ZM22.1887 125.426C22.2888 125.526 22.345 125.662 22.345 125.803C22.345 125.945 22.2888 126.081 22.1887 126.181L21.1843 127.178C21.1673 127.194 21.1537 127.213 21.1444 127.235C21.1351 127.256 21.1304 127.279 21.1304 127.303C21.1304 127.326 21.1351 127.349 21.1444 127.371C21.1537 127.392 21.1673 127.411 21.1843 127.427L22.1887 128.439C22.2888 128.539 22.345 128.675 22.345 128.816C22.345 128.958 22.2888 129.094 22.1887 129.194C22.0885 129.294 21.9528 129.35 21.8112 129.35C21.6696 129.35 21.5338 129.294 21.4336 129.194L20.4293 128.182C20.394 128.151 20.3484 128.133 20.301 128.133C20.2537 128.133 20.2081 128.151 20.1728 128.182L19.1684 129.194C19.0683 129.294 18.9325 129.35 18.7909 129.35C18.6493 129.35 18.5135 129.294 18.4134 129.194C18.3133 129.094 18.2571 128.958 18.2571 128.816C18.2571 128.675 18.3133 128.539 18.4134 128.439L19.4178 127.427C19.4348 127.411 19.4484 127.392 19.4577 127.371C19.4669 127.349 19.4717 127.326 19.4717 127.303C19.4717 127.279 19.4669 127.256 19.4577 127.235C19.4484 127.213 19.4348 127.194 19.4178 127.178L18.4134 126.181C18.319 126.079 18.2676 125.945 18.2701 125.807C18.2725 125.669 18.3286 125.537 18.4265 125.439C18.5243 125.341 18.6564 125.285 18.7948 125.282C18.9332 125.28 19.0672 125.331 19.1684 125.426L20.1728 126.466C20.1894 126.483 20.2093 126.497 20.2314 126.506C20.2534 126.515 20.2771 126.52 20.301 126.52C20.325 126.52 20.3487 126.515 20.3707 126.506C20.3927 126.497 20.4126 126.483 20.4293 126.466L21.4336 125.454C21.4814 125.403 21.5387 125.361 21.6025 125.332C21.6662 125.303 21.7352 125.286 21.8053 125.283C21.8754 125.281 21.9454 125.292 22.0111 125.316C22.0769 125.341 22.1373 125.378 22.1887 125.426Z" fill="#CB6F8F"/>
</g>
</g>
<path d="M37.6973 119.647H41.1376L43.5041 125.414H43.6234L45.9899 119.647H49.4302V129.829H46.7257V123.943H46.6461L44.3791 129.749H42.7484L40.4814 123.903H40.4018V129.829H37.6973V119.647ZM50.99 129.829V122.193H53.7343V129.829H50.99ZM52.3622 121.397C51.991 121.397 51.6728 121.275 51.4076 121.029C51.1425 120.784 51.0099 120.489 51.0099 120.144C51.0099 119.8 51.1425 119.505 51.4076 119.259C51.6728 119.014 51.991 118.891 52.3622 118.891C52.7367 118.891 53.0549 119.014 53.3167 119.259C53.5819 119.505 53.7144 119.8 53.7144 120.144C53.7144 120.489 53.5819 120.784 53.3167 121.029C53.0549 121.275 52.7367 121.397 52.3622 121.397ZM62.3227 124.678H59.7971C59.7839 124.523 59.7292 124.388 59.6331 124.276C59.537 124.163 59.4127 124.077 59.2602 124.017C59.1111 123.954 58.9453 123.923 58.763 123.923C58.5277 123.923 58.3255 123.966 58.1565 124.052C57.9875 124.138 57.9046 124.261 57.9079 124.42C57.9046 124.533 57.9527 124.637 58.0521 124.733C58.1548 124.829 58.3521 124.904 58.6437 124.957L60.1949 125.235C60.9771 125.378 61.5587 125.618 61.9399 125.956C62.3244 126.291 62.5182 126.74 62.5216 127.303C62.5182 127.847 62.3558 128.319 62.0343 128.72C61.7162 129.118 61.2803 129.426 60.7268 129.645C60.1766 129.86 59.5486 129.968 58.8426 129.968C57.6759 129.968 56.7628 129.73 56.1032 129.252C55.447 128.775 55.0807 128.145 55.0045 127.363H57.7289C57.7654 127.605 57.8847 127.792 58.0869 127.925C58.2924 128.054 58.5509 128.119 58.8625 128.119C59.1144 128.119 59.3215 128.076 59.4839 127.989C59.6496 127.903 59.7342 127.781 59.7375 127.622C59.7342 127.476 59.6612 127.36 59.5187 127.274C59.3795 127.187 59.1608 127.118 58.8625 127.065L57.5102 126.826C56.7313 126.69 56.148 126.432 55.7602 126.051C55.3724 125.669 55.1802 125.179 55.1835 124.579C55.1802 124.049 55.3194 123.6 55.6011 123.232C55.8861 122.86 56.2922 122.579 56.8191 122.387C57.3495 122.191 57.9775 122.093 58.7034 122.093C59.8071 122.093 60.6771 122.322 61.3135 122.779C61.9531 123.237 62.2896 123.87 62.3227 124.678ZM67.462 129.968C66.6334 129.968 65.9242 129.804 65.3342 129.476C64.7442 129.145 64.2918 128.684 63.9769 128.094C63.6621 127.501 63.5046 126.813 63.5046 126.031C63.5046 125.248 63.6621 124.562 63.9769 123.972C64.2918 123.379 64.7442 122.918 65.3342 122.59C65.9242 122.259 66.6334 122.093 67.462 122.093C68.2111 122.093 68.859 122.229 69.4059 122.501C69.9561 122.769 70.382 123.15 70.6836 123.644C70.9852 124.135 71.1377 124.712 71.141 125.374H68.5956C68.5591 124.973 68.4431 124.668 68.2475 124.46C68.0553 124.248 67.8067 124.141 67.5018 124.141C67.2632 124.141 67.0544 124.211 66.8754 124.35C66.6964 124.486 66.5572 124.693 66.4578 124.972C66.3583 125.247 66.3086 125.593 66.3086 126.011C66.3086 126.428 66.3583 126.776 66.4578 127.055C66.5572 127.33 66.6964 127.537 66.8754 127.676C67.0544 127.812 67.2632 127.88 67.5018 127.88C67.704 127.88 67.883 127.834 68.0387 127.741C68.1945 127.645 68.3205 127.506 68.4166 127.323C68.516 127.138 68.5757 126.912 68.5956 126.647H71.141C71.1311 127.32 70.9769 127.907 70.6787 128.407C70.3804 128.904 69.9578 129.289 69.4109 129.561C68.8673 129.832 68.2177 129.968 67.462 129.968ZM76.1623 129.968C75.3337 129.968 74.6244 129.804 74.0344 129.476C73.4445 129.145 72.992 128.684 72.6772 128.094C72.3623 127.501 72.2049 126.813 72.2049 126.031C72.2049 125.248 72.3623 124.562 72.6772 123.972C72.992 123.379 73.4445 122.918 74.0344 122.59C74.6244 122.259 75.3337 122.093 76.1623 122.093C76.9909 122.093 77.7001 122.259 78.2901 122.59C78.8801 122.918 79.3325 123.379 79.6474 123.972C79.9622 124.562 80.1197 125.248 80.1197 126.031C80.1197 126.813 79.9622 127.501 79.6474 128.094C79.3325 128.684 78.8801 129.145 78.2901 129.476C77.7001 129.804 76.9909 129.968 76.1623 129.968ZM76.1822 127.94C76.4142 127.94 76.6147 127.862 76.7837 127.706C76.9527 127.55 77.0837 127.328 77.1765 127.04C77.2693 126.752 77.3157 126.409 77.3157 126.011C77.3157 125.61 77.2693 125.267 77.1765 124.982C77.0837 124.693 76.9527 124.471 76.7837 124.315C76.6147 124.16 76.4142 124.082 76.1822 124.082C75.9369 124.082 75.7264 124.16 75.5508 124.315C75.3751 124.471 75.2409 124.693 75.1481 124.982C75.0553 125.267 75.0089 125.61 75.0089 126.011C75.0089 126.409 75.0553 126.752 75.1481 127.04C75.2409 127.328 75.3751 127.55 75.5508 127.706C75.7264 127.862 75.9369 127.94 76.1822 127.94ZM84.1876 125.534V129.829H81.4433V122.193H84.0484V123.644H84.1279C84.2937 123.16 84.5853 122.781 85.0029 122.506C85.4239 122.231 85.9144 122.093 86.4745 122.093C87.0148 122.093 87.4838 122.217 87.8815 122.466C88.2825 122.711 88.5924 123.049 88.8112 123.48C89.0332 123.911 89.1426 124.403 89.1393 124.957V129.829H86.395V125.534C86.3983 125.156 86.3022 124.859 86.1066 124.644C85.9144 124.428 85.6459 124.32 85.3012 124.32C85.0759 124.32 84.8787 124.37 84.7096 124.47C84.5439 124.566 84.4163 124.705 84.3268 124.887C84.2373 125.066 84.1909 125.282 84.1876 125.534ZM95.2779 122.193V124.181H90.1671V122.193H95.2779ZM91.1416 129.829V121.974C91.1416 121.344 91.2543 120.822 91.4796 120.408C91.705 119.994 92.0232 119.684 92.4342 119.478C92.8452 119.273 93.3291 119.17 93.8859 119.17C94.2339 119.17 94.572 119.196 94.9001 119.249C95.2315 119.302 95.4768 119.349 95.6359 119.389L95.2382 121.357C95.1387 121.328 95.0227 121.304 94.8901 121.288C94.7576 121.268 94.6416 121.258 94.5421 121.258C94.2836 121.258 94.1096 121.313 94.0201 121.422C93.9306 121.531 93.8859 121.676 93.8859 121.855V129.829H91.1416ZM96.5469 129.829V122.193H99.2912V129.829H96.5469ZM97.919 121.397C97.5478 121.397 97.2296 121.275 96.9645 121.029C96.6993 120.784 96.5668 120.489 96.5668 120.144C96.5668 119.8 96.6993 119.505 96.9645 119.259C97.2296 119.014 97.5478 118.891 97.919 118.891C98.2936 118.891 98.6118 119.014 98.8736 119.259C99.1387 119.505 99.2713 119.8 99.2713 120.144C99.2713 120.489 99.1387 120.784 98.8736 121.029C98.6118 121.275 98.2936 121.397 97.919 121.397ZM104.578 132.852C103.813 132.852 103.157 132.742 102.61 132.524C102.066 132.308 101.644 132.01 101.342 131.629C101.044 131.251 100.876 130.817 100.84 130.326H103.485C103.511 130.489 103.577 130.619 103.684 130.719C103.79 130.818 103.926 130.89 104.091 130.933C104.26 130.979 104.449 131.002 104.658 131.002C105.013 131.002 105.306 130.916 105.538 130.744C105.773 130.571 105.891 130.26 105.891 129.809V128.516H105.811C105.712 128.775 105.559 128.995 105.354 129.178C105.149 129.357 104.902 129.494 104.613 129.59C104.325 129.683 104.008 129.73 103.664 129.73C103.12 129.73 102.62 129.604 102.162 129.352C101.708 129.1 101.344 128.7 101.068 128.154C100.797 127.607 100.661 126.892 100.661 126.011C100.661 125.089 100.803 124.34 101.088 123.764C101.377 123.187 101.748 122.764 102.202 122.496C102.659 122.227 103.14 122.093 103.644 122.093C104.022 122.093 104.353 122.159 104.638 122.292C104.923 122.421 105.162 122.595 105.354 122.814C105.546 123.03 105.692 123.266 105.792 123.525H105.851V122.193H108.595V129.809C108.595 130.455 108.428 131.004 108.093 131.455C107.762 131.909 107.295 132.255 106.691 132.494C106.088 132.732 105.384 132.852 104.578 132.852ZM104.678 127.781C104.93 127.781 105.145 127.711 105.324 127.572C105.506 127.429 105.646 127.227 105.742 126.965C105.841 126.7 105.891 126.382 105.891 126.011C105.891 125.633 105.841 125.31 105.742 125.041C105.646 124.77 105.506 124.562 105.324 124.42C105.145 124.274 104.93 124.201 104.678 124.201C104.426 124.201 104.211 124.274 104.032 124.42C103.856 124.562 103.72 124.77 103.624 125.041C103.531 125.31 103.485 125.633 103.485 126.011C103.485 126.389 103.531 126.71 103.624 126.975C103.72 127.237 103.856 127.438 104.032 127.577C104.211 127.713 104.426 127.781 104.678 127.781ZM115.153 126.488V122.193H117.897V129.829H115.292V128.377H115.213C115.047 128.864 114.757 129.246 114.343 129.521C113.928 129.793 113.436 129.928 112.866 129.928C112.332 129.928 111.865 129.806 111.464 129.561C111.066 129.315 110.756 128.977 110.534 128.546C110.316 128.115 110.205 127.622 110.201 127.065V122.193H112.946V126.488C112.949 126.866 113.045 127.163 113.234 127.378C113.426 127.593 113.695 127.701 114.039 127.701C114.268 127.701 114.465 127.653 114.631 127.557C114.8 127.458 114.929 127.318 115.019 127.139C115.112 126.957 115.156 126.74 115.153 126.488ZM119.503 129.829V122.193H122.168V123.644H122.247C122.387 123.107 122.607 122.715 122.909 122.466C123.214 122.217 123.57 122.093 123.977 122.093C124.097 122.093 124.214 122.103 124.33 122.123C124.45 122.14 124.564 122.164 124.674 122.198V124.539C124.538 124.493 124.37 124.458 124.171 124.435C123.973 124.412 123.802 124.4 123.659 124.4C123.391 124.4 123.149 124.461 122.933 124.584C122.721 124.703 122.554 124.872 122.431 125.091C122.309 125.306 122.247 125.56 122.247 125.852V129.829H119.503ZM127.556 129.948C127.069 129.948 126.638 129.869 126.263 129.71C125.892 129.547 125.6 129.302 125.388 128.974C125.176 128.646 125.07 128.228 125.07 127.721C125.07 127.303 125.141 126.947 125.284 126.652C125.426 126.354 125.625 126.11 125.88 125.921C126.136 125.732 126.432 125.588 126.77 125.489C127.112 125.389 127.48 125.325 127.874 125.295C128.301 125.262 128.645 125.222 128.903 125.176C129.165 125.126 129.354 125.058 129.47 124.972C129.586 124.882 129.644 124.765 129.644 124.619V124.599C129.644 124.4 129.568 124.248 129.415 124.141C129.263 124.035 129.067 123.982 128.828 123.982C128.567 123.982 128.353 124.04 128.187 124.156C128.025 124.269 127.927 124.443 127.894 124.678H125.368C125.401 124.214 125.549 123.787 125.811 123.396C126.076 123.001 126.462 122.686 126.969 122.451C127.476 122.213 128.109 122.093 128.868 122.093C129.415 122.093 129.906 122.158 130.34 122.287C130.774 122.413 131.144 122.59 131.448 122.819C131.753 123.044 131.985 123.31 132.145 123.614C132.307 123.916 132.388 124.244 132.388 124.599V129.829H129.823V128.755H129.763C129.611 129.04 129.425 129.271 129.206 129.446C128.991 129.622 128.744 129.749 128.466 129.829C128.19 129.909 127.887 129.948 127.556 129.948ZM128.451 128.218C128.659 128.218 128.855 128.175 129.037 128.089C129.223 128.003 129.374 127.878 129.49 127.716C129.606 127.554 129.664 127.356 129.664 127.124V126.488C129.591 126.518 129.513 126.546 129.43 126.573C129.35 126.599 129.264 126.624 129.172 126.647C129.082 126.67 128.986 126.692 128.883 126.712C128.784 126.732 128.679 126.75 128.57 126.766C128.358 126.8 128.184 126.854 128.048 126.931C127.915 127.003 127.816 127.095 127.75 127.204C127.687 127.31 127.655 127.429 127.655 127.562C127.655 127.774 127.73 127.936 127.879 128.049C128.028 128.162 128.219 128.218 128.451 128.218ZM138.463 122.193V124.181H133.432V122.193H138.463ZM134.407 120.363H137.151V127.373C137.151 127.479 137.169 127.569 137.206 127.641C137.242 127.711 137.298 127.764 137.375 127.801C137.451 127.834 137.549 127.85 137.668 127.85C137.751 127.85 137.847 127.84 137.956 127.82C138.069 127.801 138.152 127.784 138.205 127.771L138.603 129.7C138.48 129.736 138.304 129.781 138.076 129.834C137.85 129.887 137.582 129.922 137.27 129.938C136.64 129.971 136.112 129.907 135.684 129.744C135.257 129.579 134.935 129.319 134.72 128.964C134.504 128.609 134.4 128.165 134.407 127.632V120.363ZM139.793 129.829V122.193H142.538V129.829H139.793ZM141.165 121.397C140.794 121.397 140.476 121.275 140.211 121.029C139.946 120.784 139.813 120.489 139.813 120.144C139.813 119.8 139.946 119.505 140.211 119.259C140.476 119.014 140.794 118.891 141.165 118.891C141.54 118.891 141.858 119.014 142.12 119.259C142.385 119.505 142.518 119.8 142.518 120.144C142.518 120.489 142.385 120.784 142.12 121.029C141.858 121.275 141.54 121.397 141.165 121.397ZM147.825 129.968C146.996 129.968 146.287 129.804 145.697 129.476C145.107 129.145 144.655 128.684 144.34 128.094C144.025 127.501 143.867 126.813 143.867 126.031C143.867 125.248 144.025 124.562 144.34 123.972C144.655 123.379 145.107 122.918 145.697 122.59C146.287 122.259 146.996 122.093 147.825 122.093C148.653 122.093 149.363 122.259 149.953 122.59C150.543 122.918 150.995 123.379 151.31 123.972C151.625 124.562 151.782 125.248 151.782 126.031C151.782 126.813 151.625 127.501 151.31 128.094C150.995 128.684 150.543 129.145 149.953 129.476C149.363 129.804 148.653 129.968 147.825 129.968ZM147.845 127.94C148.077 127.94 148.277 127.862 148.446 127.706C148.615 127.55 148.746 127.328 148.839 127.04C148.932 126.752 148.978 126.409 148.978 126.011C148.978 125.61 148.932 125.267 148.839 124.982C148.746 124.693 148.615 124.471 148.446 124.315C148.277 124.16 148.077 124.082 147.845 124.082C147.599 124.082 147.389 124.16 147.213 124.315C147.038 124.471 146.903 124.693 146.811 124.982C146.718 125.267 146.671 125.61 146.671 126.011C146.671 126.409 146.718 126.752 146.811 127.04C146.903 127.328 147.038 127.55 147.213 127.706C147.389 127.862 147.599 127.94 147.845 127.94ZM155.85 125.534V129.829H153.106V122.193H155.711V123.644H155.79C155.956 123.16 156.248 122.781 156.665 122.506C157.086 122.231 157.577 122.093 158.137 122.093C158.677 122.093 159.146 122.217 159.544 122.466C159.945 122.711 160.255 123.049 160.474 123.48C160.696 123.911 160.805 124.403 160.802 124.957V129.829H158.057V125.534C158.061 125.156 157.965 124.859 157.769 124.644C157.577 124.428 157.308 124.32 156.964 124.32C156.738 124.32 156.541 124.37 156.372 124.47C156.206 124.566 156.079 124.705 155.989 124.887C155.9 125.066 155.853 125.282 155.85 125.534ZM169.347 124.678H166.821C166.808 124.523 166.753 124.388 166.657 124.276C166.561 124.163 166.437 124.077 166.284 124.017C166.135 123.954 165.969 123.923 165.787 123.923C165.552 123.923 165.35 123.966 165.18 124.052C165.011 124.138 164.929 124.261 164.932 124.42C164.929 124.533 164.977 124.637 165.076 124.733C165.179 124.829 165.376 124.904 165.668 124.957L167.219 125.235C168.001 125.378 168.583 125.618 168.964 125.956C169.348 126.291 169.542 126.74 169.546 127.303C169.542 127.847 169.38 128.319 169.058 128.72C168.74 129.118 168.304 129.426 167.751 129.645C167.201 129.86 166.573 129.968 165.867 129.968C164.7 129.968 163.787 129.73 163.127 129.252C162.471 128.775 162.105 128.145 162.029 127.363H164.753C164.789 127.605 164.909 127.792 165.111 127.925C165.316 128.054 165.575 128.119 165.886 128.119C166.138 128.119 166.346 128.076 166.508 127.989C166.674 127.903 166.758 127.781 166.761 127.622C166.758 127.476 166.685 127.36 166.543 127.274C166.404 127.187 166.185 127.118 165.886 127.065L164.534 126.826C163.755 126.69 163.172 126.432 162.784 126.051C162.396 125.669 162.204 125.179 162.207 124.579C162.204 124.049 162.343 123.6 162.625 123.232C162.91 122.86 163.316 122.579 163.843 122.387C164.373 122.191 165.002 122.093 165.727 122.093C166.831 122.093 167.701 122.322 168.337 122.779C168.977 123.237 169.314 123.87 169.347 124.678Z" fill="#CB6F8F"/>
<path d="M0 103.384H445.919V105.384H0V103.384ZM445.919 144.274H0H445.919ZM0 144.274V104.384V144.274ZM445.919 104.384V144.274V104.384Z" fill="#CB6F8F" mask="url(#path-11-inside-1_726_6861)"/>
<rect x="0.5" y="0.5" width="445" height="143.274" rx="6.6233" stroke="#CB6F8F"/>
<defs>
<linearGradient id="paint0_linear_726_6861" x1="1.03313e-06" y1="123.938" x2="346.777" y2="123.938" gradientUnits="userSpaceOnUse">
<stop stop-color="#D03173" stop-opacity="0.2"/>
<stop offset="1" stop-color="#D03173" stop-opacity="0"/>
</linearGradient>
<clipPath id="clip0_726_6861">
<rect width="17.0959" height="17.0959" fill="white" transform="translate(11.397 115.781)"/>
</clipPath>
</defs>
</svg>
