<svg width="446" height="145" viewBox="0 0 446 145" fill="none" xmlns="http://www.w3.org/2000/svg">
<rect x="0.5" y="0.5" width="445" height="143.274" rx="6.6233" fill="white"/>
<path d="M15.1697 26.3975H11.7606L15.6015 14.7611H19.9197L23.7606 26.3975H20.3515L17.8061 17.9656H17.7152L15.1697 26.3975ZM14.5333 21.8066H20.9424V24.1702H14.5333V21.8066ZM26.7165 26.3975L23.2847 14.7611H26.8074L28.3983 21.9202H28.4892L30.3756 14.7611H33.1483L35.0347 21.9429H35.1256L36.7165 14.7611H40.2392L36.8074 26.3975H33.7847L31.8074 19.8975H31.7165L29.7392 26.3975H26.7165ZM47.5872 18.3975C47.5569 18.0187 47.4149 17.7232 47.1611 17.5111C46.9111 17.299 46.5304 17.1929 46.019 17.1929C45.6933 17.1929 45.4262 17.2327 45.2179 17.3122C45.0133 17.388 44.8618 17.4922 44.7633 17.6247C44.6649 17.7573 44.6137 17.9088 44.6099 18.0793C44.6024 18.2194 44.627 18.3463 44.6838 18.46C44.7444 18.5698 44.8391 18.6702 44.9679 18.7611C45.0967 18.8482 45.2614 18.9278 45.4622 18.9997C45.663 19.0717 45.9016 19.1361 46.1781 19.1929L47.1327 19.3975C47.7766 19.5338 48.3277 19.7137 48.7861 19.9372C49.2444 20.1607 49.6194 20.424 49.9111 20.727C50.2027 21.0262 50.4167 21.3634 50.5531 21.7384C50.6933 22.1134 50.7652 22.5225 50.769 22.9656C50.7652 23.7308 50.5739 24.3785 50.1952 24.9088C49.8164 25.4391 49.2747 25.8425 48.5702 26.1191C47.8694 26.3956 47.0266 26.5338 46.0417 26.5338C45.0304 26.5338 44.1478 26.3842 43.394 26.085C42.644 25.7857 42.0607 25.3255 41.644 24.7043C41.2311 24.0793 41.0228 23.28 41.019 22.3066H44.019C44.038 22.6626 44.127 22.9619 44.2861 23.2043C44.4452 23.4467 44.6686 23.6304 44.9565 23.7554C45.2482 23.8804 45.5948 23.9429 45.9963 23.9429C46.3334 23.9429 46.6156 23.9012 46.8429 23.8179C47.0702 23.7346 47.2425 23.6191 47.3599 23.4713C47.4774 23.3236 47.538 23.155 47.5417 22.9656C47.538 22.7876 47.4792 22.6323 47.3656 22.4997C47.2558 22.3634 47.0739 22.2422 46.8202 22.1361C46.5664 22.0262 46.2236 21.924 45.7917 21.8293L44.6327 21.5793C43.6024 21.3558 42.7899 20.9827 42.1952 20.46C41.6042 19.9334 41.3107 19.2156 41.3145 18.3066C41.3107 17.5679 41.5077 16.9221 41.9054 16.3691C42.3069 15.8122 42.8618 15.3785 43.5702 15.0679C44.2823 14.7573 45.0986 14.602 46.019 14.602C46.9584 14.602 47.7709 14.7592 48.4565 15.0736C49.1421 15.388 49.6705 15.8312 50.0417 16.4031C50.4167 16.9713 50.6061 17.6361 50.6099 18.3975H47.5872ZM63.195 18.602C63.1458 18.4012 63.0681 18.2251 62.9621 18.0736C62.856 17.9183 62.7234 17.7876 62.5644 17.6816C62.4091 17.5717 62.2272 17.4903 62.0189 17.4372C61.8144 17.3804 61.589 17.352 61.3428 17.352C60.8125 17.352 60.3598 17.4789 59.9848 17.7327C59.6136 17.9865 59.3295 18.352 59.1325 18.8293C58.9394 19.3066 58.8428 19.8823 58.8428 20.5566C58.8428 21.2384 58.9356 21.8217 59.1212 22.3066C59.3068 22.7914 59.5833 23.1626 59.9507 23.4202C60.3181 23.6778 60.7746 23.8066 61.32 23.8066C61.8011 23.8066 62.2007 23.7365 62.5189 23.5963C62.8409 23.4562 63.0814 23.2573 63.2405 22.9997C63.3996 22.7422 63.4791 22.4391 63.4791 22.0906L64.0246 22.1475H61.3655V19.8975H66.5246V21.5111C66.5246 22.5717 66.2992 23.4789 65.8484 24.2327C65.4015 24.9827 64.7841 25.5584 63.9962 25.96C63.2121 26.3577 62.3125 26.5566 61.2973 26.5566C60.1647 26.5566 59.1704 26.316 58.3144 25.835C57.4583 25.3539 56.7897 24.6683 56.3087 23.7781C55.8314 22.888 55.5928 21.8293 55.5928 20.602C55.5928 19.6399 55.7386 18.7876 56.0303 18.0452C56.3257 17.3028 56.7348 16.6759 57.2575 16.1645C57.7803 15.6494 58.3844 15.2611 59.07 14.9997C59.7556 14.7346 60.4905 14.602 61.2746 14.602C61.964 14.602 62.6041 14.7005 63.195 14.8975C63.7897 15.0906 64.3144 15.3672 64.7689 15.727C65.2272 16.0831 65.5966 16.5054 65.8769 16.9941C66.1572 17.4827 66.3276 18.0187 66.3882 18.602H63.195ZM68.2376 26.3975V14.7611H73.2603C74.124 14.7611 74.8796 14.9316 75.5274 15.2725C76.1751 15.6134 76.6789 16.0925 77.0387 16.71C77.3986 17.3274 77.5785 18.049 77.5785 18.8747C77.5785 19.7081 77.3929 20.4297 77.0217 21.0395C76.6543 21.6494 76.1372 22.1191 75.4706 22.4486C74.8077 22.7781 74.0331 22.9429 73.1467 22.9429H70.1467V20.4884H72.5103C72.8815 20.4884 73.1978 20.424 73.4592 20.2952C73.7243 20.1626 73.927 19.9751 74.0671 19.7327C74.2111 19.4903 74.2831 19.2043 74.2831 18.8747C74.2831 18.5414 74.2111 18.2573 74.0671 18.0225C73.927 17.7838 73.7243 17.602 73.4592 17.477C73.1978 17.3482 72.8815 17.2838 72.5103 17.2838H71.3967V26.3975H68.2376ZM79.0003 26.3975V24.1247L83.3412 20.5338C83.6291 20.2952 83.8753 20.0717 84.0799 19.8634C84.2882 19.6512 84.4473 19.4334 84.5571 19.21C84.6708 18.9865 84.7276 18.7384 84.7276 18.4656C84.7276 18.1664 84.6632 17.9107 84.5344 17.6986C84.4094 17.4865 84.2352 17.3236 84.0117 17.21C83.7882 17.0925 83.5306 17.0338 83.239 17.0338C82.9473 17.0338 82.6897 17.0925 82.4662 17.21C82.2465 17.3274 82.0761 17.4997 81.9549 17.727C81.8337 17.9543 81.7731 18.2308 81.7731 18.5566H78.7731C78.7731 17.7384 78.9568 17.0338 79.3242 16.4429C79.6916 15.852 80.2106 15.3975 80.881 15.0793C81.5515 14.7611 82.3374 14.602 83.239 14.602C84.1708 14.602 84.9776 14.7516 85.6594 15.0509C86.345 15.3463 86.8734 15.763 87.2446 16.3009C87.6196 16.8387 87.8071 17.4694 87.8071 18.1929C87.8071 18.6399 87.7143 19.085 87.5287 19.5281C87.3431 19.9675 87.0098 20.4543 86.5287 20.9884C86.0477 21.5225 85.364 22.1588 84.4776 22.8975L83.3867 23.8066V23.8747H87.9321V26.3975H79.0003ZM92.6707 17.3066V14.7611H102.784V17.3066H99.2843V26.3975H96.1707V17.3066H92.6707ZM105.168 29.6702C104.808 29.6702 104.465 29.6418 104.139 29.585C103.814 29.5319 103.528 29.4581 103.281 29.3634L103.963 27.1361C104.221 27.227 104.456 27.2857 104.668 27.3122C104.884 27.3387 105.067 27.3236 105.219 27.2668C105.374 27.21 105.486 27.102 105.554 26.9429L105.622 26.7838L102.554 17.6702H105.827L107.236 23.7156H107.327L108.759 17.6702H112.054L108.872 27.1247C108.713 27.6058 108.482 28.0376 108.179 28.4202C107.88 28.8066 107.486 29.1115 106.997 29.335C106.509 29.5584 105.899 29.6702 105.168 29.6702ZM113.186 29.6702V17.6702H116.3V19.1929H116.368C116.482 18.8975 116.648 18.6266 116.868 18.3804C117.088 18.1304 117.36 17.9316 117.686 17.7838C118.012 17.6323 118.391 17.5566 118.823 17.5566C119.398 17.5566 119.946 17.71 120.465 18.0168C120.987 18.3236 121.412 18.8066 121.737 19.4656C122.067 20.1247 122.232 20.9808 122.232 22.0338C122.232 23.0414 122.074 23.8766 121.76 24.5395C121.449 25.2024 121.033 25.6967 120.51 26.0225C119.991 26.3482 119.421 26.5111 118.8 26.5111C118.391 26.5111 118.025 26.4448 117.703 26.3122C117.385 26.1759 117.112 25.9922 116.885 25.7611C116.662 25.5262 116.489 25.2611 116.368 24.9656H116.323V29.6702H113.186ZM116.254 22.0338C116.254 22.4581 116.309 22.8255 116.419 23.1361C116.533 23.4429 116.692 23.6816 116.896 23.852C117.105 24.0187 117.353 24.102 117.641 24.102C117.929 24.102 118.173 24.0206 118.374 23.8577C118.578 23.691 118.734 23.4543 118.84 23.1475C118.949 22.8369 119.004 22.4656 119.004 22.0338C119.004 21.602 118.949 21.2327 118.84 20.9259C118.734 20.6153 118.578 20.3785 118.374 20.2156C118.173 20.049 117.929 19.9656 117.641 19.9656C117.353 19.9656 117.105 20.049 116.896 20.2156C116.692 20.3785 116.533 20.6153 116.419 20.9259C116.309 21.2327 116.254 21.602 116.254 22.0338ZM127.967 26.5566C127.036 26.5566 126.233 26.3785 125.558 26.0225C124.888 25.6626 124.371 25.1475 124.007 24.477C123.647 23.8028 123.467 22.9959 123.467 22.0566C123.467 21.155 123.649 20.3672 124.013 19.6929C124.376 19.0187 124.89 18.4941 125.553 18.1191C126.215 17.7441 126.998 17.5566 127.899 17.5566C128.558 17.5566 129.155 17.6588 129.689 17.8634C130.223 18.0679 130.679 18.3653 131.058 18.7554C131.437 19.1418 131.729 19.6115 131.933 20.1645C132.138 20.7175 132.24 21.3406 132.24 22.0338V22.7611H124.445V21.0338H129.354C129.35 20.7838 129.286 20.5641 129.161 20.3747C129.039 20.1816 128.875 20.0319 128.666 19.9259C128.462 19.816 128.229 19.7611 127.967 19.7611C127.714 19.7611 127.481 19.816 127.269 19.9259C127.056 20.0319 126.886 20.1797 126.757 20.3691C126.632 20.5584 126.566 20.78 126.558 21.0338V22.8975C126.558 23.1778 126.617 23.4278 126.734 23.6475C126.852 23.8672 127.02 24.0395 127.24 24.1645C127.46 24.2895 127.725 24.352 128.036 24.352C128.251 24.352 128.448 24.3217 128.626 24.2611C128.808 24.2005 128.964 24.1134 129.092 23.9997C129.221 23.8823 129.316 23.7422 129.376 23.5793H132.24C132.142 24.1853 131.909 24.7119 131.541 25.1588C131.174 25.602 130.687 25.9467 130.081 26.1929C129.479 26.4353 128.774 26.5566 127.967 26.5566ZM137.142 26.3975V14.7611H145.528V17.3066H140.301V19.3066H145.097V21.852H140.301V23.852H145.506V26.3975H137.142ZM147.335 26.3975V14.7611H152.381C153.267 14.7611 154.011 14.8804 154.614 15.1191C155.22 15.3577 155.676 15.6948 155.983 16.1304C156.293 16.566 156.449 17.0793 156.449 17.6702C156.449 18.0982 156.354 18.4884 156.165 18.8406C155.979 19.1929 155.718 19.4884 155.381 19.727C155.043 19.9619 154.649 20.1247 154.199 20.2156V20.3293C154.699 20.3482 155.153 20.4751 155.562 20.71C155.971 20.941 156.297 21.2611 156.54 21.6702C156.782 22.0755 156.903 22.5528 156.903 23.102C156.903 23.7384 156.737 24.3047 156.403 24.8009C156.074 25.2971 155.604 25.6872 154.994 25.9713C154.384 26.2554 153.657 26.3975 152.812 26.3975H147.335ZM150.494 23.8747H151.971C152.502 23.8747 152.899 23.7762 153.165 23.5793C153.43 23.3785 153.562 23.0831 153.562 22.6929C153.562 22.4202 153.5 22.1891 153.375 21.9997C153.25 21.8103 153.072 21.6664 152.841 21.5679C152.614 21.4694 152.339 21.4202 152.017 21.4202H150.494V23.8747ZM150.494 19.4656H151.79C152.066 19.4656 152.31 19.4221 152.523 19.335C152.735 19.2478 152.899 19.1228 153.017 18.96C153.138 18.7933 153.199 18.5906 153.199 18.352C153.199 17.9922 153.07 17.7175 152.812 17.5281C152.555 17.335 152.229 17.2384 151.835 17.2384H150.494V19.4656ZM164.535 18.3975C164.505 18.0187 164.363 17.7232 164.109 17.5111C163.859 17.299 163.479 17.1929 162.967 17.1929C162.641 17.1929 162.374 17.2327 162.166 17.3122C161.961 17.388 161.81 17.4922 161.711 17.6247C161.613 17.7573 161.562 17.9088 161.558 18.0793C161.55 18.2194 161.575 18.3463 161.632 18.46C161.693 18.5698 161.787 18.6702 161.916 18.7611C162.045 18.8482 162.21 18.9278 162.41 18.9997C162.611 19.0717 162.85 19.1361 163.126 19.1929L164.081 19.3975C164.725 19.5338 165.276 19.7137 165.734 19.9372C166.193 20.1607 166.568 20.424 166.859 20.727C167.151 21.0262 167.365 21.3634 167.501 21.7384C167.641 22.1134 167.713 22.5225 167.717 22.9656C167.713 23.7308 167.522 24.3785 167.143 24.9088C166.764 25.4391 166.223 25.8425 165.518 26.1191C164.818 26.3956 163.975 26.5338 162.99 26.5338C161.979 26.5338 161.096 26.3842 160.342 26.085C159.592 25.7857 159.009 25.3255 158.592 24.7043C158.179 24.0793 157.971 23.28 157.967 22.3066H160.967C160.986 22.6626 161.075 22.9619 161.234 23.2043C161.393 23.4467 161.617 23.6304 161.905 23.7554C162.196 23.8804 162.543 23.9429 162.944 23.9429C163.282 23.9429 163.564 23.9012 163.791 23.8179C164.018 23.7346 164.191 23.6191 164.308 23.4713C164.425 23.3236 164.486 23.155 164.49 22.9656C164.486 22.7876 164.427 22.6323 164.314 22.4997C164.204 22.3634 164.022 22.2422 163.768 22.1361C163.514 22.0262 163.172 21.924 162.74 21.8293L161.581 21.5793C160.55 21.3558 159.738 20.9827 159.143 20.46C158.552 19.9334 158.259 19.2156 158.263 18.3066C158.259 17.5679 158.456 16.9221 158.854 16.3691C159.255 15.8122 159.81 15.3785 160.518 15.0679C161.23 14.7573 162.047 14.602 162.967 14.602C163.907 14.602 164.719 14.7592 165.405 15.0736C166.09 15.388 166.619 15.8312 166.99 16.4031C167.365 16.9713 167.554 17.6361 167.558 18.3975H164.535ZM175.768 14.7611L178.155 22.9656H178.245L180.632 14.7611H184.2L180.359 26.3975H176.041L172.2 14.7611H175.768ZM188.701 26.5566C187.754 26.5566 186.944 26.3691 186.27 25.9941C185.595 25.6153 185.078 25.0887 184.718 24.4145C184.359 23.7365 184.179 22.9505 184.179 22.0566C184.179 21.1626 184.359 20.3785 184.718 19.7043C185.078 19.0262 185.595 18.4997 186.27 18.1247C186.944 17.7459 187.754 17.5566 188.701 17.5566C189.648 17.5566 190.459 17.7459 191.133 18.1247C191.807 18.4997 192.324 19.0262 192.684 19.7043C193.044 20.3785 193.224 21.1626 193.224 22.0566C193.224 22.9505 193.044 23.7365 192.684 24.4145C192.324 25.0887 191.807 25.6153 191.133 25.9941C190.459 26.3691 189.648 26.5566 188.701 26.5566ZM188.724 24.2384C188.989 24.2384 189.218 24.1494 189.412 23.9713C189.605 23.7933 189.754 23.5395 189.86 23.21C189.967 22.8804 190.02 22.4884 190.02 22.0338C190.02 21.5755 189.967 21.1834 189.86 20.8577C189.754 20.5281 189.605 20.2744 189.412 20.0963C189.218 19.9183 188.989 19.8293 188.724 19.8293C188.444 19.8293 188.203 19.9183 188.002 20.0963C187.802 20.2744 187.648 20.5281 187.542 20.8577C187.436 21.1834 187.383 21.5755 187.383 22.0338C187.383 22.4884 187.436 22.8804 187.542 23.21C187.648 23.5395 187.802 23.7933 188.002 23.9713C188.203 24.1494 188.444 24.2384 188.724 24.2384ZM194.737 14.7611H197.873V23.5566C197.877 23.7346 197.928 23.8709 198.027 23.9656C198.129 24.0566 198.275 24.102 198.464 24.102C198.563 24.102 198.642 24.0982 198.703 24.0906C198.763 24.0831 198.813 24.0717 198.85 24.0566L199.305 26.2156C199.176 26.2573 199.021 26.3009 198.839 26.3463C198.657 26.3918 198.381 26.424 198.01 26.4429C196.885 26.4997 196.059 26.3255 195.532 25.9202C195.006 25.5111 194.741 24.8217 194.737 23.852V14.7611ZM205.902 22.5793V17.6702H209.038V26.3975H206.061V24.7384H205.97C205.78 25.2952 205.449 25.7308 204.975 26.0452C204.502 26.3558 203.939 26.5111 203.288 26.5111C202.678 26.5111 202.144 26.3709 201.686 26.0906C201.231 25.8103 200.877 25.424 200.623 24.9316C200.373 24.4391 200.246 23.8747 200.242 23.2384V17.6702H203.379V22.5793C203.383 23.0111 203.492 23.3501 203.708 23.5963C203.928 23.8425 204.235 23.9656 204.629 23.9656C204.89 23.9656 205.116 23.9107 205.305 23.8009C205.498 23.6872 205.646 23.5281 205.748 23.3236C205.854 23.1153 205.905 22.8672 205.902 22.5793ZM210.873 26.3975V17.6702H213.85V19.3293H213.941C214.123 18.7838 214.434 18.352 214.873 18.0338C215.312 17.7156 215.835 17.5566 216.441 17.5566C217.055 17.5566 217.583 17.7194 218.026 18.0452C218.47 18.3672 218.737 18.7952 218.828 19.3293H218.918C219.066 18.7952 219.381 18.3672 219.862 18.0452C220.343 17.7194 220.907 17.5566 221.555 17.5566C222.392 17.5566 223.07 17.8255 223.589 18.3634C224.112 18.9012 224.373 19.6172 224.373 20.5111V26.3975H221.237V21.3066C221.237 20.924 221.14 20.6247 220.947 20.4088C220.754 20.1891 220.494 20.0793 220.168 20.0793C219.847 20.0793 219.591 20.1891 219.401 20.4088C219.216 20.6247 219.123 20.924 219.123 21.3066V26.3975H216.123V21.3066C216.123 20.924 216.026 20.6247 215.833 20.4088C215.64 20.1891 215.381 20.0793 215.055 20.0793C214.839 20.0793 214.653 20.1285 214.498 20.227C214.343 20.3255 214.222 20.4675 214.134 20.6531C214.051 20.835 214.009 21.0528 214.009 21.3066V26.3975H210.873ZM230.342 26.5566C229.41 26.5566 228.607 26.3785 227.933 26.0225C227.262 25.6626 226.745 25.1475 226.382 24.477C226.022 23.8028 225.842 22.9959 225.842 22.0566C225.842 21.155 226.024 20.3672 226.387 19.6929C226.751 19.0187 227.264 18.4941 227.927 18.1191C228.59 17.7441 229.372 17.5566 230.274 17.5566C230.933 17.5566 231.529 17.6588 232.063 17.8634C232.597 18.0679 233.054 18.3653 233.433 18.7554C233.811 19.1418 234.103 19.6115 234.308 20.1645C234.512 20.7175 234.614 21.3406 234.614 22.0338V22.7611H226.819V21.0338H231.728C231.724 20.7838 231.66 20.5641 231.535 20.3747C231.414 20.1816 231.249 20.0319 231.041 19.9259C230.836 19.816 230.603 19.7611 230.342 19.7611C230.088 19.7611 229.855 19.816 229.643 19.9259C229.431 20.0319 229.26 20.1797 229.132 20.3691C229.007 20.5584 228.94 20.78 228.933 21.0338V22.8975C228.933 23.1778 228.991 23.4278 229.109 23.6475C229.226 23.8672 229.395 24.0395 229.614 24.1645C229.834 24.2895 230.099 24.352 230.41 24.352C230.626 24.352 230.823 24.3217 231.001 24.2611C231.183 24.2005 231.338 24.1134 231.467 23.9997C231.596 23.8823 231.69 23.7422 231.751 23.5793H234.614C234.516 24.1853 234.283 24.7119 233.916 25.1588C233.548 25.602 233.061 25.9467 232.455 26.1929C231.853 26.4353 231.149 26.5566 230.342 26.5566ZM244.112 20.5111H241.225C241.21 20.3331 241.148 20.1797 241.038 20.0509C240.928 19.9221 240.786 19.8236 240.612 19.7554C240.441 19.6834 240.252 19.6475 240.043 19.6475C239.774 19.6475 239.543 19.6967 239.35 19.7952C239.157 19.8937 239.062 20.0338 239.066 20.2156C239.062 20.3444 239.117 20.4637 239.231 20.5736C239.348 20.6834 239.574 20.7687 239.907 20.8293L241.68 21.1475C242.574 21.3103 243.238 21.585 243.674 21.9713C244.113 22.3539 244.335 22.8672 244.339 23.5111C244.335 24.1323 244.149 24.6721 243.782 25.1304C243.418 25.585 242.92 25.9372 242.288 26.1872C241.659 26.4334 240.941 26.5566 240.134 26.5566C238.801 26.5566 237.757 26.2838 237.004 25.7384C236.254 25.1929 235.835 24.4732 235.748 23.5793H238.862C238.903 23.8558 239.04 24.0698 239.271 24.2213C239.506 24.3691 239.801 24.4429 240.157 24.4429C240.445 24.4429 240.682 24.3937 240.867 24.2952C241.057 24.1967 241.153 24.0566 241.157 23.8747C241.153 23.7081 241.07 23.5755 240.907 23.477C240.748 23.3785 240.498 23.299 240.157 23.2384L238.612 22.9656C237.721 22.8103 237.055 22.5149 236.612 22.0793C236.168 21.6437 235.949 21.0831 235.952 20.3975C235.949 19.7914 236.108 19.2781 236.43 18.8577C236.756 18.4334 237.22 18.1115 237.822 17.8918C238.428 17.6683 239.146 17.5566 239.975 17.5566C241.237 17.5566 242.231 17.8179 242.958 18.3406C243.689 18.8634 244.074 19.5869 244.112 20.5111Z" fill="#303048"/>
<rect x="311.657" y="11.3973" width="122.945" height="18.411" rx="9.20548" fill="#E6F5F2"/>
<path d="M326.458 18.7466C326.437 18.4862 326.34 18.2831 326.165 18.1373C325.993 17.9914 325.731 17.9185 325.38 17.9185C325.156 17.9185 324.972 17.9459 324.829 18.0005C324.688 18.0526 324.584 18.1242 324.517 18.2154C324.449 18.3065 324.414 18.4107 324.411 18.5279C324.406 18.6242 324.423 18.7115 324.462 18.7896C324.504 18.8651 324.569 18.9341 324.657 18.9966C324.746 19.0565 324.859 19.1112 324.997 19.1607C325.135 19.2102 325.299 19.2545 325.489 19.2935L326.146 19.4341C326.588 19.5279 326.967 19.6516 327.282 19.8052C327.597 19.9589 327.855 20.1399 328.056 20.3482C328.256 20.5539 328.403 20.7857 328.497 21.0435C328.593 21.3013 328.643 21.5826 328.646 21.8873C328.643 22.4133 328.511 22.8586 328.251 23.2232C327.991 23.5878 327.618 23.8651 327.134 24.0552C326.652 24.2453 326.073 24.3404 325.396 24.3404C324.7 24.3404 324.093 24.2375 323.575 24.0318C323.06 23.8261 322.659 23.5097 322.372 23.0826C322.088 22.6529 321.945 22.1034 321.942 21.4341H324.005C324.018 21.6789 324.079 21.8847 324.188 22.0513C324.298 22.218 324.451 22.3443 324.649 22.4302C324.85 22.5162 325.088 22.5591 325.364 22.5591C325.596 22.5591 325.79 22.5305 325.946 22.4732C326.103 22.4159 326.221 22.3365 326.302 22.2349C326.382 22.1334 326.424 22.0175 326.427 21.8873C326.424 21.7649 326.384 21.6581 326.306 21.567C326.23 21.4732 326.105 21.3899 325.931 21.317C325.756 21.2414 325.521 21.1711 325.224 21.106L324.427 20.9341C323.718 20.7805 323.16 20.524 322.751 20.1646C322.345 19.8026 322.143 19.3091 322.146 18.6841C322.143 18.1763 322.278 17.7323 322.552 17.3521C322.828 16.9693 323.209 16.6711 323.696 16.4576C324.186 16.244 324.747 16.1373 325.38 16.1373C326.026 16.1373 326.584 16.2453 327.056 16.4615C327.527 16.6776 327.89 16.9823 328.146 17.3755C328.403 17.7662 328.534 18.2232 328.536 18.7466H326.458ZM331.34 24.3404C330.957 24.3404 330.618 24.2779 330.324 24.1529C330.033 24.0253 329.803 23.8326 329.637 23.5748C329.47 23.317 329.387 22.9888 329.387 22.5904C329.387 22.2623 329.443 21.9823 329.555 21.7505C329.667 21.5162 329.823 21.3248 330.023 21.1763C330.224 21.0279 330.457 20.9146 330.723 20.8365C330.991 20.7584 331.28 20.7076 331.59 20.6841C331.926 20.6581 332.195 20.6269 332.398 20.5904C332.604 20.5513 332.753 20.4979 332.844 20.4302C332.935 20.3599 332.98 20.2675 332.98 20.1529V20.1373C332.98 19.981 332.921 19.8612 332.801 19.7779C332.681 19.6946 332.527 19.6529 332.34 19.6529C332.134 19.6529 331.966 19.6985 331.836 19.7896C331.708 19.8782 331.631 20.0149 331.605 20.1998H329.621C329.647 19.8352 329.763 19.4992 329.969 19.192C330.177 18.8821 330.48 18.6347 330.879 18.4498C331.277 18.2623 331.775 18.1685 332.371 18.1685C332.801 18.1685 333.186 18.2193 333.527 18.3209C333.868 18.4198 334.159 18.5591 334.398 18.7388C334.638 18.9159 334.82 19.1242 334.945 19.3638C335.073 19.6008 335.137 19.8586 335.137 20.1373V24.2466H333.121V23.4029H333.074C332.954 23.6269 332.809 23.8078 332.637 23.9459C332.467 24.0839 332.273 24.1841 332.055 24.2466C331.839 24.3091 331.6 24.3404 331.34 24.3404ZM332.043 22.981C332.207 22.981 332.361 22.9472 332.504 22.8795C332.65 22.8117 332.768 22.7141 332.859 22.5865C332.95 22.4589 332.996 22.3039 332.996 22.1216V21.6216C332.939 21.6451 332.878 21.6672 332.812 21.688C332.75 21.7089 332.682 21.7284 332.609 21.7466C332.539 21.7649 332.464 21.7818 332.383 21.7974C332.305 21.813 332.223 21.8274 332.137 21.8404C331.97 21.8664 331.833 21.9094 331.727 21.9693C331.622 22.0266 331.544 22.0982 331.492 22.1841C331.443 22.2675 331.418 22.3612 331.418 22.4654C331.418 22.6321 331.477 22.7597 331.594 22.8482C331.711 22.9367 331.861 22.981 332.043 22.981ZM342.164 18.2466L340.148 24.2466H337.648L335.633 18.2466H337.898L338.867 22.2154H338.93L339.898 18.2466H342.164ZM345.635 24.356C344.994 24.356 344.442 24.2336 343.978 23.9888C343.517 23.7414 343.162 23.3873 342.912 22.9263C342.665 22.4628 342.541 21.9081 342.541 21.2623C342.541 20.6425 342.666 20.1008 342.916 19.6373C343.166 19.1737 343.519 18.813 343.974 18.5552C344.43 18.2974 344.968 18.1685 345.588 18.1685C346.041 18.1685 346.451 18.2388 346.818 18.3795C347.185 18.5201 347.499 18.7245 347.76 18.9927C348.02 19.2584 348.221 19.5813 348.361 19.9615C348.502 20.3417 348.572 20.7701 348.572 21.2466V21.7466H343.213V20.5591H346.588C346.585 20.3873 346.541 20.2362 346.455 20.106C346.372 19.9732 346.258 19.8703 346.115 19.7974C345.974 19.7219 345.814 19.6841 345.635 19.6841C345.46 19.6841 345.3 19.7219 345.154 19.7974C345.008 19.8703 344.891 19.9719 344.803 20.1021C344.717 20.2323 344.671 20.3847 344.666 20.5591V21.8404C344.666 22.0331 344.706 22.205 344.787 22.356C344.868 22.5071 344.984 22.6255 345.135 22.7115C345.286 22.7974 345.468 22.8404 345.682 22.8404C345.83 22.8404 345.965 22.8196 346.088 22.7779C346.213 22.7362 346.32 22.6763 346.408 22.5982C346.497 22.5175 346.562 22.4211 346.603 22.3091H348.572C348.504 22.7258 348.344 23.0878 348.092 23.3951C347.839 23.6998 347.504 23.9367 347.088 24.106C346.674 24.2727 346.189 24.356 345.635 24.356ZM354.864 25.2466V15.2466H355.505V25.2466H354.864ZM356.255 18.7466C356.234 18.4862 356.136 18.2831 355.962 18.1373C355.79 17.9914 355.528 17.9185 355.177 17.9185C354.953 17.9185 354.769 17.9459 354.626 18.0005C354.485 18.0526 354.381 18.1242 354.313 18.2154C354.246 18.3065 354.21 18.4107 354.208 18.5279C354.203 18.6242 354.22 18.7115 354.259 18.7896C354.3 18.8651 354.365 18.9341 354.454 18.9966C354.542 19.0565 354.656 19.1112 354.794 19.1607C354.932 19.2102 355.096 19.2545 355.286 19.2935L355.942 19.4341C356.385 19.5279 356.764 19.6516 357.079 19.8052C357.394 19.9589 357.652 20.1399 357.852 20.3482C358.053 20.5539 358.2 20.7857 358.294 21.0435C358.39 21.3013 358.44 21.5826 358.442 21.8873C358.44 22.4133 358.308 22.8586 358.048 23.2232C357.787 23.5878 357.415 23.8651 356.93 24.0552C356.449 24.2453 355.869 24.3404 355.192 24.3404C354.497 24.3404 353.89 24.2375 353.372 24.0318C352.856 23.8261 352.455 23.5097 352.169 23.0826C351.885 22.6529 351.742 22.1034 351.739 21.4341H353.802C353.815 21.6789 353.876 21.8847 353.985 22.0513C354.095 22.218 354.248 22.3443 354.446 22.4302C354.647 22.5162 354.885 22.5591 355.161 22.5591C355.393 22.5591 355.587 22.5305 355.743 22.4732C355.899 22.4159 356.018 22.3365 356.098 22.2349C356.179 22.1334 356.221 22.0175 356.223 21.8873C356.221 21.7649 356.18 21.6581 356.102 21.567C356.027 21.4732 355.902 21.3899 355.727 21.317C355.553 21.2414 355.317 21.1711 355.02 21.106L354.223 20.9341C353.515 20.7805 352.957 20.524 352.548 20.1646C352.141 19.8026 351.94 19.3091 351.942 18.6841C351.94 18.1763 352.075 17.7323 352.348 17.3521C352.624 16.9693 353.006 16.6711 353.493 16.4576C353.983 16.244 354.544 16.1373 355.177 16.1373C355.822 16.1373 356.381 16.2453 356.852 16.4615C357.324 16.6776 357.687 16.9823 357.942 17.3755C358.2 17.7662 358.33 18.2232 358.333 18.7466H356.255ZM362.574 24.356C361.944 24.356 361.384 24.2479 360.894 24.0318C360.407 23.813 360.025 23.5123 359.746 23.1295C359.467 22.7466 359.327 22.3065 359.324 21.8091H361.511C361.514 21.9628 361.561 22.1008 361.652 22.2232C361.746 22.343 361.873 22.4367 362.035 22.5045C362.196 22.5722 362.381 22.606 362.59 22.606C362.79 22.606 362.967 22.5709 363.121 22.5005C363.275 22.4276 363.394 22.3274 363.48 22.1998C363.566 22.0722 363.608 21.9263 363.605 21.7623C363.608 21.6008 363.558 21.4576 363.457 21.3326C363.358 21.2076 363.219 21.1099 363.039 21.0396C362.859 20.9693 362.652 20.9341 362.418 20.9341H361.605V19.4341H362.418C362.634 19.4341 362.824 19.399 362.988 19.3287C363.155 19.2584 363.284 19.1607 363.375 19.0357C363.469 18.9107 363.514 18.7675 363.511 18.606C363.514 18.4498 363.476 18.3117 363.398 18.192C363.32 18.0722 363.211 17.9784 363.07 17.9107C362.932 17.843 362.772 17.8091 362.59 17.8091C362.392 17.8091 362.215 17.8443 362.058 17.9146C361.905 17.9849 361.784 18.0826 361.695 18.2076C361.607 18.3326 361.561 18.4758 361.558 18.6373H359.48C359.483 18.1477 359.617 17.7154 359.883 17.3404C360.151 16.9654 360.518 16.6711 360.984 16.4576C361.45 16.244 361.985 16.1373 362.59 16.1373C363.181 16.1373 363.703 16.2375 364.156 16.438C364.612 16.6386 364.967 16.9146 365.222 17.2662C365.48 17.6151 365.608 18.0149 365.605 18.4654C365.61 18.9133 365.457 19.2805 365.144 19.567C364.834 19.8534 364.441 20.0227 363.965 20.0748V20.1373C364.61 20.2076 365.096 20.4055 365.422 20.731C365.747 21.0539 365.907 21.4602 365.902 21.9498C365.905 22.4185 365.764 22.8339 365.48 23.1959C365.199 23.5578 364.807 23.8417 364.304 24.0474C363.804 24.2532 363.228 24.356 362.574 24.356ZM366.959 22.9966V21.3091L370.177 16.2466H371.709V18.4966H370.834L369.099 21.2466V21.3091H373.849V22.9966H366.959ZM370.849 24.2466V22.481L370.896 21.7466V16.2466H372.927V24.2466H370.849ZM379.566 17.1216L380.3 17.4029L377.222 23.3404L376.519 23.0279L379.566 17.1216ZM378.41 24.4498C377.683 24.4472 377.056 24.2792 376.527 23.9459C375.998 23.6125 375.591 23.1321 375.304 22.5045C375.018 21.8769 374.876 21.1242 374.879 20.2466C374.881 19.3664 375.024 18.619 375.308 18.0045C375.595 17.3899 376.001 16.9224 376.527 16.6021C377.056 16.2818 377.683 16.1216 378.41 16.1216C379.136 16.1216 379.764 16.2831 380.293 16.606C380.821 16.9263 381.229 17.3938 381.515 18.0084C381.802 18.6229 381.944 19.369 381.941 20.2466C381.941 21.1295 381.798 21.8847 381.511 22.5123C381.225 23.1399 380.817 23.6203 380.289 23.9537C379.763 24.2844 379.136 24.4498 378.41 24.4498ZM378.41 22.6841C378.785 22.6841 379.092 22.4888 379.332 22.0982C379.574 21.705 379.694 21.0878 379.691 20.2466C379.691 19.6972 379.636 19.2479 379.527 18.899C379.418 18.55 379.267 18.2922 379.074 18.1255C378.881 17.9563 378.66 17.8716 378.41 17.8716C378.035 17.8716 377.729 18.0617 377.492 18.442C377.255 18.8222 377.134 19.4237 377.129 20.2466C377.126 20.8065 377.179 21.2675 377.289 21.6295C377.398 21.9888 377.549 22.2545 377.742 22.4263C377.937 22.5982 378.16 22.6841 378.41 22.6841ZM387.063 15.8716L384.485 25.4498H382.657L385.235 15.8716H387.063ZM387.839 24.2466V18.2466H389.886V19.3873H389.949C390.074 19.0123 390.287 18.7154 390.589 18.4966C390.892 18.2779 391.251 18.1685 391.668 18.1685C392.089 18.1685 392.453 18.2805 392.757 18.5045C393.062 18.7258 393.246 19.0201 393.308 19.3873H393.371C393.472 19.0201 393.688 18.7258 394.019 18.5045C394.35 18.2805 394.738 18.1685 395.183 18.1685C395.759 18.1685 396.225 18.3534 396.582 18.7232C396.941 19.093 397.121 19.5852 397.121 20.1998V24.2466H394.964V20.7466C394.964 20.4836 394.898 20.2779 394.765 20.1295C394.632 19.9784 394.454 19.9029 394.23 19.9029C394.009 19.9029 393.833 19.9784 393.703 20.1295C393.575 20.2779 393.511 20.4836 393.511 20.7466V24.2466H391.449V20.7466C391.449 20.4836 391.382 20.2779 391.25 20.1295C391.117 19.9784 390.938 19.9029 390.714 19.9029C390.566 19.9029 390.438 19.9367 390.332 20.0045C390.225 20.0722 390.142 20.1698 390.082 20.2974C390.024 20.4224 389.996 20.5722 389.996 20.7466V24.2466H387.839ZM401.24 24.356C400.589 24.356 400.031 24.2271 399.568 23.9693C399.104 23.7089 398.749 23.3469 398.502 22.8834C398.254 22.4172 398.13 21.8769 398.13 21.2623C398.13 20.6477 398.254 20.1086 398.502 19.6451C398.749 19.1789 399.104 18.817 399.568 18.5591C400.031 18.2987 400.589 18.1685 401.24 18.1685C401.891 18.1685 402.448 18.2987 402.912 18.5591C403.375 18.817 403.731 19.1789 403.978 19.6451C404.225 20.1086 404.349 20.6477 404.349 21.2623C404.349 21.8769 404.225 22.4172 403.978 22.8834C403.731 23.3469 403.375 23.7089 402.912 23.9693C402.448 24.2271 401.891 24.356 401.24 24.356ZM401.255 22.7623C401.438 22.7623 401.595 22.7011 401.728 22.5787C401.861 22.4563 401.964 22.2818 402.037 22.0552C402.11 21.8287 402.146 21.5591 402.146 21.2466C402.146 20.9315 402.11 20.662 402.037 20.438C401.964 20.2115 401.861 20.037 401.728 19.9146C401.595 19.7922 401.438 19.731 401.255 19.731C401.063 19.731 400.897 19.7922 400.759 19.9146C400.621 20.037 400.516 20.2115 400.443 20.438C400.37 20.662 400.334 20.9315 400.334 21.2466C400.334 21.5591 400.37 21.8287 400.443 22.0552C400.516 22.2818 400.621 22.4563 400.759 22.5787C400.897 22.7011 401.063 22.7623 401.255 22.7623ZM407.545 20.8716V24.2466H405.389V18.2466H407.436V19.3873H407.499C407.629 19.0071 407.858 18.7089 408.186 18.4927C408.517 18.2766 408.902 18.1685 409.342 18.1685C409.767 18.1685 410.135 18.2662 410.448 18.4615C410.763 18.6542 411.006 18.9198 411.178 19.2584C411.353 19.5969 411.439 19.9836 411.436 20.4185V24.2466H409.28V20.8716C409.282 20.5748 409.207 20.3417 409.053 20.1724C408.902 20.0032 408.691 19.9185 408.42 19.9185C408.243 19.9185 408.088 19.9576 407.956 20.0357C407.825 20.1112 407.725 20.2206 407.655 20.3638C407.584 20.5045 407.548 20.6737 407.545 20.8716ZM416.244 18.2466V19.8091H412.291V18.2466H416.244ZM413.056 16.8091H415.212V22.317C415.212 22.4003 415.227 22.4706 415.255 22.5279C415.284 22.5826 415.328 22.6242 415.388 22.6529C415.448 22.6789 415.525 22.692 415.619 22.692C415.684 22.692 415.759 22.6841 415.845 22.6685C415.934 22.6529 415.999 22.6399 416.041 22.6295L416.353 24.1451C416.257 24.1737 416.119 24.2089 415.939 24.2505C415.762 24.2922 415.551 24.3196 415.306 24.3326C414.811 24.3586 414.396 24.3078 414.06 24.1802C413.724 24.05 413.471 23.8456 413.302 23.567C413.133 23.2883 413.051 22.9394 413.056 22.5201V16.8091ZM419.574 20.8716V24.2466H417.417V16.2466H419.496V19.3873H419.558C419.693 19.0045 419.919 18.7063 420.234 18.4927C420.549 18.2766 420.928 18.1685 421.371 18.1685C421.795 18.1685 422.164 18.2649 422.476 18.4576C422.791 18.6503 423.035 18.9159 423.206 19.2545C423.381 19.593 423.467 19.981 423.464 20.4185V24.2466H421.308V20.8716C421.311 20.5748 421.236 20.3417 421.085 20.1724C420.937 20.0032 420.725 19.9185 420.449 19.9185C420.274 19.9185 420.121 19.9576 419.988 20.0357C419.858 20.1112 419.756 20.2206 419.683 20.3638C419.613 20.5045 419.576 20.6737 419.574 20.8716Z" fill="#88CEC0"/>
<g opacity="0.8">
<path d="M24.5091 67.3843C23.9416 67.2207 23.3507 67.5512 23.1872 68.1187L18.9141 83.0745C18.7505 83.642 19.081 84.2329 19.6485 84.3965C20.216 84.56 20.8069 84.2295 20.9705 83.662L25.2436 68.7063C25.4072 68.1387 25.0767 67.5479 24.5091 67.3843ZM27.1998 71.3936C26.7826 71.8109 26.7826 72.4886 27.1998 72.9059L30.181 75.8904L27.1965 78.8748C26.7792 79.2921 26.7792 79.9698 27.1965 80.3871C27.6138 80.8044 28.2915 80.8044 28.7088 80.3871L32.4477 76.6482C32.865 76.2309 32.865 75.5532 32.4477 75.1359L28.7088 71.397C28.2915 70.9797 27.6138 70.9797 27.1965 71.397L27.1998 71.3936ZM16.9612 71.3936C16.5439 70.9763 15.8662 70.9763 15.4489 71.3936L11.7099 75.1326C11.2926 75.5499 11.2926 76.2275 11.7099 76.6448L15.4489 80.3838C15.8662 80.8011 16.5439 80.8011 16.9612 80.3838C17.3784 79.9665 17.3784 79.2888 16.9612 78.8715L13.9767 75.8904L16.9612 72.9059C17.3784 72.4886 17.3784 71.8109 16.9612 71.3936Z" fill="#303048"/>
<path d="M46.6669 74.5012H45.3373C45.2862 74.2171 45.191 73.9671 45.0518 73.7512C44.9126 73.5353 44.7421 73.352 44.5404 73.2015C44.3387 73.0509 44.1129 72.9373 43.8629 72.8606C43.6157 72.7838 43.3529 72.7455 43.0745 72.7455C42.5717 72.7455 42.1214 72.8719 41.7237 73.1248C41.3288 73.3776 41.0163 73.7483 40.7862 74.237C40.5589 74.7256 40.4453 75.3222 40.4453 76.0267C40.4453 76.737 40.5589 77.3364 40.7862 77.825C41.0163 78.3137 41.3302 78.683 41.7279 78.933C42.1257 79.183 42.5731 79.308 43.0703 79.308C43.3458 79.308 43.6072 79.2711 43.8544 79.1972C44.1044 79.1205 44.3302 79.0083 44.5319 78.8606C44.7336 78.7128 44.9041 78.5324 45.0433 78.3194C45.1853 78.1034 45.2833 77.8563 45.3373 77.5779L46.6669 77.5821C46.5958 78.0111 46.4581 78.406 46.2535 78.7668C46.0518 79.1248 45.7919 79.4344 45.4737 79.6958C45.1583 79.9543 44.7975 80.1546 44.3913 80.2966C43.985 80.4387 43.5419 80.5097 43.0617 80.5097C42.3061 80.5097 41.6328 80.3307 41.0419 79.9728C40.451 79.612 39.985 79.0963 39.6441 78.4259C39.3061 77.7554 39.137 76.9557 39.137 76.0267C39.137 75.0949 39.3075 74.2952 39.6484 73.6276C39.9893 72.9571 40.4552 72.4429 41.0461 72.085C41.637 71.7242 42.3089 71.5438 43.0617 71.5438C43.5248 71.5438 43.9566 71.6106 44.3572 71.7441C44.7606 71.8748 45.1228 72.0679 45.4438 72.3236C45.7649 72.5765 46.0305 72.8861 46.2407 73.2526C46.451 73.6162 46.593 74.0324 46.6669 74.5012ZM56.0635 76.0267C56.0635 76.9586 55.893 77.7597 55.5521 78.4302C55.2112 79.0978 54.7439 79.612 54.1501 79.9728C53.5592 80.3307 52.8873 80.5097 52.1345 80.5097C51.3788 80.5097 50.7041 80.3307 50.1103 79.9728C49.5194 79.612 49.0535 79.0963 48.7126 78.4259C48.3717 77.7554 48.2012 76.9557 48.2012 76.0267C48.2012 75.0949 48.3717 74.2952 48.7126 73.6276C49.0535 72.9571 49.5194 72.4429 50.1103 72.085C50.7041 71.7242 51.3788 71.5438 52.1345 71.5438C52.8873 71.5438 53.5592 71.7242 54.1501 72.085C54.7439 72.4429 55.2112 72.9571 55.5521 73.6276C55.893 74.2952 56.0635 75.0949 56.0635 76.0267ZM54.7595 76.0267C54.7595 75.3165 54.6444 74.7185 54.4143 74.2327C54.187 73.7441 53.8745 73.3748 53.4768 73.1248C53.0819 72.8719 52.6345 72.7455 52.1345 72.7455C51.6316 72.7455 51.1828 72.8719 50.7879 73.1248C50.393 73.3748 50.0805 73.7441 49.8504 74.2327C49.6231 74.7185 49.5095 75.3165 49.5095 76.0267C49.5095 76.737 49.6231 77.3364 49.8504 77.825C50.0805 78.3108 50.393 78.6802 50.7879 78.933C51.1828 79.183 51.6316 79.308 52.1345 79.308C52.6345 79.308 53.0819 79.183 53.4768 78.933C53.8745 78.6802 54.187 78.3108 54.4143 77.825C54.6444 77.3364 54.7595 76.737 54.7595 76.0267ZM60.7704 80.3904H57.9452V71.6631H60.8599C61.715 71.6631 62.4494 71.8378 63.0631 72.1873C63.6767 72.5338 64.1469 73.0324 64.4736 73.683C64.8031 74.3307 64.9679 75.1077 64.9679 76.014C64.9679 76.9231 64.8017 77.7043 64.4693 78.3577C64.1398 79.0111 63.6625 79.514 63.0375 79.8662C62.4125 80.2157 61.6568 80.3904 60.7704 80.3904ZM59.2619 79.2398H60.698C61.3628 79.2398 61.9153 79.1148 62.3557 78.8648C62.796 78.612 63.1256 78.2469 63.3443 77.7696C63.5631 77.2895 63.6724 76.7043 63.6724 76.014C63.6724 75.3293 63.5631 74.7483 63.3443 74.2711C63.1284 73.7938 62.8059 73.4316 62.377 73.1844C61.948 72.9373 61.4153 72.8137 60.779 72.8137H59.2619V79.2398ZM66.8453 80.3904V71.6631H72.3169V72.7966H68.1621V75.4557H72.0314V76.585H68.1621V79.2569H72.368V80.3904H66.8453Z" fill="#303048"/>
<path d="M92.2653 69.0521C92.2653 68.5987 92.4454 68.1639 92.766 67.8433C93.0866 67.5226 93.5214 67.3425 93.9748 67.3425C94.4283 67.3425 94.8631 67.5226 95.1837 67.8433C95.5043 68.1639 95.6844 68.5987 95.6844 69.0521C95.6844 69.5055 95.5043 69.9404 95.1837 70.261C94.8631 70.5816 94.4283 70.7617 93.9748 70.7617C93.5214 70.7617 93.0866 70.5816 92.766 70.261C92.4454 69.9404 92.2653 69.5055 92.2653 69.0521ZM90.5557 74.1809C90.5557 73.5505 91.065 73.0412 91.6954 73.0412H93.9748C94.6053 73.0412 95.1146 73.5505 95.1146 74.1809V82.159H96.2543C96.8847 82.159 97.394 82.6683 97.394 83.2987C97.394 83.9291 96.8847 84.4384 96.2543 84.4384H91.6954C91.065 84.4384 90.5557 83.9291 90.5557 83.2987C90.5557 82.6683 91.065 82.159 91.6954 82.159H92.8351V75.3206H91.6954C91.065 75.3206 90.5557 74.8113 90.5557 74.1809Z" fill="#303048"/>
<path d="M103.621 72.7968V71.6632H108.027V72.7968H103.621ZM103.621 80.3905V79.257H108.027V80.3905H103.621ZM106.485 71.6632V80.3905H105.164V71.6632H106.485ZM116.797 71.6632V80.3905H115.586L111.15 73.9899H111.069V80.3905H109.753V71.6632H110.971L115.412 78.0723H115.493V71.6632H116.797ZM118.957 80.3905V71.6632H124.369V72.7968H120.274V75.4558H123.982V76.5851H120.274V80.3905H118.957ZM133.81 76.0269C133.81 76.9587 133.639 77.7598 133.298 78.4303C132.957 79.0979 132.49 79.6121 131.896 79.9729C131.305 80.3308 130.633 80.5098 129.881 80.5098C129.125 80.5098 128.45 80.3308 127.856 79.9729C127.266 79.6121 126.8 79.0965 126.459 78.426C126.118 77.7556 125.947 76.9558 125.947 76.0269C125.947 75.095 126.118 74.2953 126.459 73.6277C126.8 72.9573 127.266 72.4431 127.856 72.0851C128.45 71.7243 129.125 71.5439 129.881 71.5439C130.633 71.5439 131.305 71.7243 131.896 72.0851C132.49 72.4431 132.957 72.9573 133.298 73.6277C133.639 74.2953 133.81 75.095 133.81 76.0269ZM132.506 76.0269C132.506 75.3166 132.391 74.7186 132.16 74.2328C131.933 73.7442 131.621 73.3749 131.223 73.1249C130.828 72.872 130.381 72.7456 129.881 72.7456C129.378 72.7456 128.929 72.872 128.534 73.1249C128.139 73.3749 127.827 73.7442 127.597 74.2328C127.369 74.7186 127.256 75.3166 127.256 76.0269C127.256 76.7371 127.369 77.3365 127.597 77.8252C127.827 78.311 128.139 78.6803 128.534 78.9331C128.929 79.1831 129.378 79.3081 129.881 79.3081C130.381 79.3081 130.828 79.1831 131.223 78.9331C131.621 78.6803 131.933 78.311 132.16 77.8252C132.391 77.3365 132.506 76.7371 132.506 76.0269Z" fill="#303048"/>
<path d="M159.667 67.3425C159.076 67.3425 158.599 67.82 158.599 68.411V69.0521C156.161 69.5463 154.325 71.7033 154.325 74.2877V74.9155C154.325 76.4848 153.747 78.0008 152.705 79.1761L152.458 79.4533C152.178 79.7671 152.111 80.2179 152.281 80.6019C152.452 80.9859 152.836 81.233 153.256 81.233H166.078C166.499 81.233 166.88 80.9859 167.053 80.6019C167.227 80.2179 167.157 79.7671 166.876 79.4533L166.629 79.1761C165.587 78.0008 165.01 76.4882 165.01 74.9155V74.2877C165.01 71.7033 163.173 69.5463 160.736 69.0521V68.411C160.736 67.82 160.258 67.3425 159.667 67.3425ZM161.18 83.814C161.581 83.4134 161.804 82.8691 161.804 82.3015H159.667H157.53C157.53 82.8691 157.754 83.4134 158.155 83.814C158.555 84.2147 159.1 84.4384 159.667 84.4384C160.235 84.4384 160.779 84.2147 161.18 83.814Z" fill="#303048"/>
<path d="M178.565 73.9558C178.519 73.5524 178.332 73.2399 178.002 73.0183C177.673 72.7939 177.258 72.6817 176.758 72.6817C176.4 72.6817 176.091 72.7385 175.829 72.8522C175.568 72.9629 175.365 73.1164 175.22 73.3124C175.078 73.5056 175.007 73.7257 175.007 73.9729C175.007 74.1803 175.055 74.3593 175.152 74.5098C175.251 74.6604 175.38 74.7868 175.539 74.8891C175.701 74.9885 175.875 75.0723 176.059 75.1405C176.244 75.2058 176.421 75.2598 176.592 75.3024L177.444 75.524C177.723 75.5922 178.008 75.6845 178.301 75.801C178.593 75.9175 178.865 76.0709 179.115 76.2612C179.365 76.4516 179.566 76.6874 179.72 76.9686C179.876 77.2499 179.954 77.5865 179.954 77.9786C179.954 78.4729 179.826 78.9118 179.571 79.2953C179.318 79.6789 178.95 79.9814 178.467 80.203C177.987 80.4246 177.406 80.5354 176.724 80.5354C176.071 80.5354 175.505 80.4317 175.028 80.2243C174.551 80.0169 174.177 79.7229 173.907 79.3422C173.637 78.9587 173.488 78.5041 173.46 77.9786H174.781C174.806 78.2939 174.909 78.5567 175.088 78.7669C175.269 78.9743 175.501 79.1291 175.782 79.2314C176.066 79.3308 176.377 79.3806 176.716 79.3806C177.088 79.3806 177.419 79.3223 177.708 79.2058C178.001 79.0865 178.231 78.9218 178.399 78.7115C178.566 78.4985 178.65 78.2499 178.65 77.9658C178.65 77.7073 178.576 77.4956 178.429 77.3308C178.284 77.1661 178.086 77.0297 177.836 76.9218C177.589 76.8138 177.309 76.7186 176.997 76.6362L175.966 76.355C175.267 76.1647 174.713 75.8848 174.304 75.5155C173.897 75.1462 173.694 74.6575 173.694 74.0496C173.694 73.5468 173.831 73.1078 174.103 72.7328C174.376 72.3578 174.745 72.0666 175.211 71.8593C175.677 71.649 176.203 71.5439 176.788 71.5439C177.379 71.5439 177.9 71.6476 178.352 71.855C178.806 72.0624 179.164 72.3479 179.426 72.7115C179.687 73.0723 179.823 73.4871 179.835 73.9558H178.565ZM187.38 71.6632H188.701V77.4033C188.701 78.0141 188.557 78.5553 188.27 79.0269C187.984 79.4956 187.58 79.8649 187.06 80.1348C186.54 80.4019 185.931 80.5354 185.232 80.5354C184.536 80.5354 183.928 80.4019 183.408 80.1348C182.888 79.8649 182.485 79.4956 182.198 79.0269C181.911 78.5553 181.768 78.0141 181.768 77.4033V71.6632H183.084V77.2968C183.084 77.6916 183.171 78.0425 183.344 78.3493C183.52 78.6561 183.769 78.8976 184.09 79.0737C184.411 79.247 184.792 79.3337 185.232 79.3337C185.675 79.3337 186.057 79.247 186.378 79.0737C186.702 78.8976 186.949 78.6561 187.12 78.3493C187.293 78.0425 187.38 77.6916 187.38 77.2968V71.6632ZM190.855 80.3905V71.6632H194.051C194.671 71.6632 195.183 71.7655 195.59 71.97C195.996 72.1718 196.3 72.4459 196.502 72.7925C196.703 73.1362 196.804 73.524 196.804 73.9558C196.804 74.3195 196.737 74.6263 196.604 74.8763C196.47 75.1235 196.291 75.3223 196.067 75.4729C195.845 75.6206 195.601 75.7286 195.334 75.7968V75.882C195.624 75.8962 195.906 75.9899 196.182 76.1632C196.46 76.3337 196.691 76.5766 196.872 76.8919C197.054 77.2073 197.145 77.5908 197.145 78.0425C197.145 78.4885 197.04 78.8891 196.83 79.2442C196.622 79.5965 196.301 79.8763 195.867 80.0837C195.432 80.2882 194.877 80.3905 194.2 80.3905H190.855ZM192.172 79.2612H194.073C194.703 79.2612 195.155 79.1391 195.428 78.8948C195.7 78.6504 195.837 78.345 195.837 77.9786C195.837 77.703 195.767 77.4502 195.628 77.22C195.489 76.9899 195.29 76.8067 195.031 76.6703C194.776 76.534 194.472 76.4658 194.12 76.4658H192.172V79.2612ZM192.172 75.4388H193.936C194.232 75.4388 194.497 75.382 194.733 75.2683C194.972 75.1547 195.161 74.9956 195.3 74.7911C195.442 74.5837 195.513 74.3394 195.513 74.0581C195.513 73.6973 195.387 73.3948 195.134 73.1504C194.881 72.9061 194.493 72.784 193.97 72.784H192.172V75.4388ZM203.707 73.9558C203.661 73.5524 203.474 73.2399 203.144 73.0183C202.815 72.7939 202.4 72.6817 201.9 72.6817C201.542 72.6817 201.232 72.7385 200.971 72.8522C200.71 72.9629 200.507 73.1164 200.362 73.3124C200.22 73.5056 200.149 73.7257 200.149 73.9729C200.149 74.1803 200.197 74.3593 200.293 74.5098C200.393 74.6604 200.522 74.7868 200.681 74.8891C200.843 74.9885 201.016 75.0723 201.201 75.1405C201.386 75.2058 201.563 75.2598 201.734 75.3024L202.586 75.524C202.864 75.5922 203.15 75.6845 203.443 75.801C203.735 75.9175 204.007 76.0709 204.257 76.2612C204.507 76.4516 204.708 76.6874 204.862 76.9686C205.018 77.2499 205.096 77.5865 205.096 77.9786C205.096 78.4729 204.968 78.9118 204.712 79.2953C204.46 79.6789 204.092 79.9814 203.609 80.203C203.129 80.4246 202.548 80.5354 201.866 80.5354C201.212 80.5354 200.647 80.4317 200.17 80.2243C199.693 80.0169 199.319 79.7229 199.049 79.3422C198.779 78.9587 198.63 78.5041 198.602 77.9786H199.923C199.948 78.2939 200.051 78.5567 200.23 78.7669C200.411 78.9743 200.643 79.1291 200.924 79.2314C201.208 79.3308 201.519 79.3806 201.857 79.3806C202.23 79.3806 202.561 79.3223 202.85 79.2058C203.143 79.0865 203.373 78.9218 203.541 78.7115C203.708 78.4985 203.792 78.2499 203.792 77.9658C203.792 77.7073 203.718 77.4956 203.57 77.3308C203.426 77.1661 203.228 77.0297 202.978 76.9218C202.731 76.8138 202.451 76.7186 202.139 76.6362L201.107 76.355C200.409 76.1647 199.855 75.8848 199.445 75.5155C199.039 75.1462 198.836 74.6575 198.836 74.0496C198.836 73.5468 198.972 73.1078 199.245 72.7328C199.518 72.3578 199.887 72.0666 200.353 71.8593C200.819 71.649 201.345 71.5439 201.93 71.5439C202.521 71.5439 203.042 71.6476 203.494 71.855C203.948 72.0624 204.306 72.3479 204.568 72.7115C204.829 73.0723 204.965 73.4871 204.977 73.9558H203.707ZM214.158 74.5013H212.829C212.777 74.2172 212.682 73.9672 212.543 73.7513C212.404 73.5354 212.233 73.3522 212.032 73.2016C211.83 73.051 211.604 72.9374 211.354 72.8607C211.107 72.784 210.844 72.7456 210.566 72.7456C210.063 72.7456 209.613 72.872 209.215 73.1249C208.82 73.3777 208.508 73.7485 208.277 74.2371C208.05 74.7257 207.937 75.3223 207.937 76.0269C207.937 76.7371 208.05 77.3365 208.277 77.8252C208.508 78.3138 208.821 78.6831 209.219 78.9331C209.617 79.1831 210.064 79.3081 210.562 79.3081C210.837 79.3081 211.098 79.2712 211.346 79.1973C211.596 79.1206 211.821 79.0084 212.023 78.8607C212.225 78.7129 212.395 78.5325 212.535 78.3195C212.677 78.1036 212.775 77.8564 212.829 77.578L214.158 77.5823C214.087 78.0112 213.949 78.4061 213.745 78.7669C213.543 79.1249 213.283 79.4345 212.965 79.6959C212.65 79.9544 212.289 80.1547 211.883 80.2968C211.476 80.4388 211.033 80.5098 210.553 80.5098C209.797 80.5098 209.124 80.3308 208.533 79.9729C207.942 79.6121 207.476 79.0965 207.135 78.426C206.797 77.7556 206.628 76.9558 206.628 76.0269C206.628 75.095 206.799 74.2953 207.14 73.6277C207.481 72.9573 207.946 72.4431 208.537 72.0851C209.128 71.7243 209.8 71.5439 210.553 71.5439C211.016 71.5439 211.448 71.6107 211.848 71.7442C212.252 71.8749 212.614 72.0681 212.935 72.3237C213.256 72.5766 213.522 72.8862 213.732 73.2527C213.942 73.6164 214.084 74.0325 214.158 74.5013ZM215.974 80.3905V71.6632H219.085C219.761 71.6632 220.322 71.7797 220.768 72.0127C221.217 72.2456 221.552 72.5681 221.773 72.98C221.995 73.3891 222.106 73.8621 222.106 74.399C222.106 74.9331 221.994 75.4033 221.769 75.8095C221.548 76.2129 221.212 76.5269 220.764 76.7513C220.317 76.9757 219.756 77.0879 219.08 77.0879H216.724V75.9544H218.961C219.387 75.9544 219.734 75.8933 220.001 75.7712C220.271 75.649 220.468 75.4715 220.593 75.2385C220.718 75.0056 220.781 74.7257 220.781 74.399C220.781 74.0695 220.717 73.784 220.589 73.5425C220.464 73.301 220.266 73.1164 219.996 72.9885C219.729 72.8578 219.379 72.7925 218.944 72.7925H217.291V80.3905H215.974ZM220.282 76.453L222.438 80.3905H220.938L218.825 76.453H220.282ZM223.518 72.7968V71.6632H227.924V72.7968H223.518ZM223.518 80.3905V79.257H227.924V80.3905H223.518ZM226.381 71.6632V80.3905H225.06V71.6632H226.381ZM229.649 80.3905V71.6632H232.845C233.464 71.6632 233.977 71.7655 234.383 71.97C234.79 72.1718 235.094 72.4459 235.295 72.7925C235.497 73.1362 235.598 73.524 235.598 73.9558C235.598 74.3195 235.531 74.6263 235.398 74.8763C235.264 75.1235 235.085 75.3223 234.861 75.4729C234.639 75.6206 234.395 75.7286 234.128 75.7968V75.882C234.418 75.8962 234.7 75.9899 234.976 76.1632C235.254 76.3337 235.484 76.5766 235.666 76.8919C235.848 77.2073 235.939 77.5908 235.939 78.0425C235.939 78.4885 235.834 78.8891 235.623 79.2442C235.416 79.5965 235.095 79.8763 234.66 80.0837C234.226 80.2882 233.67 80.3905 232.994 80.3905H229.649ZM230.966 79.2612H232.866C233.497 79.2612 233.949 79.1391 234.222 78.8948C234.494 78.6504 234.631 78.345 234.631 77.9786C234.631 77.703 234.561 77.4502 234.422 77.22C234.283 76.9899 234.084 76.8067 233.825 76.6703C233.57 76.534 233.266 76.4658 232.913 76.4658H230.966V79.2612ZM230.966 75.4388H232.73C233.025 75.4388 233.291 75.382 233.527 75.2683C233.766 75.1547 233.954 74.9956 234.094 74.7911C234.236 74.5837 234.307 74.3394 234.307 74.0581C234.307 73.6973 234.18 73.3948 233.927 73.1504C233.675 72.9061 233.287 72.784 232.764 72.784H230.966V75.4388ZM237.741 80.3905V71.6632H243.212V72.7968H239.057V75.4558H242.927V76.5851H239.057V79.257H243.263V80.3905H237.741Z" fill="#303048"/>
</g>
<mask id="path-11-inside-1_726_6836" fill="white">
<path d="M0 104.384H445.919V137.151C445.919 141.085 442.729 144.274 438.795 144.274H7.12328C3.18919 144.274 0 141.085 0 137.151V104.384Z"/>
</mask>
<path d="M0 104.384H445.919V137.151C445.919 141.085 442.729 144.274 438.795 144.274H7.12328C3.18919 144.274 0 141.085 0 137.151V104.384Z" fill="url(#paint0_linear_726_6836)"/>
<g clip-path="url(#clip0_726_6836)">
<path d="M12.8212 128.51C12.6323 128.51 12.4511 128.585 12.3175 128.719C12.1839 128.852 12.1089 129.033 12.1089 129.222V130.291C12.1089 130.338 12.1276 130.383 12.161 130.417C12.1944 130.45 12.2397 130.469 12.287 130.469H14.7801C14.8274 130.469 14.8727 130.45 14.906 130.417C14.9394 130.383 14.9582 130.338 14.9582 130.291V129.222C14.9582 129.033 14.8832 128.852 14.7496 128.719C14.616 128.585 14.4348 128.51 14.2459 128.51H12.8212Z" fill="#88CEC0"/>
<path d="M17.0956 126.373C16.9067 126.373 16.7255 126.449 16.5919 126.582C16.4584 126.716 16.3833 126.897 16.3833 127.086V130.291C16.3833 130.339 16.4021 130.384 16.4355 130.417C16.4689 130.451 16.5142 130.469 16.5614 130.469H19.0545C19.1018 130.469 19.1471 130.451 19.1805 130.417C19.2139 130.384 19.2326 130.339 19.2326 130.291V127.086C19.2326 126.897 19.1576 126.716 19.024 126.582C18.8904 126.449 18.7092 126.373 18.5203 126.373H17.0956Z" fill="#88CEC0"/>
<path d="M21.3691 123.88C21.1801 123.88 20.999 123.955 20.8654 124.089C20.7318 124.222 20.6567 124.403 20.6567 124.592V130.291C20.6567 130.338 20.6755 130.384 20.7089 130.417C20.7423 130.45 20.7876 130.469 20.8348 130.469H23.328C23.3752 130.469 23.4205 130.45 23.4539 130.417C23.4873 130.384 23.5061 130.338 23.5061 130.291V124.592C23.5061 124.403 23.431 124.222 23.2974 124.089C23.1638 123.955 22.9827 123.88 22.7937 123.88H21.3691Z" fill="#88CEC0"/>
<path d="M25.1092 130.469H27.6024C27.6497 130.469 27.6948 130.45 27.7283 130.417C27.7617 130.383 27.7805 130.338 27.7805 130.291V121.743C27.7805 121.554 27.7054 121.373 27.5719 121.239C27.4383 121.106 27.2571 121.031 27.0681 121.031H25.6435C25.4546 121.031 25.2734 121.106 25.1398 121.239C25.0062 121.373 24.9312 121.554 24.9312 121.743V130.291C24.9312 130.338 24.9499 130.383 24.9833 130.417C25.0167 130.45 25.062 130.469 25.1092 130.469Z" fill="#88CEC0"/>
<path d="M24.2689 118.78L24.4898 119.108C24.5381 119.18 24.6038 119.24 24.6809 119.281C24.758 119.322 24.8441 119.343 24.9314 119.343C25.0221 119.339 25.1104 119.313 25.1878 119.265C25.2651 119.218 25.3289 119.151 25.373 119.072L26.7977 116.579C26.85 116.494 26.8778 116.397 26.8778 116.298C26.8778 116.198 26.85 116.101 26.7977 116.016C26.745 115.932 26.6693 115.866 26.5796 115.824C26.4898 115.782 26.39 115.767 26.2919 115.781L23.4426 116.137C23.3523 116.149 23.2665 116.183 23.1932 116.237C23.1199 116.291 23.0615 116.363 23.0237 116.445C22.9859 116.528 22.9699 116.619 22.9771 116.71C22.9843 116.801 23.0146 116.888 23.0651 116.964L23.2788 117.291C23.2919 117.31 23.3011 117.332 23.3057 117.354C23.3103 117.377 23.3103 117.4 23.3057 117.423C23.301 117.446 23.2918 117.467 23.2786 117.486C23.2654 117.505 23.2485 117.521 23.2289 117.533L13.1423 124.272C13.064 124.324 12.9967 124.391 12.9443 124.468C12.8919 124.546 12.8553 124.634 12.8368 124.726C12.8182 124.818 12.8181 124.912 12.8363 125.005C12.8545 125.097 12.8907 125.184 12.9429 125.262C13.0082 125.359 13.0963 125.438 13.1994 125.493C13.3025 125.547 13.4174 125.576 13.5341 125.576C13.6742 125.577 13.8112 125.535 13.9259 125.455L24.0196 118.73C24.0392 118.717 24.0612 118.708 24.0844 118.703C24.1076 118.698 24.1315 118.698 24.1547 118.703C24.178 118.707 24.2 118.717 24.2196 118.73C24.2392 118.743 24.256 118.76 24.2689 118.78Z" fill="#88CEC0"/>
<path d="M12.1092 132.877H27.7805C27.9497 132.877 28.1133 132.816 28.2419 132.706C28.3706 132.596 28.4558 132.444 28.4823 132.276C28.5089 132.109 28.475 131.938 28.387 131.794C28.2988 131.649 28.162 131.541 28.0013 131.488C27.9298 131.465 27.8554 131.453 27.7805 131.452H12.1092C12.0342 131.453 11.9598 131.465 11.8884 131.488C11.7275 131.541 11.5908 131.649 11.5027 131.794C11.4145 131.938 11.3807 132.109 11.4073 132.276C11.4338 132.444 11.5191 132.596 11.6477 132.706C11.7763 132.816 11.9399 132.877 12.1092 132.877Z" fill="#88CEC0"/>
</g>
<path d="M47.5609 124.738C47.5609 125.871 47.3405 126.828 46.8997 127.606C46.4589 128.382 45.8639 128.97 45.1149 129.371C44.3658 129.769 43.5306 129.968 42.6092 129.968C41.6812 129.968 40.8426 129.767 40.0936 129.366C39.3478 128.962 38.7546 128.372 38.3137 127.597C37.8762 126.818 37.6575 125.865 37.6575 124.738C37.6575 123.604 37.8762 122.65 38.3137 121.874C38.7546 121.095 39.3478 120.507 40.0936 120.109C40.8426 119.708 41.6812 119.508 42.6092 119.508C43.5306 119.508 44.3658 119.708 45.1149 120.109C45.8639 120.507 46.4589 121.095 46.8997 121.874C47.3405 122.65 47.5609 123.604 47.5609 124.738ZM44.7172 124.738C44.7172 124.128 44.6359 123.614 44.4735 123.197C44.3145 122.776 44.0775 122.458 43.7626 122.242C43.4511 122.023 43.0666 121.914 42.6092 121.914C42.1518 121.914 41.7657 122.023 41.4508 122.242C41.1393 122.458 40.9023 122.776 40.7399 123.197C40.5808 123.614 40.5012 124.128 40.5012 124.738C40.5012 125.348 40.5808 125.863 40.7399 126.284C40.9023 126.702 41.1393 127.02 41.4508 127.239C41.7657 127.454 42.1518 127.562 42.6092 127.562C43.0666 127.562 43.4511 127.454 43.7626 127.239C44.0775 127.02 44.3145 126.702 44.4735 126.284C44.6359 125.863 44.7172 125.348 44.7172 124.738ZM49.0896 132.692V122.192H51.814V123.525H51.8737C51.9731 123.266 52.119 123.029 52.3112 122.814C52.5034 122.595 52.7421 122.421 53.0271 122.292C53.3122 122.159 53.6436 122.093 54.0214 122.093C54.5252 122.093 55.0042 122.227 55.4582 122.496C55.9156 122.764 56.2868 123.187 56.5719 123.763C56.8602 124.34 57.0044 125.089 57.0044 126.011C57.0044 126.892 56.8668 127.623 56.5917 128.203C56.32 128.783 55.9554 129.216 55.498 129.501C55.0439 129.786 54.5451 129.928 54.0015 129.928C53.6436 129.928 53.3238 129.87 53.042 129.754C52.7636 129.635 52.525 129.474 52.3261 129.272C52.1306 129.066 51.9798 128.834 51.8737 128.576H51.8339V132.692H49.0896ZM51.7743 126.011C51.7743 126.382 51.8223 126.703 51.9185 126.975C52.0179 127.244 52.1571 127.452 52.3361 127.602C52.5184 127.747 52.7354 127.82 52.9873 127.82C53.2392 127.82 53.453 127.749 53.6287 127.606C53.8077 127.461 53.9435 127.254 54.0363 126.985C54.1325 126.713 54.1805 126.388 54.1805 126.011C54.1805 125.633 54.1325 125.31 54.0363 125.041C53.9435 124.769 53.8077 124.562 53.6287 124.42C53.453 124.274 53.2392 124.201 52.9873 124.201C52.7354 124.201 52.5184 124.274 52.3361 124.42C52.1571 124.562 52.0179 124.769 51.9185 125.041C51.8223 125.31 51.7743 125.633 51.7743 126.011ZM62.918 122.192V124.181H57.8868V122.192H62.918ZM58.8612 120.363H61.6055V127.373C61.6055 127.479 61.6238 127.568 61.6602 127.641C61.6967 127.711 61.753 127.764 61.8293 127.8C61.9055 127.834 62.0033 127.85 62.1226 127.85C62.2055 127.85 62.3016 127.84 62.4109 127.82C62.5236 127.8 62.6065 127.784 62.6595 127.771L63.0573 129.7C62.9346 129.736 62.759 129.781 62.5303 129.834C62.3049 129.887 62.0364 129.922 61.7249 129.938C61.0951 129.971 60.5665 129.907 60.1389 129.744C59.7114 129.579 59.3899 129.318 59.1744 128.964C58.959 128.609 58.8546 128.165 58.8612 127.631V120.363ZM64.2479 129.829V122.192H66.9922V129.829H64.2479ZM65.6201 121.397C65.2488 121.397 64.9307 121.274 64.6655 121.029C64.4004 120.784 64.2678 120.489 64.2678 120.144C64.2678 119.799 64.4004 119.504 64.6655 119.259C64.9307 119.014 65.2488 118.891 65.6201 118.891C65.9946 118.891 66.3128 119.014 66.5746 119.259C66.8398 119.504 66.9723 119.799 66.9723 120.144C66.9723 120.489 66.8398 120.784 66.5746 121.029C66.3128 121.274 65.9946 121.397 65.6201 121.397ZM68.6005 129.829V122.192H71.2056V123.644H71.2851C71.4442 123.167 71.716 122.789 72.1005 122.511C72.4849 122.232 72.9423 122.093 73.4726 122.093C74.0096 122.093 74.4719 122.236 74.8597 122.521C75.2475 122.802 75.4812 123.177 75.5607 123.644H75.6402C75.7695 123.177 76.0446 122.802 76.4655 122.521C76.8865 122.236 77.3803 122.093 77.9471 122.093C78.6795 122.093 79.2728 122.328 79.7269 122.799C80.1843 123.27 80.413 123.896 80.413 124.678V129.829H77.6687V125.374C77.6687 125.039 77.5841 124.778 77.4151 124.589C77.2461 124.397 77.019 124.3 76.734 124.3C76.4523 124.3 76.2286 124.397 76.0628 124.589C75.9004 124.778 75.8192 125.039 75.8192 125.374V129.829H73.1942V125.374C73.1942 125.039 73.1097 124.778 72.9407 124.589C72.7716 124.397 72.5446 124.3 72.2596 124.3C72.0706 124.3 71.9082 124.343 71.7724 124.43C71.6365 124.516 71.5304 124.64 71.4542 124.803C71.3813 124.962 71.3448 125.152 71.3448 125.374V129.829H68.6005ZM81.9765 129.829V122.192H84.7208V129.829H81.9765ZM83.3486 121.397C82.9774 121.397 82.6593 121.274 82.3941 121.029C82.129 120.784 81.9964 120.489 81.9964 120.144C81.9964 119.799 82.129 119.504 82.3941 119.259C82.6593 119.014 82.9774 118.891 83.3486 118.891C83.7232 118.891 84.0414 119.014 84.3032 119.259C84.5683 119.504 84.7009 119.799 84.7009 120.144C84.7009 120.489 84.5683 120.784 84.3032 121.029C84.0414 121.274 83.7232 121.397 83.3486 121.397ZM86.4086 129.829V128.317L89.7495 124.32V124.281H86.5279V122.192H92.991V123.863L89.9484 127.701V127.741H93.1103V129.829H86.4086ZM96.9657 129.948C96.4785 129.948 96.0477 129.869 95.6731 129.709C95.3019 129.547 95.0102 129.302 94.7981 128.974C94.586 128.646 94.4799 128.228 94.4799 127.721C94.4799 127.303 94.5512 126.947 94.6937 126.652C94.8362 126.354 95.0351 126.11 95.2903 125.921C95.5455 125.732 95.8422 125.588 96.1802 125.489C96.5216 125.389 96.8895 125.325 97.2839 125.295C97.7115 125.262 98.0545 125.222 98.313 125.175C98.5749 125.126 98.7638 125.058 98.8798 124.972C98.9958 124.882 99.0538 124.764 99.0538 124.619V124.599C99.0538 124.4 98.9776 124.247 98.8251 124.141C98.6727 124.035 98.4771 123.982 98.2385 123.982C97.9766 123.982 97.7629 124.04 97.5971 124.156C97.4347 124.269 97.337 124.443 97.3038 124.678H94.7782C94.8114 124.214 94.9589 123.787 95.2207 123.396C95.4859 123.001 95.872 122.686 96.3791 122.451C96.8862 122.212 97.5192 122.093 98.2782 122.093C98.8251 122.093 99.3156 122.158 99.7498 122.287C100.184 122.413 100.554 122.59 100.858 122.819C101.163 123.044 101.395 123.309 101.555 123.614C101.717 123.916 101.798 124.244 101.798 124.599V129.829H99.2328V128.755H99.1731C99.0207 129.04 98.8351 129.27 98.6163 129.446C98.4009 129.622 98.154 129.749 97.8755 129.829C97.6004 129.908 97.2972 129.948 96.9657 129.948ZM97.8606 128.218C98.0694 128.218 98.265 128.175 98.4473 128.089C98.6329 128.003 98.7837 127.878 98.8997 127.716C99.0157 127.553 99.0737 127.356 99.0737 127.124V126.488C99.0008 126.518 98.9229 126.546 98.84 126.572C98.7605 126.599 98.6743 126.624 98.5815 126.647C98.492 126.67 98.3959 126.692 98.2932 126.712C98.1937 126.731 98.0893 126.75 97.9799 126.766C97.7678 126.799 97.5938 126.854 97.4579 126.93C97.3254 127.003 97.2259 127.094 97.1596 127.204C97.0967 127.31 97.0652 127.429 97.0652 127.562C97.0652 127.774 97.1397 127.936 97.2889 128.049C97.438 128.162 97.6286 128.218 97.8606 128.218ZM107.873 122.192V124.181H102.842V122.192H107.873ZM103.817 120.363H106.561V127.373C106.561 127.479 106.579 127.568 106.616 127.641C106.652 127.711 106.708 127.764 106.785 127.8C106.861 127.834 106.959 127.85 107.078 127.85C107.161 127.85 107.257 127.84 107.366 127.82C107.479 127.8 107.562 127.784 107.615 127.771L108.013 129.7C107.89 129.736 107.714 129.781 107.486 129.834C107.26 129.887 106.992 129.922 106.68 129.938C106.05 129.971 105.522 129.907 105.094 129.744C104.667 129.579 104.345 129.318 104.13 128.964C103.914 128.609 103.81 128.165 103.817 127.631V120.363ZM109.203 129.829V122.192H111.948V129.829H109.203ZM110.575 121.397C110.204 121.397 109.886 121.274 109.621 121.029C109.356 120.784 109.223 120.489 109.223 120.144C109.223 119.799 109.356 119.504 109.621 119.259C109.886 119.014 110.204 118.891 110.575 118.891C110.95 118.891 111.268 119.014 111.53 119.259C111.795 119.504 111.928 119.799 111.928 120.144C111.928 120.489 111.795 120.784 111.53 121.029C111.268 121.274 110.95 121.397 110.575 121.397ZM117.235 129.968C116.406 129.968 115.697 129.804 115.107 129.476C114.517 129.144 114.065 128.684 113.75 128.094C113.435 127.5 113.277 126.813 113.277 126.031C113.277 125.248 113.435 124.562 113.75 123.972C114.065 123.379 114.517 122.918 115.107 122.59C115.697 122.259 116.406 122.093 117.235 122.093C118.063 122.093 118.773 122.259 119.363 122.59C119.953 122.918 120.405 123.379 120.72 123.972C121.035 124.562 121.192 125.248 121.192 126.031C121.192 126.813 121.035 127.5 120.72 128.094C120.405 128.684 119.953 129.144 119.363 129.476C118.773 129.804 118.063 129.968 117.235 129.968ZM117.255 127.94C117.487 127.94 117.687 127.862 117.856 127.706C118.025 127.55 118.156 127.328 118.249 127.04C118.342 126.751 118.388 126.408 118.388 126.011C118.388 125.61 118.342 125.267 118.249 124.981C118.156 124.693 118.025 124.471 117.856 124.315C117.687 124.16 117.487 124.082 117.255 124.082C117.009 124.082 116.799 124.16 116.623 124.315C116.448 124.471 116.313 124.693 116.221 124.981C116.128 125.267 116.081 125.61 116.081 126.011C116.081 126.408 116.128 126.751 116.221 127.04C116.313 127.328 116.448 127.55 116.623 127.706C116.799 127.862 117.009 127.94 117.255 127.94ZM125.26 125.533V129.829H122.516V122.192H125.121V123.644H125.2C125.366 123.16 125.658 122.781 126.075 122.506C126.496 122.231 126.987 122.093 127.547 122.093C128.087 122.093 128.556 122.217 128.954 122.466C129.355 122.711 129.665 123.049 129.884 123.48C130.106 123.911 130.215 124.403 130.212 124.957V129.829H127.467V125.533C127.471 125.156 127.375 124.859 127.179 124.643C126.987 124.428 126.718 124.32 126.374 124.32C126.148 124.32 125.951 124.37 125.782 124.469C125.616 124.566 125.489 124.705 125.399 124.887C125.31 125.066 125.263 125.281 125.26 125.533ZM138.757 124.678H136.231C136.218 124.522 136.163 124.388 136.067 124.276C135.971 124.163 135.847 124.077 135.694 124.017C135.545 123.954 135.379 123.923 135.197 123.923C134.962 123.923 134.76 123.966 134.59 124.052C134.421 124.138 134.339 124.261 134.342 124.42C134.339 124.532 134.387 124.637 134.486 124.733C134.589 124.829 134.786 124.904 135.078 124.957L136.629 125.235C137.411 125.378 137.993 125.618 138.374 125.956C138.758 126.291 138.952 126.74 138.956 127.303C138.952 127.847 138.79 128.319 138.468 128.72C138.15 129.118 137.714 129.426 137.161 129.645C136.611 129.86 135.983 129.968 135.277 129.968C134.11 129.968 133.197 129.729 132.537 129.252C131.881 128.775 131.515 128.145 131.438 127.363H134.163C134.199 127.605 134.319 127.792 134.521 127.925C134.726 128.054 134.985 128.119 135.296 128.119C135.548 128.119 135.755 128.075 135.918 127.989C136.084 127.903 136.168 127.781 136.171 127.621C136.168 127.476 136.095 127.36 135.953 127.273C135.813 127.187 135.595 127.118 135.296 127.065L133.944 126.826C133.165 126.69 132.582 126.432 132.194 126.05C131.806 125.669 131.614 125.179 131.617 124.579C131.614 124.048 131.753 123.599 132.035 123.231C132.32 122.86 132.726 122.579 133.253 122.386C133.783 122.191 134.412 122.093 135.137 122.093C136.241 122.093 137.111 122.322 137.747 122.779C138.387 123.236 138.724 123.87 138.757 124.678Z" fill="#88CEC0"/>
<path d="M0 103.384H445.919V105.384H0V103.384ZM445.919 144.274H0H445.919ZM0 144.274V104.384V144.274ZM445.919 104.384V144.274V104.384Z" fill="#86CEBF" mask="url(#path-11-inside-1_726_6836)"/>
<rect x="0.5" y="0.5" width="445" height="143.274" rx="6.6233" stroke="#88CEC0"/>
<defs>
<linearGradient id="paint0_linear_726_6836" x1="1.03313e-06" y1="123.938" x2="346.777" y2="123.938" gradientUnits="userSpaceOnUse">
<stop stop-color="#00B28F" stop-opacity="0.2"/>
<stop offset="1" stop-color="#00B28F" stop-opacity="0"/>
</linearGradient>
<clipPath id="clip0_726_6836">
<rect width="17.0959" height="17.0959" fill="white" transform="translate(11.397 115.781)"/>
</clipPath>
</defs>
</svg>
