<svg width="446" height="145" viewBox="0 0 446 145" fill="none" xmlns="http://www.w3.org/2000/svg">
<rect x="0.5" y="0.5" width="445" height="143.278" rx="6.6233" fill="white"/>
<path d="M15.1702 26.3973H11.7611L15.602 14.761H19.9202L23.7611 26.3973H20.352L17.8066 17.9655H17.7156L15.1702 26.3973ZM14.5338 21.8064H20.9429V24.1701H14.5338V21.8064ZM26.717 26.3973L23.2852 14.761H26.8079L28.3988 21.9201H28.4897L30.3761 14.761H33.1488L35.0352 21.9428H35.1261L36.717 14.761H40.2397L36.8079 26.3973H33.7852L31.8079 19.8973H31.717L29.7397 26.3973H26.717ZM47.5877 18.3973C47.5574 18.0186 47.4153 17.7231 47.1616 17.511C46.9116 17.2989 46.5309 17.1928 46.0195 17.1928C45.6937 17.1928 45.4267 17.2326 45.2184 17.3121C45.0138 17.3879 44.8623 17.492 44.7638 17.6246C44.6653 17.7572 44.6142 17.9087 44.6104 18.0792C44.6028 18.2193 44.6275 18.3462 44.6843 18.4598C44.7449 18.5697 44.8396 18.6701 44.9684 18.761C45.0972 18.8481 45.2619 18.9276 45.4627 18.9996C45.6634 19.0716 45.9021 19.136 46.1786 19.1928L47.1331 19.3973C47.7771 19.5337 48.3282 19.7136 48.7866 19.9371C49.2449 20.1606 49.6199 20.4239 49.9116 20.7269C50.2032 21.0261 50.4172 21.3632 50.5536 21.7382C50.6937 22.1132 50.7657 22.5223 50.7695 22.9655C50.7657 23.7307 50.5744 24.3784 50.1956 24.9087C49.8169 25.439 49.2752 25.8424 48.5706 26.1189C47.8699 26.3954 47.0271 26.5337 46.0422 26.5337C45.0309 26.5337 44.1483 26.3841 43.3945 26.0848C42.6445 25.7856 42.0612 25.3254 41.6445 24.7042C41.2316 24.0792 41.0233 23.2799 41.0195 22.3064H44.0195C44.0384 22.6625 44.1275 22.9617 44.2866 23.2042C44.4456 23.4466 44.6691 23.6303 44.957 23.7553C45.2487 23.8803 45.5953 23.9428 45.9968 23.9428C46.3339 23.9428 46.6161 23.9011 46.8434 23.8178C47.0706 23.7345 47.243 23.6189 47.3604 23.4712C47.4778 23.3235 47.5384 23.1549 47.5422 22.9655C47.5384 22.7875 47.4797 22.6322 47.3661 22.4996C47.2562 22.3632 47.0744 22.242 46.8206 22.136C46.5669 22.0261 46.2241 21.9239 45.7922 21.8292L44.6331 21.5792C43.6028 21.3557 42.7903 20.9826 42.1956 20.4598C41.6047 19.9333 41.3112 19.2155 41.315 18.3064C41.3112 17.5678 41.5081 16.922 41.9059 16.3689C42.3074 15.8121 42.8623 15.3784 43.5706 15.0678C44.2828 14.7572 45.0991 14.6019 46.0195 14.6019C46.9589 14.6019 47.7714 14.7591 48.457 15.0735C49.1426 15.3879 49.671 15.8311 50.0422 16.403C50.4172 16.9712 50.6066 17.636 50.6104 18.3973H47.5877ZM61.9114 18.3973C61.8811 18.0186 61.7391 17.7231 61.4853 17.511C61.2353 17.2989 60.8546 17.1928 60.3433 17.1928C60.0175 17.1928 59.7505 17.2326 59.5421 17.3121C59.3376 17.3879 59.1861 17.492 59.0876 17.6246C58.9891 17.7572 58.938 17.9087 58.9342 18.0792C58.9266 18.2193 58.9512 18.3462 59.008 18.4598C59.0686 18.5697 59.1633 18.6701 59.2921 18.761C59.4209 18.8481 59.5857 18.9276 59.7864 18.9996C59.9872 19.0716 60.2258 19.136 60.5023 19.1928L61.4569 19.3973C62.1008 19.5337 62.652 19.7136 63.1103 19.9371C63.5686 20.1606 63.9436 20.4239 64.2353 20.7269C64.527 21.0261 64.741 21.3632 64.8773 21.7382C65.0175 22.1132 65.0895 22.5223 65.0933 22.9655C65.0895 23.7307 64.8982 24.3784 64.5194 24.9087C64.1406 25.439 63.5989 25.8424 62.8944 26.1189C62.1936 26.3954 61.3508 26.5337 60.366 26.5337C59.3546 26.5337 58.472 26.3841 57.7183 26.0848C56.9683 25.7856 56.3849 25.3254 55.9683 24.7042C55.5554 24.0792 55.347 23.2799 55.3433 22.3064H58.3433C58.3622 22.6625 58.4512 22.9617 58.6103 23.2042C58.7694 23.4466 58.9929 23.6303 59.2808 23.7553C59.5724 23.8803 59.919 23.9428 60.3205 23.9428C60.6576 23.9428 60.9398 23.9011 61.1671 23.8178C61.3944 23.7345 61.5667 23.6189 61.6842 23.4712C61.8016 23.3235 61.8622 23.1549 61.866 22.9655C61.8622 22.7875 61.8035 22.6322 61.6898 22.4996C61.58 22.3632 61.3982 22.242 61.1444 22.136C60.8906 22.0261 60.5478 21.9239 60.116 21.8292L58.9569 21.5792C57.9266 21.3557 57.1141 20.9826 56.5194 20.4598C55.9285 19.9333 55.6349 19.2155 55.6387 18.3064C55.6349 17.5678 55.8319 16.922 56.2296 16.3689C56.6311 15.8121 57.1861 15.3784 57.8944 15.0678C58.6065 14.7572 59.4228 14.6019 60.3433 14.6019C61.2826 14.6019 62.0951 14.7591 62.7808 15.0735C63.4664 15.3879 63.9948 15.8311 64.366 16.403C64.741 16.9712 64.9304 17.636 64.9342 18.3973H61.9114ZM71.1031 26.5564C70.1865 26.5564 69.3721 26.3992 68.66 26.0848C67.9516 25.7667 67.3948 25.3292 66.9895 24.7723C66.5842 24.2155 66.3797 23.5754 66.3759 22.8519H69.5577C69.5615 23.0754 69.6297 23.2761 69.7622 23.4542C69.8986 23.6284 70.0842 23.7648 70.3191 23.8632C70.5539 23.9617 70.8228 24.011 71.1259 24.011C71.4175 24.011 71.6751 23.9598 71.8986 23.8576C72.1221 23.7515 72.2963 23.6057 72.4213 23.4201C72.5463 23.2345 72.6069 23.0223 72.6031 22.7837C72.6069 22.5489 72.535 22.3405 72.3872 22.1587C72.2433 21.9769 72.0406 21.8348 71.7793 21.7326C71.5179 21.6303 71.2168 21.5792 70.8759 21.5792H69.6941V19.3973H70.8759C71.1903 19.3973 71.4668 19.3462 71.7054 19.2439C71.9478 19.1417 72.1353 18.9996 72.2679 18.8178C72.4043 18.636 72.4706 18.4276 72.4668 18.1928C72.4706 17.9655 72.4156 17.7648 72.302 17.5905C72.1884 17.4163 72.0293 17.2799 71.8247 17.1814C71.624 17.0829 71.391 17.0337 71.1259 17.0337C70.838 17.0337 70.5804 17.0848 70.3531 17.1871C70.1297 17.2894 69.9535 17.4314 69.8247 17.6132C69.6959 17.7951 69.6297 18.0034 69.6259 18.2382H66.6031C66.6069 17.5261 66.802 16.8973 67.1884 16.3519C67.5785 15.8064 68.1126 15.3784 68.7906 15.0678C69.4687 14.7572 70.2471 14.6019 71.1259 14.6019C71.9857 14.6019 72.7452 14.7477 73.4043 15.0394C74.0672 15.3311 74.5842 15.7326 74.9554 16.2439C75.3304 16.7515 75.516 17.3329 75.5122 17.9882C75.5198 18.6398 75.2963 19.1739 74.8418 19.5905C74.391 20.0072 73.8191 20.2534 73.1259 20.3292V20.4201C74.0653 20.5223 74.7717 20.8102 75.2452 21.2837C75.7187 21.7534 75.9516 22.3443 75.9441 23.0564C75.9478 23.7382 75.7433 24.3424 75.3304 24.8689C74.9213 25.3954 74.3512 25.8083 73.6202 26.1076C72.8929 26.4068 72.0539 26.5564 71.1031 26.5564ZM80.9993 26.3973V14.761H84.1357V19.1928H84.1812C84.2948 18.8973 84.4615 18.6265 84.6812 18.3803C84.9009 18.1303 85.1736 17.9314 85.4993 17.7837C85.8251 17.6322 86.2039 17.5564 86.6357 17.5564C87.2115 17.5564 87.7588 17.7098 88.2777 18.0167C88.8005 18.3235 89.2247 18.8064 89.5505 19.4655C89.88 20.1246 90.0448 20.9807 90.0448 22.0337C90.0448 23.0413 89.8876 23.8765 89.5732 24.5394C89.2626 25.2023 88.8459 25.6966 88.3232 26.0223C87.8043 26.3481 87.2342 26.511 86.613 26.511C86.2039 26.511 85.8384 26.4447 85.5164 26.3121C85.1982 26.1757 84.9255 25.992 84.6982 25.761C84.4747 25.5261 84.3024 25.261 84.1812 24.9655H84.113V26.3973H80.9993ZM84.0675 22.0337C84.0675 22.4579 84.1224 22.8254 84.2323 23.136C84.3459 23.4428 84.505 23.6814 84.7096 23.8519C84.9179 24.0186 85.166 24.1019 85.4539 24.1019C85.7418 24.1019 85.9861 24.0204 86.1868 23.8576C86.3914 23.6909 86.5467 23.4542 86.6527 23.1473C86.7626 22.8367 86.8175 22.4655 86.8175 22.0337C86.8175 21.6019 86.7626 21.2326 86.6527 20.9257C86.5467 20.6151 86.3914 20.3784 86.1868 20.2155C85.9861 20.0489 85.7418 19.9655 85.4539 19.9655C85.166 19.9655 84.9179 20.0489 84.7096 20.2155C84.505 20.3784 84.3459 20.6151 84.2323 20.9257C84.1224 21.2326 84.0675 21.6019 84.0675 22.0337ZM97.2564 22.5792V17.6701H100.393V26.3973H97.4155V24.7382H97.3246C97.1352 25.2951 96.8037 25.7307 96.3302 26.0451C95.8568 26.3557 95.2943 26.511 94.6427 26.511C94.0329 26.511 93.4988 26.3708 93.0405 26.0905C92.5859 25.8102 92.2318 25.4239 91.978 24.9314C91.728 24.439 91.6011 23.8746 91.5973 23.2382V17.6701H94.7337V22.5792C94.7374 23.011 94.8473 23.35 95.0632 23.5962C95.2829 23.8424 95.5897 23.9655 95.9837 23.9655C96.245 23.9655 96.4704 23.9106 96.6598 23.8007C96.853 23.6871 97.0007 23.528 97.103 23.3235C97.209 23.1151 97.2602 22.867 97.2564 22.5792ZM106.432 26.5564C105.485 26.5564 104.675 26.3689 104.001 25.9939C103.326 25.6151 102.809 25.0886 102.45 24.4144C102.09 23.7364 101.91 22.9504 101.91 22.0564C101.91 21.1625 102.09 20.3784 102.45 19.7042C102.809 19.0261 103.326 18.4996 104.001 18.1246C104.675 17.7458 105.485 17.5564 106.432 17.5564C107.289 17.5564 108.029 17.7117 108.654 18.0223C109.283 18.3292 109.77 18.7648 110.114 19.3292C110.459 19.8898 110.633 20.5489 110.637 21.3064H107.728C107.686 20.8481 107.554 20.4996 107.33 20.261C107.11 20.0186 106.826 19.8973 106.478 19.8973C106.205 19.8973 105.967 19.9769 105.762 20.136C105.557 20.2913 105.398 20.528 105.285 20.8462C105.171 21.1606 105.114 21.5564 105.114 22.0337C105.114 22.511 105.171 22.9087 105.285 23.2269C105.398 23.5413 105.557 23.778 105.762 23.9371C105.967 24.0924 106.205 24.1701 106.478 24.1701C106.709 24.1701 106.914 24.117 107.092 24.011C107.27 23.9011 107.414 23.742 107.523 23.5337C107.637 23.3216 107.705 23.064 107.728 22.761H110.637C110.626 23.5299 110.45 24.2004 110.109 24.7723C109.768 25.3405 109.285 25.7799 108.66 26.0905C108.039 26.4011 107.296 26.5564 106.432 26.5564ZM114.989 24.3292L115.012 20.6019H115.421L117.535 17.6701H121.057L117.512 22.2382H116.626L114.989 24.3292ZM112.171 26.3973V14.761H115.307V26.3973H112.171ZM117.557 26.3973L115.557 22.9428L117.603 20.7155L121.148 26.3973H117.557ZM125.937 26.5564C125.005 26.5564 124.202 26.3784 123.528 26.0223C122.857 25.6625 122.34 25.1473 121.976 24.4769C121.617 23.8026 121.437 22.9958 121.437 22.0564C121.437 21.1549 121.618 20.367 121.982 19.6928C122.346 19.0186 122.859 18.4939 123.522 18.1189C124.185 17.7439 124.967 17.5564 125.868 17.5564C126.528 17.5564 127.124 17.6587 127.658 17.8632C128.192 18.0678 128.649 18.3651 129.028 18.7553C129.406 19.1417 129.698 19.6114 129.903 20.1644C130.107 20.7174 130.209 21.3405 130.209 22.0337V22.761H122.414V21.0337H127.323C127.319 20.7837 127.255 20.564 127.13 20.3746C127.009 20.1814 126.844 20.0318 126.635 19.9257C126.431 19.8159 126.198 19.761 125.937 19.761C125.683 19.761 125.45 19.8159 125.238 19.9257C125.026 20.0318 124.855 20.1795 124.726 20.3689C124.601 20.5583 124.535 20.7799 124.528 21.0337V22.8973C124.528 23.1776 124.586 23.4276 124.704 23.6473C124.821 23.867 124.99 24.0394 125.209 24.1644C125.429 24.2894 125.694 24.3519 126.005 24.3519C126.221 24.3519 126.418 24.3216 126.596 24.261C126.778 24.2004 126.933 24.1132 127.062 23.9996C127.19 23.8822 127.285 23.742 127.346 23.5792H130.209C130.111 24.1852 129.878 24.7117 129.51 25.1587C129.143 25.6019 128.656 25.9466 128.05 26.1928C127.448 26.4352 126.743 26.5564 125.937 26.5564ZM136.934 17.6701V19.9428H131.184V17.6701H136.934ZM132.297 15.5792H135.434V23.5905C135.434 23.7117 135.455 23.814 135.496 23.8973C135.538 23.9769 135.602 24.0375 135.689 24.0792C135.777 24.117 135.888 24.136 136.025 24.136C136.119 24.136 136.229 24.1246 136.354 24.1019C136.483 24.0792 136.578 24.0602 136.638 24.0451L137.093 26.2496C136.953 26.2913 136.752 26.3424 136.491 26.403C136.233 26.4636 135.926 26.5034 135.57 26.5223C134.85 26.5602 134.246 26.4864 133.758 26.3007C133.269 26.1114 132.902 25.814 132.655 25.4087C132.409 25.0034 132.29 24.4958 132.297 23.886V15.5792ZM146.337 20.511H143.451C143.436 20.3329 143.373 20.1795 143.263 20.0507C143.153 19.922 143.011 19.8235 142.837 19.7553C142.667 19.6833 142.477 19.6473 142.269 19.6473C142 19.6473 141.769 19.6966 141.576 19.7951C141.383 19.8936 141.288 20.0337 141.292 20.2155C141.288 20.3443 141.343 20.4636 141.456 20.5735C141.574 20.6833 141.799 20.7686 142.133 20.8292L143.905 21.1473C144.799 21.3102 145.464 21.5848 145.9 21.9712C146.339 22.3538 146.561 22.867 146.564 23.511C146.561 24.1322 146.375 24.672 146.008 25.1303C145.644 25.5848 145.146 25.9371 144.513 26.1871C143.884 26.4333 143.167 26.5564 142.36 26.5564C141.026 26.5564 139.983 26.2837 139.229 25.7382C138.479 25.1928 138.061 24.4731 137.973 23.5792H141.087C141.129 23.8557 141.265 24.0697 141.496 24.2212C141.731 24.3689 142.026 24.4428 142.383 24.4428C142.67 24.4428 142.907 24.3936 143.093 24.2951C143.282 24.1966 143.379 24.0564 143.383 23.8746C143.379 23.7079 143.295 23.5754 143.133 23.4769C142.973 23.3784 142.723 23.2989 142.383 23.2382L140.837 22.9655C139.947 22.8102 139.28 22.5148 138.837 22.0792C138.394 21.6436 138.174 21.0829 138.178 20.3973C138.174 19.7913 138.333 19.278 138.655 18.8576C138.981 18.4333 139.445 18.1114 140.047 17.8917C140.653 17.6682 141.371 17.5564 142.201 17.5564C143.462 17.5564 144.456 17.8178 145.184 18.3405C145.915 18.8632 146.299 19.5867 146.337 20.511ZM152.979 26.3973L150.797 17.6701H153.934L154.934 22.9882H155.002L156.115 17.6701H159.161L160.32 22.9428H160.388L161.343 17.6701H164.479L162.297 26.3973H158.911L157.684 21.7155H157.593L156.365 26.3973H152.979ZM165.674 26.3973V17.6701H168.81V26.3973H165.674ZM167.242 16.761C166.817 16.761 166.454 16.6208 166.151 16.3405C165.848 16.0602 165.696 15.7231 165.696 15.3292C165.696 14.9352 165.848 14.5981 166.151 14.3178C166.454 14.0375 166.817 13.8973 167.242 13.8973C167.67 13.8973 168.033 14.0375 168.333 14.3178C168.636 14.5981 168.787 14.9352 168.787 15.3292C168.787 15.7231 168.636 16.0602 168.333 16.3405C168.033 16.6208 167.67 16.761 167.242 16.761ZM175.852 17.6701V19.9428H170.102V17.6701H175.852ZM171.216 15.5792H174.352V23.5905C174.352 23.7117 174.373 23.814 174.415 23.8973C174.457 23.9769 174.521 24.0375 174.608 24.0792C174.695 24.117 174.807 24.136 174.943 24.136C175.038 24.136 175.148 24.1246 175.273 24.1019C175.402 24.0792 175.496 24.0602 175.557 24.0451L176.012 26.2496C175.871 26.2913 175.671 26.3424 175.409 26.403C175.152 26.4636 174.845 26.5034 174.489 26.5223C173.769 26.5602 173.165 26.4864 172.676 26.3007C172.188 26.1114 171.82 25.814 171.574 25.4087C171.328 25.0034 171.209 24.4958 171.216 23.886V15.5792ZM180.696 21.4882V26.3973H177.56V14.761H180.583V19.3292H180.673C180.87 18.7723 181.198 18.3386 181.656 18.028C182.115 17.7136 182.666 17.5564 183.31 17.5564C183.927 17.5564 184.463 17.6966 184.918 17.9769C185.376 18.2572 185.73 18.6436 185.98 19.136C186.234 19.6284 186.359 20.1928 186.355 20.8292V26.3973H183.219V21.4882C183.223 21.0564 183.115 20.7174 182.895 20.4712C182.679 20.225 182.37 20.1019 181.969 20.1019C181.715 20.1019 181.492 20.1587 181.298 20.2723C181.109 20.3822 180.961 20.5413 180.855 20.7496C180.753 20.9542 180.7 21.2004 180.696 21.4882ZM192.348 26.5564C191.401 26.5564 190.591 26.3689 189.916 25.9939C189.242 25.6151 188.725 25.0886 188.365 24.4144C188.005 23.7364 187.825 22.9504 187.825 22.0564C187.825 21.1625 188.005 20.3784 188.365 19.7042C188.725 19.0261 189.242 18.4996 189.916 18.1246C190.591 17.7458 191.401 17.5564 192.348 17.5564C193.295 17.5564 194.106 17.7458 194.78 18.1246C195.454 18.4996 195.971 19.0261 196.331 19.7042C196.691 20.3784 196.871 21.1625 196.871 22.0564C196.871 22.9504 196.691 23.7364 196.331 24.4144C195.971 25.0886 195.454 25.6151 194.78 25.9939C194.106 26.3689 193.295 26.5564 192.348 26.5564ZM192.371 24.2382C192.636 24.2382 192.865 24.1492 193.058 23.9712C193.251 23.7932 193.401 23.5394 193.507 23.2098C193.613 22.8803 193.666 22.4882 193.666 22.0337C193.666 21.5754 193.613 21.1833 193.507 20.8576C193.401 20.528 193.251 20.2742 193.058 20.0962C192.865 19.9182 192.636 19.8292 192.371 19.8292C192.091 19.8292 191.85 19.9182 191.649 20.0962C191.448 20.2742 191.295 20.528 191.189 20.8576C191.083 21.1833 191.03 21.5754 191.03 22.0337C191.03 22.4882 191.083 22.8803 191.189 23.2098C191.295 23.5394 191.448 23.7932 191.649 23.9712C191.85 24.1492 192.091 24.2382 192.371 24.2382ZM204.043 22.5792V17.6701H207.179V26.3973H204.202V24.7382H204.111C203.921 25.2951 203.59 25.7307 203.116 26.0451C202.643 26.3557 202.081 26.511 201.429 26.511C200.819 26.511 200.285 26.3708 199.827 26.0905C199.372 25.8102 199.018 25.4239 198.764 24.9314C198.514 24.439 198.387 23.8746 198.384 23.2382V17.6701H201.52V22.5792C201.524 23.011 201.634 23.35 201.849 23.5962C202.069 23.8424 202.376 23.9655 202.77 23.9655C203.031 23.9655 203.257 23.9106 203.446 23.8007C203.639 23.6871 203.787 23.528 203.889 23.3235C203.995 23.1151 204.046 22.867 204.043 22.5792ZM214.219 17.6701V19.9428H208.469V17.6701H214.219ZM209.582 15.5792H212.719V23.5905C212.719 23.7117 212.74 23.814 212.781 23.8973C212.823 23.9769 212.887 24.0375 212.974 24.0792C213.062 24.117 213.173 24.136 213.31 24.136C213.404 24.136 213.514 24.1246 213.639 24.1019C213.768 24.0792 213.863 24.0602 213.923 24.0451L214.378 26.2496C214.238 26.2913 214.037 26.3424 213.776 26.403C213.518 26.4636 213.211 26.5034 212.855 26.5223C212.135 26.5602 211.531 26.4864 211.043 26.3007C210.554 26.1114 210.187 25.814 209.94 25.4087C209.694 25.0034 209.575 24.4958 209.582 23.886V15.5792ZM20.9884 35.6701L18.0566 44.3973H14.4202L11.4884 35.6701H14.7838L16.1929 41.4428H16.2838L17.6929 35.6701H20.9884ZM26.0366 44.5564C25.1048 44.5564 24.3018 44.3784 23.6275 44.0223C22.9571 43.6625 22.44 43.1473 22.0764 42.4769C21.7165 41.8026 21.5366 40.9958 21.5366 40.0564C21.5366 39.1549 21.7184 38.367 22.0821 37.6928C22.4457 37.0186 22.959 36.4939 23.6218 36.1189C24.2847 35.7439 25.0669 35.5564 25.9684 35.5564C26.6275 35.5564 27.2241 35.6587 27.7582 35.8632C28.2923 36.0678 28.7487 36.3651 29.1275 36.7553C29.5063 37.1417 29.798 37.6114 30.0025 38.1644C30.2071 38.7174 30.3093 39.3405 30.3093 40.0337V40.761H22.5139V39.0337H27.423C27.4192 38.7837 27.3548 38.564 27.2298 38.3746C27.1086 38.1814 26.9438 38.0318 26.7355 37.9257C26.5309 37.8159 26.298 37.761 26.0366 37.761C25.7828 37.761 25.5499 37.8159 25.3377 37.9257C25.1256 38.0318 24.9552 38.1795 24.8264 38.3689C24.7014 38.5583 24.6351 38.7799 24.6275 39.0337V40.8973C24.6275 41.1776 24.6862 41.4276 24.8037 41.6473C24.9211 41.867 25.0896 42.0394 25.3093 42.1644C25.529 42.2894 25.7942 42.3519 26.1048 42.3519C26.3207 42.3519 26.5177 42.3216 26.6957 42.261C26.8775 42.2004 27.0328 42.1132 27.1616 41.9996C27.2904 41.8822 27.3851 41.742 27.4457 41.5792H30.3093C30.2109 42.1852 29.9779 42.7117 29.6105 43.1587C29.243 43.6019 28.7563 43.9466 28.1502 44.1928C27.548 44.4352 26.8434 44.5564 26.0366 44.5564ZM31.8292 44.3973V35.6701H34.8746V37.3292H34.9655C35.1246 36.7155 35.3765 36.2667 35.7212 35.9826C36.0697 35.6985 36.4769 35.5564 36.9428 35.5564C37.0792 35.5564 37.2136 35.5678 37.3462 35.5905C37.4826 35.6095 37.6133 35.6379 37.7383 35.6757V38.3519C37.583 38.2989 37.3917 38.2591 37.1644 38.2326C36.9371 38.2061 36.742 38.1928 36.5792 38.1928C36.2723 38.1928 35.9958 38.2629 35.7496 38.403C35.5072 38.5394 35.3159 38.7326 35.1758 38.9826C35.0356 39.2288 34.9655 39.5186 34.9655 39.8519V44.3973H31.8292ZM46.9839 38.511H44.0976C44.0824 38.3329 44.0199 38.1795 43.9101 38.0507C43.8002 37.922 43.6582 37.8235 43.4839 37.7553C43.3135 37.6833 43.1241 37.6473 42.9158 37.6473C42.6468 37.6473 42.4158 37.6966 42.2226 37.7951C42.0294 37.8936 41.9347 38.0337 41.9385 38.2155C41.9347 38.3443 41.9896 38.4636 42.1033 38.5735C42.2207 38.6833 42.4461 38.7686 42.7794 38.8292L44.5521 39.1473C45.4461 39.3102 46.1108 39.5848 46.5464 39.9712C46.9858 40.3538 47.2074 40.867 47.2112 41.511C47.2074 42.1322 47.0218 42.672 46.6544 43.1303C46.2908 43.5848 45.7926 43.9371 45.1601 44.1871C44.5313 44.4333 43.8135 44.5564 43.0067 44.5564C41.6733 44.5564 40.6298 44.2837 39.876 43.7382C39.126 43.1928 38.7074 42.4731 38.6203 41.5792H41.7339C41.7756 41.8557 41.912 42.0697 42.143 42.2212C42.3779 42.3689 42.6733 42.4428 43.0294 42.4428C43.3173 42.4428 43.554 42.3936 43.7396 42.2951C43.929 42.1966 44.0256 42.0564 44.0294 41.8746C44.0256 41.7079 43.9423 41.5754 43.7794 41.4769C43.6203 41.3784 43.3703 41.2989 43.0294 41.2382L41.4839 40.9655C40.5938 40.8102 39.9271 40.5148 39.4839 40.0792C39.0408 39.6436 38.8211 39.0829 38.8248 38.3973C38.8211 37.7913 38.9801 37.278 39.3021 36.8576C39.6279 36.4333 40.0919 36.1114 40.6942 35.8917C41.3002 35.6682 42.018 35.5564 42.8476 35.5564C44.1089 35.5564 45.1033 35.8178 45.8305 36.3405C46.5616 36.8632 46.9461 37.5867 46.9839 38.511ZM48.6529 44.3973V35.6701H51.7893V44.3973H48.6529ZM50.2211 34.761C49.7969 34.761 49.4332 34.6208 49.1302 34.3405C48.8272 34.0602 48.6756 33.7231 48.6756 33.3292C48.6756 32.9352 48.8272 32.5981 49.1302 32.3178C49.4332 32.0375 49.7969 31.8973 50.2211 31.8973C50.6491 31.8973 51.0128 32.0375 51.312 32.3178C51.615 32.5981 51.7666 32.9352 51.7666 33.3292C51.7666 33.7231 51.615 34.0602 51.312 34.3405C51.0128 34.6208 50.6491 34.761 50.2211 34.761ZM57.8318 44.5564C56.8849 44.5564 56.0743 44.3689 55.4 43.9939C54.7258 43.6151 54.2087 43.0886 53.8489 42.4144C53.489 41.7364 53.3091 40.9504 53.3091 40.0564C53.3091 39.1625 53.489 38.3784 53.8489 37.7042C54.2087 37.0261 54.7258 36.4996 55.4 36.1246C56.0743 35.7458 56.8849 35.5564 57.8318 35.5564C58.7788 35.5564 59.5894 35.7458 60.2637 36.1246C60.9379 36.4996 61.4549 37.0261 61.8148 37.7042C62.1746 38.3784 62.3546 39.1625 62.3546 40.0564C62.3546 40.9504 62.1746 41.7364 61.8148 42.4144C61.4549 43.0886 60.9379 43.6151 60.2637 43.9939C59.5894 44.3689 58.7788 44.5564 57.8318 44.5564ZM57.8546 42.2382C58.1197 42.2382 58.3489 42.1492 58.5421 41.9712C58.7352 41.7932 58.8849 41.5394 58.9909 41.2098C59.097 40.8803 59.15 40.4882 59.15 40.0337C59.15 39.5754 59.097 39.1833 58.9909 38.8576C58.8849 38.528 58.7352 38.2742 58.5421 38.0962C58.3489 37.9182 58.1197 37.8292 57.8546 37.8292C57.5743 37.8292 57.3337 37.9182 57.133 38.0962C56.9322 38.2742 56.7788 38.528 56.6727 38.8576C56.5667 39.1833 56.5137 39.5754 56.5137 40.0337C56.5137 40.4882 56.5667 40.8803 56.6727 41.2098C56.7788 41.5394 56.9322 41.7932 57.133 41.9712C57.3337 42.1492 57.5743 42.2382 57.8546 42.2382ZM67.0037 39.4882V44.3973H63.8673V35.6701H66.8446V37.3292H66.9355C67.1249 36.7761 67.4582 36.3424 67.9355 36.028C68.4165 35.7136 68.9771 35.5564 69.6173 35.5564C70.2347 35.5564 70.7707 35.6985 71.2252 35.9826C71.6836 36.2629 72.0377 36.6492 72.2877 37.1417C72.5415 37.6341 72.6665 38.1966 72.6627 38.8292V44.3973H69.5264V39.4882C69.5302 39.0564 69.4203 38.7174 69.1968 38.4712C68.9771 38.225 68.6703 38.1019 68.2764 38.1019C68.0188 38.1019 67.7934 38.1587 67.6002 38.2723C67.4108 38.3822 67.265 38.5413 67.1627 38.7496C67.0605 38.9542 67.0074 39.2004 67.0037 39.4882ZM74.451 44.3973V35.6701H77.5874V44.3973H74.451ZM76.0192 34.761C75.595 34.761 75.2313 34.6208 74.9283 34.3405C74.6253 34.0602 74.4738 33.7231 74.4738 33.3292C74.4738 32.9352 74.6253 32.5981 74.9283 32.3178C75.2313 32.0375 75.595 31.8973 76.0192 31.8973C76.4473 31.8973 76.8109 32.0375 77.1101 32.3178C77.4132 32.5981 77.5647 32.9352 77.5647 33.3292C77.5647 33.7231 77.4132 34.0602 77.1101 34.3405C76.8109 34.6208 76.4473 34.761 76.0192 34.761ZM82.5618 39.4882V44.3973H79.4254V35.6701H82.4027V37.3292H82.4936C82.683 36.7761 83.0163 36.3424 83.4936 36.028C83.9747 35.7136 84.5353 35.5564 85.1754 35.5564C85.7928 35.5564 86.3288 35.6985 86.7834 35.9826C87.2417 36.2629 87.5959 36.6492 87.8459 37.1417C88.0997 37.6341 88.2247 38.1966 88.2209 38.8292V44.3973H85.0845V39.4882C85.0883 39.0564 84.9784 38.7174 84.755 38.4712C84.5353 38.225 84.2284 38.1019 83.8345 38.1019C83.5769 38.1019 83.3516 38.1587 83.1584 38.2723C82.969 38.3822 82.8231 38.5413 82.7209 38.7496C82.6186 38.9542 82.5656 39.2004 82.5618 39.4882ZM94.2137 47.8519C93.3387 47.8519 92.5887 47.7269 91.9637 47.4769C91.3425 47.2307 90.8595 46.8898 90.5149 46.4542C90.1739 46.0223 89.9827 45.5261 89.941 44.9655H92.9637C92.994 45.1511 93.0698 45.3007 93.191 45.4144C93.3122 45.528 93.4675 45.6095 93.6569 45.6587C93.8501 45.7117 94.066 45.7382 94.3046 45.7382C94.7099 45.7382 95.0452 45.6398 95.3103 45.4428C95.5792 45.2458 95.7137 44.8898 95.7137 44.3746V42.8973H95.6228C95.5092 43.1928 95.3349 43.4447 95.1001 43.653C94.8652 43.8576 94.583 44.0148 94.2535 44.1246C93.9239 44.2307 93.5622 44.2837 93.1683 44.2837C92.547 44.2837 91.9751 44.1398 91.4524 43.8519C90.9334 43.564 90.5167 43.1076 90.2024 42.4826C89.8917 41.8576 89.7364 41.0413 89.7364 40.0337C89.7364 38.9807 89.8993 38.1246 90.2251 37.4655C90.5546 36.8064 90.9789 36.3235 91.4978 36.0167C92.0205 35.7098 92.5698 35.5564 93.1455 35.5564C93.5774 35.5564 93.9561 35.6322 94.2819 35.7837C94.6077 35.9314 94.8804 36.1303 95.1001 36.3803C95.3198 36.6265 95.4864 36.8973 95.6001 37.1928H95.6683V35.6701H98.8046V44.3746C98.8046 45.1132 98.6133 45.7401 98.2308 46.2553C97.852 46.7742 97.3179 47.1701 96.6285 47.4428C95.9391 47.7155 95.1342 47.8519 94.2137 47.8519ZM94.3274 42.0564C94.6152 42.0564 94.8614 41.9769 95.066 41.8178C95.2743 41.6549 95.4334 41.4239 95.5433 41.1246C95.6569 40.8216 95.7137 40.4579 95.7137 40.0337C95.7137 39.6019 95.6569 39.2326 95.5433 38.9257C95.4334 38.6151 95.2743 38.3784 95.066 38.2155C94.8614 38.0489 94.6152 37.9655 94.3274 37.9655C94.0395 37.9655 93.7933 38.0489 93.5887 38.2155C93.388 38.3784 93.2327 38.6151 93.1228 38.9257C93.0167 39.2326 92.9637 39.6019 92.9637 40.0337C92.9637 40.4655 93.0167 40.8329 93.1228 41.136C93.2327 41.4352 93.388 41.6644 93.5887 41.8235C93.7933 41.9788 94.0395 42.0564 94.3274 42.0564ZM107.817 44.5792C106.984 44.5792 106.266 44.4314 105.664 44.136C105.062 43.8405 104.599 43.4447 104.278 42.9485C103.956 42.4523 103.795 41.9049 103.795 41.3064C103.795 40.8708 103.878 40.4864 104.045 40.153C104.211 39.8159 104.444 39.5072 104.743 39.2269C105.043 38.9466 105.393 38.6701 105.795 38.3973L108.431 36.761C108.696 36.5943 108.876 36.422 108.971 36.2439C109.065 36.0621 109.113 35.9011 109.113 35.761C109.113 35.5754 109.045 35.4106 108.908 35.2667C108.772 35.1227 108.56 35.0526 108.272 35.0564C108.094 35.0564 107.94 35.0905 107.812 35.1587C107.683 35.2231 107.582 35.314 107.51 35.4314C107.442 35.5489 107.408 35.689 107.408 35.8519C107.408 36.0754 107.473 36.3045 107.601 36.5394C107.73 36.7704 107.906 37.0204 108.13 37.2894C108.353 37.5583 108.605 37.8595 108.885 38.1928L114.522 44.3973H111.385L106.658 39.3973C106.427 39.1511 106.171 38.85 105.891 38.4939C105.611 38.1341 105.368 37.7288 105.164 37.278C104.963 36.8273 104.863 36.3367 104.863 35.8064C104.863 35.2155 105.005 34.6757 105.289 34.1871C105.573 33.6985 105.971 33.3083 106.482 33.0167C106.993 32.725 107.59 32.5792 108.272 32.5792C108.923 32.5792 109.484 32.7136 109.954 32.9826C110.427 33.2515 110.791 33.6095 111.045 34.0564C111.302 34.5034 111.431 34.9958 111.431 35.5337C111.431 36.0754 111.296 36.5811 111.028 37.0507C110.762 37.5204 110.382 37.9314 109.885 38.2837L107.476 39.9882C107.291 40.117 107.13 40.2648 106.993 40.4314C106.861 40.5981 106.795 40.814 106.795 41.0792C106.795 41.2989 106.846 41.4864 106.948 41.6417C107.05 41.797 107.194 41.9163 107.38 41.9996C107.569 42.0829 107.791 42.1246 108.045 42.1246C108.431 42.1246 108.817 42.0318 109.204 41.8462C109.594 41.6568 109.95 41.3936 110.272 41.0564C110.594 40.7155 110.851 40.314 111.045 39.8519C111.242 39.386 111.34 38.8784 111.34 38.3292H113.817C113.817 39.0034 113.747 39.653 113.607 40.278C113.467 40.903 113.242 41.475 112.931 41.9939C112.62 42.5129 112.211 42.9504 111.704 43.3064C111.545 43.386 111.389 43.4617 111.238 43.5337C111.086 43.6057 110.931 43.6814 110.772 43.761C110.306 44.0602 109.819 44.2723 109.312 44.3973C108.804 44.5186 108.306 44.5792 107.817 44.5792ZM118.891 32.761H122.027V41.5564C122.031 41.7345 122.082 41.8708 122.181 41.9655C122.283 42.0564 122.429 42.1019 122.618 42.1019C122.717 42.1019 122.796 42.0981 122.857 42.0905C122.918 42.0829 122.967 42.0716 123.005 42.0564L123.459 44.2155C123.33 44.2572 123.175 44.3007 122.993 44.3462C122.811 44.3917 122.535 44.4239 122.164 44.4428C121.039 44.4996 120.213 44.3254 119.686 43.9201C119.16 43.511 118.895 42.8216 118.891 41.8519V32.761ZM124.397 44.3973V35.6701H127.533V44.3973H124.397ZM125.965 34.761C125.541 34.761 125.177 34.6208 124.874 34.3405C124.571 34.0602 124.419 33.7231 124.419 33.3292C124.419 32.9352 124.571 32.5981 124.874 32.3178C125.177 32.0375 125.541 31.8973 125.965 31.8973C126.393 31.8973 126.757 32.0375 127.056 32.3178C127.359 32.5981 127.51 32.9352 127.51 33.3292C127.51 33.7231 127.359 34.0602 127.056 34.3405C126.757 34.6208 126.393 34.761 125.965 34.761ZM134.598 35.6701V37.9428H128.757V35.6701H134.598ZM129.871 44.3973V35.4201C129.871 34.7004 130 34.1038 130.257 33.6303C130.515 33.1568 130.879 32.8026 131.348 32.5678C131.818 32.3329 132.371 32.2155 133.007 32.2155C133.405 32.2155 133.791 32.2458 134.166 32.3064C134.545 32.367 134.826 32.4201 135.007 32.4655L134.553 34.7155C134.439 34.6814 134.307 34.6549 134.155 34.636C134.004 34.6132 133.871 34.6019 133.757 34.6019C133.462 34.6019 133.263 34.6644 133.161 34.7894C133.059 34.9144 133.007 35.0792 133.007 35.2837V44.3973H129.871ZM139.965 44.5564C139.033 44.5564 138.23 44.3784 137.556 44.0223C136.885 43.6625 136.368 43.1473 136.005 42.4769C135.645 41.8026 135.465 40.9958 135.465 40.0564C135.465 39.1549 135.647 38.367 136.01 37.6928C136.374 37.0186 136.887 36.4939 137.55 36.1189C138.213 35.7439 138.995 35.5564 139.897 35.5564C140.556 35.5564 141.152 35.6587 141.686 35.8632C142.22 36.0678 142.677 36.3651 143.056 36.7553C143.434 37.1417 143.726 37.6114 143.931 38.1644C144.135 38.7174 144.237 39.3405 144.237 40.0337V40.761H136.442V39.0337H141.351C141.347 38.7837 141.283 38.564 141.158 38.3746C141.037 38.1814 140.872 38.0318 140.664 37.9257C140.459 37.8159 140.226 37.761 139.965 37.761C139.711 37.761 139.478 37.8159 139.266 37.9257C139.054 38.0318 138.883 38.1795 138.755 38.3689C138.63 38.5583 138.563 38.7799 138.556 39.0337V40.8973C138.556 41.1776 138.614 41.4276 138.732 41.6473C138.849 41.867 139.018 42.0394 139.237 42.1644C139.457 42.2894 139.722 42.3519 140.033 42.3519C140.249 42.3519 140.446 42.3216 140.624 42.261C140.806 42.2004 140.961 42.1132 141.09 41.9996C141.219 41.8822 141.313 41.742 141.374 41.5792H144.237C144.139 42.1852 143.906 42.7117 143.539 43.1587C143.171 43.6019 142.684 43.9466 142.078 44.1928C141.476 44.4352 140.772 44.5564 139.965 44.5564ZM149.962 44.5564C149.015 44.5564 148.204 44.3689 147.53 43.9939C146.856 43.6151 146.339 43.0886 145.979 42.4144C145.619 41.7364 145.439 40.9504 145.439 40.0564C145.439 39.1625 145.619 38.3784 145.979 37.7042C146.339 37.0261 146.856 36.4996 147.53 36.1246C148.204 35.7458 149.015 35.5564 149.962 35.5564C150.818 35.5564 151.558 35.7117 152.183 36.0223C152.812 36.3292 153.299 36.7648 153.644 37.3292C153.988 37.8898 154.163 38.5489 154.166 39.3064H151.257C151.216 38.8481 151.083 38.4996 150.86 38.261C150.64 38.0186 150.356 37.8973 150.007 37.8973C149.735 37.8973 149.496 37.9769 149.291 38.136C149.087 38.2913 148.928 38.528 148.814 38.8462C148.7 39.1606 148.644 39.5564 148.644 40.0337C148.644 40.511 148.7 40.9087 148.814 41.2269C148.928 41.5413 149.087 41.778 149.291 41.9371C149.496 42.0924 149.735 42.1701 150.007 42.1701C150.238 42.1701 150.443 42.117 150.621 42.011C150.799 41.9011 150.943 41.742 151.053 41.5337C151.166 41.3216 151.235 41.064 151.257 40.761H154.166C154.155 41.5299 153.979 42.2004 153.638 42.7723C153.297 43.3405 152.814 43.7799 152.189 44.0905C151.568 44.4011 150.825 44.5564 149.962 44.5564ZM157.61 47.6701C157.25 47.6701 156.907 47.6417 156.581 47.5848C156.255 47.5318 155.969 47.4579 155.723 47.3632L156.405 45.136C156.663 45.2269 156.897 45.2856 157.11 45.3121C157.325 45.3386 157.509 45.3235 157.661 45.2667C157.816 45.2098 157.928 45.1019 157.996 44.9428L158.064 44.7837L154.996 35.6701H158.269L159.678 41.7155H159.769L161.2 35.6701H164.496L161.314 45.1246C161.155 45.6057 160.924 46.0375 160.621 46.4201C160.322 46.8064 159.928 47.1114 159.439 47.3348C158.95 47.5583 158.341 47.6701 157.61 47.6701ZM169.567 44.5564C168.62 44.5564 167.809 44.3689 167.135 43.9939C166.461 43.6151 165.944 43.0886 165.584 42.4144C165.224 41.7364 165.044 40.9504 165.044 40.0564C165.044 39.1625 165.224 38.3784 165.584 37.7042C165.944 37.0261 166.461 36.4996 167.135 36.1246C167.809 35.7458 168.62 35.5564 169.567 35.5564C170.423 35.5564 171.163 35.7117 171.788 36.0223C172.417 36.3292 172.904 36.7648 173.249 37.3292C173.593 37.8898 173.768 38.5489 173.771 39.3064H170.862C170.821 38.8481 170.688 38.4996 170.465 38.261C170.245 38.0186 169.961 37.8973 169.612 37.8973C169.34 37.8973 169.101 37.9769 168.896 38.136C168.692 38.2913 168.533 38.528 168.419 38.8462C168.305 39.1606 168.249 39.5564 168.249 40.0337C168.249 40.511 168.305 40.9087 168.419 41.2269C168.533 41.5413 168.692 41.778 168.896 41.9371C169.101 42.0924 169.34 42.1701 169.612 42.1701C169.843 42.1701 170.048 42.117 170.226 42.011C170.404 41.9011 170.548 41.742 170.658 41.5337C170.771 41.3216 170.84 41.064 170.862 40.761H173.771C173.76 41.5299 173.584 42.2004 173.243 42.7723C172.902 43.3405 172.419 43.7799 171.794 44.0905C171.173 44.4011 170.43 44.5564 169.567 44.5564ZM175.305 32.761H178.442V41.5564C178.446 41.7345 178.497 41.8708 178.595 41.9655C178.697 42.0564 178.843 42.1019 179.033 42.1019C179.131 42.1019 179.211 42.0981 179.271 42.0905C179.332 42.0829 179.381 42.0716 179.419 42.0564L179.874 44.2155C179.745 44.2572 179.59 44.3007 179.408 44.3462C179.226 44.3917 178.949 44.4239 178.578 44.4428C177.453 44.4996 176.627 44.3254 176.101 43.9201C175.574 43.511 175.309 42.8216 175.305 41.8519V32.761ZM184.993 44.5564C184.061 44.5564 183.258 44.3784 182.584 44.0223C181.913 43.6625 181.396 43.1473 181.033 42.4769C180.673 41.8026 180.493 40.9958 180.493 40.0564C180.493 39.1549 180.675 38.367 181.038 37.6928C181.402 37.0186 181.915 36.4939 182.578 36.1189C183.241 35.7439 184.023 35.5564 184.925 35.5564C185.584 35.5564 186.18 35.6587 186.714 35.8632C187.249 36.0678 187.705 36.3651 188.084 36.7553C188.463 37.1417 188.754 37.6114 188.959 38.1644C189.163 38.7174 189.266 39.3405 189.266 40.0337V40.761H181.47V39.0337H186.379C186.375 38.7837 186.311 38.564 186.186 38.3746C186.065 38.1814 185.9 38.0318 185.692 37.9257C185.487 37.8159 185.254 37.761 184.993 37.761C184.739 37.761 184.506 37.8159 184.294 37.9257C184.082 38.0318 183.911 38.1795 183.783 38.3689C183.658 38.5583 183.591 38.7799 183.584 39.0337V40.8973C183.584 41.1776 183.642 41.4276 183.76 41.6473C183.877 41.867 184.046 42.0394 184.266 42.1644C184.485 42.2894 184.75 42.3519 185.061 42.3519C185.277 42.3519 185.474 42.3216 185.652 42.261C185.834 42.2004 185.989 42.1132 186.118 41.9996C186.247 41.8822 186.341 41.742 186.402 41.5792H189.266C189.167 42.1852 188.934 42.7117 188.567 43.1587C188.199 43.6019 187.713 43.9466 187.106 44.1928C186.504 44.4352 185.8 44.5564 184.993 44.5564ZM194.213 47.6701V35.6701H197.327V37.1928H197.395C197.508 36.8973 197.675 36.6265 197.895 36.3803C198.114 36.1303 198.387 35.9314 198.713 35.7837C199.039 35.6322 199.417 35.5564 199.849 35.5564C200.425 35.5564 200.972 35.7098 201.491 36.0167C202.014 36.3235 202.438 36.8064 202.764 37.4655C203.094 38.1246 203.258 38.9807 203.258 40.0337C203.258 41.0413 203.101 41.8765 202.787 42.5394C202.476 43.2023 202.06 43.6966 201.537 44.0223C201.018 44.3481 200.448 44.511 199.827 44.511C199.417 44.511 199.052 44.4447 198.73 44.3121C198.412 44.1757 198.139 43.992 197.912 43.761C197.688 43.5261 197.516 43.261 197.395 42.9655H197.349V47.6701H194.213ZM197.281 40.0337C197.281 40.4579 197.336 40.8254 197.446 41.136C197.56 41.4428 197.719 41.6814 197.923 41.8519C198.131 42.0186 198.38 42.1019 198.667 42.1019C198.955 42.1019 199.2 42.0204 199.4 41.8576C199.605 41.6909 199.76 41.4542 199.866 41.1473C199.976 40.8367 200.031 40.4655 200.031 40.0337C200.031 39.6019 199.976 39.2326 199.866 38.9257C199.76 38.6151 199.605 38.3784 199.4 38.2155C199.2 38.0489 198.955 37.9655 198.667 37.9655C198.38 37.9655 198.131 38.0489 197.923 38.2155C197.719 38.3784 197.56 38.6151 197.446 38.9257C197.336 39.2326 197.281 39.6019 197.281 40.0337ZM209.017 44.5564C208.07 44.5564 207.259 44.3689 206.585 43.9939C205.911 43.6151 205.394 43.0886 205.034 42.4144C204.674 41.7364 204.494 40.9504 204.494 40.0564C204.494 39.1625 204.674 38.3784 205.034 37.7042C205.394 37.0261 205.911 36.4996 206.585 36.1246C207.259 35.7458 208.07 35.5564 209.017 35.5564C209.964 35.5564 210.774 35.7458 211.449 36.1246C212.123 36.4996 212.64 37.0261 213 37.7042C213.36 38.3784 213.54 39.1625 213.54 40.0564C213.54 40.9504 213.36 41.7364 213 42.4144C212.64 43.0886 212.123 43.6151 211.449 43.9939C210.774 44.3689 209.964 44.5564 209.017 44.5564ZM209.04 42.2382C209.305 42.2382 209.534 42.1492 209.727 41.9712C209.92 41.7932 210.07 41.5394 210.176 41.2098C210.282 40.8803 210.335 40.4882 210.335 40.0337C210.335 39.5754 210.282 39.1833 210.176 38.8576C210.07 38.528 209.92 38.2742 209.727 38.0962C209.534 37.9182 209.305 37.8292 209.04 37.8292C208.759 37.8292 208.519 37.9182 208.318 38.0962C208.117 38.2742 207.964 38.528 207.858 38.8576C207.752 39.1833 207.699 39.5754 207.699 40.0337C207.699 40.4882 207.752 40.8803 207.858 41.2098C207.964 41.5394 208.117 41.7932 208.318 41.9712C208.519 42.1492 208.759 42.2382 209.04 42.2382ZM215.052 32.761H218.189V41.5564C218.192 41.7345 218.244 41.8708 218.342 41.9655C218.444 42.0564 218.59 42.1019 218.78 42.1019C218.878 42.1019 218.958 42.0981 219.018 42.0905C219.079 42.0829 219.128 42.0716 219.166 42.0564L219.62 44.2155C219.492 44.2572 219.336 44.3007 219.155 44.3462C218.973 44.3917 218.696 44.4239 218.325 44.4428C217.2 44.4996 216.374 44.3254 215.848 43.9201C215.321 43.511 215.056 42.8216 215.052 41.8519V32.761ZM220.558 44.3973V35.6701H223.694V44.3973H220.558ZM222.126 34.761C221.702 34.761 221.338 34.6208 221.035 34.3405C220.732 34.0602 220.581 33.7231 220.581 33.3292C220.581 32.9352 220.732 32.5981 221.035 32.3178C221.338 32.0375 221.702 31.8973 222.126 31.8973C222.554 31.8973 222.918 32.0375 223.217 32.3178C223.52 32.5981 223.672 32.9352 223.672 33.3292C223.672 33.7231 223.52 34.0602 223.217 34.3405C222.918 34.6208 222.554 34.761 222.126 34.761ZM229.737 44.5564C228.79 44.5564 227.979 44.3689 227.305 43.9939C226.631 43.6151 226.114 43.0886 225.754 42.4144C225.394 41.7364 225.214 40.9504 225.214 40.0564C225.214 39.1625 225.394 38.3784 225.754 37.7042C226.114 37.0261 226.631 36.4996 227.305 36.1246C227.979 35.7458 228.79 35.5564 229.737 35.5564C230.593 35.5564 231.333 35.7117 231.958 36.0223C232.587 36.3292 233.074 36.7648 233.419 37.3292C233.763 37.8898 233.938 38.5489 233.941 39.3064H231.032C230.991 38.8481 230.858 38.4996 230.635 38.261C230.415 38.0186 230.131 37.8973 229.782 37.8973C229.51 37.8973 229.271 37.9769 229.066 38.136C228.862 38.2913 228.703 38.528 228.589 38.8462C228.475 39.1606 228.419 39.5564 228.419 40.0337C228.419 40.511 228.475 40.9087 228.589 41.2269C228.703 41.5413 228.862 41.778 229.066 41.9371C229.271 42.0924 229.51 42.1701 229.782 42.1701C230.013 42.1701 230.218 42.117 230.396 42.011C230.574 41.9011 230.718 41.742 230.828 41.5337C230.941 41.3216 231.01 41.064 231.032 40.761H233.941C233.93 41.5299 233.754 42.2004 233.413 42.7723C233.072 43.3405 232.589 43.7799 231.964 44.0905C231.343 44.4011 230.6 44.5564 229.737 44.5564ZM235.475 44.3973V35.6701H238.612V44.3973H235.475ZM237.044 34.761C236.619 34.761 236.256 34.6208 235.953 34.3405C235.65 34.0602 235.498 33.7231 235.498 33.3292C235.498 32.9352 235.65 32.5981 235.953 32.3178C236.256 32.0375 236.619 31.8973 237.044 31.8973C237.472 31.8973 237.835 32.0375 238.135 32.3178C238.438 32.5981 238.589 32.9352 238.589 33.3292C238.589 33.7231 238.438 34.0602 238.135 34.3405C237.835 34.6208 237.472 34.761 237.044 34.761ZM244.632 44.5564C243.7 44.5564 242.897 44.3784 242.223 44.0223C241.552 43.6625 241.035 43.1473 240.671 42.4769C240.312 41.8026 240.132 40.9958 240.132 40.0564C240.132 39.1549 240.313 38.367 240.677 37.6928C241.041 37.0186 241.554 36.4939 242.217 36.1189C242.88 35.7439 243.662 35.5564 244.563 35.5564C245.223 35.5564 245.819 35.6587 246.353 35.8632C246.887 36.0678 247.344 36.3651 247.723 36.7553C248.101 37.1417 248.393 37.6114 248.598 38.1644C248.802 38.7174 248.904 39.3405 248.904 40.0337V40.761H241.109V39.0337H246.018C246.014 38.7837 245.95 38.564 245.825 38.3746C245.704 38.1814 245.539 38.0318 245.33 37.9257C245.126 37.8159 244.893 37.761 244.632 37.761C244.378 37.761 244.145 37.8159 243.933 37.9257C243.721 38.0318 243.55 38.1795 243.421 38.3689C243.296 38.5583 243.23 38.7799 243.223 39.0337V40.8973C243.223 41.1776 243.281 41.4276 243.399 41.6473C243.516 41.867 243.685 42.0394 243.904 42.1644C244.124 42.2894 244.389 42.3519 244.7 42.3519C244.916 42.3519 245.113 42.3216 245.291 42.261C245.473 42.2004 245.628 42.1132 245.757 41.9996C245.885 41.8822 245.98 41.742 246.041 41.5792H248.904C248.806 42.1852 248.573 42.7117 248.205 43.1587C247.838 43.6019 247.351 43.9466 246.745 44.1928C246.143 44.4352 245.438 44.5564 244.632 44.5564ZM258.401 38.511H255.515C255.5 38.3329 255.437 38.1795 255.328 38.0507C255.218 37.922 255.076 37.8235 254.901 37.7553C254.731 37.6833 254.542 37.6473 254.333 37.6473C254.064 37.6473 253.833 37.6966 253.64 37.7951C253.447 37.8936 253.352 38.0337 253.356 38.2155C253.352 38.3443 253.407 38.4636 253.521 38.5735C253.638 38.6833 253.864 38.7686 254.197 38.8292L255.97 39.1473C256.864 39.3102 257.528 39.5848 257.964 39.9712C258.403 40.3538 258.625 40.867 258.629 41.511C258.625 42.1322 258.439 42.672 258.072 43.1303C257.708 43.5848 257.21 43.9371 256.578 44.1871C255.949 44.4333 255.231 44.5564 254.424 44.5564C253.091 44.5564 252.047 44.2837 251.293 43.7382C250.543 43.1928 250.125 42.4731 250.038 41.5792H253.151C253.193 41.8557 253.329 42.0697 253.561 42.2212C253.795 42.3689 254.091 42.4428 254.447 42.4428C254.735 42.4428 254.972 42.3936 255.157 42.2951C255.347 42.1966 255.443 42.0564 255.447 41.8746C255.443 41.7079 255.36 41.5754 255.197 41.4769C255.038 41.3784 254.788 41.2989 254.447 41.2382L252.901 40.9655C252.011 40.8102 251.345 40.5148 250.901 40.0792C250.458 39.6436 250.239 39.0829 250.242 38.3973C250.239 37.7913 250.398 37.278 250.72 36.8576C251.045 36.4333 251.509 36.1114 252.112 35.8917C252.718 35.6682 253.436 35.5564 254.265 35.5564C255.526 35.5564 256.521 35.8178 257.248 36.3405C257.979 36.8632 258.364 37.5867 258.401 38.511Z" fill="#303048"/>
<rect x="321.657" y="11.3973" width="112.945" height="18.411" rx="9.20548" fill="#E6F0F5"/>
<path d="M334.224 24.2467H331.88L334.521 16.2467H337.489L340.13 24.2467H337.786L336.036 18.4498H335.974L334.224 24.2467ZM333.786 21.0905H338.192V22.7155H333.786V21.0905ZM346.392 18.2467L344.376 24.2467H341.876L339.86 18.2467H342.126L343.095 22.2155H343.157L344.126 18.2467H346.392ZM349.878 24.3561C349.227 24.3561 348.67 24.2272 348.206 23.9694C347.742 23.7089 347.387 23.347 347.14 22.8834C346.892 22.4173 346.768 21.8769 346.768 21.2623C346.768 20.6477 346.892 20.1087 347.14 19.6451C347.387 19.179 347.742 18.817 348.206 18.5592C348.67 18.2988 349.227 18.1686 349.878 18.1686C350.529 18.1686 351.086 18.2988 351.55 18.5592C352.013 18.817 352.369 19.179 352.616 19.6451C352.864 20.1087 352.987 20.6477 352.987 21.2623C352.987 21.8769 352.864 22.4173 352.616 22.8834C352.369 23.347 352.013 23.7089 351.55 23.9694C351.086 24.2272 350.529 24.3561 349.878 24.3561ZM349.893 22.7623C350.076 22.7623 350.233 22.7011 350.366 22.5787C350.499 22.4563 350.602 22.2819 350.675 22.0553C350.748 21.8287 350.784 21.5592 350.784 21.2467C350.784 20.9316 350.748 20.6621 350.675 20.4381C350.602 20.2115 350.499 20.0371 350.366 19.9147C350.233 19.7923 350.076 19.7311 349.893 19.7311C349.701 19.7311 349.535 19.7923 349.397 19.9147C349.259 20.0371 349.154 20.2115 349.081 20.4381C349.008 20.6621 348.972 20.9316 348.972 21.2467C348.972 21.5592 349.008 21.8287 349.081 22.0553C349.154 22.2819 349.259 22.4563 349.397 22.5787C349.535 22.7011 349.701 22.7623 349.893 22.7623ZM354.027 24.2467V18.2467H356.183V24.2467H354.027ZM355.105 17.6217C354.814 17.6217 354.564 17.5253 354.355 17.3326C354.147 17.1399 354.043 16.9082 354.043 16.6373C354.043 16.3665 354.147 16.1347 354.355 15.942C354.564 15.7493 354.814 15.653 355.105 15.653C355.4 15.653 355.65 15.7493 355.855 15.942C356.064 16.1347 356.168 16.3665 356.168 16.6373C356.168 16.9082 356.064 17.1399 355.855 17.3326C355.65 17.5253 355.4 17.6217 355.105 17.6217ZM359.619 24.3248C359.192 24.3248 358.799 24.2128 358.439 23.9889C358.083 23.7649 357.796 23.4251 357.58 22.9694C357.366 22.5136 357.26 21.9394 357.26 21.2467C357.26 20.5227 357.372 19.9342 357.596 19.4811C357.822 19.028 358.114 18.6959 358.471 18.485C358.83 18.274 359.208 18.1686 359.603 18.1686C359.9 18.1686 360.161 18.2207 360.385 18.3248C360.609 18.4264 360.796 18.5631 360.947 18.735C361.098 18.9043 361.213 19.0905 361.291 19.2936H361.322V16.2467H363.478V24.2467H361.338V23.2623H361.291C361.208 23.4655 361.088 23.6477 360.931 23.8092C360.778 23.9681 360.59 24.0944 360.369 24.1881C360.15 24.2793 359.9 24.3248 359.619 24.3248ZM360.416 22.6686C360.614 22.6686 360.783 22.6113 360.924 22.4967C361.067 22.3795 361.176 22.2155 361.252 22.0045C361.33 21.791 361.369 21.5384 361.369 21.2467C361.369 20.9498 361.33 20.6959 361.252 20.485C361.176 20.2714 361.067 20.1087 360.924 19.9967C360.783 19.8821 360.614 19.8248 360.416 19.8248C360.218 19.8248 360.049 19.8821 359.908 19.9967C359.77 20.1087 359.663 20.2714 359.588 20.485C359.515 20.6959 359.478 20.9498 359.478 21.2467C359.478 21.5436 359.515 21.7988 359.588 22.0123C359.663 22.2233 359.77 22.386 359.908 22.5006C360.049 22.6126 360.218 22.6686 360.416 22.6686ZM370.105 24.2467H367.027V16.2467H370.074C370.897 16.2467 371.608 16.4069 372.207 16.7272C372.808 17.0449 373.272 17.5032 373.597 18.1022C373.926 18.6985 374.09 19.4134 374.09 20.2467C374.09 21.08 373.927 21.7962 373.601 22.3951C373.276 22.9915 372.815 23.4498 372.219 23.7701C371.622 24.0878 370.918 24.2467 370.105 24.2467ZM369.199 22.403H370.027C370.423 22.403 370.76 22.3392 371.039 22.2115C371.32 22.0839 371.534 21.8639 371.679 21.5514C371.828 21.2389 371.902 20.804 371.902 20.2467C371.902 19.6894 371.827 19.2545 371.676 18.942C371.527 18.6295 371.308 18.4095 371.019 18.2819C370.733 18.1543 370.381 18.0905 369.965 18.0905H369.199V22.403ZM378.181 24.3561C377.53 24.3561 376.973 24.2272 376.509 23.9694C376.046 23.7089 375.69 23.347 375.443 22.8834C375.196 22.4173 375.072 21.8769 375.072 21.2623C375.072 20.6477 375.196 20.1087 375.443 19.6451C375.69 19.179 376.046 18.817 376.509 18.5592C376.973 18.2988 377.53 18.1686 378.181 18.1686C378.832 18.1686 379.39 18.2988 379.853 18.5592C380.317 18.817 380.672 19.179 380.92 19.6451C381.167 20.1087 381.291 20.6477 381.291 21.2623C381.291 21.8769 381.167 22.4173 380.92 22.8834C380.672 23.347 380.317 23.7089 379.853 23.9694C379.39 24.2272 378.832 24.3561 378.181 24.3561ZM378.197 22.7623C378.379 22.7623 378.537 22.7011 378.67 22.5787C378.802 22.4563 378.905 22.2819 378.978 22.0553C379.051 21.8287 379.088 21.5592 379.088 21.2467C379.088 20.9316 379.051 20.6621 378.978 20.4381C378.905 20.2115 378.802 20.0371 378.67 19.9147C378.537 19.7923 378.379 19.7311 378.197 19.7311C378.004 19.7311 377.839 19.7923 377.701 19.9147C377.563 20.0371 377.457 20.2115 377.384 20.4381C377.312 20.6621 377.275 20.9316 377.275 21.2467C377.275 21.5592 377.312 21.8287 377.384 22.0553C377.457 22.2819 377.563 22.4563 377.701 22.5787C377.839 22.7011 378.004 22.7623 378.197 22.7623ZM383.286 24.2467L381.786 18.2467H383.942L384.63 21.903H384.676L385.442 18.2467H387.536L388.333 21.8717H388.38L389.036 18.2467H391.192L389.692 24.2467H387.364L386.52 21.028H386.458L385.614 24.2467H383.286ZM394.17 20.8717V24.2467H392.013V18.2467H394.06V19.3873H394.123C394.253 19.0071 394.482 18.7089 394.81 18.4928C395.141 18.2767 395.526 18.1686 395.966 18.1686C396.391 18.1686 396.759 18.2662 397.072 18.4615C397.387 18.6543 397.631 18.9199 397.802 19.2584C397.977 19.597 398.063 19.9837 398.06 20.4186V24.2467H395.904V20.8717C395.907 20.5748 395.831 20.3418 395.677 20.1725C395.526 20.0032 395.315 19.9186 395.045 19.9186C394.867 19.9186 394.713 19.9576 394.58 20.0358C394.45 20.1113 394.349 20.2207 394.279 20.3639C394.209 20.5045 394.172 20.6738 394.17 20.8717ZM402.868 18.2467V19.8092H398.915V18.2467H402.868ZM399.68 16.8092H401.837V22.317C401.837 22.4003 401.851 22.4707 401.879 22.528C401.908 22.5826 401.952 22.6243 402.012 22.653C402.072 22.679 402.149 22.692 402.243 22.692C402.308 22.692 402.383 22.6842 402.469 22.6686C402.558 22.653 402.623 22.6399 402.665 22.6295L402.977 24.1451C402.881 24.1738 402.743 24.2089 402.563 24.2506C402.386 24.2923 402.175 24.3196 401.93 24.3326C401.435 24.3587 401.02 24.3079 400.684 24.1803C400.348 24.0501 400.096 23.8457 399.926 23.567C399.757 23.2884 399.675 22.9394 399.68 22.5201V16.8092ZM403.913 24.2467V18.2467H406.069V24.2467H403.913ZM404.991 17.6217C404.699 17.6217 404.449 17.5253 404.241 17.3326C404.032 17.1399 403.928 16.9082 403.928 16.6373C403.928 16.3665 404.032 16.1347 404.241 15.942C404.449 15.7493 404.699 15.653 404.991 15.653C405.285 15.653 405.535 15.7493 405.741 15.942C405.949 16.1347 406.053 16.3665 406.053 16.6373C406.053 16.9082 405.949 17.1399 405.741 17.3326C405.535 17.5253 405.285 17.6217 404.991 17.6217ZM407.333 24.2467V18.2467H409.379V19.3873H409.442C409.567 19.0123 409.78 18.7155 410.083 18.4967C410.385 18.278 410.744 18.1686 411.161 18.1686C411.583 18.1686 411.946 18.2806 412.251 18.5045C412.555 18.7259 412.739 19.0201 412.801 19.3873H412.864C412.965 19.0201 413.182 18.7259 413.512 18.5045C413.843 18.2806 414.231 18.1686 414.676 18.1686C415.252 18.1686 415.718 18.3535 416.075 18.7233C416.434 19.0931 416.614 19.5852 416.614 20.1998V24.2467H414.458V20.7467C414.458 20.4837 414.391 20.278 414.258 20.1295C414.126 19.9785 413.947 19.903 413.723 19.903C413.502 19.903 413.326 19.9785 413.196 20.1295C413.068 20.278 413.004 20.4837 413.004 20.7467V24.2467H410.942V20.7467C410.942 20.4837 410.876 20.278 410.743 20.1295C410.61 19.9785 410.432 19.903 410.208 19.903C410.059 19.903 409.932 19.9368 409.825 20.0045C409.718 20.0722 409.635 20.1699 409.575 20.2975C409.517 20.4225 409.489 20.5722 409.489 20.7467V24.2467H407.333ZM420.717 24.3561C420.077 24.3561 419.525 24.2337 419.061 23.9889C418.6 23.7415 418.245 23.3873 417.995 22.9264C417.747 22.4628 417.624 21.9082 417.624 21.2623C417.624 20.6425 417.749 20.1009 417.999 19.6373C418.249 19.1738 418.601 18.8131 419.057 18.5553C419.513 18.2975 420.051 18.1686 420.67 18.1686C421.124 18.1686 421.534 18.2389 421.901 18.3795C422.268 18.5201 422.582 18.7246 422.842 18.9928C423.103 19.2584 423.303 19.5813 423.444 19.9615C423.584 20.3418 423.655 20.7701 423.655 21.2467V21.7467H418.295V20.5592H421.67C421.668 20.3873 421.624 20.2363 421.538 20.1061C421.454 19.9733 421.341 19.8704 421.198 19.7975C421.057 19.722 420.897 19.6842 420.717 19.6842C420.543 19.6842 420.383 19.722 420.237 19.7975C420.091 19.8704 419.974 19.972 419.885 20.1022C419.799 20.2324 419.754 20.3847 419.749 20.5592V21.8405C419.749 22.0332 419.789 22.205 419.87 22.3561C419.95 22.5071 420.066 22.6256 420.217 22.7115C420.368 22.7975 420.551 22.8405 420.764 22.8405C420.913 22.8405 421.048 22.8196 421.17 22.778C421.295 22.7363 421.402 22.6764 421.491 22.5983C421.579 22.5175 421.644 22.4212 421.686 22.3092H423.655C423.587 22.7259 423.427 23.0878 423.174 23.3951C422.922 23.6998 422.587 23.9368 422.17 24.1061C421.756 24.2727 421.272 24.3561 420.717 24.3561Z" fill="#6F9FCB"/>
<g opacity="0.8">
<path d="M24.5091 67.3843C23.9416 67.2207 23.3507 67.5512 23.1872 68.1187L18.9141 83.0745C18.7505 83.642 19.081 84.2329 19.6485 84.3965C20.216 84.56 20.8069 84.2295 20.9705 83.662L25.2436 68.7063C25.4072 68.1387 25.0767 67.5479 24.5091 67.3843ZM27.1998 71.3936C26.7826 71.8109 26.7826 72.4886 27.1998 72.9059L30.181 75.8904L27.1965 78.8748C26.7792 79.2921 26.7792 79.9698 27.1965 80.3871C27.6138 80.8044 28.2915 80.8044 28.7088 80.3871L32.4477 76.6482C32.865 76.2309 32.865 75.5532 32.4477 75.1359L28.7088 71.397C28.2915 70.9797 27.6138 70.9797 27.1965 71.397L27.1998 71.3936ZM16.9612 71.3936C16.5439 70.9763 15.8662 70.9763 15.4489 71.3936L11.7099 75.1326C11.2926 75.5499 11.2926 76.2275 11.7099 76.6448L15.4489 80.3838C15.8662 80.8011 16.5439 80.8011 16.9612 80.3838C17.3784 79.9665 17.3784 79.2888 16.9612 78.8715L13.9767 75.8904L16.9612 72.9059C17.3784 72.4886 17.3784 71.8109 16.9612 71.3936Z" fill="#303048"/>
<path d="M46.6669 74.5012H45.3373C45.2862 74.2171 45.191 73.9671 45.0518 73.7512C44.9126 73.5353 44.7421 73.352 44.5404 73.2015C44.3387 73.0509 44.1129 72.9373 43.8629 72.8606C43.6157 72.7838 43.3529 72.7455 43.0745 72.7455C42.5717 72.7455 42.1214 72.8719 41.7237 73.1248C41.3288 73.3776 41.0163 73.7483 40.7862 74.237C40.5589 74.7256 40.4453 75.3222 40.4453 76.0267C40.4453 76.737 40.5589 77.3364 40.7862 77.825C41.0163 78.3137 41.3302 78.683 41.7279 78.933C42.1257 79.183 42.5731 79.308 43.0703 79.308C43.3458 79.308 43.6072 79.2711 43.8544 79.1972C44.1044 79.1205 44.3302 79.0083 44.5319 78.8606C44.7336 78.7128 44.9041 78.5324 45.0433 78.3194C45.1853 78.1034 45.2833 77.8563 45.3373 77.5779L46.6669 77.5821C46.5958 78.0111 46.4581 78.406 46.2535 78.7668C46.0518 79.1248 45.7919 79.4344 45.4737 79.6958C45.1583 79.9543 44.7975 80.1546 44.3913 80.2966C43.985 80.4387 43.5419 80.5097 43.0617 80.5097C42.3061 80.5097 41.6328 80.3307 41.0419 79.9728C40.451 79.612 39.985 79.0963 39.6441 78.4259C39.3061 77.7554 39.137 76.9557 39.137 76.0267C39.137 75.0949 39.3075 74.2952 39.6484 73.6276C39.9893 72.9571 40.4552 72.4429 41.0461 72.085C41.637 71.7242 42.3089 71.5438 43.0617 71.5438C43.5248 71.5438 43.9566 71.6106 44.3572 71.7441C44.7606 71.8748 45.1228 72.0679 45.4438 72.3236C45.7649 72.5765 46.0305 72.8861 46.2407 73.2526C46.451 73.6162 46.593 74.0324 46.6669 74.5012ZM56.0635 76.0267C56.0635 76.9586 55.893 77.7597 55.5521 78.4302C55.2112 79.0978 54.7439 79.612 54.1501 79.9728C53.5592 80.3307 52.8873 80.5097 52.1345 80.5097C51.3788 80.5097 50.7041 80.3307 50.1103 79.9728C49.5194 79.612 49.0535 79.0963 48.7126 78.4259C48.3717 77.7554 48.2012 76.9557 48.2012 76.0267C48.2012 75.0949 48.3717 74.2952 48.7126 73.6276C49.0535 72.9571 49.5194 72.4429 50.1103 72.085C50.7041 71.7242 51.3788 71.5438 52.1345 71.5438C52.8873 71.5438 53.5592 71.7242 54.1501 72.085C54.7439 72.4429 55.2112 72.9571 55.5521 73.6276C55.893 74.2952 56.0635 75.0949 56.0635 76.0267ZM54.7595 76.0267C54.7595 75.3165 54.6444 74.7185 54.4143 74.2327C54.187 73.7441 53.8745 73.3748 53.4768 73.1248C53.0819 72.8719 52.6345 72.7455 52.1345 72.7455C51.6316 72.7455 51.1828 72.8719 50.7879 73.1248C50.393 73.3748 50.0805 73.7441 49.8504 74.2327C49.6231 74.7185 49.5095 75.3165 49.5095 76.0267C49.5095 76.737 49.6231 77.3364 49.8504 77.825C50.0805 78.3108 50.393 78.6802 50.7879 78.933C51.1828 79.183 51.6316 79.308 52.1345 79.308C52.6345 79.308 53.0819 79.183 53.4768 78.933C53.8745 78.6802 54.187 78.3108 54.4143 77.825C54.6444 77.3364 54.7595 76.737 54.7595 76.0267ZM60.7704 80.3904H57.9452V71.6631H60.8599C61.715 71.6631 62.4494 71.8378 63.0631 72.1873C63.6767 72.5338 64.1469 73.0324 64.4736 73.683C64.8031 74.3307 64.9679 75.1077 64.9679 76.014C64.9679 76.9231 64.8017 77.7043 64.4693 78.3577C64.1398 79.0111 63.6625 79.514 63.0375 79.8662C62.4125 80.2157 61.6568 80.3904 60.7704 80.3904ZM59.2619 79.2398H60.698C61.3628 79.2398 61.9153 79.1148 62.3557 78.8648C62.796 78.612 63.1256 78.2469 63.3443 77.7696C63.5631 77.2895 63.6724 76.7043 63.6724 76.014C63.6724 75.3293 63.5631 74.7483 63.3443 74.2711C63.1284 73.7938 62.8059 73.4316 62.377 73.1844C61.948 72.9373 61.4153 72.8137 60.779 72.8137H59.2619V79.2398ZM66.8453 80.3904V71.6631H72.3169V72.7966H68.1621V75.4557H72.0314V76.585H68.1621V79.2569H72.368V80.3904H66.8453Z" fill="#303048"/>
<path d="M92.2653 69.0521C92.2653 68.5987 92.4454 68.1639 92.766 67.8433C93.0866 67.5226 93.5214 67.3425 93.9748 67.3425C94.4283 67.3425 94.8631 67.5226 95.1837 67.8433C95.5043 68.1639 95.6844 68.5987 95.6844 69.0521C95.6844 69.5055 95.5043 69.9404 95.1837 70.261C94.8631 70.5816 94.4283 70.7617 93.9748 70.7617C93.5214 70.7617 93.0866 70.5816 92.766 70.261C92.4454 69.9404 92.2653 69.5055 92.2653 69.0521ZM90.5557 74.1809C90.5557 73.5505 91.065 73.0412 91.6954 73.0412H93.9748C94.6053 73.0412 95.1146 73.5505 95.1146 74.1809V82.159H96.2543C96.8847 82.159 97.394 82.6683 97.394 83.2987C97.394 83.9291 96.8847 84.4384 96.2543 84.4384H91.6954C91.065 84.4384 90.5557 83.9291 90.5557 83.2987C90.5557 82.6683 91.065 82.159 91.6954 82.159H92.8351V75.3206H91.6954C91.065 75.3206 90.5557 74.8113 90.5557 74.1809Z" fill="#303048"/>
<path d="M103.621 72.7968V71.6632H108.027V72.7968H103.621ZM103.621 80.3905V79.257H108.027V80.3905H103.621ZM106.485 71.6632V80.3905H105.164V71.6632H106.485ZM116.797 71.6632V80.3905H115.586L111.15 73.9899H111.069V80.3905H109.753V71.6632H110.971L115.412 78.0723H115.493V71.6632H116.797ZM118.957 80.3905V71.6632H124.369V72.7968H120.274V75.4558H123.982V76.5851H120.274V80.3905H118.957ZM133.81 76.0269C133.81 76.9587 133.639 77.7598 133.298 78.4303C132.957 79.0979 132.49 79.6121 131.896 79.9729C131.305 80.3308 130.633 80.5098 129.881 80.5098C129.125 80.5098 128.45 80.3308 127.856 79.9729C127.266 79.6121 126.8 79.0965 126.459 78.426C126.118 77.7556 125.947 76.9558 125.947 76.0269C125.947 75.095 126.118 74.2953 126.459 73.6277C126.8 72.9573 127.266 72.4431 127.856 72.0851C128.45 71.7243 129.125 71.5439 129.881 71.5439C130.633 71.5439 131.305 71.7243 131.896 72.0851C132.49 72.4431 132.957 72.9573 133.298 73.6277C133.639 74.2953 133.81 75.095 133.81 76.0269ZM132.506 76.0269C132.506 75.3166 132.391 74.7186 132.16 74.2328C131.933 73.7442 131.621 73.3749 131.223 73.1249C130.828 72.872 130.381 72.7456 129.881 72.7456C129.378 72.7456 128.929 72.872 128.534 73.1249C128.139 73.3749 127.827 73.7442 127.597 74.2328C127.369 74.7186 127.256 75.3166 127.256 76.0269C127.256 76.7371 127.369 77.3365 127.597 77.8252C127.827 78.311 128.139 78.6803 128.534 78.9331C128.929 79.1831 129.378 79.3081 129.881 79.3081C130.381 79.3081 130.828 79.1831 131.223 78.9331C131.621 78.6803 131.933 78.311 132.16 77.8252C132.391 77.3365 132.506 76.7371 132.506 76.0269Z" fill="#303048"/>
<path d="M159.667 67.3425C159.076 67.3425 158.599 67.82 158.599 68.411V69.0521C156.161 69.5463 154.325 71.7033 154.325 74.2877V74.9155C154.325 76.4848 153.747 78.0008 152.705 79.1761L152.458 79.4533C152.178 79.7671 152.111 80.2179 152.281 80.6019C152.452 80.9859 152.836 81.233 153.256 81.233H166.078C166.499 81.233 166.88 80.9859 167.053 80.6019C167.227 80.2179 167.157 79.7671 166.876 79.4533L166.629 79.1761C165.587 78.0008 165.01 76.4882 165.01 74.9155V74.2877C165.01 71.7033 163.173 69.5463 160.736 69.0521V68.411C160.736 67.82 160.258 67.3425 159.667 67.3425ZM161.18 83.814C161.581 83.4134 161.804 82.8691 161.804 82.3015H159.667H157.53C157.53 82.8691 157.754 83.4134 158.155 83.814C158.555 84.2147 159.1 84.4384 159.667 84.4384C160.235 84.4384 160.779 84.2147 161.18 83.814Z" fill="#303048"/>
<path d="M178.565 73.9558C178.519 73.5524 178.332 73.2399 178.002 73.0183C177.673 72.7939 177.258 72.6817 176.758 72.6817C176.4 72.6817 176.091 72.7385 175.829 72.8522C175.568 72.9629 175.365 73.1164 175.22 73.3124C175.078 73.5056 175.007 73.7257 175.007 73.9729C175.007 74.1803 175.055 74.3593 175.152 74.5098C175.251 74.6604 175.38 74.7868 175.539 74.8891C175.701 74.9885 175.875 75.0723 176.059 75.1405C176.244 75.2058 176.421 75.2598 176.592 75.3024L177.444 75.524C177.723 75.5922 178.008 75.6845 178.301 75.801C178.593 75.9175 178.865 76.0709 179.115 76.2612C179.365 76.4516 179.566 76.6874 179.72 76.9686C179.876 77.2499 179.954 77.5865 179.954 77.9786C179.954 78.4729 179.826 78.9118 179.571 79.2953C179.318 79.6789 178.95 79.9814 178.467 80.203C177.987 80.4246 177.406 80.5354 176.724 80.5354C176.071 80.5354 175.505 80.4317 175.028 80.2243C174.551 80.0169 174.177 79.7229 173.907 79.3422C173.637 78.9587 173.488 78.5041 173.46 77.9786H174.781C174.806 78.2939 174.909 78.5567 175.088 78.7669C175.269 78.9743 175.501 79.1291 175.782 79.2314C176.066 79.3308 176.377 79.3806 176.716 79.3806C177.088 79.3806 177.419 79.3223 177.708 79.2058C178.001 79.0865 178.231 78.9218 178.399 78.7115C178.566 78.4985 178.65 78.2499 178.65 77.9658C178.65 77.7073 178.576 77.4956 178.429 77.3308C178.284 77.1661 178.086 77.0297 177.836 76.9218C177.589 76.8138 177.309 76.7186 176.997 76.6362L175.966 76.355C175.267 76.1647 174.713 75.8848 174.304 75.5155C173.897 75.1462 173.694 74.6575 173.694 74.0496C173.694 73.5468 173.831 73.1078 174.103 72.7328C174.376 72.3578 174.745 72.0666 175.211 71.8593C175.677 71.649 176.203 71.5439 176.788 71.5439C177.379 71.5439 177.9 71.6476 178.352 71.855C178.806 72.0624 179.164 72.3479 179.426 72.7115C179.687 73.0723 179.823 73.4871 179.835 73.9558H178.565ZM187.38 71.6632H188.701V77.4033C188.701 78.0141 188.557 78.5553 188.27 79.0269C187.984 79.4956 187.58 79.8649 187.06 80.1348C186.54 80.4019 185.931 80.5354 185.232 80.5354C184.536 80.5354 183.928 80.4019 183.408 80.1348C182.888 79.8649 182.485 79.4956 182.198 79.0269C181.911 78.5553 181.768 78.0141 181.768 77.4033V71.6632H183.084V77.2968C183.084 77.6916 183.171 78.0425 183.344 78.3493C183.52 78.6561 183.769 78.8976 184.09 79.0737C184.411 79.247 184.792 79.3337 185.232 79.3337C185.675 79.3337 186.057 79.247 186.378 79.0737C186.702 78.8976 186.949 78.6561 187.12 78.3493C187.293 78.0425 187.38 77.6916 187.38 77.2968V71.6632ZM190.855 80.3905V71.6632H194.051C194.671 71.6632 195.183 71.7655 195.59 71.97C195.996 72.1718 196.3 72.4459 196.502 72.7925C196.703 73.1362 196.804 73.524 196.804 73.9558C196.804 74.3195 196.737 74.6263 196.604 74.8763C196.47 75.1235 196.291 75.3223 196.067 75.4729C195.845 75.6206 195.601 75.7286 195.334 75.7968V75.882C195.624 75.8962 195.906 75.9899 196.182 76.1632C196.46 76.3337 196.691 76.5766 196.872 76.8919C197.054 77.2073 197.145 77.5908 197.145 78.0425C197.145 78.4885 197.04 78.8891 196.83 79.2442C196.622 79.5965 196.301 79.8763 195.867 80.0837C195.432 80.2882 194.877 80.3905 194.2 80.3905H190.855ZM192.172 79.2612H194.073C194.703 79.2612 195.155 79.1391 195.428 78.8948C195.7 78.6504 195.837 78.345 195.837 77.9786C195.837 77.703 195.767 77.4502 195.628 77.22C195.489 76.9899 195.29 76.8067 195.031 76.6703C194.776 76.534 194.472 76.4658 194.12 76.4658H192.172V79.2612ZM192.172 75.4388H193.936C194.232 75.4388 194.497 75.382 194.733 75.2683C194.972 75.1547 195.161 74.9956 195.3 74.7911C195.442 74.5837 195.513 74.3394 195.513 74.0581C195.513 73.6973 195.387 73.3948 195.134 73.1504C194.881 72.9061 194.493 72.784 193.97 72.784H192.172V75.4388ZM203.707 73.9558C203.661 73.5524 203.474 73.2399 203.144 73.0183C202.815 72.7939 202.4 72.6817 201.9 72.6817C201.542 72.6817 201.232 72.7385 200.971 72.8522C200.71 72.9629 200.507 73.1164 200.362 73.3124C200.22 73.5056 200.149 73.7257 200.149 73.9729C200.149 74.1803 200.197 74.3593 200.293 74.5098C200.393 74.6604 200.522 74.7868 200.681 74.8891C200.843 74.9885 201.016 75.0723 201.201 75.1405C201.386 75.2058 201.563 75.2598 201.734 75.3024L202.586 75.524C202.864 75.5922 203.15 75.6845 203.443 75.801C203.735 75.9175 204.007 76.0709 204.257 76.2612C204.507 76.4516 204.708 76.6874 204.862 76.9686C205.018 77.2499 205.096 77.5865 205.096 77.9786C205.096 78.4729 204.968 78.9118 204.712 79.2953C204.46 79.6789 204.092 79.9814 203.609 80.203C203.129 80.4246 202.548 80.5354 201.866 80.5354C201.212 80.5354 200.647 80.4317 200.17 80.2243C199.693 80.0169 199.319 79.7229 199.049 79.3422C198.779 78.9587 198.63 78.5041 198.602 77.9786H199.923C199.948 78.2939 200.051 78.5567 200.23 78.7669C200.411 78.9743 200.643 79.1291 200.924 79.2314C201.208 79.3308 201.519 79.3806 201.857 79.3806C202.23 79.3806 202.561 79.3223 202.85 79.2058C203.143 79.0865 203.373 78.9218 203.541 78.7115C203.708 78.4985 203.792 78.2499 203.792 77.9658C203.792 77.7073 203.718 77.4956 203.57 77.3308C203.426 77.1661 203.228 77.0297 202.978 76.9218C202.731 76.8138 202.451 76.7186 202.139 76.6362L201.107 76.355C200.409 76.1647 199.855 75.8848 199.445 75.5155C199.039 75.1462 198.836 74.6575 198.836 74.0496C198.836 73.5468 198.972 73.1078 199.245 72.7328C199.518 72.3578 199.887 72.0666 200.353 71.8593C200.819 71.649 201.345 71.5439 201.93 71.5439C202.521 71.5439 203.042 71.6476 203.494 71.855C203.948 72.0624 204.306 72.3479 204.568 72.7115C204.829 73.0723 204.965 73.4871 204.977 73.9558H203.707ZM214.158 74.5013H212.829C212.777 74.2172 212.682 73.9672 212.543 73.7513C212.404 73.5354 212.233 73.3522 212.032 73.2016C211.83 73.051 211.604 72.9374 211.354 72.8607C211.107 72.784 210.844 72.7456 210.566 72.7456C210.063 72.7456 209.613 72.872 209.215 73.1249C208.82 73.3777 208.508 73.7485 208.277 74.2371C208.05 74.7257 207.937 75.3223 207.937 76.0269C207.937 76.7371 208.05 77.3365 208.277 77.8252C208.508 78.3138 208.821 78.6831 209.219 78.9331C209.617 79.1831 210.064 79.3081 210.562 79.3081C210.837 79.3081 211.098 79.2712 211.346 79.1973C211.596 79.1206 211.821 79.0084 212.023 78.8607C212.225 78.7129 212.395 78.5325 212.535 78.3195C212.677 78.1036 212.775 77.8564 212.829 77.578L214.158 77.5823C214.087 78.0112 213.949 78.4061 213.745 78.7669C213.543 79.1249 213.283 79.4345 212.965 79.6959C212.65 79.9544 212.289 80.1547 211.883 80.2968C211.476 80.4388 211.033 80.5098 210.553 80.5098C209.797 80.5098 209.124 80.3308 208.533 79.9729C207.942 79.6121 207.476 79.0965 207.135 78.426C206.797 77.7556 206.628 76.9558 206.628 76.0269C206.628 75.095 206.799 74.2953 207.14 73.6277C207.481 72.9573 207.946 72.4431 208.537 72.0851C209.128 71.7243 209.8 71.5439 210.553 71.5439C211.016 71.5439 211.448 71.6107 211.848 71.7442C212.252 71.8749 212.614 72.0681 212.935 72.3237C213.256 72.5766 213.522 72.8862 213.732 73.2527C213.942 73.6164 214.084 74.0325 214.158 74.5013ZM215.974 80.3905V71.6632H219.085C219.761 71.6632 220.322 71.7797 220.768 72.0127C221.217 72.2456 221.552 72.5681 221.773 72.98C221.995 73.3891 222.106 73.8621 222.106 74.399C222.106 74.9331 221.994 75.4033 221.769 75.8095C221.548 76.2129 221.212 76.5269 220.764 76.7513C220.317 76.9757 219.756 77.0879 219.08 77.0879H216.724V75.9544H218.961C219.387 75.9544 219.734 75.8933 220.001 75.7712C220.271 75.649 220.468 75.4715 220.593 75.2385C220.718 75.0056 220.781 74.7257 220.781 74.399C220.781 74.0695 220.717 73.784 220.589 73.5425C220.464 73.301 220.266 73.1164 219.996 72.9885C219.729 72.8578 219.379 72.7925 218.944 72.7925H217.291V80.3905H215.974ZM220.282 76.453L222.438 80.3905H220.938L218.825 76.453H220.282ZM223.518 72.7968V71.6632H227.924V72.7968H223.518ZM223.518 80.3905V79.257H227.924V80.3905H223.518ZM226.381 71.6632V80.3905H225.06V71.6632H226.381ZM229.649 80.3905V71.6632H232.845C233.464 71.6632 233.977 71.7655 234.383 71.97C234.79 72.1718 235.094 72.4459 235.295 72.7925C235.497 73.1362 235.598 73.524 235.598 73.9558C235.598 74.3195 235.531 74.6263 235.398 74.8763C235.264 75.1235 235.085 75.3223 234.861 75.4729C234.639 75.6206 234.395 75.7286 234.128 75.7968V75.882C234.418 75.8962 234.7 75.9899 234.976 76.1632C235.254 76.3337 235.484 76.5766 235.666 76.8919C235.848 77.2073 235.939 77.5908 235.939 78.0425C235.939 78.4885 235.834 78.8891 235.623 79.2442C235.416 79.5965 235.095 79.8763 234.66 80.0837C234.226 80.2882 233.67 80.3905 232.994 80.3905H229.649ZM230.966 79.2612H232.866C233.497 79.2612 233.949 79.1391 234.222 78.8948C234.494 78.6504 234.631 78.345 234.631 77.9786C234.631 77.703 234.561 77.4502 234.422 77.22C234.283 76.9899 234.084 76.8067 233.825 76.6703C233.57 76.534 233.266 76.4658 232.913 76.4658H230.966V79.2612ZM230.966 75.4388H232.73C233.025 75.4388 233.291 75.382 233.527 75.2683C233.766 75.1547 233.954 74.9956 234.094 74.7911C234.236 74.5837 234.307 74.3394 234.307 74.0581C234.307 73.6973 234.18 73.3948 233.927 73.1504C233.675 72.9061 233.287 72.784 232.764 72.784H230.966V75.4388ZM237.741 80.3905V71.6632H243.212V72.7968H239.057V75.4558H242.927V76.5851H239.057V79.257H243.263V80.3905H237.741Z" fill="#303048"/>
</g>
<mask id="path-11-inside-1_726_6886" fill="white">
<path d="M0 104.384H445.919V137.155C445.919 141.089 442.729 144.278 438.795 144.278H7.12328C3.18919 144.278 0 141.089 0 137.155V104.384Z"/>
</mask>
<path d="M0 104.384H445.919V137.155C445.919 141.089 442.729 144.278 438.795 144.278H7.12328C3.18919 144.278 0 141.089 0 137.155V104.384Z" fill="url(#paint0_linear_726_6886)"/>
<g clip-path="url(#clip0_726_6886)">
<mask id="mask0_726_6886" style="mask-type:luminance" maskUnits="userSpaceOnUse" x="11" y="115" width="17" height="18">
<path d="M27.7197 115.781H11.397V132.881H27.7197V115.781Z" fill="white"/>
</mask>
<g mask="url(#mask0_726_6886)">
<path d="M24.8776 123.836C24.5619 127.081 22.6898 129.39 18.9155 131.193C14.7578 129.214 12.9007 126.621 12.9007 122.831V118.972C13.1488 118.988 13.3969 118.995 13.6525 118.995C15.5472 118.995 17.3516 118.512 18.9155 117.591C20.2312 118.366 21.7199 118.827 23.2838 118.957L24.7725 117.438C24.5769 117.453 24.3815 117.461 24.1785 117.461C22.4116 117.461 20.7275 116.97 19.3215 116.049L18.9155 115.781L18.5095 116.049C17.1035 116.97 15.4269 117.461 13.6525 117.461C13.1789 117.461 12.7127 117.423 12.2616 117.354L11.397 117.215V122.831C11.397 128.754 15.5096 131.324 18.6072 132.735L18.9155 132.873L19.2238 132.735C22.3214 131.316 26.434 128.746 26.434 122.831V122.248L24.8776 123.836Z" fill="#6F9FCB"/>
<path d="M18.968 127.695L14.6899 124.189L15.6222 122.992L18.8627 125.639L26.652 117.683L27.7195 118.773L18.968 127.695Z" fill="#6F9FCB"/>
</g>
</g>
<path d="M37.7012 129.831V119.649H42.0961C42.8517 119.649 43.513 119.787 44.0797 120.062C44.6465 120.337 45.0873 120.733 45.4022 121.25C45.717 121.767 45.8745 122.387 45.8745 123.109C45.8745 123.839 45.7121 124.453 45.3873 124.954C45.0658 125.454 44.6133 125.832 44.03 126.087C43.45 126.343 42.7722 126.47 41.9966 126.47H39.3716V124.322H41.4398C41.7646 124.322 42.0414 124.283 42.2701 124.203C42.5021 124.12 42.6794 123.989 42.802 123.81C42.928 123.631 42.9909 123.398 42.9909 123.109C42.9909 122.818 42.928 122.581 42.802 122.398C42.6794 122.213 42.5021 122.077 42.2701 121.991C42.0414 121.901 41.7646 121.857 41.4398 121.857H40.4654V129.831H37.7012ZM43.6671 125.158L46.2125 129.831H43.2097L40.7239 125.158H43.6671ZM50.7975 129.97C49.9822 129.97 49.2795 129.814 48.6896 129.503C48.1029 129.188 47.6505 128.737 47.3323 128.151C47.0175 127.561 46.86 126.855 46.86 126.033C46.86 125.244 47.0191 124.554 47.3373 123.964C47.6555 123.374 48.1046 122.915 48.6846 122.587C49.2646 122.259 49.9491 122.095 50.7379 122.095C51.3146 122.095 51.8366 122.185 52.3039 122.364C52.7713 122.543 53.1706 122.803 53.5021 123.144C53.8335 123.482 54.0887 123.893 54.2677 124.377C54.4467 124.861 54.5362 125.406 54.5362 126.013V126.649H47.7151V125.138H52.0106C52.0073 124.919 51.9509 124.727 51.8416 124.561C51.7355 124.392 51.5913 124.261 51.409 124.168C51.2301 124.072 51.0262 124.024 50.7975 124.024C50.5755 124.024 50.3716 124.072 50.186 124.168C50.0004 124.261 49.8513 124.39 49.7386 124.556C49.6292 124.722 49.5712 124.916 49.5646 125.138V126.768C49.5646 127.014 49.616 127.232 49.7187 127.425C49.8214 127.617 49.9689 127.768 50.1612 127.877C50.3534 127.986 50.5854 128.041 50.8572 128.041C51.0461 128.041 51.2185 128.015 51.3742 127.962C51.5333 127.909 51.6692 127.832 51.7819 127.733C51.8946 127.63 51.9775 127.508 52.0305 127.365H54.5362C54.45 127.895 54.2462 128.356 53.9247 128.747C53.6032 129.135 53.1773 129.437 52.647 129.652C52.12 129.864 51.5035 129.97 50.7975 129.97ZM55.866 119.649H58.6103V127.345C58.6137 127.501 58.6584 127.62 58.7446 127.703C58.8341 127.783 58.9617 127.822 59.1274 127.822C59.2136 127.822 59.2832 127.819 59.3362 127.812C59.3892 127.806 59.4323 127.796 59.4655 127.783L59.8632 129.672C59.7505 129.708 59.6146 129.746 59.4555 129.786C59.2964 129.826 59.0545 129.854 58.7297 129.871C57.7453 129.92 57.0227 129.768 56.562 129.413C56.1013 129.055 55.8693 128.452 55.866 127.604V119.649ZM60.6834 129.831V122.195H63.4278V129.831H60.6834ZM62.0556 121.399C61.6844 121.399 61.3662 121.276 61.1011 121.031C60.8359 120.786 60.7033 120.491 60.7033 120.146C60.7033 119.802 60.8359 119.507 61.1011 119.261C61.3662 119.016 61.6844 118.893 62.0556 118.893C62.4301 118.893 62.7483 119.016 63.0101 119.261C63.2753 119.507 63.4079 119.802 63.4079 120.146C63.4079 120.491 63.2753 120.786 63.0101 121.031C62.7483 121.276 62.4301 121.399 62.0556 121.399ZM67.1639 129.95C66.6766 129.95 66.2458 129.871 65.8713 129.712C65.5 129.549 65.2084 129.304 64.9963 128.976C64.7841 128.648 64.6781 128.23 64.6781 127.723C64.6781 127.305 64.7493 126.949 64.8918 126.654C65.0344 126.356 65.2332 126.112 65.4884 125.923C65.7436 125.734 66.0403 125.59 66.3784 125.491C66.7197 125.391 67.0876 125.327 67.482 125.297C67.9096 125.264 68.2526 125.224 68.5112 125.178C68.773 125.128 68.9619 125.06 69.0779 124.974C69.1939 124.884 69.2519 124.767 69.2519 124.621V124.601C69.2519 124.402 69.1757 124.249 69.0232 124.143C68.8708 124.037 68.6752 123.984 68.4366 123.984C68.1748 123.984 67.961 124.042 67.7953 124.158C67.6329 124.271 67.5351 124.445 67.5019 124.68H64.9764C65.0095 124.216 65.157 123.789 65.4188 123.398C65.684 123.003 66.0701 122.688 66.5772 122.453C67.0843 122.214 67.7174 122.095 68.4764 122.095C69.0232 122.095 69.5138 122.16 69.948 122.289C70.3821 122.415 70.7517 122.592 71.0566 122.821C71.3615 123.046 71.5936 123.312 71.7526 123.616C71.915 123.918 71.9963 124.246 71.9963 124.601V129.831H69.4309V128.757H69.3713C69.2188 129.042 69.0332 129.272 68.8144 129.448C68.599 129.624 68.3521 129.751 68.0737 129.831C67.7986 129.91 67.4953 129.95 67.1639 129.95ZM68.0588 128.22C68.2676 128.22 68.4631 128.177 68.6454 128.091C68.831 128.005 68.9818 127.88 69.0978 127.718C69.2138 127.556 69.2718 127.358 69.2718 127.126V126.49C69.1989 126.52 69.121 126.548 69.0382 126.575C68.9586 126.601 68.8724 126.626 68.7796 126.649C68.6901 126.672 68.594 126.694 68.4913 126.714C68.3918 126.734 68.2874 126.752 68.1781 126.768C67.9659 126.802 67.7919 126.856 67.6561 126.932C67.5235 127.005 67.424 127.097 67.3578 127.206C67.2948 127.312 67.2633 127.431 67.2633 127.564C67.2633 127.776 67.3379 127.938 67.487 128.051C67.6362 128.164 67.8267 128.22 68.0588 128.22ZM73.4777 129.831V119.649H76.2221V123.527H76.2618C76.3613 123.268 76.5071 123.031 76.6993 122.816C76.8916 122.597 77.1302 122.423 77.4152 122.294C77.7003 122.161 78.0317 122.095 78.4096 122.095C78.9133 122.095 79.3923 122.229 79.8463 122.498C80.3037 122.766 80.6749 123.189 80.96 123.766C81.2483 124.342 81.3925 125.091 81.3925 126.013C81.3925 126.894 81.255 127.625 80.9799 128.205C80.7081 128.785 80.3435 129.218 79.8861 129.503C79.432 129.788 78.9332 129.93 78.3897 129.93C78.0317 129.93 77.7119 129.872 77.4301 129.756C77.1517 129.637 76.9131 129.476 76.7142 129.274C76.5187 129.069 76.3679 128.837 76.2618 128.578H76.2022V129.831H73.4777ZM76.1624 126.013C76.1624 126.384 76.2105 126.705 76.3066 126.977C76.406 127.246 76.5452 127.455 76.7242 127.604C76.9065 127.749 77.1236 127.822 77.3755 127.822C77.6274 127.822 77.8411 127.751 78.0168 127.609C78.1958 127.463 78.3317 127.256 78.4245 126.987C78.5206 126.715 78.5686 126.391 78.5686 126.013C78.5686 125.635 78.5206 125.312 78.4245 125.043C78.3317 124.772 78.1958 124.564 78.0168 124.422C77.8411 124.276 77.6274 124.203 77.3755 124.203C77.1236 124.203 76.9065 124.276 76.7242 124.422C76.5452 124.564 76.406 124.772 76.3066 125.043C76.2105 125.312 76.1624 125.635 76.1624 126.013ZM82.7509 129.831V122.195H85.4953V129.831H82.7509ZM84.1231 121.399C83.7519 121.399 83.4337 121.276 83.1686 121.031C82.9034 120.786 82.7708 120.491 82.7708 120.146C82.7708 119.802 82.9034 119.507 83.1686 119.261C83.4337 119.016 83.7519 118.893 84.1231 118.893C84.4976 118.893 84.8158 119.016 85.0776 119.261C85.3428 119.507 85.4754 119.802 85.4754 120.146C85.4754 120.491 85.3428 120.786 85.0776 121.031C84.8158 121.276 84.4976 121.399 84.1231 121.399ZM87.1035 119.649H89.8478V127.345C89.8512 127.501 89.8959 127.62 89.9821 127.703C90.0716 127.783 90.1992 127.822 90.3649 127.822C90.4511 127.822 90.5207 127.819 90.5737 127.812C90.6267 127.806 90.6698 127.796 90.703 127.783L91.1007 129.672C90.988 129.708 90.8521 129.746 90.693 129.786C90.5339 129.826 90.292 129.854 89.9672 129.871C88.9828 129.92 88.2602 129.768 87.7995 129.413C87.3388 129.055 87.1068 128.452 87.1035 127.604V119.649ZM91.9209 129.831V122.195H94.6653V129.831H91.9209ZM93.2931 121.399C92.9219 121.399 92.6037 121.276 92.3386 121.031C92.0734 120.786 91.9408 120.491 91.9408 120.146C91.9408 119.802 92.0734 119.507 92.3386 119.261C92.6037 119.016 92.9219 118.893 93.2931 118.893C93.6676 118.893 93.9858 119.016 94.2476 119.261C94.5128 119.507 94.6454 119.802 94.6454 120.146C94.6454 120.491 94.5128 120.786 94.2476 121.031C93.9858 121.276 93.6676 121.399 93.2931 121.399ZM100.827 122.195V124.183H95.7962V122.195H100.827ZM96.7707 120.365H99.515V127.375C99.515 127.481 99.5332 127.571 99.5697 127.643C99.6061 127.713 99.6625 127.766 99.7387 127.803C99.815 127.836 99.9127 127.852 100.032 127.852C100.115 127.852 100.211 127.842 100.32 127.822C100.433 127.803 100.516 127.786 100.569 127.773L100.967 129.702C100.844 129.738 100.668 129.783 100.44 129.836C100.214 129.889 99.9459 129.924 99.6343 129.94C99.0046 129.973 98.4759 129.909 98.0484 129.746C97.6208 129.581 97.2993 129.321 97.0839 128.966C96.8685 128.611 96.7641 128.167 96.7707 127.633V120.365ZM103.828 132.695C103.513 132.695 103.213 132.67 102.928 132.62C102.643 132.574 102.393 132.509 102.177 132.426L102.774 130.477C102.999 130.557 103.205 130.608 103.39 130.631C103.579 130.655 103.74 130.641 103.873 130.592C104.008 130.542 104.106 130.447 104.166 130.308L104.226 130.169L101.541 122.195H104.405L105.637 127.484H105.717L106.97 122.195H109.853L107.069 130.467C106.93 130.888 106.728 131.266 106.463 131.601C106.201 131.939 105.856 132.206 105.429 132.401C105.001 132.597 104.467 132.695 103.828 132.695ZM113.525 121.876V119.649H119.829V121.876H113.525ZM113.525 129.831V127.604H119.829V129.831H113.525ZM118.059 119.649V129.831H115.295V119.649H118.059ZM123.852 125.535V129.831H121.108V122.195H123.713V123.646H123.792C123.958 123.162 124.25 122.783 124.667 122.508C125.088 122.233 125.579 122.095 126.139 122.095C126.679 122.095 127.148 122.219 127.546 122.468C127.947 122.713 128.257 123.051 128.476 123.482C128.698 123.913 128.807 124.405 128.804 124.959V129.831H126.059V125.535C126.063 125.158 125.967 124.861 125.771 124.646C125.579 124.43 125.31 124.322 124.966 124.322C124.74 124.322 124.543 124.372 124.374 124.472C124.208 124.568 124.081 124.707 123.991 124.889C123.902 125.068 123.855 125.284 123.852 125.535ZM137.349 124.68H134.823C134.81 124.525 134.755 124.39 134.659 124.278C134.563 124.165 134.439 124.079 134.286 124.019C134.137 123.956 133.971 123.925 133.789 123.925C133.554 123.925 133.351 123.968 133.182 124.054C133.013 124.14 132.93 124.263 132.934 124.422C132.93 124.535 132.979 124.639 133.078 124.735C133.181 124.831 133.378 124.906 133.67 124.959L135.221 125.237C136.003 125.38 136.585 125.62 136.966 125.958C137.35 126.293 137.544 126.742 137.547 127.305C137.544 127.849 137.382 128.321 137.06 128.722C136.742 129.12 136.306 129.428 135.753 129.647C135.202 129.862 134.574 129.97 133.868 129.97C132.702 129.97 131.789 129.732 131.129 129.254C130.473 128.777 130.107 128.147 130.03 127.365H132.755C132.791 127.607 132.911 127.794 133.113 127.927C133.318 128.056 133.577 128.121 133.888 128.121C134.14 128.121 134.347 128.078 134.51 127.991C134.676 127.905 134.76 127.783 134.763 127.624C134.76 127.478 134.687 127.362 134.545 127.276C134.405 127.189 134.187 127.12 133.888 127.067L132.536 126.828C131.757 126.692 131.174 126.434 130.786 126.053C130.398 125.671 130.206 125.181 130.209 124.581C130.206 124.051 130.345 123.602 130.627 123.234C130.912 122.862 131.318 122.581 131.845 122.388C132.375 122.193 133.003 122.095 133.729 122.095C134.833 122.095 135.703 122.324 136.339 122.781C136.979 123.239 137.315 123.872 137.349 124.68ZM138.809 129.831V122.195H141.553V129.831H138.809ZM140.181 121.399C139.81 121.399 139.492 121.276 139.227 121.031C138.961 120.786 138.829 120.491 138.829 120.146C138.829 119.802 138.961 119.507 139.227 119.261C139.492 119.016 139.81 118.893 140.181 118.893C140.556 118.893 140.874 119.016 141.136 119.261C141.401 119.507 141.533 119.802 141.533 120.146C141.533 120.491 141.401 120.786 141.136 121.031C140.874 121.276 140.556 121.399 140.181 121.399ZM146.84 132.854C146.075 132.854 145.419 132.744 144.872 132.526C144.328 132.31 143.906 132.012 143.604 131.631C143.306 131.253 143.138 130.819 143.102 130.328H145.747C145.773 130.49 145.84 130.621 145.946 130.721C146.052 130.82 146.188 130.892 146.353 130.935C146.522 130.981 146.711 131.004 146.92 131.004C147.275 131.004 147.568 130.918 147.8 130.746C148.035 130.573 148.153 130.262 148.153 129.811V128.518H148.073C147.974 128.777 147.822 128.997 147.616 129.18C147.411 129.359 147.164 129.496 146.875 129.592C146.587 129.685 146.27 129.732 145.926 129.732C145.382 129.732 144.882 129.606 144.424 129.354C143.97 129.102 143.606 128.702 143.331 128.156C143.059 127.609 142.923 126.894 142.923 126.013C142.923 125.091 143.065 124.342 143.35 123.766C143.639 123.189 144.01 122.766 144.464 122.498C144.921 122.229 145.402 122.095 145.906 122.095C146.284 122.095 146.615 122.161 146.9 122.294C147.185 122.423 147.424 122.597 147.616 122.816C147.808 123.031 147.954 123.268 148.054 123.527H148.113V122.195H150.858V129.811C150.858 130.457 150.69 131.006 150.355 131.457C150.024 131.911 149.557 132.257 148.953 132.496C148.35 132.734 147.646 132.854 146.84 132.854ZM146.94 127.783C147.192 127.783 147.407 127.713 147.586 127.574C147.768 127.431 147.908 127.229 148.004 126.967C148.103 126.702 148.153 126.384 148.153 126.013C148.153 125.635 148.103 125.312 148.004 125.043C147.908 124.772 147.768 124.564 147.586 124.422C147.407 124.276 147.192 124.203 146.94 124.203C146.688 124.203 146.473 124.276 146.294 124.422C146.118 124.564 145.982 124.772 145.886 125.043C145.793 125.312 145.747 125.635 145.747 126.013C145.747 126.391 145.793 126.712 145.886 126.977C145.982 127.239 146.118 127.44 146.294 127.579C146.473 127.715 146.688 127.783 146.94 127.783ZM155.208 125.535V129.831H152.463V119.649H155.108V123.646H155.188C155.36 123.159 155.647 122.78 156.048 122.508C156.449 122.233 156.931 122.095 157.495 122.095C158.035 122.095 158.504 122.218 158.901 122.463C159.303 122.708 159.612 123.046 159.831 123.477C160.053 123.908 160.163 124.402 160.159 124.959V129.831H157.415V125.535C157.418 125.158 157.324 124.861 157.132 124.646C156.943 124.43 156.673 124.322 156.321 124.322C156.099 124.322 155.904 124.372 155.735 124.472C155.569 124.568 155.44 124.707 155.347 124.889C155.257 125.068 155.211 125.284 155.208 125.535ZM166.278 122.195V124.183H161.247V122.195H166.278ZM162.221 120.365H164.966V127.375C164.966 127.481 164.984 127.571 165.02 127.643C165.057 127.713 165.113 127.766 165.189 127.803C165.265 127.836 165.363 127.852 165.483 127.852C165.565 127.852 165.662 127.842 165.771 127.822C165.884 127.803 165.966 127.786 166.02 127.773L166.417 129.702C166.295 129.738 166.119 129.783 165.89 129.836C165.665 129.889 165.396 129.924 165.085 129.94C164.455 129.973 163.926 129.909 163.499 129.746C163.071 129.581 162.75 129.321 162.534 128.966C162.319 128.611 162.215 128.167 162.221 127.633V120.365ZM174.506 124.68H171.98C171.967 124.525 171.912 124.39 171.816 124.278C171.72 124.165 171.596 124.079 171.443 124.019C171.294 123.956 171.129 123.925 170.946 123.925C170.711 123.925 170.509 123.968 170.34 124.054C170.171 124.14 170.088 124.263 170.091 124.422C170.088 124.535 170.136 124.639 170.235 124.735C170.338 124.831 170.535 124.906 170.827 124.959L172.378 125.237C173.16 125.38 173.742 125.62 174.123 125.958C174.508 126.293 174.702 126.742 174.705 127.305C174.702 127.849 174.539 128.321 174.218 128.722C173.899 129.12 173.464 129.428 172.91 129.647C172.36 129.862 171.732 129.97 171.026 129.97C169.859 129.97 168.946 129.732 168.287 129.254C167.63 128.777 167.264 128.147 167.188 127.365H169.912C169.949 127.607 170.068 127.794 170.27 127.927C170.476 128.056 170.734 128.121 171.046 128.121C171.298 128.121 171.505 128.078 171.667 127.991C171.833 127.905 171.917 127.783 171.921 127.624C171.917 127.478 171.845 127.362 171.702 127.276C171.563 127.189 171.344 127.12 171.046 127.067L169.693 126.828C168.915 126.692 168.331 126.434 167.943 126.053C167.556 125.671 167.363 125.181 167.367 124.581C167.363 124.051 167.503 123.602 167.784 123.234C168.069 122.862 168.475 122.581 169.002 122.388C169.533 122.193 170.161 122.095 170.887 122.095C171.99 122.095 172.86 122.324 173.497 122.781C174.136 123.239 174.473 123.872 174.506 124.68Z" fill="#6F9FCB"/>
<path d="M0 103.384H445.919V105.384H0V103.384ZM445.919 144.278H0H445.919ZM0 144.278V104.384V144.278ZM445.919 104.384V144.278V104.384Z" fill="#6F9FCB" mask="url(#path-11-inside-1_726_6886)"/>
<rect x="0.5" y="0.5" width="445" height="143.278" rx="6.6233" stroke="#6F9FCB"/>
<defs>
<linearGradient id="paint0_linear_726_6886" x1="1.03313e-06" y1="123.94" x2="346.777" y2="123.94" gradientUnits="userSpaceOnUse">
<stop stop-color="#6F9FCB" stop-opacity="0.2"/>
<stop offset="1" stop-color="#6F9FCB" stop-opacity="0"/>
</linearGradient>
<clipPath id="clip0_726_6886">
<rect width="17.1" height="17.1" fill="white" transform="translate(11.397 115.781)"/>
</clipPath>
</defs>
</svg>
