<svg width="809" height="54" viewBox="0 0 809 54" fill="none" xmlns="http://www.w3.org/2000/svg">
<g clip-path="url(#clip0_726_6353)">
<path d="M36 29.0915C36.0718 28.9225 36.1732 28.889 36.3479 28.9793C36.7928 29.209 37.2313 29.4519 37.6831 29.6676C39.0856 30.3368 40.5518 30.8306 42.0709 31.174C43.0023 31.3846 43.9442 31.5307 44.8959 31.6192C45.7471 31.6985 46.6001 31.7259 47.4536 31.6981C48.8214 31.654 50.172 31.4719 51.5047 31.1635C52.6335 30.9022 53.7329 30.5529 54.8042 30.1164C54.8904 30.0813 54.9971 30.0641 55.0884 30.0776C55.3165 30.1111 55.4092 30.3512 55.271 30.533C55.2295 30.5877 55.171 30.6328 55.1139 30.6735C54.1387 31.3697 53.0676 31.8844 51.9362 32.2833C50.8261 32.6747 49.6847 32.942 48.515 33.0838C48.0376 33.1415 47.5555 33.1614 47.0755 33.199C47.0432 33.2014 47.0114 33.2079 46.9793 33.2124C46.7056 33.2124 46.4317 33.2124 46.1581 33.2124C46.129 33.2079 46.1 33.1998 46.0708 33.1991C45.449 33.1866 44.8313 33.1274 44.2162 33.0383C43.0587 32.8706 41.934 32.5793 40.8443 32.1616C39.1604 31.5161 37.6381 30.6074 36.2776 29.4382C36.1717 29.3476 36.0453 29.2709 36 29.1266C36 29.1149 36 29.1033 36 29.0915Z" fill="#ECBB90"/>
<path d="M54.3347 20.7621C54.5224 20.7901 54.7114 20.8119 54.8975 20.8476C55.1807 20.902 55.46 20.972 55.716 21.111C55.901 21.2115 55.9931 21.3592 55.9801 21.5694C55.9747 21.6597 55.9816 21.7508 55.9783 21.8411C55.9711 22.0313 55.8736 22.0997 55.6897 22.0375C55.496 21.9717 55.3091 21.8837 55.1122 21.8309C54.5975 21.6929 54.0759 21.6599 53.5516 21.7821C53.4826 21.7983 53.4162 21.826 53.3501 21.8525C52.8196 22.0647 52.7905 22.7965 53.2337 23.0765C53.4567 23.2175 53.6997 23.3082 53.9484 23.389C54.3772 23.5284 54.8103 23.6568 55.2334 23.8115C55.5641 23.9323 55.8497 24.1273 56.0529 24.4217C56.5346 25.1204 56.3736 26.1319 55.6974 26.6895C55.325 26.9966 54.889 27.1588 54.4188 27.23C53.6187 27.3512 52.8426 27.2395 52.0919 26.9498C52.0043 26.9159 51.9232 26.864 51.8427 26.8147C51.7238 26.742 51.6752 26.6282 51.6719 26.4952C51.6687 26.3697 51.6687 26.2439 51.6716 26.1182C51.6759 25.9427 51.7689 25.8748 51.9428 25.925C52.0366 25.952 52.1272 25.9905 52.2178 26.0277C52.7882 26.2623 53.3841 26.347 53.9981 26.3141C54.2515 26.3004 54.4993 26.2504 54.7261 26.128C55.0636 25.9456 55.2157 25.6021 55.117 25.2437C55.0722 25.0811 54.9801 24.9452 54.8305 24.8677C54.6394 24.7688 54.4419 24.6774 54.2381 24.6081C53.845 24.4745 53.4426 24.3672 53.0495 24.2332C52.6057 24.0819 52.2306 23.8343 51.9841 23.426C51.5407 22.6914 51.7127 21.8 52.3977 21.2729C52.7926 20.969 53.2452 20.8208 53.7384 20.7754C53.7646 20.7729 53.7908 20.7666 53.8168 20.7622C53.9896 20.7621 54.1621 20.7621 54.3347 20.7621Z" fill="#303048"/>
<path d="M57.209 29.2846C57.1799 29.4896 57.1625 29.6969 57.1196 29.8991C56.9708 30.6 56.7053 31.2536 56.2525 31.8215C56.1196 31.9882 55.9558 32.1315 55.806 32.2853C55.7979 32.2937 55.7877 32.3004 55.778 32.307C55.6855 32.3709 55.5923 32.3845 55.5395 32.3374C55.4642 32.27 55.4997 32.1937 55.5268 32.1187C55.7108 31.6096 55.9029 31.1032 56.0743 30.5899C56.1413 30.3891 56.1635 30.1734 56.2014 29.9638C56.2113 29.91 56.2066 29.853 56.2045 29.7976C56.197 29.6013 56.0991 29.4668 55.9029 29.4253C55.7178 29.3862 55.5288 29.3514 55.3403 29.3429C54.8431 29.3202 54.348 29.3651 53.8542 29.4195C53.7125 29.4351 53.5705 29.4498 53.4286 29.4642C53.356 29.4716 53.2783 29.4777 53.2402 29.4007C53.1998 29.3187 53.2437 29.2434 53.3068 29.2001C53.455 29.0986 53.6061 28.9972 53.7678 28.9195C54.3053 28.6614 54.8806 28.5535 55.4752 28.5257C55.9057 28.5055 56.3309 28.5322 56.75 28.633C56.8049 28.6461 56.8576 28.6672 56.9118 28.6824C57.0997 28.7356 57.1896 28.8606 57.1946 29.0498C57.1953 29.0756 57.2042 29.101 57.2092 29.1266C57.209 29.1794 57.209 29.232 57.209 29.2846Z" fill="#ECBB90"/>
<path d="M45.1138 25.7897C45.1629 25.5866 45.2122 25.3836 45.2609 25.1803C45.5702 23.8931 45.879 22.606 46.1887 21.319C46.2655 21 46.3476 20.9367 46.6831 20.9377C46.8823 20.9383 47.0814 20.942 47.2804 20.9477C47.443 20.9525 47.538 21.0454 47.5777 21.1925C47.6318 21.3928 47.6798 21.5947 47.7283 21.7963C48.0454 23.1145 48.3621 24.4331 48.6787 25.7513C48.6861 25.782 48.695 25.8125 48.7097 25.8676C48.7257 25.8209 48.7363 25.7958 48.7431 25.7699C49.1307 24.2972 49.5181 22.8245 49.9057 21.3518C49.9166 21.3093 49.9292 21.2672 49.944 21.226C50.0253 21.0019 50.1095 20.9412 50.3538 20.9379C50.5591 20.9351 50.7644 20.9356 50.9694 20.9379C51.1328 20.9397 51.1904 21.0005 51.1779 21.1606C51.1731 21.2239 51.1588 21.2879 51.1396 21.3488C50.5762 23.1247 50.0118 24.9001 49.4472 26.6757C49.4259 26.7425 49.4011 26.8082 49.3772 26.8742C49.3234 27.0227 49.2084 27.0913 49.0557 27.0943C48.8087 27.0992 48.5619 27.0974 48.315 27.0944C48.1514 27.0925 48.0441 27.006 48.0029 26.8544C47.9352 26.6064 47.876 26.356 47.8147 26.1063C47.5112 24.8689 47.2083 23.6312 46.9052 22.3938C46.9018 22.3801 46.8977 22.3666 46.8786 22.3512C46.8487 22.4704 46.8182 22.5893 46.7891 22.7087C46.4663 24.0347 46.1439 25.3608 45.8213 26.6869C45.7355 27.0397 45.6655 27.0937 45.294 27.0939C45.1392 27.0939 44.9846 27.0943 44.8298 27.0939C44.5367 27.0932 44.452 27.0381 44.363 26.7609C44.2189 26.3126 44.0818 25.8621 43.9425 25.4123C43.5341 24.0938 43.1258 22.7752 42.7182 21.4565C42.6889 21.3616 42.6606 21.2657 42.642 21.1685C42.6163 21.034 42.6777 20.9435 42.806 20.9414C43.0704 20.9369 43.3352 20.943 43.5998 20.9476C43.7379 20.95 43.8338 21.0221 43.8729 21.1485C43.9447 21.3802 44.0102 21.6138 44.0711 21.8482C44.4062 23.1382 44.7389 24.4287 45.0728 25.719C45.079 25.7431 45.0887 25.766 45.0967 25.7895C45.1029 25.7895 45.1083 25.7895 45.1138 25.7897Z" fill="#303048"/>
<path d="M40.8021 23.6395C40.7945 23.2667 40.8261 22.9051 40.7395 22.5474C40.6304 22.097 40.3321 21.8582 39.8806 21.7826C39.2986 21.6851 38.7316 21.7523 38.1759 21.9359C38.0295 21.9843 37.8852 22.0393 37.7399 22.0906C37.6785 22.1123 37.6173 22.1354 37.5542 22.1523C37.3773 22.1998 37.3018 22.1432 37.2991 21.9617C37.2972 21.8361 37.3039 21.7102 37.2975 21.5848C37.2889 21.4173 37.363 21.3 37.5144 21.2365C37.741 21.1417 37.9681 21.045 38.2017 20.9705C38.7102 20.8083 39.2354 20.7531 39.7687 20.7781C40.0572 20.7918 40.3421 20.8304 40.6202 20.9125C41.3227 21.1196 41.743 21.5852 41.8901 22.2808C41.9476 22.5532 41.9702 22.8364 41.975 23.1152C41.9868 23.7988 41.977 24.4827 41.9804 25.1664C41.9811 25.3237 41.9954 25.4816 42.0116 25.6382C42.0391 25.9052 42.1605 26.1409 42.2812 26.3759C42.3799 26.568 42.3546 26.6711 42.1736 26.7917C42.0456 26.8771 41.917 26.9615 41.7874 27.0442C41.5943 27.1677 41.4654 27.1589 41.3208 26.9797C41.1924 26.8205 41.0883 26.6423 40.976 26.4708C40.9444 26.4226 40.9219 26.3684 40.8901 26.3074C40.8637 26.3321 40.8443 26.3484 40.8273 26.3668C40.3498 26.8862 39.7626 27.1863 39.0467 27.2405C38.7007 27.2666 38.361 27.2452 38.0357 27.1286C37.3879 26.8966 37.0167 26.4341 36.9076 25.769C36.8464 25.3962 36.8712 25.0279 37.0163 24.6751C37.2315 24.1521 37.6349 23.8189 38.1602 23.622C38.5922 23.4602 39.0435 23.4246 39.5028 23.4519C39.9136 23.4763 40.3173 23.5429 40.7179 23.6313C40.7402 23.6366 40.7641 23.6362 40.8021 23.6395ZM39.5419 24.2868C39.3088 24.2817 39.0601 24.2966 38.8198 24.3754C38.469 24.4902 38.2243 24.7115 38.1591 25.0772C38.1289 25.2466 38.1314 25.427 38.1519 25.5987C38.1968 25.9719 38.4558 26.2367 38.8341 26.2996C39.3188 26.3803 39.7774 26.2912 40.193 26.034C40.5049 25.8409 40.7236 25.5699 40.7738 25.2005C40.8036 24.9814 40.8018 24.7584 40.8187 24.5374C40.8248 24.4595 40.792 24.4304 40.7182 24.4154C40.3358 24.3378 39.9513 24.2833 39.5419 24.2868Z" fill="#303048"/>
</g>
<path d="M69.1121 32.5001H65.8139V22.3119H69.2166C70.2149 22.3119 71.0722 22.5158 71.7886 22.9238C72.5049 23.3284 73.0538 23.9104 73.4352 24.6699C73.8199 25.426 74.0123 26.3331 74.0123 27.3911C74.0123 28.4523 73.8182 29.3644 73.4302 30.1272C73.0455 30.89 72.4883 31.477 71.7587 31.8882C71.0291 32.2962 70.1469 32.5001 69.1121 32.5001ZM67.3511 31.1569H69.0276C69.8036 31.1569 70.4487 31.011 70.9627 30.7192C71.4768 30.424 71.8615 29.9978 72.1169 29.4407C72.3723 28.8802 72.4999 28.197 72.4999 27.3911C72.4999 26.5918 72.3723 25.9136 72.1169 25.3564C71.8648 24.7992 71.4884 24.3764 70.9876 24.0878C70.4868 23.7993 69.865 23.655 69.1221 23.655H67.3511V31.1569ZM79.0977 32.6543C78.3448 32.6543 77.6965 32.4935 77.1526 32.1718C76.612 31.8468 76.1941 31.3908 75.8989 30.8037C75.6071 30.2134 75.4612 29.5219 75.4612 28.7293C75.4612 27.9466 75.6071 27.2568 75.8989 26.6598C76.1941 26.0628 76.6053 25.5968 77.1327 25.2619C77.6633 24.9269 78.2835 24.7594 78.9932 24.7594C79.4244 24.7594 79.8422 24.8307 80.2468 24.9733C80.6515 25.116 81.0146 25.3398 81.3363 25.6449C81.658 25.9501 81.9117 26.3464 82.0974 26.8339C82.2832 27.3181 82.376 27.9068 82.376 28.5999V29.1273H76.3019V28.0129H80.9184C80.9184 27.6216 80.8388 27.275 80.6796 26.9732C80.5205 26.6681 80.2966 26.4276 80.0081 26.2519C79.7228 26.0761 79.3879 25.9882 79.0032 25.9882C78.5853 25.9882 78.2205 26.091 77.9087 26.2966C77.6003 26.4989 77.3615 26.7643 77.1924 27.0926C77.0265 27.4176 76.9436 27.7708 76.9436 28.1522V29.0228C76.9436 29.5335 77.0332 29.968 77.2123 30.3262C77.3947 30.6843 77.6484 30.958 77.9734 31.147C78.2984 31.3327 78.6781 31.4256 79.1126 31.4256C79.3945 31.4256 79.6515 31.3858 79.8837 31.3062C80.1158 31.2233 80.3165 31.1006 80.4856 30.9381C80.6548 30.7755 80.7841 30.5749 80.8737 30.3361L82.2815 30.5898C82.1688 31.0044 81.9664 31.3675 81.6746 31.6793C81.3861 31.9877 81.0229 32.2282 80.5851 32.4006C80.1507 32.5698 79.6549 32.6543 79.0977 32.6543ZM90.3443 24.8589L87.5734 32.5001H85.9815L83.2056 24.8589H84.8025L86.7376 30.7391H86.8172L88.7474 24.8589H90.3443ZM94.7756 32.6543C94.0227 32.6543 93.3743 32.4935 92.8304 32.1718C92.2898 31.8468 91.872 31.3908 91.5768 30.8037C91.285 30.2134 91.139 29.5219 91.139 28.7293C91.139 27.9466 91.285 27.2568 91.5768 26.6598C91.872 26.0628 92.2832 25.5968 92.8105 25.2619C93.3412 24.9269 93.9614 24.7594 94.6711 24.7594C95.1022 24.7594 95.5201 24.8307 95.9247 24.9733C96.3293 25.116 96.6925 25.3398 97.0142 25.6449C97.3359 25.9501 97.5896 26.3464 97.7753 26.8339C97.961 27.3181 98.0539 27.9068 98.0539 28.5999V29.1273H91.9798V28.0129H96.5963C96.5963 27.6216 96.5167 27.275 96.3575 26.9732C96.1983 26.6681 95.9745 26.4276 95.6859 26.2519C95.4007 26.0761 95.0658 25.9882 94.681 25.9882C94.2632 25.9882 93.8983 26.091 93.5866 26.2966C93.2782 26.4989 93.0394 26.7643 92.8702 27.0926C92.7044 27.4176 92.6215 27.7708 92.6215 28.1522V29.0228C92.6215 29.5335 92.711 29.968 92.8901 30.3262C93.0725 30.6843 93.3263 30.958 93.6513 31.147C93.9763 31.3327 94.356 31.4256 94.7905 31.4256C95.0724 31.4256 95.3294 31.3858 95.5616 31.3062C95.7937 31.2233 95.9944 31.1006 96.1635 30.9381C96.3327 30.7755 96.462 30.5749 96.5515 30.3361L97.9594 30.5898C97.8466 31.0044 97.6443 31.3675 97.3525 31.6793C97.0639 31.9877 96.7008 32.2282 96.263 32.4006C95.8285 32.5698 95.3327 32.6543 94.7756 32.6543ZM99.7043 22.3119H101.192V30.4107C101.192 30.7391 101.233 30.9712 101.316 31.1072C101.402 31.2432 101.565 31.3078 101.804 31.3012C101.933 31.2979 102.029 31.2896 102.092 31.2763C102.158 31.2631 102.218 31.2481 102.271 31.2316L102.54 32.4205C102.437 32.4504 102.306 32.4786 102.147 32.5051C101.991 32.5349 101.814 32.5515 101.615 32.5548C100.971 32.5648 100.492 32.4122 100.177 32.0972C99.8618 31.7821 99.7043 31.3228 99.7043 30.7192V22.3119ZM106.74 32.6543C106.023 32.6543 105.398 32.4902 104.864 32.1618C104.33 31.8335 103.916 31.3742 103.621 30.7838C103.325 30.1935 103.178 29.5037 103.178 28.7143C103.178 27.9217 103.325 27.2286 103.621 26.6349C103.916 26.0413 104.33 25.5803 104.864 25.2519C105.398 24.9236 106.023 24.7594 106.74 24.7594C107.456 24.7594 108.081 24.9236 108.615 25.2519C109.149 25.5803 109.564 26.0413 109.859 26.6349C110.154 27.2286 110.302 27.9217 110.302 28.7143C110.302 29.5037 110.154 30.1935 109.859 30.7838C109.564 31.3742 109.149 31.8335 108.615 32.1618C108.081 32.4902 107.456 32.6543 106.74 32.6543ZM106.745 31.4057C107.209 31.4057 107.594 31.283 107.899 31.0375C108.204 30.7921 108.43 30.4655 108.575 30.0575C108.725 29.6496 108.799 29.2002 108.799 28.7094C108.799 28.2218 108.725 27.7741 108.575 27.3662C108.43 26.955 108.204 26.625 107.899 26.3762C107.594 26.1275 107.209 26.0031 106.745 26.0031C106.277 26.0031 105.889 26.1275 105.581 26.3762C105.276 26.625 105.048 26.955 104.899 27.3662C104.753 27.7741 104.68 28.2218 104.68 28.7094C104.68 29.2002 104.753 29.6496 104.899 30.0575C105.048 30.4655 105.276 30.7921 105.581 31.0375C105.889 31.283 106.277 31.4057 106.745 31.4057ZM111.962 35.3656V24.8589H113.415V26.0976H113.539C113.625 25.9384 113.75 25.7544 113.912 25.5454C114.075 25.3365 114.3 25.1541 114.589 24.9982C114.877 24.839 115.259 24.7594 115.733 24.7594C116.35 24.7594 116.9 24.9153 117.384 25.2271C117.869 25.5388 118.248 25.9882 118.524 26.5752C118.802 27.1622 118.942 27.8686 118.942 28.6944C118.942 29.5203 118.804 30.2283 118.529 30.8187C118.253 31.4057 117.875 31.8584 117.394 32.1768C116.914 32.4918 116.365 32.6494 115.748 32.6494C115.283 32.6494 114.904 32.5714 114.609 32.4156C114.317 32.2597 114.088 32.0773 113.922 31.8683C113.756 31.6594 113.629 31.4737 113.539 31.3112H113.449V35.3656H111.962ZM113.42 28.6795C113.42 29.2168 113.498 29.6877 113.653 30.0924C113.809 30.497 114.035 30.8137 114.33 31.0425C114.625 31.268 114.987 31.3808 115.414 31.3808C115.859 31.3808 116.23 31.2631 116.529 31.0276C116.827 30.7888 117.053 30.4655 117.205 30.0575C117.361 29.6496 117.439 29.1903 117.439 28.6795C117.439 28.1754 117.363 27.7227 117.21 27.3214C117.061 26.9201 116.836 26.6034 116.534 26.3712C116.235 26.1391 115.862 26.023 115.414 26.023C114.983 26.023 114.619 26.1341 114.32 26.3563C114.025 26.5785 113.801 26.8886 113.648 27.2866C113.496 27.6846 113.42 28.1489 113.42 28.6795ZM120.608 32.5001V24.8589H122.036V26.1026H122.13C122.29 25.6814 122.55 25.3531 122.911 25.1176C123.273 24.8788 123.706 24.7594 124.21 24.7594C124.721 24.7594 125.148 24.8788 125.493 25.1176C125.842 25.3564 126.099 25.6847 126.264 26.1026H126.344C126.526 25.6947 126.817 25.3697 127.215 25.1276C127.613 24.8821 128.087 24.7594 128.637 24.7594C129.33 24.7594 129.896 24.9767 130.334 25.4111C130.775 25.8456 130.995 26.5006 130.995 27.3761V32.5001H129.508V27.5154C129.508 26.9981 129.367 26.6233 129.085 26.3911C128.803 26.159 128.467 26.0429 128.075 26.0429C127.591 26.0429 127.215 26.1922 126.946 26.4906C126.677 26.7858 126.543 27.1655 126.543 27.6299V32.5001H125.061V27.4209C125.061 27.0064 124.931 26.673 124.672 26.421C124.414 26.1689 124.077 26.0429 123.663 26.0429C123.381 26.0429 123.12 26.1175 122.882 26.2668C122.646 26.4127 122.455 26.6167 122.309 26.8787C122.167 27.1407 122.096 27.4441 122.096 27.789V32.5001H120.608ZM136.282 32.6543C135.529 32.6543 134.881 32.4935 134.337 32.1718C133.797 31.8468 133.379 31.3908 133.084 30.8037C132.792 30.2134 132.646 29.5219 132.646 28.7293C132.646 27.9466 132.792 27.2568 133.084 26.6598C133.379 26.0628 133.79 25.5968 134.317 25.2619C134.848 24.9269 135.468 24.7594 136.178 24.7594C136.609 24.7594 137.027 24.8307 137.431 24.9733C137.836 25.116 138.199 25.3398 138.521 25.6449C138.843 25.9501 139.096 26.3464 139.282 26.8339C139.468 27.3181 139.561 27.9068 139.561 28.5999V29.1273H133.486V28.0129H138.103C138.103 27.6216 138.023 27.275 137.864 26.9732C137.705 26.6681 137.481 26.4276 137.193 26.2519C136.907 26.0761 136.572 25.9882 136.188 25.9882C135.77 25.9882 135.405 26.091 135.093 26.2966C134.785 26.4989 134.546 26.7643 134.377 27.0926C134.211 27.4176 134.128 27.7708 134.128 28.1522V29.0228C134.128 29.5335 134.218 29.968 134.397 30.3262C134.579 30.6843 134.833 30.958 135.158 31.147C135.483 31.3327 135.863 31.4256 136.297 31.4256C136.579 31.4256 136.836 31.3858 137.068 31.3062C137.3 31.2233 137.501 31.1006 137.67 30.9381C137.839 30.7755 137.969 30.5749 138.058 30.3361L139.466 30.5898C139.353 31.0044 139.151 31.3675 138.859 31.6793C138.571 31.9877 138.207 32.2282 137.77 32.4006C137.335 32.5698 136.839 32.6543 136.282 32.6543ZM142.698 27.9632V32.5001H141.211V24.8589H142.639V26.1026H142.733C142.909 25.698 143.184 25.373 143.559 25.1276C143.937 24.8821 144.413 24.7594 144.987 24.7594C145.507 24.7594 145.964 24.8689 146.355 25.0878C146.746 25.3033 147.05 25.625 147.265 26.0529C147.481 26.4807 147.589 27.0097 147.589 27.6398V32.5001H146.101V27.8189C146.101 27.265 145.957 26.8322 145.668 26.5205C145.38 26.2054 144.983 26.0479 144.479 26.0479C144.134 26.0479 143.828 26.1225 143.559 26.2718C143.294 26.421 143.083 26.6399 142.927 26.9284C142.775 27.2136 142.698 27.5586 142.698 27.9632ZM153.15 24.8589V26.0529H148.977V24.8589H153.15ZM150.096 23.0282H151.583V30.2565C151.583 30.5451 151.626 30.7623 151.713 30.9082C151.799 31.0508 151.91 31.1487 152.046 31.2017C152.185 31.2515 152.336 31.2763 152.499 31.2763C152.618 31.2763 152.723 31.268 152.812 31.2515C152.902 31.2349 152.971 31.2216 153.021 31.2117L153.29 32.4404C153.203 32.4736 153.081 32.5068 152.922 32.5399C152.762 32.5764 152.563 32.5963 152.325 32.5996C151.933 32.6062 151.568 32.5366 151.23 32.3907C150.892 32.2448 150.618 32.0192 150.409 31.7141C150.2 31.409 150.096 31.0259 150.096 30.565V23.0282Z" fill="#303048"/>
<path d="M192.116 32.5V22.3117H193.653V31.1767H198.269V32.5H192.116ZM202.127 32.6691C201.643 32.6691 201.205 32.5796 200.814 32.4005C200.423 32.2181 200.113 31.9544 199.884 31.6095C199.658 31.2646 199.545 30.8418 199.545 30.341C199.545 29.9098 199.628 29.555 199.794 29.2764C199.96 28.9978 200.184 28.7772 200.466 28.6147C200.748 28.4522 201.063 28.3295 201.411 28.2466C201.759 28.1637 202.114 28.1007 202.476 28.0576C202.933 28.0045 203.305 27.9614 203.59 27.9282C203.875 27.8917 204.082 27.8337 204.212 27.7541C204.341 27.6745 204.406 27.5452 204.406 27.3661V27.3312C204.406 26.8968 204.283 26.5602 204.038 26.3214C203.796 26.0826 203.434 25.9632 202.953 25.9632C202.452 25.9632 202.058 26.0743 201.769 26.2965C201.484 26.5154 201.287 26.7592 201.177 27.0278L199.779 26.7094C199.945 26.2451 200.187 25.8703 200.506 25.5851C200.827 25.2966 201.197 25.0876 201.615 24.9583C202.033 24.8256 202.472 24.7593 202.933 24.7593C203.238 24.7593 203.562 24.7958 203.903 24.8688C204.248 24.9384 204.57 25.0677 204.868 25.2568C205.17 25.4458 205.417 25.7161 205.61 26.0677C205.802 26.4159 205.898 26.8686 205.898 27.4258V32.5H204.446V31.4553H204.386C204.29 31.6477 204.145 31.8367 203.953 32.0224C203.761 32.2081 203.514 32.3624 203.212 32.4851C202.91 32.6078 202.549 32.6691 202.127 32.6691ZM202.451 31.4752C202.862 31.4752 203.213 31.394 203.505 31.2314C203.8 31.0689 204.024 30.8567 204.177 30.5947C204.333 30.3294 204.411 30.0458 204.411 29.744V28.759C204.358 28.8121 204.255 28.8618 204.102 28.9082C203.953 28.9514 203.782 28.9895 203.59 29.0227C203.398 29.0525 203.21 29.0807 203.028 29.1072C202.845 29.1304 202.693 29.1503 202.57 29.1669C202.282 29.2034 202.018 29.2648 201.779 29.351C201.544 29.4372 201.355 29.5616 201.212 29.7241C201.073 29.8833 201.003 30.0955 201.003 30.3609C201.003 30.729 201.139 31.0076 201.411 31.1966C201.683 31.3823 202.029 31.4752 202.451 31.4752ZM207.879 32.5V24.8588H209.307V26.1025H209.402C209.561 25.6813 209.821 25.353 210.183 25.1175C210.544 24.8787 210.977 24.7593 211.481 24.7593C211.992 24.7593 212.42 24.8787 212.765 25.1175C213.113 25.3563 213.37 25.6846 213.536 26.1025H213.615C213.798 25.6946 214.088 25.3695 214.486 25.1274C214.884 24.882 215.358 24.7593 215.909 24.7593C216.602 24.7593 217.167 24.9765 217.605 25.411C218.046 25.8455 218.267 26.5005 218.267 27.376V32.5H216.779V27.5153C216.779 26.9979 216.638 26.6232 216.356 26.391C216.074 26.1589 215.738 26.0428 215.346 26.0428C214.862 26.0428 214.486 26.192 214.217 26.4905C213.949 26.7857 213.814 27.1654 213.814 27.6297V32.5H212.332V27.4208C212.332 27.0062 212.202 26.6729 211.944 26.4209C211.685 26.1688 211.348 26.0428 210.934 26.0428C210.652 26.0428 210.392 26.1174 210.153 26.2667C209.917 26.4126 209.727 26.6165 209.581 26.8785C209.438 27.1406 209.367 27.444 209.367 27.7889V32.5H207.879ZM220.38 32.5V22.3117H221.867V26.0975H221.957C222.043 25.9383 222.167 25.7543 222.33 25.5453C222.492 25.3364 222.718 25.154 223.006 24.9981C223.295 24.8389 223.676 24.7593 224.15 24.7593C224.767 24.7593 225.318 24.9152 225.802 25.2269C226.286 25.5387 226.666 25.9881 226.941 26.5751C227.22 27.1621 227.359 27.8685 227.359 28.6943C227.359 29.5201 227.222 30.2282 226.946 30.8185C226.671 31.4056 226.293 31.8583 225.812 32.1766C225.331 32.4917 224.782 32.6492 224.165 32.6492C223.701 32.6492 223.321 32.5713 223.026 32.4154C222.734 32.2596 222.505 32.0771 222.34 31.8682C222.174 31.6593 222.046 31.4735 221.957 31.311H221.832V32.5H220.38ZM221.837 28.6794C221.837 29.2167 221.915 29.6876 222.071 30.0922C222.227 30.4968 222.452 30.8136 222.748 31.0424C223.043 31.2679 223.404 31.3807 223.832 31.3807C224.276 31.3807 224.648 31.2629 224.946 31.0275C225.245 30.7887 225.47 30.4653 225.623 30.0574C225.779 29.6495 225.857 29.1901 225.857 28.6794C225.857 28.1753 225.781 27.7226 225.628 27.3213C225.479 26.92 225.253 26.6033 224.951 26.3711C224.653 26.139 224.28 26.0229 223.832 26.0229C223.401 26.0229 223.036 26.134 222.738 26.3562C222.442 26.5784 222.219 26.8885 222.066 27.2865C221.913 27.6845 221.837 28.1488 221.837 28.6794ZM231.89 32.6492C231.273 32.6492 230.723 32.4917 230.238 32.1766C229.757 31.8583 229.379 31.4056 229.104 30.8185C228.832 30.2282 228.696 29.5201 228.696 28.6943C228.696 27.8685 228.834 27.1621 229.109 26.5751C229.388 25.9881 229.769 25.5387 230.253 25.2269C230.737 24.9152 231.286 24.7593 231.9 24.7593C232.374 24.7593 232.756 24.8389 233.044 24.9981C233.336 25.154 233.561 25.3364 233.721 25.5453C233.883 25.7543 234.009 25.9383 234.099 26.0975H234.188V22.3117H235.676V32.5H234.223V31.311H234.099C234.009 31.4735 233.88 31.6593 233.711 31.8682C233.545 32.0771 233.316 32.2596 233.024 32.4154C232.732 32.5713 232.354 32.6492 231.89 32.6492ZM232.218 31.3807C232.646 31.3807 233.008 31.2679 233.303 31.0424C233.601 30.8136 233.827 30.4968 233.979 30.0922C234.135 29.6876 234.213 29.2167 234.213 28.6794C234.213 28.1488 234.137 27.6845 233.984 27.2865C233.832 26.8885 233.608 26.5784 233.313 26.3562C233.018 26.134 232.653 26.0229 232.218 26.0229C231.771 26.0229 231.397 26.139 231.099 26.3711C230.8 26.6033 230.575 26.92 230.422 27.3213C230.273 27.7226 230.198 28.1753 230.198 28.6794C230.198 29.1901 230.275 29.6495 230.427 30.0574C230.58 30.4653 230.805 30.7887 231.104 31.0275C231.406 31.2629 231.777 31.3807 232.218 31.3807ZM240.022 32.6691C239.538 32.6691 239.1 32.5796 238.709 32.4005C238.318 32.2181 238.008 31.9544 237.779 31.6095C237.553 31.2646 237.44 30.8418 237.44 30.341C237.44 29.9098 237.523 29.555 237.689 29.2764C237.855 28.9978 238.079 28.7772 238.361 28.6147C238.643 28.4522 238.958 28.3295 239.306 28.2466C239.654 28.1637 240.009 28.1007 240.371 28.0576C240.828 28.0045 241.2 27.9614 241.485 27.9282C241.77 27.8917 241.977 27.8337 242.107 27.7541C242.236 27.6745 242.301 27.5452 242.301 27.3661V27.3312C242.301 26.8968 242.178 26.5602 241.933 26.3214C241.691 26.0826 241.329 25.9632 240.848 25.9632C240.347 25.9632 239.953 26.0743 239.664 26.2965C239.379 26.5154 239.182 26.7592 239.072 27.0278L237.674 26.7094C237.84 26.2451 238.082 25.8703 238.401 25.5851C238.722 25.2966 239.092 25.0876 239.51 24.9583C239.928 24.8256 240.367 24.7593 240.828 24.7593C241.133 24.7593 241.457 24.7958 241.798 24.8688C242.143 24.9384 242.465 25.0677 242.763 25.2568C243.065 25.4458 243.312 25.7161 243.505 26.0677C243.697 26.4159 243.793 26.8686 243.793 27.4258V32.5H242.341V31.4553H242.281C242.185 31.6477 242.04 31.8367 241.848 32.0224C241.656 32.2081 241.409 32.3624 241.107 32.4851C240.805 32.6078 240.444 32.6691 240.022 32.6691ZM240.346 31.4752C240.757 31.4752 241.109 31.394 241.4 31.2314C241.696 31.0689 241.919 30.8567 242.072 30.5947C242.228 30.3294 242.306 30.0458 242.306 29.744V28.759C242.253 28.8121 242.15 28.8618 241.997 28.9082C241.848 28.9514 241.677 28.9895 241.485 29.0227C241.293 29.0525 241.105 29.0807 240.923 29.1072C240.74 29.1304 240.588 29.1503 240.465 29.1669C240.177 29.2034 239.913 29.2648 239.674 29.351C239.439 29.4372 239.25 29.5616 239.107 29.7241C238.968 29.8833 238.898 30.0955 238.898 30.3609C238.898 30.729 239.034 31.0076 239.306 31.1966C239.578 31.3823 239.925 31.4752 240.346 31.4752ZM249.601 32.5V22.3117H255.919V23.635H251.138V26.7393H255.466V28.0576H251.138V32.5H249.601ZM262.052 29.3311V24.8588H263.544V32.5H262.082V31.1767H262.002C261.826 31.5846 261.544 31.9246 261.156 32.1965C260.772 32.4652 260.292 32.5995 259.719 32.5995C259.228 32.5995 258.793 32.4917 258.415 32.2761C258.04 32.0572 257.745 31.7339 257.53 31.3061C257.317 30.8782 257.211 30.3493 257.211 29.7191V24.8588H258.699V29.54C258.699 30.0607 258.843 30.4753 259.132 30.7837C259.42 31.0921 259.795 31.2464 260.256 31.2464C260.534 31.2464 260.811 31.1767 261.087 31.0374C261.365 30.8981 261.596 30.6875 261.778 30.4056C261.964 30.1237 262.055 29.7656 262.052 29.3311ZM267.03 27.963V32.5H265.543V24.8588H266.97V26.1025H267.065C267.241 25.6979 267.516 25.3729 267.891 25.1274C268.269 24.882 268.745 24.7593 269.319 24.7593C269.839 24.7593 270.295 24.8688 270.687 25.0876C271.078 25.3032 271.381 25.6249 271.597 26.0527C271.813 26.4806 271.92 27.0096 271.92 27.6397V32.5H270.433V27.8188C270.433 27.2649 270.289 26.8321 270 26.5204C269.712 26.2053 269.315 26.0478 268.811 26.0478C268.466 26.0478 268.159 26.1224 267.891 26.2716C267.626 26.4209 267.415 26.6398 267.259 26.9283C267.106 27.2135 267.03 27.5584 267.03 27.963ZM277.134 32.6542C276.394 32.6542 275.758 32.4867 275.224 32.1518C274.693 31.8135 274.285 31.3475 274 30.7539C273.715 30.1602 273.572 29.4803 273.572 28.7142C273.572 27.9382 273.718 27.2533 274.01 26.6597C274.302 26.0627 274.713 25.5967 275.243 25.2618C275.774 24.9268 276.399 24.7593 277.119 24.7593C277.699 24.7593 278.217 24.8671 278.671 25.0827C279.125 25.2949 279.492 25.5934 279.77 25.9781C280.052 26.3628 280.22 26.8122 280.273 27.3263H278.825C278.746 26.9681 278.563 26.6597 278.278 26.401C277.996 26.1423 277.618 26.0129 277.144 26.0129C276.729 26.0129 276.366 26.1224 276.054 26.3413C275.746 26.5568 275.505 26.8653 275.333 27.2666C275.161 27.6646 275.074 28.1355 275.074 28.6794C275.074 29.2366 275.159 29.7175 275.328 30.1221C275.497 30.5267 275.736 30.8401 276.044 31.0623C276.356 31.2845 276.723 31.3956 277.144 31.3956C277.426 31.3956 277.681 31.3442 277.91 31.2414C278.142 31.1353 278.336 30.9844 278.492 30.7887C278.651 30.593 278.762 30.3575 278.825 30.0823H280.273C280.22 30.5764 280.059 31.0175 279.79 31.4056C279.522 31.7936 279.162 32.0987 278.711 32.3209C278.263 32.5431 277.737 32.6542 277.134 32.6542ZM285.43 24.8588V26.0527H281.257V24.8588H285.43ZM282.376 23.0281H283.863V30.2564C283.863 30.5449 283.907 30.7622 283.993 30.9081C284.079 31.0507 284.19 31.1485 284.326 31.2016C284.465 31.2513 284.616 31.2762 284.779 31.2762C284.898 31.2762 285.003 31.2679 285.092 31.2513C285.182 31.2348 285.251 31.2215 285.301 31.2115L285.57 32.4403C285.484 32.4735 285.361 32.5066 285.202 32.5398C285.042 32.5763 284.843 32.5962 284.605 32.5995C284.213 32.6061 283.849 32.5365 283.51 32.3906C283.172 32.2446 282.898 32.0191 282.689 31.714C282.48 31.4089 282.376 31.0258 282.376 30.5648V23.0281ZM287.076 32.5V24.8588H288.563V32.5H287.076ZM287.827 23.6798C287.568 23.6798 287.346 23.5936 287.16 23.4211C286.978 23.2453 286.887 23.0364 286.887 22.7943C286.887 22.5489 286.978 22.3399 287.16 22.1675C287.346 21.9917 287.568 21.9038 287.827 21.9038C288.086 21.9038 288.306 21.9917 288.489 22.1675C288.674 22.3399 288.767 22.5489 288.767 22.7943C288.767 23.0364 288.674 23.2453 288.489 23.4211C288.306 23.5936 288.086 23.6798 287.827 23.6798ZM293.783 32.6542C293.067 32.6542 292.442 32.4901 291.908 32.1617C291.374 31.8334 290.959 31.3741 290.664 30.7837C290.369 30.1934 290.221 29.5036 290.221 28.7142C290.221 27.9216 290.369 27.2284 290.664 26.6348C290.959 26.0411 291.374 25.5801 291.908 25.2518C292.442 24.9235 293.067 24.7593 293.783 24.7593C294.499 24.7593 295.125 24.9235 295.659 25.2518C296.193 25.5801 296.607 26.0411 296.902 26.6348C297.197 27.2284 297.345 27.9216 297.345 28.7142C297.345 29.5036 297.197 30.1934 296.902 30.7837C296.607 31.3741 296.193 31.8334 295.659 32.1617C295.125 32.4901 294.499 32.6542 293.783 32.6542ZM293.788 31.4056C294.252 31.4056 294.637 31.2828 294.942 31.0374C295.247 30.792 295.473 30.4653 295.619 30.0574C295.768 29.6495 295.843 29.2001 295.843 28.7093C295.843 28.2217 295.768 27.774 295.619 27.3661C295.473 26.9548 295.247 26.6248 294.942 26.3761C294.637 26.1274 294.252 26.003 293.788 26.003C293.32 26.003 292.932 26.1274 292.624 26.3761C292.319 26.6248 292.092 26.9548 291.942 27.3661C291.796 27.774 291.724 28.2217 291.724 28.7093C291.724 29.2001 291.796 29.6495 291.942 30.0574C292.092 30.4653 292.319 30.792 292.624 31.0374C292.932 31.2828 293.32 31.4056 293.788 31.4056ZM300.493 27.963V32.5H299.005V24.8588H300.433V26.1025H300.528C300.703 25.6979 300.979 25.3729 301.353 25.1274C301.731 24.882 302.207 24.7593 302.781 24.7593C303.302 24.7593 303.758 24.8688 304.149 25.0876C304.541 25.3032 304.844 25.6249 305.06 26.0527C305.275 26.4806 305.383 27.0096 305.383 27.6397V32.5H303.895V27.8188C303.895 27.2649 303.751 26.8321 303.463 26.5204C303.174 26.2053 302.778 26.0478 302.274 26.0478C301.929 26.0478 301.622 26.1224 301.353 26.2716C301.088 26.4209 300.877 26.6398 300.722 26.9283C300.569 27.2135 300.493 27.5584 300.493 27.963Z" fill="#303048"/>
<path d="M346.992 32.5V24.8588H348.42V26.1025H348.515C348.674 25.6813 348.934 25.353 349.296 25.1175C349.657 24.8787 350.09 24.7593 350.594 24.7593C351.105 24.7593 351.533 24.8787 351.878 25.1175C352.226 25.3563 352.483 25.6846 352.649 26.1025H352.728C352.911 25.6946 353.201 25.3695 353.599 25.1274C353.997 24.882 354.471 24.7593 355.022 24.7593C355.715 24.7593 356.28 24.9765 356.718 25.411C357.159 25.8455 357.38 26.5005 357.38 27.376V32.5H355.892V27.5153C355.892 26.9979 355.751 26.6232 355.469 26.391C355.188 26.1589 354.851 26.0428 354.46 26.0428C353.975 26.0428 353.599 26.192 353.33 26.4905C353.062 26.7857 352.927 27.1654 352.927 27.6297V32.5H351.445V27.4208C351.445 27.0062 351.316 26.6729 351.057 26.4209C350.798 26.1688 350.462 26.0428 350.047 26.0428C349.765 26.0428 349.505 26.1174 349.266 26.2667C349.03 26.4126 348.84 26.6165 348.694 26.8785C348.551 27.1406 348.48 27.444 348.48 27.7889V32.5H346.992ZM360.04 35.3654C359.818 35.3654 359.615 35.3472 359.433 35.3107C359.251 35.2776 359.115 35.2411 359.025 35.2013L359.383 33.9825C359.655 34.0554 359.897 34.0869 360.11 34.077C360.322 34.067 360.509 33.9874 360.672 33.8382C360.838 33.689 360.984 33.4452 361.11 33.1069L361.294 32.5995L358.498 24.8588H360.09L362.025 30.7887H362.104L364.04 24.8588H365.637L362.488 33.5198C362.342 33.9178 362.156 34.2544 361.93 34.5297C361.705 34.8083 361.436 35.0172 361.124 35.1565C360.813 35.2958 360.451 35.3654 360.04 35.3654ZM371.537 27.5501V28.8386H367.02V27.5501H371.537ZM377.156 24.8588V26.0527H372.837V24.8588H377.156ZM374.021 32.5V23.9733C374.021 23.4957 374.126 23.0994 374.335 22.7843C374.544 22.466 374.821 22.2288 375.166 22.073C375.511 21.9138 375.885 21.8342 376.29 21.8342C376.588 21.8342 376.844 21.859 377.056 21.9088C377.268 21.9552 377.426 21.9983 377.529 22.0381L377.18 23.242C377.111 23.2221 377.021 23.1989 376.912 23.1724C376.802 23.1425 376.67 23.1276 376.514 23.1276C376.152 23.1276 375.894 23.2171 375.738 23.3962C375.585 23.5753 375.509 23.834 375.509 24.1723V32.5H374.021ZM381.608 32.6542C380.892 32.6542 380.266 32.4901 379.732 32.1617C379.198 31.8334 378.784 31.3741 378.489 30.7837C378.194 30.1934 378.046 29.5036 378.046 28.7142C378.046 27.9216 378.194 27.2284 378.489 26.6348C378.784 26.0411 379.198 25.5801 379.732 25.2518C380.266 24.9235 380.892 24.7593 381.608 24.7593C382.324 24.7593 382.949 24.9235 383.483 25.2518C384.017 25.5801 384.432 26.0411 384.727 26.6348C385.022 27.2284 385.17 27.9216 385.17 28.7142C385.17 29.5036 385.022 30.1934 384.727 30.7837C384.432 31.3741 384.017 31.8334 383.483 32.1617C382.949 32.4901 382.324 32.6542 381.608 32.6542ZM381.613 31.4056C382.077 31.4056 382.462 31.2828 382.767 31.0374C383.072 30.792 383.298 30.4653 383.444 30.0574C383.593 29.6495 383.667 29.2001 383.667 28.7093C383.667 28.2217 383.593 27.774 383.444 27.3661C383.298 26.9548 383.072 26.6248 382.767 26.3761C382.462 26.1274 382.077 26.003 381.613 26.003C381.145 26.003 380.757 26.1274 380.449 26.3761C380.144 26.6248 379.917 26.9548 379.767 27.3661C379.621 27.774 379.548 28.2217 379.548 28.7093C379.548 29.2001 379.621 29.6495 379.767 30.0574C379.917 30.4653 380.144 30.792 380.449 31.0374C380.757 31.2828 381.145 31.4056 381.613 31.4056ZM391.671 29.3311V24.8588H393.163V32.5H391.7V31.1767H391.621C391.445 31.5846 391.163 31.9246 390.775 32.1965C390.39 32.4652 389.911 32.5995 389.337 32.5995C388.847 32.5995 388.412 32.4917 388.034 32.2761C387.659 32.0572 387.364 31.7339 387.149 31.3061C386.936 30.8782 386.83 30.3493 386.83 29.7191V24.8588H388.318V29.54C388.318 30.0607 388.462 30.4753 388.75 30.7837C389.039 31.0921 389.414 31.2464 389.875 31.2464C390.153 31.2464 390.43 31.1767 390.705 31.0374C390.984 30.8981 391.215 30.6875 391.397 30.4056C391.583 30.1237 391.674 29.7656 391.671 29.3311ZM395.162 32.5V24.8588H396.599V26.0726H396.679C396.818 25.6614 397.064 25.338 397.415 25.1026C397.77 24.8638 398.171 24.7444 398.619 24.7444C398.712 24.7444 398.821 24.7477 398.947 24.7543C399.077 24.761 399.178 24.7693 399.251 24.7792V26.202C399.191 26.1854 399.085 26.1672 398.932 26.1473C398.78 26.124 398.627 26.1124 398.475 26.1124C398.123 26.1124 397.81 26.1871 397.535 26.3363C397.263 26.4822 397.047 26.6862 396.888 26.9482C396.729 27.2069 396.649 27.502 396.649 27.8337V32.5H395.162Z" fill="#303048"/>
<rect x="500.989" y="15.5056" width="109.467" height="22.9889" rx="11.4944" fill="#F4E1E7"/>
<path d="M525.225 26.9999C525.225 30.5928 522.313 33.504 518.721 33.504C515.129 33.504 512.217 30.5928 512.217 26.9999C512.217 23.4091 515.129 20.4958 518.721 20.4958C522.313 20.4958 525.225 23.4091 525.225 26.9999ZM518.721 28.3112C518.055 28.3112 517.515 28.8513 517.515 29.5176C517.515 30.1839 518.055 30.724 518.721 30.724C519.387 30.724 519.928 30.1839 519.928 29.5176C519.928 28.8513 519.387 28.3112 518.721 28.3112ZM517.576 23.9748L517.77 27.5416C517.779 27.7085 517.917 27.8391 518.085 27.8391H519.358C519.525 27.8391 519.663 27.7085 519.672 27.5416L519.867 23.9748C519.876 23.7945 519.733 23.6429 519.552 23.6429H517.89C517.709 23.6429 517.566 23.7945 517.576 23.9748Z" fill="#CB6F8F"/>
<path d="M534.587 22.834H536.804V28.0653C536.804 28.6874 536.655 29.2256 536.357 29.6802C536.062 30.1321 535.65 30.4817 535.121 30.7289C534.592 30.9734 533.978 31.0957 533.279 31.0957C532.574 31.0957 531.958 30.9734 531.429 30.7289C530.9 30.4817 530.488 30.1321 530.193 29.6802C529.9 29.2256 529.754 28.6874 529.754 28.0653V22.834H531.971V27.874C531.971 28.1265 532.027 28.3524 532.139 28.5518C532.25 28.7485 532.404 28.9027 532.601 29.0143C532.8 29.126 533.026 29.1818 533.279 29.1818C533.534 29.1818 533.76 29.126 533.957 29.0143C534.153 28.9027 534.308 28.7485 534.419 28.5518C534.531 28.3524 534.587 28.1265 534.587 27.874V22.834ZM540.259 27.555V31H538.058V24.8755H540.147V26.0398H540.211C540.344 25.6517 540.578 25.3473 540.913 25.1267C541.25 24.9061 541.644 24.7958 542.093 24.7958C542.526 24.7958 542.902 24.8954 543.221 25.0948C543.543 25.2915 543.791 25.5626 543.967 25.9082C544.145 26.2538 544.233 26.6485 544.23 27.0924V31H542.029V27.555C542.032 27.2519 541.955 27.014 541.798 26.8412C541.644 26.6685 541.428 26.5821 541.152 26.5821C540.971 26.5821 540.813 26.6219 540.677 26.7017C540.544 26.7788 540.442 26.8904 540.37 27.0366C540.298 27.1802 540.261 27.3529 540.259 27.555ZM545.485 31V24.8755H547.574V26.0398H547.638C547.766 25.657 547.984 25.354 548.292 25.1307C548.6 24.9074 548.967 24.7958 549.393 24.7958C549.823 24.7958 550.194 24.9101 550.505 25.1387C550.816 25.3646 551.003 25.665 551.067 26.0398H551.131C551.235 25.665 551.455 25.3646 551.793 25.1387C552.13 24.9101 552.527 24.7958 552.981 24.7958C553.569 24.7958 554.044 24.9845 554.409 25.362C554.775 25.7394 554.959 26.2418 554.959 26.8692V31H552.758V27.4274C552.758 27.1589 552.69 26.9489 552.554 26.7974C552.419 26.6432 552.237 26.5661 552.008 26.5661C551.782 26.5661 551.603 26.6432 551.47 26.7974C551.34 26.9489 551.275 27.1589 551.275 27.4274V31H549.169V27.4274C549.169 27.1589 549.101 26.9489 548.966 26.7974C548.83 26.6432 548.648 26.5661 548.42 26.5661C548.268 26.5661 548.138 26.6007 548.029 26.6698C547.92 26.7389 547.835 26.8386 547.774 26.9688C547.715 27.0964 547.686 27.2493 547.686 27.4274V31H545.485ZM557.919 31.0957C557.529 31.0957 557.183 31.0319 556.883 30.9043C556.585 30.7741 556.351 30.5773 556.181 30.3142C556.011 30.051 555.926 29.7161 555.926 29.3094C555.926 28.9744 555.983 28.6887 556.097 28.4521C556.211 28.2129 556.371 28.0175 556.576 27.866C556.78 27.7145 557.018 27.5988 557.289 27.5191C557.563 27.4393 557.858 27.3875 558.175 27.3636C558.517 27.337 558.793 27.3051 559 27.2679C559.21 27.228 559.361 27.1735 559.454 27.1044C559.547 27.0326 559.594 26.9383 559.594 26.8213V26.8054C559.594 26.6459 559.533 26.5236 559.411 26.4385C559.288 26.3535 559.131 26.3109 558.94 26.3109C558.73 26.3109 558.559 26.3574 558.426 26.4505C558.295 26.5409 558.217 26.6804 558.19 26.8692H556.165C556.191 26.497 556.31 26.1541 556.52 25.8404C556.732 25.5241 557.042 25.2716 557.449 25.0828C557.856 24.8914 558.363 24.7958 558.972 24.7958C559.411 24.7958 559.804 24.8476 560.152 24.9513C560.5 25.0523 560.797 25.1945 561.041 25.3779C561.286 25.5587 561.472 25.7713 561.6 26.0159C561.73 26.2578 561.795 26.5209 561.795 26.8054V31H559.738V30.1387H559.69C559.567 30.3673 559.419 30.5521 559.243 30.693C559.07 30.8339 558.872 30.9362 558.649 31C558.428 31.0638 558.185 31.0957 557.919 31.0957ZM558.637 29.7081C558.804 29.7081 558.961 29.6736 559.108 29.6044C559.256 29.5353 559.377 29.4356 559.47 29.3054C559.563 29.1751 559.61 29.017 559.61 28.8309V28.3205C559.551 28.3445 559.489 28.367 559.423 28.3883C559.359 28.4096 559.29 28.4295 559.215 28.4481C559.143 28.4667 559.066 28.484 558.984 28.5C558.904 28.5159 558.82 28.5305 558.733 28.5438C558.563 28.5704 558.423 28.6143 558.314 28.6754C558.208 28.7339 558.128 28.807 558.075 28.8947C558.024 28.9798 557.999 29.0755 557.999 29.1818C557.999 29.3519 558.059 29.4822 558.178 29.5725C558.298 29.6629 558.451 29.7081 558.637 29.7081ZM565.216 27.555V31H563.015V24.8755H565.104V26.0398H565.168C565.301 25.6517 565.535 25.3473 565.87 25.1267C566.208 24.9061 566.601 24.7958 567.05 24.7958C567.483 24.7958 567.86 24.8954 568.179 25.0948C568.5 25.2915 568.749 25.5626 568.924 25.9082C569.102 26.2538 569.19 26.6485 569.187 27.0924V31H566.986V27.555C566.989 27.2519 566.912 27.014 566.755 26.8412C566.601 26.6685 566.386 26.5821 566.109 26.5821C565.928 26.5821 565.77 26.6219 565.635 26.7017C565.502 26.7788 565.399 26.8904 565.328 27.0366C565.256 27.1802 565.219 27.3529 565.216 27.555ZM572.149 31.0957C571.758 31.0957 571.413 31.0319 571.112 30.9043C570.815 30.7741 570.581 30.5773 570.41 30.3142C570.24 30.051 570.155 29.7161 570.155 29.3094C570.155 28.9744 570.212 28.6887 570.327 28.4521C570.441 28.2129 570.601 28.0175 570.805 27.866C571.01 27.7145 571.248 27.5988 571.519 27.5191C571.793 27.4393 572.088 27.3875 572.404 27.3636C572.747 27.337 573.022 27.3051 573.229 27.2679C573.439 27.228 573.591 27.1735 573.684 27.1044C573.777 27.0326 573.824 26.9383 573.824 26.8213V26.8054C573.824 26.6459 573.762 26.5236 573.64 26.4385C573.518 26.3535 573.361 26.3109 573.17 26.3109C572.96 26.3109 572.788 26.3574 572.655 26.4505C572.525 26.5409 572.447 26.6804 572.42 26.8692H570.395C570.421 26.497 570.539 26.1541 570.749 25.8404C570.962 25.5241 571.272 25.2716 571.678 25.0828C572.085 24.8914 572.593 24.7958 573.202 24.7958C573.64 24.7958 574.034 24.8476 574.382 24.9513C574.73 25.0523 575.026 25.1945 575.271 25.3779C575.516 25.5587 575.702 25.7713 575.829 26.0159C575.959 26.2578 576.025 26.5209 576.025 26.8054V31H573.967V30.1387H573.919C573.797 30.3673 573.648 30.5521 573.473 30.693C573.3 30.8339 573.102 30.9362 572.879 31C572.658 31.0638 572.415 31.0957 572.149 31.0957ZM572.867 29.7081C573.034 29.7081 573.191 29.6736 573.337 29.6044C573.486 29.5353 573.607 29.4356 573.7 29.3054C573.793 29.1751 573.84 29.017 573.84 28.8309V28.3205C573.781 28.3445 573.719 28.367 573.652 28.3883C573.588 28.4096 573.519 28.4295 573.445 28.4481C573.373 28.4667 573.296 28.484 573.214 28.5C573.134 28.5159 573.05 28.5305 572.962 28.5438C572.792 28.5704 572.653 28.6143 572.544 28.6754C572.437 28.7339 572.358 28.807 572.304 28.8947C572.254 28.9798 572.229 29.0755 572.229 29.1818C572.229 29.3519 572.288 29.4822 572.408 29.5725C572.528 29.6629 572.681 29.7081 572.867 29.7081ZM580.195 33.4243C579.581 33.4243 579.055 33.3366 578.616 33.1611C578.18 32.9883 577.841 32.7491 577.6 32.4434C577.36 32.1404 577.226 31.7921 577.197 31.3987H579.318C579.339 31.529 579.392 31.634 579.478 31.7137C579.563 31.7935 579.672 31.8506 579.805 31.8852C579.94 31.9224 580.092 31.941 580.259 31.941C580.543 31.941 580.779 31.8719 580.965 31.7337C581.154 31.5954 581.248 31.3456 581.248 30.9841V29.9474H581.184C581.104 30.1547 580.982 30.3315 580.817 30.4777C580.652 30.6212 580.454 30.7315 580.223 30.8086C579.992 30.883 579.738 30.9203 579.462 30.9203C579.026 30.9203 578.624 30.8192 578.257 30.6172C577.893 30.4152 577.601 30.0949 577.38 29.6563C577.162 29.2177 577.053 28.6448 577.053 27.9377C577.053 27.1988 577.168 26.598 577.396 26.1355C577.627 25.673 577.925 25.334 578.289 25.1187C578.656 24.9034 579.042 24.7958 579.446 24.7958C579.749 24.7958 580.015 24.8489 580.243 24.9552C580.472 25.0589 580.663 25.1985 580.817 25.3739C580.971 25.5467 581.088 25.7368 581.168 25.9441H581.216V24.8755H583.417V30.9841C583.417 31.5024 583.283 31.9423 583.014 32.3038C582.748 32.668 582.374 32.9458 581.89 33.1372C581.406 33.3286 580.841 33.4243 580.195 33.4243ZM580.275 29.3572C580.477 29.3572 580.65 29.3014 580.793 29.1898C580.94 29.0755 581.051 28.9133 581.128 28.7033C581.208 28.4907 581.248 28.2355 581.248 27.9377C581.248 27.6347 581.208 27.3755 581.128 27.1602C581.051 26.9423 580.94 26.7761 580.793 26.6618C580.65 26.5449 580.477 26.4864 580.275 26.4864C580.073 26.4864 579.9 26.5449 579.757 26.6618C579.616 26.7761 579.507 26.9423 579.43 27.1602C579.355 27.3755 579.318 27.6347 579.318 27.9377C579.318 28.2408 579.355 28.4986 579.43 28.7113C579.507 28.9213 579.616 29.0821 579.757 29.1938C579.9 29.3027 580.073 29.3572 580.275 29.3572ZM587.64 31.1116C586.986 31.1116 586.422 30.9867 585.949 30.7368C585.478 30.4843 585.116 30.1228 584.86 29.6523C584.608 29.1791 584.482 28.6129 584.482 27.9537C584.482 27.321 584.609 26.7681 584.864 26.295C585.12 25.8218 585.48 25.4537 585.945 25.1905C586.41 24.9273 586.959 24.7958 587.592 24.7958C588.054 24.7958 588.473 24.8675 588.848 25.0111C589.222 25.1546 589.543 25.3633 589.809 25.6371C590.074 25.9082 590.279 26.2378 590.423 26.6259C590.566 27.014 590.638 27.4513 590.638 27.9377V28.4481H585.167V27.236H588.612C588.61 27.0605 588.565 26.9064 588.477 26.7735C588.392 26.6379 588.276 26.5329 588.13 26.4585C587.986 26.3814 587.823 26.3428 587.64 26.3428C587.461 26.3428 587.298 26.3814 587.149 26.4585C587 26.5329 586.881 26.6366 586.79 26.7695C586.703 26.9024 586.656 27.0579 586.651 27.236V28.5438C586.651 28.7405 586.692 28.916 586.774 29.0701C586.857 29.2243 586.975 29.3453 587.129 29.433C587.283 29.5207 587.469 29.5646 587.687 29.5646C587.839 29.5646 587.977 29.5433 588.102 29.5008C588.23 29.4582 588.339 29.3971 588.429 29.3174C588.519 29.235 588.586 29.1366 588.628 29.0223H590.638C590.569 29.4476 590.405 29.8171 590.148 30.1308C589.89 30.4418 589.548 30.6837 589.123 30.8565C588.7 31.0266 588.206 31.1116 587.64 31.1116ZM593.921 31.0797C593.486 31.0797 593.084 30.9654 592.717 30.7368C592.353 30.5082 592.061 30.1613 591.84 29.6962C591.622 29.231 591.513 28.6448 591.513 27.9377C591.513 27.1988 591.627 26.598 591.856 26.1355C592.087 25.673 592.385 25.334 592.749 25.1187C593.116 24.9034 593.501 24.7958 593.906 24.7958C594.209 24.7958 594.474 24.8489 594.703 24.9552C594.932 25.0589 595.123 25.1985 595.277 25.3739C595.431 25.5467 595.548 25.7368 595.628 25.9441H595.66V22.834H597.861V31H595.676V29.9952H595.628C595.543 30.2025 595.421 30.3886 595.261 30.5534C595.104 30.7156 594.913 30.8445 594.687 30.9402C594.464 31.0332 594.209 31.0797 593.921 31.0797ZM594.735 29.3891C594.937 29.3891 595.11 29.3306 595.253 29.2137C595.399 29.0941 595.511 28.9266 595.588 28.7113C595.668 28.4933 595.708 28.2355 595.708 27.9377C595.708 27.6347 595.668 27.3755 595.588 27.1602C595.511 26.9423 595.399 26.7761 595.253 26.6618C595.11 26.5449 594.937 26.4864 594.735 26.4864C594.533 26.4864 594.36 26.5449 594.217 26.6618C594.076 26.7761 593.967 26.9423 593.89 27.1602C593.815 27.3755 593.778 27.6347 593.778 27.9377C593.778 28.2408 593.815 28.5013 593.89 28.7193C593.967 28.9346 594.076 29.1007 594.217 29.2177C594.36 29.332 594.533 29.3891 594.735 29.3891Z" fill="#CB6F8F"/>
<rect x="679.086" y="12.0305" width="29.9389" height="29.9389" rx="14.9695" fill="#6E01FB"/>
<path d="M687.799 31.0305V22.6527H693.051V23.7409H689.063V26.2935H692.777V27.3775H689.063V29.9424H693.1V31.0305H687.799ZM699.309 24.8535C699.266 24.4663 699.086 24.1663 698.769 23.9536C698.453 23.7381 698.055 23.6304 697.575 23.6304C697.231 23.6304 696.934 23.685 696.683 23.794C696.432 23.9004 696.237 24.0477 696.098 24.2358C695.962 24.4213 695.893 24.6326 695.893 24.8699C695.893 25.069 695.94 25.2408 696.032 25.3853C696.128 25.5299 696.252 25.6512 696.405 25.7494C696.56 25.8449 696.727 25.9253 696.904 25.9908C697.081 26.0535 697.252 26.1053 697.415 26.1462L698.233 26.3589C698.501 26.4244 698.775 26.513 699.056 26.6248C699.336 26.7366 699.597 26.8839 699.837 27.0666C700.077 27.2494 700.27 27.4757 700.418 27.7457C700.568 28.0157 700.643 28.3388 700.643 28.7152C700.643 29.1897 700.52 29.6111 700.275 29.9792C700.032 30.3474 699.679 30.6378 699.215 30.8506C698.754 31.0633 698.196 31.1696 697.542 31.1696C696.915 31.1696 696.372 31.0701 695.914 30.871C695.456 30.6719 695.097 30.3897 694.838 30.0242C694.579 29.6561 694.436 29.2197 694.408 28.7152H695.677C695.701 29.0179 695.799 29.2702 695.971 29.472C696.146 29.6711 696.368 29.8197 696.638 29.9179C696.911 30.0133 697.209 30.061 697.534 30.061C697.891 30.061 698.209 30.0051 698.487 29.8933C698.768 29.7788 698.989 29.6206 699.15 29.4188C699.311 29.2143 699.391 28.9756 699.391 28.7029C699.391 28.4548 699.32 28.2516 699.178 28.0934C699.039 27.9352 698.85 27.8043 698.61 27.7007C698.372 27.5971 698.104 27.5057 697.804 27.4266L696.814 27.1566C696.143 26.9739 695.611 26.7053 695.218 26.3508C694.828 25.9962 694.633 25.5272 694.633 24.9435C694.633 24.4608 694.764 24.0395 695.026 23.6795C695.288 23.3195 695.643 23.04 696.09 22.8409C696.537 22.6391 697.042 22.5382 697.603 22.5382C698.171 22.5382 698.671 22.6377 699.105 22.8368C699.541 23.0359 699.885 23.31 700.135 23.6591C700.386 24.0054 700.517 24.4036 700.528 24.8535H699.309Z" fill="white"/>
<rect x="0.5" y="0.5" width="808" height="53" stroke="#B9A4FF"/>
<defs>
<clipPath id="clip0_726_6353">
<rect width="21.2089" height="12.4758" fill="white" transform="translate(36 20.7621)"/>
</clipPath>
</defs>
</svg>
